M48
;DRILL file {KiCad 4.0.4+dfsg1-stable} date Tue Jan  3 20:31:01 2017
;FORMAT={-:-/ absolute / inch / decimal}
FMAT,2
INCH,TZ
T1C0.012
T2C0.024
T3C0.026
T4C0.040
T5C0.118
%
G90
G05
M72
T1
X1.7106Y-1.7889
X1.8209Y-1.7106
X1.8264Y-1.9272
X1.8384Y-2.0673
X1.8457Y-1.9854
X1.8469Y-2.3539
X1.8484Y-1.7874
X1.8559Y-2.2921
X1.8563Y-2.1161
X1.8752Y-1.6788
X1.878Y-1.8465
X1.8957Y-1.8219
X1.8969Y-2.2376
X1.9055Y-1.5197
X1.9114Y-1.797
X1.9173Y-2.4114
X1.9203Y-2.2746
X1.93Y-1.9517
X1.9378Y-1.9878
X1.9404Y-2.1102
X1.942Y-2.0564
X1.9429Y-2.0256
X1.9449Y-2.5413
X1.9469Y-2.189
X1.9488Y-2.4193
X1.95Y-1.7
X1.9508Y-2.136
X1.9532Y-2.2536
X1.9553Y-2.3308
X1.9557Y-2.303
X1.9561Y-2.3606
X1.9647Y-1.902
X1.9728Y-2.6
X1.9803Y-2.4153
X2.Y-2.0925
X2.0004Y-2.1583
X2.0079Y-1.7579
X2.0118Y-1.5787
X2.0249Y-1.9836
X2.0307Y-2.6094
X2.0342Y-2.3805
X2.0443Y-1.9567
X2.0449Y-2.4071
X2.047Y-2.5764
X2.05Y-2.1806
X2.0502Y-1.9242
X2.0787Y-2.0394
X2.0886Y-1.7953
X2.0925Y-2.5492
X2.0984Y-1.8327
X2.0992Y-2.6062
X2.1004Y-1.6945
X2.1043Y-1.6165
X2.1063Y-1.5187
X2.1075Y-1.6673
X2.1142Y-2.0413
X2.1196Y-2.2487
X2.122Y-1.7598
X2.1255Y-2.1215
X2.1385Y-2.2918
X2.143Y-2.2642
X2.1488Y-2.4079
X2.155Y-2.151
X2.1593Y-2.3652
X2.1625Y-1.7069
X2.1634Y-2.0197
X2.1649Y-2.2835
X2.1673Y-1.9252
X2.1805Y-2.3473
X2.1827Y-2.1629
X2.1866Y-2.2655
X2.1868Y-2.2306
X2.1878Y-2.6268
X2.195Y-2.5613
X2.2016Y-2.3263
X2.2023Y-2.1826
X2.2041Y-2.0198
X2.2168Y-2.5434
X2.2194Y-2.4738
X2.2211Y-1.5462
X2.2238Y-1.6256
X2.2238Y-2.2405
X2.2251Y-1.6976
X2.2289Y-1.5983
X2.2336Y-1.8132
X2.2429Y-1.9165
X2.2446Y-2.5438
X2.247Y-1.8494
X2.2488Y-1.9454
X2.2489Y-2.2524
X2.251Y-2.0157
X2.254Y-1.6945
X2.2552Y-2.6467
X2.2603Y-2.4665
X2.2612Y-1.8154
X2.2821Y-2.1587
X2.2925Y-1.9776
X2.2937Y-2.548
X2.2967Y-2.1823
X2.3005Y-2.3348
X2.302Y-1.8096
X2.309Y-2.3083
X2.3146Y-1.6592
X2.3171Y-2.4691
X2.3191Y-2.0913
X2.3201Y-2.539
X2.3209Y-1.7165
X2.3229Y-1.7689
X2.3396Y-1.8096
X2.3596Y-2.3843
X2.3718Y-2.1312
X2.3738Y-2.4714
X2.3781Y-2.0079
X2.3815Y-2.5429
X2.3827Y-1.9504
X2.3878Y-1.7732
X2.3887Y-1.8558
X2.3985Y-2.1386
X2.4016Y-2.4693
X2.4055Y-2.4248
X2.4114Y-1.6673
X2.4121Y-1.9102
X2.4122Y-1.8091
X2.4157Y-1.7337
X2.4169Y-2.5453
X2.4195Y-2.3544
X2.4264Y-2.1732
X2.4405Y-2.098
X2.4505Y-2.202
X2.456Y-1.8316
X2.4583Y-2.445
X2.4613Y-2.3443
X2.469Y-1.9672
X2.4797Y-2.1658
X2.4797Y-2.2018
X2.4807Y-2.5972
X2.4831Y-2.535
X2.4859Y-2.2468
X2.4911Y-1.5217
X2.4964Y-2.3708
X2.5032Y-1.7837
X2.5098Y-1.8592
X2.514Y-1.8318
X2.5219Y-2.021
X2.528Y-1.9366
X2.5345Y-2.0644
X2.5496Y-2.0233
X2.551Y-2.6007
X2.5608Y-1.8328
X2.5651Y-1.8602
X2.5768Y-2.1732
X2.5799Y-1.7883
X2.5928Y-1.8623
X2.5945Y-2.1024
X2.5967Y-1.8898
X2.6045Y-1.9627
X2.6077Y-1.9903
X2.6126Y-2.5897
X2.613Y-2.5445
X2.6299Y-2.2028
X2.6332Y-2.4235
X2.6378Y-1.9311
X2.643Y-1.8117
X2.6457Y-2.3012
X2.6555Y-2.2687
X2.6594Y-2.061
X2.6618Y-1.8429
X2.7185Y-2.0118
X2.7201Y-1.9051
X2.7244Y-1.9744
X2.7264Y-1.9447
X2.7421Y-2.3012
X2.7772Y-2.2744
X2.7953Y-1.8406
X2.7996Y-1.802
X2.8051Y-1.7667
T4
X1.535Y-1.7725
X1.535Y-1.8725
X1.535Y-1.9725
X1.535Y-2.0725
X1.535Y-2.1725
X1.535Y-2.2725
X1.535Y-2.3725
X1.535Y-2.4725
X1.535Y-2.5725
X1.635Y-1.8725
X1.635Y-1.9725
X1.635Y-2.0725
X1.635Y-2.1725
X1.635Y-2.2725
X1.635Y-2.3725
X1.635Y-2.4725
X1.635Y-2.5725
X1.775Y-1.535
X1.775Y-1.63
X1.78Y-2.02
X1.78Y-2.12
X1.78Y-2.22
X1.78Y-2.32
X1.78Y-2.42
X1.78Y-2.52
X1.78Y-2.62
X1.78Y-2.72
X1.78Y-2.82
X1.88Y-2.72
X1.88Y-2.82
X1.98Y-2.72
X1.98Y-2.82
X2.08Y-2.72
X2.08Y-2.82
X2.18Y-2.72
X2.18Y-2.82
X2.28Y-2.72
X2.28Y-2.82
X2.38Y-2.72
X2.38Y-2.82
X2.48Y-2.72
X2.48Y-2.82
X2.575Y-1.535
X2.575Y-1.635
X2.575Y-1.735
X2.58Y-2.72
X2.58Y-2.82
X2.8075Y-1.92
X2.8075Y-2.02
X2.8075Y-2.12
T5
X1.5748Y-1.5748
X1.5748Y-2.7756
X2.7756Y-1.5748
X2.7756Y-2.7756
T2
X2.8222Y-2.3322G85X2.8478Y-2.3322
G05
X2.8222Y-2.6078G85X2.8478Y-2.6078
G05
T3
X2.7287Y-2.3775G85X2.7287Y-2.3657
G05
X2.7287Y-2.5743G85X2.7287Y-2.5625
G05
T0
M30
