G04 #@! TF.FileFunction,Soldermask,Top*
%FSLAX46Y46*%
G04 Gerber Fmt 4.6, Leading zero omitted, Abs format (unit mm)*
G04 Created by KiCad (PCBNEW 4.0.4+dfsg1-stable) date Tue Jan  3 20:31:21 2017*
%MOMM*%
%LPD*%
G01*
G04 APERTURE LIST*
%ADD10C,0.100000*%
%ADD11R,0.400000X0.700000*%
%ADD12R,0.700000X0.400000*%
%ADD13R,0.600000X0.400000*%
%ADD14R,1.200000X1.800000*%
%ADD15C,2.400000*%
%ADD16R,0.750000X0.450000*%
%ADD17R,0.875000X1.300000*%
%ADD18R,1.900000X1.850000*%
%ADD19O,1.900000X1.850000*%
%ADD20R,0.600000X0.700000*%
%ADD21R,0.700000X0.600000*%
%ADD22R,0.897560X0.897560*%
%ADD23C,3.100000*%
%ADD24R,1.350000X1.100000*%
%ADD25R,0.700000X0.500000*%
%ADD26R,0.500000X0.700000*%
%ADD27R,1.550000X0.550000*%
%ADD28R,0.608000X0.404800*%
%ADD29R,0.404800X0.608000*%
%ADD30R,0.800000X0.700000*%
%ADD31R,1.100760X0.699440*%
%ADD32R,1.650000X0.700000*%
%ADD33R,1.900000X0.900000*%
%ADD34R,1.850000X1.900000*%
%ADD35O,1.850000X1.900000*%
%ADD36R,0.900000X0.350000*%
%ADD37R,0.350000X0.900000*%
%ADD38R,0.800000X0.350000*%
%ADD39R,0.350000X0.800000*%
%ADD40R,0.700000X0.370000*%
%ADD41R,0.600000X1.350000*%
%ADD42R,0.370000X0.700000*%
%ADD43R,1.350000X0.600000*%
%ADD44R,1.100000X0.350000*%
%ADD45R,0.350000X1.100000*%
%ADD46R,1.650000X1.600000*%
%ADD47R,1.650000X1.175000*%
%ADD48O,1.650000X1.000000*%
%ADD49O,1.150000X1.500000*%
%ADD50R,1.450000X0.500000*%
%ADD51R,0.575000X0.400000*%
%ADD52R,0.625000X0.400000*%
%ADD53R,0.400000X0.625000*%
G04 APERTURE END LIST*
D10*
D11*
X56350000Y-66450000D03*
X57350000Y-66450000D03*
X56850000Y-66450000D03*
X57850000Y-66450000D03*
X56850000Y-65350000D03*
X56350000Y-65350000D03*
X57350000Y-65350000D03*
X57850000Y-65350000D03*
X59200000Y-66450000D03*
X60200000Y-66450000D03*
X59700000Y-66450000D03*
X60700000Y-66450000D03*
X59700000Y-65350000D03*
X59200000Y-65350000D03*
X60200000Y-65350000D03*
X60700000Y-65350000D03*
D12*
X48775000Y-55625000D03*
X48775000Y-54625000D03*
X48775000Y-55125000D03*
X48775000Y-54125000D03*
X47675000Y-55125000D03*
X47675000Y-55625000D03*
X47675000Y-54625000D03*
X47675000Y-54125000D03*
X47600000Y-50975000D03*
X47600000Y-51975000D03*
X47600000Y-51475000D03*
D13*
X47650000Y-52475000D03*
D12*
X48700000Y-51475000D03*
X48700000Y-50975000D03*
X48700000Y-51975000D03*
D13*
X48650000Y-52475000D03*
D14*
X47574000Y-48982000D03*
X47574000Y-43982000D03*
X44374000Y-48982000D03*
X44374000Y-43982000D03*
D15*
X43100000Y-67700000D03*
D16*
X52337500Y-47575000D03*
X52337500Y-46925000D03*
X52337500Y-46275000D03*
X52337500Y-45625000D03*
X49237500Y-45625000D03*
X49237500Y-46275000D03*
X49237500Y-46925000D03*
X49237500Y-47575000D03*
D17*
X50400000Y-46000000D03*
X50400000Y-47200000D03*
X51175000Y-46000000D03*
X51175000Y-47200000D03*
D18*
X45212000Y-61468000D03*
D19*
X45212000Y-58928000D03*
X45212000Y-56388000D03*
X45212000Y-53848000D03*
X45212000Y-51308000D03*
D20*
X47625000Y-38502500D03*
X47625000Y-39602500D03*
X66800000Y-54190000D03*
X66800000Y-55290000D03*
X62150000Y-65130000D03*
X62150000Y-66230000D03*
D21*
X41471760Y-45110400D03*
X42571760Y-45110400D03*
X50000000Y-49700000D03*
X51100000Y-49700000D03*
D20*
X68200000Y-57800000D03*
X68200000Y-56700000D03*
D21*
X53900000Y-44000000D03*
X55000000Y-44000000D03*
X49259400Y-43950000D03*
X50359400Y-43950000D03*
X60600000Y-42350000D03*
X59500000Y-42350000D03*
D20*
X60050000Y-43950000D03*
X60050000Y-45050000D03*
D21*
X56950000Y-42375000D03*
X58050000Y-42375000D03*
D20*
X50150000Y-54250000D03*
X50150000Y-53150000D03*
X51425000Y-54250000D03*
X51425000Y-53150000D03*
D21*
X50275000Y-55575000D03*
X51375000Y-55575000D03*
X65500000Y-50650000D03*
X64400000Y-50650000D03*
D20*
X63700000Y-65140000D03*
X63700000Y-66240000D03*
D21*
X55150000Y-65150000D03*
X54050000Y-65150000D03*
D20*
X65600000Y-65150000D03*
X65600000Y-66250000D03*
X65140000Y-49170000D03*
X65140000Y-48070000D03*
X68350000Y-51800000D03*
X68350000Y-52900000D03*
X51100000Y-61550000D03*
X51100000Y-60450000D03*
D21*
X67020000Y-48390000D03*
X68120000Y-48390000D03*
D20*
X49400000Y-66500000D03*
X49400000Y-65400000D03*
X66802000Y-57700000D03*
X66802000Y-56600000D03*
X56450000Y-47000000D03*
X56450000Y-48100000D03*
D21*
X54800000Y-50650000D03*
X55900000Y-50650000D03*
D20*
X66780000Y-52880000D03*
X66780000Y-51780000D03*
D21*
X63100000Y-50650000D03*
X62000000Y-50650000D03*
D20*
X71870000Y-44840000D03*
X71870000Y-45940000D03*
D22*
X71500000Y-56451400D03*
X71500000Y-57950000D03*
D23*
X70500000Y-40000000D03*
X70500000Y-70500000D03*
X40000000Y-40000000D03*
X40000000Y-70500000D03*
D24*
X54700000Y-47700000D03*
X54700000Y-45700000D03*
D25*
X47625000Y-40825000D03*
X47625000Y-41725000D03*
D26*
X52520000Y-43992800D03*
X51620000Y-43992800D03*
X54900000Y-66500000D03*
X54000000Y-66500000D03*
X62921300Y-45525000D03*
X62021300Y-45525000D03*
X62950000Y-44050000D03*
X62050000Y-44050000D03*
X41774960Y-43809920D03*
X42674960Y-43809920D03*
X62900000Y-42400000D03*
X62000000Y-42400000D03*
D25*
X69700000Y-57800000D03*
X69700000Y-56900000D03*
X51200000Y-63050000D03*
X51200000Y-63950000D03*
D26*
X67550000Y-63800000D03*
X66650000Y-63800000D03*
X67550000Y-62350000D03*
X66650000Y-62350000D03*
D25*
X50050000Y-51000000D03*
X50050000Y-51900000D03*
X51425000Y-51000000D03*
X51425000Y-51900000D03*
D26*
X65750000Y-46650000D03*
X66650000Y-46650000D03*
D27*
X57575000Y-38650000D03*
X57575000Y-39300000D03*
X57575000Y-39950000D03*
X57575000Y-40600000D03*
X61975000Y-40600000D03*
X61975000Y-39950000D03*
X61975000Y-39300000D03*
X61975000Y-38650000D03*
D28*
X52682000Y-66700000D03*
X52682000Y-65430000D03*
X50650000Y-66700000D03*
X52682000Y-66065000D03*
X50650000Y-65430000D03*
D29*
X52625000Y-51086000D03*
X53895000Y-51086000D03*
X52625000Y-49054000D03*
X53260000Y-51086000D03*
X53895000Y-49054000D03*
D30*
X47850000Y-66550000D03*
X47850000Y-65150000D03*
X67200000Y-65150000D03*
X67200000Y-66550000D03*
D31*
X49700000Y-62424520D03*
X49700000Y-63725000D03*
X47800080Y-63074760D03*
D32*
X55050000Y-42375000D03*
X55050000Y-41105000D03*
X55050000Y-39835000D03*
X55050000Y-38565000D03*
X49650000Y-38565000D03*
X49650000Y-39835000D03*
X49650000Y-41105000D03*
X49650000Y-42375000D03*
D33*
X50950000Y-59250000D03*
X50950000Y-58050000D03*
X50950000Y-56850000D03*
D34*
X45212000Y-71628000D03*
X47752000Y-71628000D03*
X50292000Y-71628000D03*
X52832000Y-71628000D03*
X55372000Y-71628000D03*
X57912000Y-71628000D03*
X60452000Y-71628000D03*
X62992000Y-71628000D03*
X65532000Y-71628000D03*
D35*
X45212000Y-69088000D03*
X47752000Y-69088000D03*
X50292000Y-69088000D03*
X52832000Y-69088000D03*
X55372000Y-69088000D03*
X57912000Y-69088000D03*
X60452000Y-69088000D03*
X62992000Y-69088000D03*
X65532000Y-69088000D03*
D18*
X45085000Y-38989000D03*
D19*
X45085000Y-41402000D03*
X45212000Y-66548000D03*
X45212000Y-64008000D03*
X41529000Y-50101500D03*
X41529000Y-47561500D03*
D18*
X71310500Y-53848000D03*
D19*
X71310500Y-51308000D03*
X71310500Y-48768000D03*
D18*
X38989000Y-50101500D03*
D19*
X38989000Y-47561500D03*
X38989000Y-45021500D03*
D18*
X65405000Y-38989000D03*
D19*
X65405000Y-41529000D03*
X65405000Y-44069000D03*
D18*
X38989000Y-65341500D03*
D19*
X38989000Y-62801500D03*
X38989000Y-60261500D03*
X38989000Y-57721500D03*
X38989000Y-55181500D03*
X38989000Y-52641500D03*
D18*
X41529000Y-65341500D03*
D19*
X41529000Y-62801500D03*
X41529000Y-60261500D03*
X41529000Y-57721500D03*
X41529000Y-55181500D03*
X41529000Y-52641500D03*
D36*
X59830000Y-48600000D03*
X59830000Y-48100000D03*
X59830000Y-47600000D03*
D37*
X58050000Y-49400000D03*
X58550000Y-49400000D03*
X59050000Y-49400000D03*
X59550000Y-49400000D03*
D36*
X57770000Y-48600000D03*
X57770000Y-48100000D03*
X57770000Y-47600000D03*
D37*
X58050000Y-46800000D03*
X58550000Y-46800000D03*
X59050000Y-46800000D03*
X59550000Y-46800000D03*
D16*
X68575000Y-46175000D03*
X70225000Y-46175000D03*
X68575000Y-45525000D03*
X70225000Y-45525000D03*
X68575000Y-44875000D03*
X70225000Y-44875000D03*
X68575000Y-44225000D03*
X70225000Y-44225000D03*
D38*
X58353200Y-44550000D03*
X56353200Y-44550000D03*
D39*
X56603200Y-43850000D03*
X57103200Y-43850000D03*
X57603200Y-43850000D03*
X58103200Y-43850000D03*
X58103200Y-45250000D03*
X57603200Y-45250000D03*
X57103200Y-45250000D03*
X56603200Y-45250000D03*
D40*
X66900000Y-50600000D03*
X68450000Y-50600000D03*
X66900000Y-50100000D03*
X68450000Y-50100000D03*
X66900000Y-49600000D03*
X68450000Y-49600000D03*
D41*
X67675000Y-50100000D03*
D42*
X67600000Y-60775000D03*
X67600000Y-59225000D03*
X67100000Y-60775000D03*
X67100000Y-59225000D03*
X66600000Y-60775000D03*
X66600000Y-59225000D03*
D43*
X67100000Y-60000000D03*
D15*
X67900000Y-39000000D03*
D44*
X53000000Y-54200100D03*
X53000000Y-54700100D03*
X53000000Y-55200100D03*
X53000000Y-55700100D03*
X53000000Y-56200100D03*
X53000000Y-56700100D03*
X53000000Y-57200100D03*
X53000000Y-57700100D03*
X53000000Y-58200100D03*
X53000000Y-58700100D03*
X53000000Y-59200100D03*
X53000000Y-59700100D03*
X53000000Y-60200100D03*
X53000000Y-60700100D03*
X53000000Y-61200100D03*
X53000000Y-61700100D03*
D45*
X54950000Y-63650100D03*
X55450000Y-63650100D03*
X55950000Y-63650100D03*
X56450000Y-63650100D03*
X56950000Y-63650100D03*
X57450000Y-63650100D03*
X57950000Y-63650100D03*
X58450000Y-63650100D03*
X58950000Y-63650100D03*
X59450000Y-63650100D03*
X59950000Y-63650100D03*
X60450000Y-63650100D03*
X60950000Y-63650100D03*
X61450000Y-63650100D03*
X61950000Y-63650100D03*
X62450000Y-63650100D03*
D44*
X64400000Y-61700100D03*
X64400000Y-61200100D03*
X64400000Y-60700100D03*
X64400000Y-60200100D03*
X64400000Y-59700100D03*
X64400000Y-59200100D03*
X64400000Y-58700100D03*
X64400000Y-58200100D03*
X64400000Y-57700100D03*
X64400000Y-57200100D03*
X64400000Y-56700100D03*
X64400000Y-56200100D03*
X64400000Y-55700100D03*
X64400000Y-55200100D03*
X64400000Y-54700100D03*
X64400000Y-54200100D03*
D45*
X62450000Y-52250100D03*
X61950000Y-52250100D03*
X61450000Y-52250100D03*
X60950000Y-52250100D03*
X60450000Y-52250100D03*
X59950000Y-52250100D03*
X59450000Y-52250100D03*
X58950000Y-52250100D03*
X58450000Y-52250100D03*
X57950000Y-52250100D03*
X57450000Y-52250100D03*
X56950000Y-52250100D03*
X56450000Y-52250100D03*
X55950000Y-52250100D03*
X55450000Y-52250100D03*
X54950000Y-52250100D03*
D46*
X72009000Y-61738000D03*
X72009000Y-63738000D03*
D47*
X72009000Y-59838000D03*
D48*
X72009000Y-59238000D03*
X72009000Y-66238000D03*
D49*
X69309000Y-60238000D03*
D50*
X69309000Y-61438000D03*
X69309000Y-62088000D03*
X69309000Y-62738000D03*
X69309000Y-63388000D03*
X69309000Y-64038000D03*
D49*
X69309000Y-65238000D03*
D47*
X72009000Y-65638000D03*
D51*
X63470000Y-47850000D03*
D52*
X63455000Y-48350000D03*
X63455000Y-48850000D03*
D51*
X63470000Y-49350000D03*
D53*
X62900000Y-47795000D03*
X62400000Y-49405000D03*
X62900000Y-49405000D03*
X62400000Y-47795000D03*
D51*
X61830000Y-49350000D03*
D52*
X61845000Y-48850000D03*
X61845000Y-48350000D03*
D51*
X61830000Y-47850000D03*
D12*
X47850000Y-58600000D03*
X47850000Y-59600000D03*
X47850000Y-59100000D03*
X47850000Y-60100000D03*
X48950000Y-59100000D03*
X48950000Y-58600000D03*
X48950000Y-59600000D03*
X48950000Y-60100000D03*
M02*
