G04 #@! TF.FileFunction,Legend,Bot*
%FSLAX46Y46*%
G04 Gerber Fmt 4.6, Leading zero omitted, Abs format (unit mm)*
G04 Created by KiCad (PCBNEW 4.0.4+dfsg1-stable) date Tue Jan  3 20:31:21 2017*
%MOMM*%
%LPD*%
G01*
G04 APERTURE LIST*
%ADD10C,0.100000*%
%ADD11C,0.150000*%
%ADD12C,0.175000*%
%ADD13C,0.010000*%
G04 APERTURE END LIST*
D10*
D11*
X66113095Y-56735715D02*
X66144048Y-56821429D01*
X66144048Y-56964286D01*
X66113095Y-57021429D01*
X66082143Y-57050000D01*
X66020238Y-57078572D01*
X65958333Y-57078572D01*
X65896429Y-57050000D01*
X65865476Y-57021429D01*
X65834524Y-56964286D01*
X65803571Y-56850000D01*
X65772619Y-56792858D01*
X65741667Y-56764286D01*
X65679762Y-56735715D01*
X65617857Y-56735715D01*
X65555952Y-56764286D01*
X65525000Y-56792858D01*
X65494048Y-56850000D01*
X65494048Y-56992858D01*
X65525000Y-57078572D01*
X65494048Y-57278572D02*
X66144048Y-57421429D01*
X65679762Y-57535715D01*
X66144048Y-57650001D01*
X65494048Y-57792858D01*
X66144048Y-58021429D02*
X65494048Y-58021429D01*
X65494048Y-58164286D01*
X65525000Y-58250001D01*
X65586905Y-58307143D01*
X65648810Y-58335715D01*
X65772619Y-58364286D01*
X65865476Y-58364286D01*
X65989286Y-58335715D01*
X66051190Y-58307143D01*
X66113095Y-58250001D01*
X66144048Y-58164286D01*
X66144048Y-58021429D01*
X58003571Y-56160001D02*
X58034524Y-56260001D01*
X58065476Y-56293334D01*
X58127381Y-56326668D01*
X58220238Y-56326668D01*
X58282143Y-56293334D01*
X58313095Y-56260001D01*
X58344048Y-56193334D01*
X58344048Y-55926668D01*
X57694048Y-55926668D01*
X57694048Y-56160001D01*
X57725000Y-56226668D01*
X57755952Y-56260001D01*
X57817857Y-56293334D01*
X57879762Y-56293334D01*
X57941667Y-56260001D01*
X57972619Y-56226668D01*
X58003571Y-56160001D01*
X58003571Y-55926668D01*
X57694048Y-56760001D02*
X57694048Y-56893334D01*
X57725000Y-56960001D01*
X57786905Y-57026668D01*
X57910714Y-57060001D01*
X58127381Y-57060001D01*
X58251190Y-57026668D01*
X58313095Y-56960001D01*
X58344048Y-56893334D01*
X58344048Y-56760001D01*
X58313095Y-56693334D01*
X58251190Y-56626668D01*
X58127381Y-56593334D01*
X57910714Y-56593334D01*
X57786905Y-56626668D01*
X57725000Y-56693334D01*
X57694048Y-56760001D01*
X57694048Y-57493334D02*
X57694048Y-57626667D01*
X57725000Y-57693334D01*
X57786905Y-57760001D01*
X57910714Y-57793334D01*
X58127381Y-57793334D01*
X58251190Y-57760001D01*
X58313095Y-57693334D01*
X58344048Y-57626667D01*
X58344048Y-57493334D01*
X58313095Y-57426667D01*
X58251190Y-57360001D01*
X58127381Y-57326667D01*
X57910714Y-57326667D01*
X57786905Y-57360001D01*
X57725000Y-57426667D01*
X57694048Y-57493334D01*
X57694048Y-57993334D02*
X57694048Y-58393334D01*
X58344048Y-58193334D02*
X57694048Y-58193334D01*
X70216666Y-44194048D02*
X70450000Y-43884524D01*
X70616666Y-44194048D02*
X70616666Y-43544048D01*
X70350000Y-43544048D01*
X70283333Y-43575000D01*
X70250000Y-43605952D01*
X70216666Y-43667857D01*
X70216666Y-43760714D01*
X70250000Y-43822619D01*
X70283333Y-43853571D01*
X70350000Y-43884524D01*
X70616666Y-43884524D01*
X69916666Y-43853571D02*
X69683333Y-43853571D01*
X69583333Y-44194048D02*
X69916666Y-44194048D01*
X69916666Y-43544048D01*
X69583333Y-43544048D01*
X69383333Y-43544048D02*
X69150000Y-44194048D01*
X68916667Y-43544048D01*
X67750000Y-44132143D02*
X67783334Y-44163095D01*
X67883334Y-44194048D01*
X67950000Y-44194048D01*
X68050000Y-44163095D01*
X68116667Y-44101190D01*
X68150000Y-44039286D01*
X68183334Y-43915476D01*
X68183334Y-43822619D01*
X68150000Y-43698810D01*
X68116667Y-43636905D01*
X68050000Y-43575000D01*
X67950000Y-43544048D01*
X67883334Y-43544048D01*
X67783334Y-43575000D01*
X67750000Y-43605952D01*
D12*
X72128571Y-43103571D02*
X72014285Y-43139286D01*
X71823809Y-43139286D01*
X71747619Y-43103571D01*
X71709523Y-43067857D01*
X71671428Y-42996429D01*
X71671428Y-42925000D01*
X71709523Y-42853571D01*
X71747619Y-42817857D01*
X71823809Y-42782143D01*
X71976190Y-42746429D01*
X72052381Y-42710714D01*
X72090476Y-42675000D01*
X72128571Y-42603571D01*
X72128571Y-42532143D01*
X72090476Y-42460714D01*
X72052381Y-42425000D01*
X71976190Y-42389286D01*
X71785714Y-42389286D01*
X71671428Y-42425000D01*
X71328571Y-42746429D02*
X71061904Y-42746429D01*
X70947618Y-43139286D02*
X71328571Y-43139286D01*
X71328571Y-42389286D01*
X70947618Y-42389286D01*
X70604761Y-43139286D02*
X70604761Y-42389286D01*
X70299999Y-42389286D01*
X70223808Y-42425000D01*
X70185713Y-42460714D01*
X70147618Y-42532143D01*
X70147618Y-42639286D01*
X70185713Y-42710714D01*
X70223808Y-42746429D01*
X70299999Y-42782143D01*
X70604761Y-42782143D01*
X69804761Y-43139286D02*
X69804761Y-42389286D01*
X69499999Y-42389286D01*
X69423808Y-42425000D01*
X69385713Y-42460714D01*
X69347618Y-42532143D01*
X69347618Y-42639286D01*
X69385713Y-42710714D01*
X69423808Y-42746429D01*
X69499999Y-42782143D01*
X69804761Y-42782143D01*
X69004761Y-42389286D02*
X69004761Y-42996429D01*
X68966666Y-43067857D01*
X68928570Y-43103571D01*
X68852380Y-43139286D01*
X68699999Y-43139286D01*
X68623808Y-43103571D01*
X68585713Y-43067857D01*
X68547618Y-42996429D01*
X68547618Y-42389286D01*
X68166666Y-43139286D02*
X68166666Y-42389286D01*
X67709523Y-43139286D02*
X68052380Y-42710714D01*
X67709523Y-42389286D02*
X68166666Y-42817857D01*
X67366666Y-42389286D02*
X67366666Y-42996429D01*
X67328571Y-43067857D01*
X67290475Y-43103571D01*
X67214285Y-43139286D01*
X67061904Y-43139286D01*
X66985713Y-43103571D01*
X66947618Y-43067857D01*
X66909523Y-42996429D01*
X66909523Y-42389286D01*
D11*
X54414287Y-63252381D02*
X54485715Y-63214286D01*
X54628572Y-63214286D01*
X54700001Y-63252381D01*
X54771430Y-63328571D01*
X54807144Y-63404762D01*
X54807144Y-63557143D01*
X54771430Y-63633333D01*
X54700001Y-63709524D01*
X54628572Y-63747619D01*
X54485715Y-63747619D01*
X54414287Y-63709524D01*
X54557144Y-62947619D02*
X54735715Y-62985714D01*
X54914287Y-63100000D01*
X55021430Y-63290476D01*
X55057144Y-63480952D01*
X55021430Y-63671429D01*
X54914287Y-63861905D01*
X54735715Y-63976190D01*
X54557144Y-64014286D01*
X54378572Y-63976190D01*
X54200001Y-63861905D01*
X54092858Y-63671429D01*
X54057144Y-63480952D01*
X54092858Y-63290476D01*
X54200001Y-63100000D01*
X54378572Y-62985714D01*
X54557144Y-62947619D01*
X53164287Y-63861905D02*
X53164287Y-63061905D01*
X52914287Y-63633333D01*
X52664287Y-63061905D01*
X52664287Y-63861905D01*
X52307144Y-63861905D02*
X52307144Y-63061905D01*
X52021429Y-63061905D01*
X51950001Y-63100000D01*
X51914286Y-63138095D01*
X51878572Y-63214286D01*
X51878572Y-63328571D01*
X51914286Y-63404762D01*
X51950001Y-63442857D01*
X52021429Y-63480952D01*
X52307144Y-63480952D01*
X51200001Y-63861905D02*
X51557144Y-63861905D01*
X51557144Y-63061905D01*
X50414286Y-63138095D02*
X50378572Y-63100000D01*
X50307143Y-63061905D01*
X50128572Y-63061905D01*
X50057143Y-63100000D01*
X50021429Y-63138095D01*
X49985714Y-63214286D01*
X49985714Y-63290476D01*
X50021429Y-63404762D01*
X50450000Y-63861905D01*
X49985714Y-63861905D01*
X49521428Y-63061905D02*
X49450000Y-63061905D01*
X49378571Y-63100000D01*
X49342857Y-63138095D01*
X49307143Y-63214286D01*
X49271428Y-63366667D01*
X49271428Y-63557143D01*
X49307143Y-63709524D01*
X49342857Y-63785714D01*
X49378571Y-63823810D01*
X49450000Y-63861905D01*
X49521428Y-63861905D01*
X49592857Y-63823810D01*
X49628571Y-63785714D01*
X49664286Y-63709524D01*
X49700000Y-63557143D01*
X49700000Y-63366667D01*
X49664286Y-63214286D01*
X49628571Y-63138095D01*
X49592857Y-63100000D01*
X49521428Y-63061905D01*
X48557142Y-63861905D02*
X48985714Y-63861905D01*
X48771428Y-63861905D02*
X48771428Y-63061905D01*
X48842857Y-63176190D01*
X48914285Y-63252381D01*
X48985714Y-63290476D01*
X48307142Y-63061905D02*
X47807142Y-63061905D01*
X48128571Y-63861905D01*
X69826429Y-51101429D02*
X69826429Y-51558572D01*
X70074048Y-51330001D02*
X69578810Y-51330001D01*
X71344048Y-55192858D02*
X71994048Y-55392858D01*
X71344048Y-55592858D01*
X71994048Y-55792858D02*
X71344048Y-55792858D01*
X71994048Y-56078572D02*
X71344048Y-56078572D01*
X71994048Y-56421429D01*
X71344048Y-56421429D01*
X69744048Y-55835714D02*
X69744048Y-55550000D01*
X70053571Y-55521429D01*
X70022619Y-55550000D01*
X69991667Y-55607143D01*
X69991667Y-55750000D01*
X70022619Y-55807143D01*
X70053571Y-55835714D01*
X70115476Y-55864286D01*
X70270238Y-55864286D01*
X70332143Y-55835714D01*
X70363095Y-55807143D01*
X70394048Y-55750000D01*
X70394048Y-55607143D01*
X70363095Y-55550000D01*
X70332143Y-55521429D01*
X69744048Y-56035715D02*
X70394048Y-56235715D01*
X69744048Y-56435715D01*
X68194048Y-55007142D02*
X68194048Y-55378571D01*
X68441667Y-55178571D01*
X68441667Y-55264285D01*
X68472619Y-55321428D01*
X68503571Y-55349999D01*
X68565476Y-55378571D01*
X68720238Y-55378571D01*
X68782143Y-55349999D01*
X68813095Y-55321428D01*
X68844048Y-55264285D01*
X68844048Y-55092857D01*
X68813095Y-55035714D01*
X68782143Y-55007142D01*
X68194048Y-55550000D02*
X68844048Y-55750000D01*
X68194048Y-55950000D01*
X68194048Y-56092857D02*
X68194048Y-56464286D01*
X68441667Y-56264286D01*
X68441667Y-56350000D01*
X68472619Y-56407143D01*
X68503571Y-56435714D01*
X68565476Y-56464286D01*
X68720238Y-56464286D01*
X68782143Y-56435714D01*
X68813095Y-56407143D01*
X68844048Y-56350000D01*
X68844048Y-56178572D01*
X68813095Y-56121429D01*
X68782143Y-56092857D01*
X47094048Y-53471428D02*
X46784524Y-53271428D01*
X47094048Y-53128571D02*
X46444048Y-53128571D01*
X46444048Y-53357143D01*
X46475000Y-53414285D01*
X46505952Y-53442857D01*
X46567857Y-53471428D01*
X46660714Y-53471428D01*
X46722619Y-53442857D01*
X46753571Y-53414285D01*
X46784524Y-53357143D01*
X46784524Y-53128571D01*
X47063095Y-53700000D02*
X47094048Y-53785714D01*
X47094048Y-53928571D01*
X47063095Y-53985714D01*
X47032143Y-54014285D01*
X46970238Y-54042857D01*
X46908333Y-54042857D01*
X46846429Y-54014285D01*
X46815476Y-53985714D01*
X46784524Y-53928571D01*
X46753571Y-53814285D01*
X46722619Y-53757143D01*
X46691667Y-53728571D01*
X46629762Y-53700000D01*
X46567857Y-53700000D01*
X46505952Y-53728571D01*
X46475000Y-53757143D01*
X46444048Y-53814285D01*
X46444048Y-53957143D01*
X46475000Y-54042857D01*
X47063095Y-54271429D02*
X47094048Y-54357143D01*
X47094048Y-54500000D01*
X47063095Y-54557143D01*
X47032143Y-54585714D01*
X46970238Y-54614286D01*
X46908333Y-54614286D01*
X46846429Y-54585714D01*
X46815476Y-54557143D01*
X46784524Y-54500000D01*
X46753571Y-54385714D01*
X46722619Y-54328572D01*
X46691667Y-54300000D01*
X46629762Y-54271429D01*
X46567857Y-54271429D01*
X46505952Y-54300000D01*
X46475000Y-54328572D01*
X46444048Y-54385714D01*
X46444048Y-54528572D01*
X46475000Y-54614286D01*
X47094048Y-54871429D02*
X46444048Y-54871429D01*
X47032143Y-55971429D02*
X47063095Y-55942858D01*
X47094048Y-55857144D01*
X47094048Y-55800001D01*
X47063095Y-55714286D01*
X47001190Y-55657144D01*
X46939286Y-55628572D01*
X46815476Y-55600001D01*
X46722619Y-55600001D01*
X46598810Y-55628572D01*
X46536905Y-55657144D01*
X46475000Y-55714286D01*
X46444048Y-55800001D01*
X46444048Y-55857144D01*
X46475000Y-55942858D01*
X46505952Y-55971429D01*
X46444048Y-56228572D02*
X46970238Y-56228572D01*
X47032143Y-56257144D01*
X47063095Y-56285715D01*
X47094048Y-56342858D01*
X47094048Y-56457144D01*
X47063095Y-56514286D01*
X47032143Y-56542858D01*
X46970238Y-56571429D01*
X46444048Y-56571429D01*
X47094048Y-57200000D02*
X46784524Y-57000000D01*
X47094048Y-56857143D02*
X46444048Y-56857143D01*
X46444048Y-57085715D01*
X46475000Y-57142857D01*
X46505952Y-57171429D01*
X46567857Y-57200000D01*
X46660714Y-57200000D01*
X46722619Y-57171429D01*
X46753571Y-57142857D01*
X46784524Y-57085715D01*
X46784524Y-56857143D01*
X46444048Y-58600000D02*
X47094048Y-58800000D01*
X46444048Y-59000000D01*
X46475000Y-60942858D02*
X46444048Y-60885715D01*
X46444048Y-60800001D01*
X46475000Y-60714286D01*
X46536905Y-60657144D01*
X46598810Y-60628572D01*
X46722619Y-60600001D01*
X46815476Y-60600001D01*
X46939286Y-60628572D01*
X47001190Y-60657144D01*
X47063095Y-60714286D01*
X47094048Y-60800001D01*
X47094048Y-60857144D01*
X47063095Y-60942858D01*
X47032143Y-60971429D01*
X46815476Y-60971429D01*
X46815476Y-60857144D01*
X47094048Y-61228572D02*
X46444048Y-61228572D01*
X47094048Y-61571429D01*
X46444048Y-61571429D01*
X47094048Y-61857143D02*
X46444048Y-61857143D01*
X46444048Y-62000000D01*
X46475000Y-62085715D01*
X46536905Y-62142857D01*
X46598810Y-62171429D01*
X46722619Y-62200000D01*
X46815476Y-62200000D01*
X46939286Y-62171429D01*
X47001190Y-62142857D01*
X47063095Y-62085715D01*
X47094048Y-62000000D01*
X47094048Y-61857143D01*
X46846429Y-63614286D02*
X46846429Y-64071429D01*
X46753571Y-64557143D02*
X46784524Y-64642857D01*
X46815476Y-64671429D01*
X46877381Y-64700000D01*
X46970238Y-64700000D01*
X47032143Y-64671429D01*
X47063095Y-64642857D01*
X47094048Y-64585715D01*
X47094048Y-64357143D01*
X46444048Y-64357143D01*
X46444048Y-64557143D01*
X46475000Y-64614286D01*
X46505952Y-64642857D01*
X46567857Y-64671429D01*
X46629762Y-64671429D01*
X46691667Y-64642857D01*
X46722619Y-64614286D01*
X46753571Y-64557143D01*
X46753571Y-64357143D01*
X46444048Y-64957143D02*
X46970238Y-64957143D01*
X47032143Y-64985715D01*
X47063095Y-65014286D01*
X47094048Y-65071429D01*
X47094048Y-65185715D01*
X47063095Y-65242857D01*
X47032143Y-65271429D01*
X46970238Y-65300000D01*
X46444048Y-65300000D01*
X46444048Y-65528571D02*
X46444048Y-65928571D01*
X47094048Y-65528571D01*
X47094048Y-65928571D01*
X46444048Y-66100000D02*
X46444048Y-66500000D01*
X47094048Y-66100000D01*
X47094048Y-66500000D01*
X46846429Y-66728572D02*
X46846429Y-67185715D01*
X47094048Y-66957144D02*
X46598810Y-66957144D01*
X42844048Y-40957143D02*
X43494048Y-41157143D01*
X42844048Y-41357143D01*
X43494048Y-41557143D02*
X42844048Y-41557143D01*
X43494048Y-41842857D02*
X42844048Y-41842857D01*
X42844048Y-41985714D01*
X42875000Y-42071429D01*
X42936905Y-42128571D01*
X42998810Y-42157143D01*
X43122619Y-42185714D01*
X43215476Y-42185714D01*
X43339286Y-42157143D01*
X43401190Y-42128571D01*
X43463095Y-42071429D01*
X43494048Y-41985714D01*
X43494048Y-41842857D01*
X42875000Y-38142858D02*
X42844048Y-38085715D01*
X42844048Y-38000001D01*
X42875000Y-37914286D01*
X42936905Y-37857144D01*
X42998810Y-37828572D01*
X43122619Y-37800001D01*
X43215476Y-37800001D01*
X43339286Y-37828572D01*
X43401190Y-37857144D01*
X43463095Y-37914286D01*
X43494048Y-38000001D01*
X43494048Y-38057144D01*
X43463095Y-38142858D01*
X43432143Y-38171429D01*
X43215476Y-38171429D01*
X43215476Y-38057144D01*
X43494048Y-38428572D02*
X42844048Y-38428572D01*
X43494048Y-38771429D01*
X42844048Y-38771429D01*
X43494048Y-39057143D02*
X42844048Y-39057143D01*
X42844048Y-39200000D01*
X42875000Y-39285715D01*
X42936905Y-39342857D01*
X42998810Y-39371429D01*
X43122619Y-39400000D01*
X43215476Y-39400000D01*
X43339286Y-39371429D01*
X43401190Y-39342857D01*
X43463095Y-39285715D01*
X43494048Y-39200000D01*
X43494048Y-39057143D01*
X46832143Y-39785714D02*
X46863095Y-39757143D01*
X46894048Y-39671429D01*
X46894048Y-39614286D01*
X46863095Y-39528571D01*
X46801190Y-39471429D01*
X46739286Y-39442857D01*
X46615476Y-39414286D01*
X46522619Y-39414286D01*
X46398810Y-39442857D01*
X46336905Y-39471429D01*
X46275000Y-39528571D01*
X46244048Y-39614286D01*
X46244048Y-39671429D01*
X46275000Y-39757143D01*
X46305952Y-39785714D01*
X46708333Y-40014286D02*
X46708333Y-40300000D01*
X46894048Y-39957143D02*
X46244048Y-40157143D01*
X46894048Y-40357143D01*
X46894048Y-40557143D02*
X46244048Y-40557143D01*
X46708333Y-40757143D01*
X46244048Y-40957143D01*
X46894048Y-40957143D01*
X63908333Y-43242858D02*
X63908333Y-43528572D01*
X64094048Y-43185715D02*
X63444048Y-43385715D01*
X64094048Y-43585715D01*
X63444048Y-43785715D02*
X63970238Y-43785715D01*
X64032143Y-43814287D01*
X64063095Y-43842858D01*
X64094048Y-43900001D01*
X64094048Y-44014287D01*
X64063095Y-44071429D01*
X64032143Y-44100001D01*
X63970238Y-44128572D01*
X63444048Y-44128572D01*
X64094048Y-44414286D02*
X63444048Y-44414286D01*
X63444048Y-44557143D01*
X63475000Y-44642858D01*
X63536905Y-44700000D01*
X63598810Y-44728572D01*
X63722619Y-44757143D01*
X63815476Y-44757143D01*
X63939286Y-44728572D01*
X64001190Y-44700000D01*
X64063095Y-44642858D01*
X64094048Y-44557143D01*
X64094048Y-44414286D01*
X63444048Y-40757143D02*
X64094048Y-40957143D01*
X63444048Y-41157143D01*
X64094048Y-41357143D02*
X63444048Y-41357143D01*
X64094048Y-41642857D02*
X63444048Y-41642857D01*
X63444048Y-41785714D01*
X63475000Y-41871429D01*
X63536905Y-41928571D01*
X63598810Y-41957143D01*
X63722619Y-41985714D01*
X63815476Y-41985714D01*
X63939286Y-41957143D01*
X64001190Y-41928571D01*
X64063095Y-41871429D01*
X64094048Y-41785714D01*
X64094048Y-41642857D01*
X63475000Y-38542858D02*
X63444048Y-38485715D01*
X63444048Y-38400001D01*
X63475000Y-38314286D01*
X63536905Y-38257144D01*
X63598810Y-38228572D01*
X63722619Y-38200001D01*
X63815476Y-38200001D01*
X63939286Y-38228572D01*
X64001190Y-38257144D01*
X64063095Y-38314286D01*
X64094048Y-38400001D01*
X64094048Y-38457144D01*
X64063095Y-38542858D01*
X64032143Y-38571429D01*
X63815476Y-38571429D01*
X63815476Y-38457144D01*
X64094048Y-38828572D02*
X63444048Y-38828572D01*
X64094048Y-39171429D01*
X63444048Y-39171429D01*
X64094048Y-39457143D02*
X63444048Y-39457143D01*
X63444048Y-39600000D01*
X63475000Y-39685715D01*
X63536905Y-39742857D01*
X63598810Y-39771429D01*
X63722619Y-39800000D01*
X63815476Y-39800000D01*
X63939286Y-39771429D01*
X64001190Y-39742857D01*
X64063095Y-39685715D01*
X64094048Y-39600000D01*
X64094048Y-39457143D01*
X66844048Y-40485714D02*
X67494048Y-40685714D01*
X66844048Y-40885714D01*
X66844048Y-41000000D02*
X66844048Y-41342857D01*
X67494048Y-41171428D02*
X66844048Y-41171428D01*
X66844048Y-41485714D02*
X67494048Y-41885714D01*
X66844048Y-41885714D02*
X67494048Y-41485714D01*
X70094048Y-47528571D02*
X69784524Y-47328571D01*
X70094048Y-47185714D02*
X69444048Y-47185714D01*
X69444048Y-47414286D01*
X69475000Y-47471428D01*
X69505952Y-47500000D01*
X69567857Y-47528571D01*
X69660714Y-47528571D01*
X69722619Y-47500000D01*
X69753571Y-47471428D01*
X69784524Y-47414286D01*
X69784524Y-47185714D01*
X70032143Y-48128571D02*
X70063095Y-48100000D01*
X70094048Y-48014286D01*
X70094048Y-47957143D01*
X70063095Y-47871428D01*
X70001190Y-47814286D01*
X69939286Y-47785714D01*
X69815476Y-47757143D01*
X69722619Y-47757143D01*
X69598810Y-47785714D01*
X69536905Y-47814286D01*
X69475000Y-47871428D01*
X69444048Y-47957143D01*
X69444048Y-48014286D01*
X69475000Y-48100000D01*
X69505952Y-48128571D01*
X69444048Y-48300000D02*
X70094048Y-48500000D01*
X69444048Y-48700000D01*
X70094048Y-49242857D02*
X69784524Y-49042857D01*
X70094048Y-48900000D02*
X69444048Y-48900000D01*
X69444048Y-49128572D01*
X69475000Y-49185714D01*
X69505952Y-49214286D01*
X69567857Y-49242857D01*
X69660714Y-49242857D01*
X69722619Y-49214286D01*
X69753571Y-49185714D01*
X69784524Y-49128572D01*
X69784524Y-48900000D01*
X69275000Y-53342858D02*
X69244048Y-53285715D01*
X69244048Y-53200001D01*
X69275000Y-53114286D01*
X69336905Y-53057144D01*
X69398810Y-53028572D01*
X69522619Y-53000001D01*
X69615476Y-53000001D01*
X69739286Y-53028572D01*
X69801190Y-53057144D01*
X69863095Y-53114286D01*
X69894048Y-53200001D01*
X69894048Y-53257144D01*
X69863095Y-53342858D01*
X69832143Y-53371429D01*
X69615476Y-53371429D01*
X69615476Y-53257144D01*
X69894048Y-53628572D02*
X69244048Y-53628572D01*
X69894048Y-53971429D01*
X69244048Y-53971429D01*
X69894048Y-54257143D02*
X69244048Y-54257143D01*
X69244048Y-54400000D01*
X69275000Y-54485715D01*
X69336905Y-54542857D01*
X69398810Y-54571429D01*
X69522619Y-54600000D01*
X69615476Y-54600000D01*
X69739286Y-54571429D01*
X69801190Y-54542857D01*
X69863095Y-54485715D01*
X69894048Y-54400000D01*
X69894048Y-54257143D01*
X38544048Y-42614286D02*
X38544048Y-42328572D01*
X37894048Y-42328572D01*
X38203571Y-42814286D02*
X38203571Y-43014286D01*
X38544048Y-43100000D02*
X38544048Y-42814286D01*
X37894048Y-42814286D01*
X37894048Y-43100000D01*
X38544048Y-43357143D02*
X37894048Y-43357143D01*
X37894048Y-43500000D01*
X37925000Y-43585715D01*
X37986905Y-43642857D01*
X38048810Y-43671429D01*
X38172619Y-43700000D01*
X38265476Y-43700000D01*
X38389286Y-43671429D01*
X38451190Y-43642857D01*
X38513095Y-43585715D01*
X38544048Y-43500000D01*
X38544048Y-43357143D01*
X38046429Y-45985714D02*
X38046429Y-46442857D01*
X38294048Y-46214286D02*
X37798810Y-46214286D01*
X37644048Y-47014285D02*
X37644048Y-46728571D01*
X37953571Y-46700000D01*
X37922619Y-46728571D01*
X37891667Y-46785714D01*
X37891667Y-46928571D01*
X37922619Y-46985714D01*
X37953571Y-47014285D01*
X38015476Y-47042857D01*
X38170238Y-47042857D01*
X38232143Y-47014285D01*
X38263095Y-46985714D01*
X38294048Y-46928571D01*
X38294048Y-46785714D01*
X38263095Y-46728571D01*
X38232143Y-46700000D01*
X43494048Y-47342857D02*
X43494048Y-47057143D01*
X42844048Y-47057143D01*
X43432143Y-48342857D02*
X43463095Y-48314286D01*
X43494048Y-48228572D01*
X43494048Y-48171429D01*
X43463095Y-48085714D01*
X43401190Y-48028572D01*
X43339286Y-48000000D01*
X43215476Y-47971429D01*
X43122619Y-47971429D01*
X42998810Y-48000000D01*
X42936905Y-48028572D01*
X42875000Y-48085714D01*
X42844048Y-48171429D01*
X42844048Y-48228572D01*
X42875000Y-48314286D01*
X42905952Y-48342857D01*
X43308333Y-48571429D02*
X43308333Y-48857143D01*
X43494048Y-48514286D02*
X42844048Y-48714286D01*
X43494048Y-48914286D01*
X43494048Y-49114286D02*
X42844048Y-49114286D01*
X43494048Y-49457143D01*
X42844048Y-49457143D01*
X43494048Y-50200000D02*
X42844048Y-50200000D01*
X43153571Y-50200000D02*
X43153571Y-50542857D01*
X43494048Y-50542857D02*
X42844048Y-50542857D01*
X43694048Y-52500000D02*
X43384524Y-52300000D01*
X43694048Y-52157143D02*
X43044048Y-52157143D01*
X43044048Y-52385715D01*
X43075000Y-52442857D01*
X43105952Y-52471429D01*
X43167857Y-52500000D01*
X43260714Y-52500000D01*
X43322619Y-52471429D01*
X43353571Y-52442857D01*
X43384524Y-52385715D01*
X43384524Y-52157143D01*
X43044048Y-52700000D02*
X43694048Y-53100000D01*
X43044048Y-53100000D02*
X43694048Y-52700000D01*
X43044048Y-54742857D02*
X43044048Y-55085714D01*
X43694048Y-54914285D02*
X43044048Y-54914285D01*
X43044048Y-55228571D02*
X43694048Y-55628571D01*
X43044048Y-55628571D02*
X43694048Y-55228571D01*
X43694048Y-57700000D02*
X43384524Y-57500000D01*
X43694048Y-57357143D02*
X43044048Y-57357143D01*
X43044048Y-57585715D01*
X43075000Y-57642857D01*
X43105952Y-57671429D01*
X43167857Y-57700000D01*
X43260714Y-57700000D01*
X43322619Y-57671429D01*
X43353571Y-57642857D01*
X43384524Y-57585715D01*
X43384524Y-57357143D01*
X43044048Y-57900000D02*
X43694048Y-58300000D01*
X43044048Y-58300000D02*
X43694048Y-57900000D01*
X43044048Y-59742857D02*
X43044048Y-60085714D01*
X43694048Y-59914285D02*
X43044048Y-59914285D01*
X43044048Y-60228571D02*
X43694048Y-60628571D01*
X43044048Y-60628571D02*
X43694048Y-60228571D01*
X43446429Y-62228571D02*
X43446429Y-62685714D01*
X43694048Y-62457143D02*
X43198810Y-62457143D01*
X43044048Y-63257142D02*
X43044048Y-62971428D01*
X43353571Y-62942857D01*
X43322619Y-62971428D01*
X43291667Y-63028571D01*
X43291667Y-63171428D01*
X43322619Y-63228571D01*
X43353571Y-63257142D01*
X43415476Y-63285714D01*
X43570238Y-63285714D01*
X43632143Y-63257142D01*
X43663095Y-63228571D01*
X43694048Y-63171428D01*
X43694048Y-63028571D01*
X43663095Y-62971428D01*
X43632143Y-62942857D01*
X43044048Y-63457143D02*
X43694048Y-63657143D01*
X43044048Y-63857143D01*
X43075000Y-64942858D02*
X43044048Y-64885715D01*
X43044048Y-64800001D01*
X43075000Y-64714286D01*
X43136905Y-64657144D01*
X43198810Y-64628572D01*
X43322619Y-64600001D01*
X43415476Y-64600001D01*
X43539286Y-64628572D01*
X43601190Y-64657144D01*
X43663095Y-64714286D01*
X43694048Y-64800001D01*
X43694048Y-64857144D01*
X43663095Y-64942858D01*
X43632143Y-64971429D01*
X43415476Y-64971429D01*
X43415476Y-64857144D01*
X43694048Y-65228572D02*
X43044048Y-65228572D01*
X43694048Y-65571429D01*
X43044048Y-65571429D01*
X43694048Y-65857143D02*
X43044048Y-65857143D01*
X43044048Y-66000000D01*
X43075000Y-66085715D01*
X43136905Y-66142857D01*
X43198810Y-66171429D01*
X43322619Y-66200000D01*
X43415476Y-66200000D01*
X43539286Y-66171429D01*
X43601190Y-66142857D01*
X43663095Y-66085715D01*
X43694048Y-66000000D01*
X43694048Y-65857143D01*
X38700595Y-66857143D02*
X38731548Y-66942857D01*
X38731548Y-67085714D01*
X38700595Y-67142857D01*
X38669643Y-67171428D01*
X38607738Y-67200000D01*
X38545833Y-67200000D01*
X38483929Y-67171428D01*
X38452976Y-67142857D01*
X38422024Y-67085714D01*
X38391071Y-66971428D01*
X38360119Y-66914286D01*
X38329167Y-66885714D01*
X38267262Y-66857143D01*
X38205357Y-66857143D01*
X38143452Y-66885714D01*
X38112500Y-66914286D01*
X38081548Y-66971428D01*
X38081548Y-67114286D01*
X38112500Y-67200000D01*
X38391071Y-67457143D02*
X38391071Y-67657143D01*
X38731548Y-67742857D02*
X38731548Y-67457143D01*
X38081548Y-67457143D01*
X38081548Y-67742857D01*
X38731548Y-68342857D02*
X38422024Y-68142857D01*
X38731548Y-68000000D02*
X38081548Y-68000000D01*
X38081548Y-68228572D01*
X38112500Y-68285714D01*
X38143452Y-68314286D01*
X38205357Y-68342857D01*
X38298214Y-68342857D01*
X38360119Y-68314286D01*
X38391071Y-68285714D01*
X38422024Y-68228572D01*
X38422024Y-68000000D01*
X39206548Y-67285714D02*
X39206548Y-67171428D01*
X39237500Y-67114285D01*
X39268452Y-67085714D01*
X39361310Y-67028571D01*
X39485119Y-67000000D01*
X39732738Y-67000000D01*
X39794643Y-67028571D01*
X39825595Y-67057143D01*
X39856548Y-67114285D01*
X39856548Y-67228571D01*
X39825595Y-67285714D01*
X39794643Y-67314285D01*
X39732738Y-67342857D01*
X39577976Y-67342857D01*
X39516071Y-67314285D01*
X39485119Y-67285714D01*
X39454167Y-67228571D01*
X39454167Y-67114285D01*
X39485119Y-67057143D01*
X39516071Y-67028571D01*
X39577976Y-67000000D01*
X39825595Y-67628572D02*
X39856548Y-67628572D01*
X39918452Y-67600000D01*
X39949405Y-67571429D01*
X39206548Y-67828571D02*
X39206548Y-68200000D01*
X39454167Y-68000000D01*
X39454167Y-68085714D01*
X39485119Y-68142857D01*
X39516071Y-68171428D01*
X39577976Y-68200000D01*
X39732738Y-68200000D01*
X39794643Y-68171428D01*
X39825595Y-68142857D01*
X39856548Y-68085714D01*
X39856548Y-67914286D01*
X39825595Y-67857143D01*
X39794643Y-67828571D01*
X41300595Y-66857143D02*
X41331548Y-66942857D01*
X41331548Y-67085714D01*
X41300595Y-67142857D01*
X41269643Y-67171428D01*
X41207738Y-67200000D01*
X41145833Y-67200000D01*
X41083929Y-67171428D01*
X41052976Y-67142857D01*
X41022024Y-67085714D01*
X40991071Y-66971428D01*
X40960119Y-66914286D01*
X40929167Y-66885714D01*
X40867262Y-66857143D01*
X40805357Y-66857143D01*
X40743452Y-66885714D01*
X40712500Y-66914286D01*
X40681548Y-66971428D01*
X40681548Y-67114286D01*
X40712500Y-67200000D01*
X40991071Y-67457143D02*
X40991071Y-67657143D01*
X41331548Y-67742857D02*
X41331548Y-67457143D01*
X40681548Y-67457143D01*
X40681548Y-67742857D01*
X41331548Y-68342857D02*
X41022024Y-68142857D01*
X41331548Y-68000000D02*
X40681548Y-68000000D01*
X40681548Y-68228572D01*
X40712500Y-68285714D01*
X40743452Y-68314286D01*
X40805357Y-68342857D01*
X40898214Y-68342857D01*
X40960119Y-68314286D01*
X40991071Y-68285714D01*
X41022024Y-68228572D01*
X41022024Y-68000000D01*
X42456548Y-67771429D02*
X42456548Y-67428572D01*
X42456548Y-67600000D02*
X41806548Y-67600000D01*
X41899405Y-67542857D01*
X41961310Y-67485715D01*
X41992262Y-67428572D01*
X43971429Y-69246429D02*
X43514286Y-69246429D01*
X43742857Y-69494048D02*
X43742857Y-68998810D01*
X42942858Y-68844048D02*
X43228572Y-68844048D01*
X43257143Y-69153571D01*
X43228572Y-69122619D01*
X43171429Y-69091667D01*
X43028572Y-69091667D01*
X42971429Y-69122619D01*
X42942858Y-69153571D01*
X42914286Y-69215476D01*
X42914286Y-69370238D01*
X42942858Y-69432143D01*
X42971429Y-69463095D01*
X43028572Y-69494048D01*
X43171429Y-69494048D01*
X43228572Y-69463095D01*
X43257143Y-69432143D01*
X42742857Y-68844048D02*
X42542857Y-69494048D01*
X42342857Y-68844048D01*
X43657142Y-71275000D02*
X43714285Y-71244048D01*
X43799999Y-71244048D01*
X43885714Y-71275000D01*
X43942856Y-71336905D01*
X43971428Y-71398810D01*
X43999999Y-71522619D01*
X43999999Y-71615476D01*
X43971428Y-71739286D01*
X43942856Y-71801190D01*
X43885714Y-71863095D01*
X43799999Y-71894048D01*
X43742856Y-71894048D01*
X43657142Y-71863095D01*
X43628571Y-71832143D01*
X43628571Y-71615476D01*
X43742856Y-71615476D01*
X43371428Y-71894048D02*
X43371428Y-71244048D01*
X43028571Y-71894048D01*
X43028571Y-71244048D01*
X42742857Y-71894048D02*
X42742857Y-71244048D01*
X42600000Y-71244048D01*
X42514285Y-71275000D01*
X42457143Y-71336905D01*
X42428571Y-71398810D01*
X42400000Y-71522619D01*
X42400000Y-71615476D01*
X42428571Y-71739286D01*
X42457143Y-71801190D01*
X42514285Y-71863095D01*
X42600000Y-71894048D01*
X42742857Y-71894048D01*
X68057142Y-71325000D02*
X68114285Y-71294048D01*
X68199999Y-71294048D01*
X68285714Y-71325000D01*
X68342856Y-71386905D01*
X68371428Y-71448810D01*
X68399999Y-71572619D01*
X68399999Y-71665476D01*
X68371428Y-71789286D01*
X68342856Y-71851190D01*
X68285714Y-71913095D01*
X68199999Y-71944048D01*
X68142856Y-71944048D01*
X68057142Y-71913095D01*
X68028571Y-71882143D01*
X68028571Y-71665476D01*
X68142856Y-71665476D01*
X67771428Y-71944048D02*
X67771428Y-71294048D01*
X67428571Y-71944048D01*
X67428571Y-71294048D01*
X67142857Y-71944048D02*
X67142857Y-71294048D01*
X67000000Y-71294048D01*
X66914285Y-71325000D01*
X66857143Y-71386905D01*
X66828571Y-71448810D01*
X66800000Y-71572619D01*
X66800000Y-71665476D01*
X66828571Y-71789286D01*
X66857143Y-71851190D01*
X66914285Y-71913095D01*
X67000000Y-71944048D01*
X67142857Y-71944048D01*
X68373809Y-69103571D02*
X68157142Y-69103571D01*
X68064285Y-69444048D02*
X68373809Y-69444048D01*
X68373809Y-68794048D01*
X68064285Y-68794048D01*
X67816666Y-69413095D02*
X67723809Y-69444048D01*
X67569047Y-69444048D01*
X67507143Y-69413095D01*
X67476190Y-69382143D01*
X67445238Y-69320238D01*
X67445238Y-69258333D01*
X67476190Y-69196429D01*
X67507143Y-69165476D01*
X67569047Y-69134524D01*
X67692857Y-69103571D01*
X67754762Y-69072619D01*
X67785714Y-69041667D01*
X67816666Y-68979762D01*
X67816666Y-68917857D01*
X67785714Y-68855952D01*
X67754762Y-68825000D01*
X67692857Y-68794048D01*
X67538095Y-68794048D01*
X67445238Y-68825000D01*
X66795238Y-69382143D02*
X66826190Y-69413095D01*
X66919047Y-69444048D01*
X66980952Y-69444048D01*
X67073809Y-69413095D01*
X67135714Y-69351190D01*
X67166666Y-69289286D01*
X67197618Y-69165476D01*
X67197618Y-69072619D01*
X67166666Y-68948810D01*
X67135714Y-68886905D01*
X67073809Y-68825000D01*
X66980952Y-68794048D01*
X66919047Y-68794048D01*
X66826190Y-68825000D01*
X66795238Y-68855952D01*
X66561905Y-67422619D02*
X66623810Y-67391667D01*
X66654762Y-67360714D01*
X66685714Y-67298810D01*
X66685714Y-67267857D01*
X66654762Y-67205952D01*
X66623810Y-67175000D01*
X66561905Y-67144048D01*
X66438095Y-67144048D01*
X66376191Y-67175000D01*
X66345238Y-67205952D01*
X66314286Y-67267857D01*
X66314286Y-67298810D01*
X66345238Y-67360714D01*
X66376191Y-67391667D01*
X66438095Y-67422619D01*
X66561905Y-67422619D01*
X66623810Y-67453571D01*
X66654762Y-67484524D01*
X66685714Y-67546429D01*
X66685714Y-67670238D01*
X66654762Y-67732143D01*
X66623810Y-67763095D01*
X66561905Y-67794048D01*
X66438095Y-67794048D01*
X66376191Y-67763095D01*
X66345238Y-67732143D01*
X66314286Y-67670238D01*
X66314286Y-67546429D01*
X66345238Y-67484524D01*
X66376191Y-67453571D01*
X66438095Y-67422619D01*
X64216667Y-67144048D02*
X63783334Y-67144048D01*
X64061905Y-67794048D01*
X61376191Y-67144048D02*
X61500000Y-67144048D01*
X61561905Y-67175000D01*
X61592857Y-67205952D01*
X61654762Y-67298810D01*
X61685714Y-67422619D01*
X61685714Y-67670238D01*
X61654762Y-67732143D01*
X61623810Y-67763095D01*
X61561905Y-67794048D01*
X61438095Y-67794048D01*
X61376191Y-67763095D01*
X61345238Y-67732143D01*
X61314286Y-67670238D01*
X61314286Y-67515476D01*
X61345238Y-67453571D01*
X61376191Y-67422619D01*
X61438095Y-67391667D01*
X61561905Y-67391667D01*
X61623810Y-67422619D01*
X61654762Y-67453571D01*
X61685714Y-67515476D01*
X58845238Y-67144048D02*
X59154762Y-67144048D01*
X59185714Y-67453571D01*
X59154762Y-67422619D01*
X59092857Y-67391667D01*
X58938095Y-67391667D01*
X58876191Y-67422619D01*
X58845238Y-67453571D01*
X58814286Y-67515476D01*
X58814286Y-67670238D01*
X58845238Y-67732143D01*
X58876191Y-67763095D01*
X58938095Y-67794048D01*
X59092857Y-67794048D01*
X59154762Y-67763095D01*
X59185714Y-67732143D01*
X56376191Y-67360714D02*
X56376191Y-67794048D01*
X56530953Y-67113095D02*
X56685714Y-67577381D01*
X56283334Y-67577381D01*
X53966667Y-67144048D02*
X53564286Y-67144048D01*
X53780953Y-67391667D01*
X53688095Y-67391667D01*
X53626191Y-67422619D01*
X53595238Y-67453571D01*
X53564286Y-67515476D01*
X53564286Y-67670238D01*
X53595238Y-67732143D01*
X53626191Y-67763095D01*
X53688095Y-67794048D01*
X53873810Y-67794048D01*
X53935714Y-67763095D01*
X53966667Y-67732143D01*
X51685714Y-67205952D02*
X51654762Y-67175000D01*
X51592857Y-67144048D01*
X51438095Y-67144048D01*
X51376191Y-67175000D01*
X51345238Y-67205952D01*
X51314286Y-67267857D01*
X51314286Y-67329762D01*
X51345238Y-67422619D01*
X51716667Y-67794048D01*
X51314286Y-67794048D01*
X48564286Y-67794048D02*
X48935714Y-67794048D01*
X48750000Y-67794048D02*
X48750000Y-67144048D01*
X48811905Y-67236905D01*
X48873810Y-67298810D01*
X48935714Y-67329762D01*
D13*
G36*
X64234638Y-62923927D02*
X64227438Y-62927406D01*
X64215802Y-62933113D01*
X64199981Y-62940921D01*
X64180225Y-62950705D01*
X64156784Y-62962341D01*
X64129908Y-62975704D01*
X64099846Y-62990667D01*
X64066849Y-63007106D01*
X64031167Y-63024897D01*
X63993050Y-63043913D01*
X63952747Y-63064030D01*
X63910509Y-63085122D01*
X63866585Y-63107065D01*
X63821226Y-63129733D01*
X63774682Y-63153001D01*
X63727201Y-63176745D01*
X63679036Y-63200838D01*
X63630434Y-63225156D01*
X63581648Y-63249574D01*
X63532925Y-63273967D01*
X63484517Y-63298209D01*
X63436673Y-63322176D01*
X63389643Y-63345741D01*
X63343677Y-63368781D01*
X63299026Y-63391170D01*
X63255939Y-63412783D01*
X63214665Y-63433495D01*
X63175456Y-63453180D01*
X63138561Y-63471714D01*
X63104230Y-63488971D01*
X63072713Y-63504827D01*
X63044260Y-63519156D01*
X63019120Y-63531833D01*
X62997545Y-63542733D01*
X62979783Y-63551730D01*
X62966086Y-63558701D01*
X62956702Y-63563519D01*
X62951881Y-63566060D01*
X62951261Y-63566437D01*
X62953928Y-63566680D01*
X62961559Y-63566877D01*
X62973593Y-63567025D01*
X62989473Y-63567121D01*
X63008639Y-63567164D01*
X63030532Y-63567149D01*
X63054594Y-63567076D01*
X63072049Y-63566990D01*
X63087210Y-63566917D01*
X63107549Y-63566839D01*
X63132722Y-63566756D01*
X63162383Y-63566669D01*
X63196190Y-63566580D01*
X63233798Y-63566488D01*
X63274862Y-63566395D01*
X63319039Y-63566301D01*
X63365984Y-63566206D01*
X63415353Y-63566113D01*
X63466802Y-63566020D01*
X63519987Y-63565930D01*
X63574564Y-63565842D01*
X63630188Y-63565758D01*
X63686515Y-63565678D01*
X63743076Y-63565603D01*
X64293316Y-63564899D01*
X64291630Y-63549031D01*
X64291173Y-63544189D01*
X64290282Y-63534219D01*
X64288990Y-63519497D01*
X64287327Y-63500397D01*
X64285328Y-63477293D01*
X64285142Y-63475135D01*
X64214487Y-63475135D01*
X64214443Y-63475912D01*
X64211656Y-63476042D01*
X64203720Y-63476221D01*
X64191009Y-63476445D01*
X64173894Y-63476707D01*
X64152748Y-63477004D01*
X64127945Y-63477331D01*
X64099857Y-63477683D01*
X64068857Y-63478054D01*
X64035318Y-63478441D01*
X63999613Y-63478838D01*
X63962113Y-63479241D01*
X63940765Y-63479464D01*
X63890250Y-63479985D01*
X63844588Y-63480452D01*
X63803112Y-63480871D01*
X63765153Y-63481248D01*
X63730043Y-63481589D01*
X63697114Y-63481899D01*
X63665698Y-63482185D01*
X63635127Y-63482453D01*
X63604733Y-63482708D01*
X63573847Y-63482956D01*
X63541802Y-63483203D01*
X63507929Y-63483455D01*
X63471561Y-63483718D01*
X63432029Y-63483998D01*
X63403353Y-63484199D01*
X63381298Y-63484293D01*
X63361108Y-63484266D01*
X63343419Y-63484128D01*
X63328866Y-63483887D01*
X63318086Y-63483553D01*
X63311714Y-63483138D01*
X63310210Y-63482777D01*
X63312635Y-63481274D01*
X63319697Y-63477465D01*
X63331091Y-63471503D01*
X63346514Y-63463541D01*
X63365660Y-63453730D01*
X63388227Y-63442224D01*
X63413909Y-63429174D01*
X63442403Y-63414734D01*
X63473404Y-63399055D01*
X63506608Y-63382291D01*
X63541711Y-63364593D01*
X63578409Y-63346114D01*
X63616397Y-63327006D01*
X63655371Y-63307423D01*
X63695028Y-63287516D01*
X63735062Y-63267438D01*
X63775170Y-63247342D01*
X63815047Y-63227379D01*
X63854389Y-63207703D01*
X63892892Y-63188465D01*
X63930252Y-63169819D01*
X63966165Y-63151917D01*
X64000326Y-63134911D01*
X64032431Y-63118953D01*
X64062175Y-63104197D01*
X64089256Y-63090794D01*
X64113368Y-63078897D01*
X64134207Y-63068659D01*
X64151470Y-63060232D01*
X64164851Y-63053769D01*
X64174047Y-63049421D01*
X64178753Y-63047342D01*
X64179324Y-63047186D01*
X64179774Y-63050092D01*
X64180611Y-63057988D01*
X64181795Y-63070361D01*
X64183283Y-63086700D01*
X64185033Y-63106492D01*
X64187003Y-63129226D01*
X64189152Y-63154390D01*
X64191437Y-63181472D01*
X64193817Y-63209959D01*
X64196250Y-63239341D01*
X64198693Y-63269104D01*
X64201105Y-63298738D01*
X64203443Y-63327730D01*
X64205667Y-63355568D01*
X64207734Y-63381741D01*
X64209601Y-63405737D01*
X64211228Y-63427043D01*
X64212572Y-63445148D01*
X64213591Y-63459539D01*
X64214243Y-63469706D01*
X64214487Y-63475135D01*
X64285142Y-63475135D01*
X64283023Y-63450561D01*
X64280445Y-63420575D01*
X64277627Y-63387709D01*
X64274600Y-63352340D01*
X64271397Y-63314840D01*
X64268050Y-63275585D01*
X64264592Y-63234949D01*
X64264041Y-63228473D01*
X64260593Y-63188005D01*
X64257262Y-63149094D01*
X64254079Y-63112092D01*
X64251075Y-63077350D01*
X64248280Y-63045220D01*
X64245727Y-63016053D01*
X64243445Y-62990201D01*
X64241466Y-62968016D01*
X64239821Y-62949848D01*
X64238540Y-62936049D01*
X64237655Y-62926971D01*
X64237195Y-62922965D01*
X64237154Y-62922799D01*
X64234638Y-62923927D01*
X64234638Y-62923927D01*
G37*
X64234638Y-62923927D02*
X64227438Y-62927406D01*
X64215802Y-62933113D01*
X64199981Y-62940921D01*
X64180225Y-62950705D01*
X64156784Y-62962341D01*
X64129908Y-62975704D01*
X64099846Y-62990667D01*
X64066849Y-63007106D01*
X64031167Y-63024897D01*
X63993050Y-63043913D01*
X63952747Y-63064030D01*
X63910509Y-63085122D01*
X63866585Y-63107065D01*
X63821226Y-63129733D01*
X63774682Y-63153001D01*
X63727201Y-63176745D01*
X63679036Y-63200838D01*
X63630434Y-63225156D01*
X63581648Y-63249574D01*
X63532925Y-63273967D01*
X63484517Y-63298209D01*
X63436673Y-63322176D01*
X63389643Y-63345741D01*
X63343677Y-63368781D01*
X63299026Y-63391170D01*
X63255939Y-63412783D01*
X63214665Y-63433495D01*
X63175456Y-63453180D01*
X63138561Y-63471714D01*
X63104230Y-63488971D01*
X63072713Y-63504827D01*
X63044260Y-63519156D01*
X63019120Y-63531833D01*
X62997545Y-63542733D01*
X62979783Y-63551730D01*
X62966086Y-63558701D01*
X62956702Y-63563519D01*
X62951881Y-63566060D01*
X62951261Y-63566437D01*
X62953928Y-63566680D01*
X62961559Y-63566877D01*
X62973593Y-63567025D01*
X62989473Y-63567121D01*
X63008639Y-63567164D01*
X63030532Y-63567149D01*
X63054594Y-63567076D01*
X63072049Y-63566990D01*
X63087210Y-63566917D01*
X63107549Y-63566839D01*
X63132722Y-63566756D01*
X63162383Y-63566669D01*
X63196190Y-63566580D01*
X63233798Y-63566488D01*
X63274862Y-63566395D01*
X63319039Y-63566301D01*
X63365984Y-63566206D01*
X63415353Y-63566113D01*
X63466802Y-63566020D01*
X63519987Y-63565930D01*
X63574564Y-63565842D01*
X63630188Y-63565758D01*
X63686515Y-63565678D01*
X63743076Y-63565603D01*
X64293316Y-63564899D01*
X64291630Y-63549031D01*
X64291173Y-63544189D01*
X64290282Y-63534219D01*
X64288990Y-63519497D01*
X64287327Y-63500397D01*
X64285328Y-63477293D01*
X64285142Y-63475135D01*
X64214487Y-63475135D01*
X64214443Y-63475912D01*
X64211656Y-63476042D01*
X64203720Y-63476221D01*
X64191009Y-63476445D01*
X64173894Y-63476707D01*
X64152748Y-63477004D01*
X64127945Y-63477331D01*
X64099857Y-63477683D01*
X64068857Y-63478054D01*
X64035318Y-63478441D01*
X63999613Y-63478838D01*
X63962113Y-63479241D01*
X63940765Y-63479464D01*
X63890250Y-63479985D01*
X63844588Y-63480452D01*
X63803112Y-63480871D01*
X63765153Y-63481248D01*
X63730043Y-63481589D01*
X63697114Y-63481899D01*
X63665698Y-63482185D01*
X63635127Y-63482453D01*
X63604733Y-63482708D01*
X63573847Y-63482956D01*
X63541802Y-63483203D01*
X63507929Y-63483455D01*
X63471561Y-63483718D01*
X63432029Y-63483998D01*
X63403353Y-63484199D01*
X63381298Y-63484293D01*
X63361108Y-63484266D01*
X63343419Y-63484128D01*
X63328866Y-63483887D01*
X63318086Y-63483553D01*
X63311714Y-63483138D01*
X63310210Y-63482777D01*
X63312635Y-63481274D01*
X63319697Y-63477465D01*
X63331091Y-63471503D01*
X63346514Y-63463541D01*
X63365660Y-63453730D01*
X63388227Y-63442224D01*
X63413909Y-63429174D01*
X63442403Y-63414734D01*
X63473404Y-63399055D01*
X63506608Y-63382291D01*
X63541711Y-63364593D01*
X63578409Y-63346114D01*
X63616397Y-63327006D01*
X63655371Y-63307423D01*
X63695028Y-63287516D01*
X63735062Y-63267438D01*
X63775170Y-63247342D01*
X63815047Y-63227379D01*
X63854389Y-63207703D01*
X63892892Y-63188465D01*
X63930252Y-63169819D01*
X63966165Y-63151917D01*
X64000326Y-63134911D01*
X64032431Y-63118953D01*
X64062175Y-63104197D01*
X64089256Y-63090794D01*
X64113368Y-63078897D01*
X64134207Y-63068659D01*
X64151470Y-63060232D01*
X64164851Y-63053769D01*
X64174047Y-63049421D01*
X64178753Y-63047342D01*
X64179324Y-63047186D01*
X64179774Y-63050092D01*
X64180611Y-63057988D01*
X64181795Y-63070361D01*
X64183283Y-63086700D01*
X64185033Y-63106492D01*
X64187003Y-63129226D01*
X64189152Y-63154390D01*
X64191437Y-63181472D01*
X64193817Y-63209959D01*
X64196250Y-63239341D01*
X64198693Y-63269104D01*
X64201105Y-63298738D01*
X64203443Y-63327730D01*
X64205667Y-63355568D01*
X64207734Y-63381741D01*
X64209601Y-63405737D01*
X64211228Y-63427043D01*
X64212572Y-63445148D01*
X64213591Y-63459539D01*
X64214243Y-63469706D01*
X64214487Y-63475135D01*
X64285142Y-63475135D01*
X64283023Y-63450561D01*
X64280445Y-63420575D01*
X64277627Y-63387709D01*
X64274600Y-63352340D01*
X64271397Y-63314840D01*
X64268050Y-63275585D01*
X64264592Y-63234949D01*
X64264041Y-63228473D01*
X64260593Y-63188005D01*
X64257262Y-63149094D01*
X64254079Y-63112092D01*
X64251075Y-63077350D01*
X64248280Y-63045220D01*
X64245727Y-63016053D01*
X64243445Y-62990201D01*
X64241466Y-62968016D01*
X64239821Y-62949848D01*
X64238540Y-62936049D01*
X64237655Y-62926971D01*
X64237195Y-62922965D01*
X64237154Y-62922799D01*
X64234638Y-62923927D01*
G36*
X64967681Y-63165703D02*
X64968252Y-63173508D01*
X64969221Y-63185934D01*
X64970551Y-63202539D01*
X64972206Y-63222884D01*
X64974151Y-63246527D01*
X64976349Y-63273028D01*
X64978764Y-63301945D01*
X64981360Y-63332839D01*
X64983362Y-63356540D01*
X64986088Y-63388837D01*
X64988673Y-63419655D01*
X64991079Y-63448533D01*
X64993270Y-63475006D01*
X64995206Y-63498614D01*
X64996850Y-63518892D01*
X64998164Y-63535378D01*
X64999111Y-63547609D01*
X64999653Y-63555123D01*
X64999771Y-63557320D01*
X64999826Y-63564913D01*
X65574777Y-63564695D01*
X65630657Y-63564668D01*
X65685031Y-63564630D01*
X65737643Y-63564583D01*
X65788240Y-63564527D01*
X65836566Y-63564462D01*
X65882368Y-63564389D01*
X65925391Y-63564308D01*
X65965379Y-63564221D01*
X66002080Y-63564128D01*
X66035238Y-63564029D01*
X66064598Y-63563926D01*
X66089907Y-63563819D01*
X66110909Y-63563708D01*
X66127351Y-63563594D01*
X66138978Y-63563478D01*
X66145535Y-63563360D01*
X66146967Y-63563268D01*
X66143952Y-63562200D01*
X66136016Y-63559465D01*
X66123443Y-63555159D01*
X66106519Y-63549377D01*
X66085526Y-63542218D01*
X66060751Y-63533777D01*
X66032476Y-63524151D01*
X66000987Y-63513437D01*
X65966568Y-63501730D01*
X65929503Y-63489128D01*
X65890076Y-63475727D01*
X65848573Y-63461623D01*
X65805277Y-63446914D01*
X65760473Y-63431695D01*
X65714445Y-63416063D01*
X65667477Y-63400115D01*
X65619854Y-63383946D01*
X65571861Y-63367655D01*
X65523781Y-63351337D01*
X65475900Y-63335088D01*
X65428501Y-63319005D01*
X65381868Y-63303186D01*
X65336287Y-63287725D01*
X65292042Y-63272721D01*
X65249416Y-63258268D01*
X65208695Y-63244465D01*
X65170163Y-63231407D01*
X65134104Y-63219190D01*
X65100802Y-63207913D01*
X65070543Y-63197670D01*
X65043609Y-63188558D01*
X65020287Y-63180675D01*
X65000859Y-63174116D01*
X64985611Y-63168978D01*
X64974826Y-63165357D01*
X64968790Y-63163351D01*
X64967543Y-63162958D01*
X64967681Y-63165703D01*
X64967681Y-63165703D01*
G37*
X64967681Y-63165703D02*
X64968252Y-63173508D01*
X64969221Y-63185934D01*
X64970551Y-63202539D01*
X64972206Y-63222884D01*
X64974151Y-63246527D01*
X64976349Y-63273028D01*
X64978764Y-63301945D01*
X64981360Y-63332839D01*
X64983362Y-63356540D01*
X64986088Y-63388837D01*
X64988673Y-63419655D01*
X64991079Y-63448533D01*
X64993270Y-63475006D01*
X64995206Y-63498614D01*
X64996850Y-63518892D01*
X64998164Y-63535378D01*
X64999111Y-63547609D01*
X64999653Y-63555123D01*
X64999771Y-63557320D01*
X64999826Y-63564913D01*
X65574777Y-63564695D01*
X65630657Y-63564668D01*
X65685031Y-63564630D01*
X65737643Y-63564583D01*
X65788240Y-63564527D01*
X65836566Y-63564462D01*
X65882368Y-63564389D01*
X65925391Y-63564308D01*
X65965379Y-63564221D01*
X66002080Y-63564128D01*
X66035238Y-63564029D01*
X66064598Y-63563926D01*
X66089907Y-63563819D01*
X66110909Y-63563708D01*
X66127351Y-63563594D01*
X66138978Y-63563478D01*
X66145535Y-63563360D01*
X66146967Y-63563268D01*
X66143952Y-63562200D01*
X66136016Y-63559465D01*
X66123443Y-63555159D01*
X66106519Y-63549377D01*
X66085526Y-63542218D01*
X66060751Y-63533777D01*
X66032476Y-63524151D01*
X66000987Y-63513437D01*
X65966568Y-63501730D01*
X65929503Y-63489128D01*
X65890076Y-63475727D01*
X65848573Y-63461623D01*
X65805277Y-63446914D01*
X65760473Y-63431695D01*
X65714445Y-63416063D01*
X65667477Y-63400115D01*
X65619854Y-63383946D01*
X65571861Y-63367655D01*
X65523781Y-63351337D01*
X65475900Y-63335088D01*
X65428501Y-63319005D01*
X65381868Y-63303186D01*
X65336287Y-63287725D01*
X65292042Y-63272721D01*
X65249416Y-63258268D01*
X65208695Y-63244465D01*
X65170163Y-63231407D01*
X65134104Y-63219190D01*
X65100802Y-63207913D01*
X65070543Y-63197670D01*
X65043609Y-63188558D01*
X65020287Y-63180675D01*
X65000859Y-63174116D01*
X64985611Y-63168978D01*
X64974826Y-63165357D01*
X64968790Y-63163351D01*
X64967543Y-63162958D01*
X64967681Y-63165703D01*
G36*
X64660920Y-61247842D02*
X64599217Y-61252785D01*
X64538828Y-61257687D01*
X64480024Y-61262524D01*
X64423072Y-61267272D01*
X64368243Y-61271906D01*
X64315804Y-61276402D01*
X64266025Y-61280736D01*
X64219174Y-61284885D01*
X64175521Y-61288823D01*
X64135334Y-61292526D01*
X64098883Y-61295972D01*
X64066436Y-61299134D01*
X64038262Y-61301990D01*
X64014630Y-61304515D01*
X63995809Y-61306684D01*
X63982068Y-61308475D01*
X63976497Y-61309335D01*
X63918067Y-61322014D01*
X63861852Y-61339685D01*
X63808076Y-61362193D01*
X63756958Y-61389382D01*
X63708721Y-61421095D01*
X63663586Y-61457177D01*
X63621776Y-61497471D01*
X63583510Y-61541821D01*
X63549012Y-61590072D01*
X63527441Y-61625697D01*
X63502471Y-61675426D01*
X63482115Y-61727592D01*
X63466467Y-61781599D01*
X63455621Y-61836846D01*
X63449671Y-61892736D01*
X63448709Y-61948669D01*
X63452829Y-62004049D01*
X63460816Y-62052247D01*
X63474079Y-62105213D01*
X63490990Y-62155027D01*
X63511941Y-62202510D01*
X63537325Y-62248485D01*
X63567535Y-62293774D01*
X63590477Y-62323902D01*
X63601040Y-62336639D01*
X63612600Y-62349737D01*
X63624548Y-62362597D01*
X63636277Y-62374623D01*
X63647179Y-62385216D01*
X63656646Y-62393779D01*
X63664070Y-62399713D01*
X63668843Y-62402422D01*
X63670165Y-62402270D01*
X63672606Y-62399265D01*
X63678115Y-62392399D01*
X63686375Y-62382070D01*
X63697071Y-62368674D01*
X63709886Y-62352608D01*
X63724504Y-62334271D01*
X63740609Y-62314059D01*
X63757886Y-62292370D01*
X63776016Y-62269601D01*
X63794686Y-62246148D01*
X63813578Y-62222410D01*
X63832377Y-62198784D01*
X63850765Y-62175666D01*
X63868428Y-62153454D01*
X63885049Y-62132546D01*
X63900312Y-62113338D01*
X63913901Y-62096227D01*
X63925500Y-62081612D01*
X63934792Y-62069889D01*
X63941461Y-62061455D01*
X63945192Y-62056708D01*
X63945886Y-62055798D01*
X63945190Y-62052336D01*
X63941605Y-62046175D01*
X63936597Y-62039516D01*
X63930047Y-62030449D01*
X63922732Y-62018581D01*
X63916043Y-62006194D01*
X63914893Y-62003836D01*
X63903016Y-61973054D01*
X63896648Y-61942115D01*
X63895787Y-61911156D01*
X63900432Y-61880313D01*
X63910581Y-61849722D01*
X63915983Y-61837989D01*
X63932689Y-61809273D01*
X63951972Y-61785341D01*
X63974048Y-61765986D01*
X63999130Y-61751003D01*
X64012138Y-61745365D01*
X64023570Y-61741139D01*
X64034766Y-61737497D01*
X64046340Y-61734351D01*
X64058908Y-61731611D01*
X64073084Y-61729190D01*
X64089485Y-61726998D01*
X64108725Y-61724946D01*
X64131419Y-61722945D01*
X64158183Y-61720906D01*
X64189631Y-61718741D01*
X64201935Y-61717932D01*
X64217564Y-61716849D01*
X64231975Y-61715733D01*
X64243928Y-61714688D01*
X64252183Y-61713818D01*
X64254403Y-61713505D01*
X64264078Y-61711867D01*
X64342362Y-62625276D01*
X64348422Y-62695965D01*
X64354367Y-62765301D01*
X64360181Y-62833078D01*
X64365845Y-62899090D01*
X64371342Y-62963130D01*
X64376654Y-63024994D01*
X64381764Y-63084474D01*
X64386653Y-63141365D01*
X64391304Y-63195460D01*
X64395699Y-63246555D01*
X64399821Y-63294442D01*
X64403651Y-63338916D01*
X64407172Y-63379772D01*
X64410367Y-63416801D01*
X64413217Y-63449800D01*
X64415705Y-63478562D01*
X64417812Y-63502881D01*
X64419522Y-63522550D01*
X64420817Y-63537364D01*
X64421679Y-63547118D01*
X64422089Y-63551604D01*
X64422110Y-63551799D01*
X64423573Y-63564913D01*
X64646819Y-63564913D01*
X64689234Y-63564894D01*
X64726401Y-63564836D01*
X64758593Y-63564734D01*
X64786084Y-63564585D01*
X64809149Y-63564384D01*
X64828059Y-63564127D01*
X64843090Y-63563810D01*
X64854514Y-63563430D01*
X64862606Y-63562981D01*
X64867638Y-63562461D01*
X64869885Y-63561864D01*
X64870065Y-63561614D01*
X64869832Y-63558475D01*
X64869145Y-63550054D01*
X64868024Y-63536573D01*
X64866487Y-63518252D01*
X64864553Y-63495311D01*
X64862240Y-63467970D01*
X64859569Y-63436451D01*
X64856557Y-63400972D01*
X64853223Y-63361756D01*
X64849587Y-63319022D01*
X64845668Y-63272990D01*
X64841483Y-63223881D01*
X64837052Y-63171916D01*
X64832395Y-63117315D01*
X64827528Y-63060298D01*
X64822473Y-63001085D01*
X64817247Y-62939898D01*
X64811869Y-62876956D01*
X64806359Y-62812480D01*
X64800734Y-62746690D01*
X64795015Y-62679807D01*
X64789219Y-62612051D01*
X64783366Y-62543642D01*
X64777475Y-62474802D01*
X64771564Y-62405750D01*
X64765652Y-62336706D01*
X64759758Y-62267892D01*
X64753902Y-62199527D01*
X64748101Y-62131832D01*
X64742375Y-62065028D01*
X64736743Y-61999335D01*
X64731223Y-61934972D01*
X64725835Y-61872161D01*
X64720597Y-61811123D01*
X64715528Y-61752076D01*
X64710647Y-61695243D01*
X64705973Y-61640843D01*
X64701524Y-61589096D01*
X64697320Y-61540224D01*
X64693380Y-61494446D01*
X64689722Y-61451983D01*
X64686365Y-61413055D01*
X64683329Y-61377883D01*
X64680631Y-61346687D01*
X64678291Y-61319688D01*
X64676327Y-61297105D01*
X64674760Y-61279160D01*
X64673606Y-61266073D01*
X64672886Y-61258064D01*
X64672623Y-61255373D01*
X64671230Y-61249925D01*
X64668259Y-61247786D01*
X64661865Y-61247769D01*
X64660920Y-61247842D01*
X64660920Y-61247842D01*
G37*
X64660920Y-61247842D02*
X64599217Y-61252785D01*
X64538828Y-61257687D01*
X64480024Y-61262524D01*
X64423072Y-61267272D01*
X64368243Y-61271906D01*
X64315804Y-61276402D01*
X64266025Y-61280736D01*
X64219174Y-61284885D01*
X64175521Y-61288823D01*
X64135334Y-61292526D01*
X64098883Y-61295972D01*
X64066436Y-61299134D01*
X64038262Y-61301990D01*
X64014630Y-61304515D01*
X63995809Y-61306684D01*
X63982068Y-61308475D01*
X63976497Y-61309335D01*
X63918067Y-61322014D01*
X63861852Y-61339685D01*
X63808076Y-61362193D01*
X63756958Y-61389382D01*
X63708721Y-61421095D01*
X63663586Y-61457177D01*
X63621776Y-61497471D01*
X63583510Y-61541821D01*
X63549012Y-61590072D01*
X63527441Y-61625697D01*
X63502471Y-61675426D01*
X63482115Y-61727592D01*
X63466467Y-61781599D01*
X63455621Y-61836846D01*
X63449671Y-61892736D01*
X63448709Y-61948669D01*
X63452829Y-62004049D01*
X63460816Y-62052247D01*
X63474079Y-62105213D01*
X63490990Y-62155027D01*
X63511941Y-62202510D01*
X63537325Y-62248485D01*
X63567535Y-62293774D01*
X63590477Y-62323902D01*
X63601040Y-62336639D01*
X63612600Y-62349737D01*
X63624548Y-62362597D01*
X63636277Y-62374623D01*
X63647179Y-62385216D01*
X63656646Y-62393779D01*
X63664070Y-62399713D01*
X63668843Y-62402422D01*
X63670165Y-62402270D01*
X63672606Y-62399265D01*
X63678115Y-62392399D01*
X63686375Y-62382070D01*
X63697071Y-62368674D01*
X63709886Y-62352608D01*
X63724504Y-62334271D01*
X63740609Y-62314059D01*
X63757886Y-62292370D01*
X63776016Y-62269601D01*
X63794686Y-62246148D01*
X63813578Y-62222410D01*
X63832377Y-62198784D01*
X63850765Y-62175666D01*
X63868428Y-62153454D01*
X63885049Y-62132546D01*
X63900312Y-62113338D01*
X63913901Y-62096227D01*
X63925500Y-62081612D01*
X63934792Y-62069889D01*
X63941461Y-62061455D01*
X63945192Y-62056708D01*
X63945886Y-62055798D01*
X63945190Y-62052336D01*
X63941605Y-62046175D01*
X63936597Y-62039516D01*
X63930047Y-62030449D01*
X63922732Y-62018581D01*
X63916043Y-62006194D01*
X63914893Y-62003836D01*
X63903016Y-61973054D01*
X63896648Y-61942115D01*
X63895787Y-61911156D01*
X63900432Y-61880313D01*
X63910581Y-61849722D01*
X63915983Y-61837989D01*
X63932689Y-61809273D01*
X63951972Y-61785341D01*
X63974048Y-61765986D01*
X63999130Y-61751003D01*
X64012138Y-61745365D01*
X64023570Y-61741139D01*
X64034766Y-61737497D01*
X64046340Y-61734351D01*
X64058908Y-61731611D01*
X64073084Y-61729190D01*
X64089485Y-61726998D01*
X64108725Y-61724946D01*
X64131419Y-61722945D01*
X64158183Y-61720906D01*
X64189631Y-61718741D01*
X64201935Y-61717932D01*
X64217564Y-61716849D01*
X64231975Y-61715733D01*
X64243928Y-61714688D01*
X64252183Y-61713818D01*
X64254403Y-61713505D01*
X64264078Y-61711867D01*
X64342362Y-62625276D01*
X64348422Y-62695965D01*
X64354367Y-62765301D01*
X64360181Y-62833078D01*
X64365845Y-62899090D01*
X64371342Y-62963130D01*
X64376654Y-63024994D01*
X64381764Y-63084474D01*
X64386653Y-63141365D01*
X64391304Y-63195460D01*
X64395699Y-63246555D01*
X64399821Y-63294442D01*
X64403651Y-63338916D01*
X64407172Y-63379772D01*
X64410367Y-63416801D01*
X64413217Y-63449800D01*
X64415705Y-63478562D01*
X64417812Y-63502881D01*
X64419522Y-63522550D01*
X64420817Y-63537364D01*
X64421679Y-63547118D01*
X64422089Y-63551604D01*
X64422110Y-63551799D01*
X64423573Y-63564913D01*
X64646819Y-63564913D01*
X64689234Y-63564894D01*
X64726401Y-63564836D01*
X64758593Y-63564734D01*
X64786084Y-63564585D01*
X64809149Y-63564384D01*
X64828059Y-63564127D01*
X64843090Y-63563810D01*
X64854514Y-63563430D01*
X64862606Y-63562981D01*
X64867638Y-63562461D01*
X64869885Y-63561864D01*
X64870065Y-63561614D01*
X64869832Y-63558475D01*
X64869145Y-63550054D01*
X64868024Y-63536573D01*
X64866487Y-63518252D01*
X64864553Y-63495311D01*
X64862240Y-63467970D01*
X64859569Y-63436451D01*
X64856557Y-63400972D01*
X64853223Y-63361756D01*
X64849587Y-63319022D01*
X64845668Y-63272990D01*
X64841483Y-63223881D01*
X64837052Y-63171916D01*
X64832395Y-63117315D01*
X64827528Y-63060298D01*
X64822473Y-63001085D01*
X64817247Y-62939898D01*
X64811869Y-62876956D01*
X64806359Y-62812480D01*
X64800734Y-62746690D01*
X64795015Y-62679807D01*
X64789219Y-62612051D01*
X64783366Y-62543642D01*
X64777475Y-62474802D01*
X64771564Y-62405750D01*
X64765652Y-62336706D01*
X64759758Y-62267892D01*
X64753902Y-62199527D01*
X64748101Y-62131832D01*
X64742375Y-62065028D01*
X64736743Y-61999335D01*
X64731223Y-61934972D01*
X64725835Y-61872161D01*
X64720597Y-61811123D01*
X64715528Y-61752076D01*
X64710647Y-61695243D01*
X64705973Y-61640843D01*
X64701524Y-61589096D01*
X64697320Y-61540224D01*
X64693380Y-61494446D01*
X64689722Y-61451983D01*
X64686365Y-61413055D01*
X64683329Y-61377883D01*
X64680631Y-61346687D01*
X64678291Y-61319688D01*
X64676327Y-61297105D01*
X64674760Y-61279160D01*
X64673606Y-61266073D01*
X64672886Y-61258064D01*
X64672623Y-61255373D01*
X64671230Y-61249925D01*
X64668259Y-61247786D01*
X64661865Y-61247769D01*
X64660920Y-61247842D01*
G36*
X65186518Y-61176533D02*
X65184757Y-61179386D01*
X65182245Y-61184196D01*
X65178891Y-61191178D01*
X65174601Y-61200547D01*
X65169286Y-61212517D01*
X65162852Y-61227302D01*
X65155210Y-61245117D01*
X65146266Y-61266176D01*
X65135929Y-61290695D01*
X65124108Y-61318886D01*
X65110711Y-61350966D01*
X65095645Y-61387147D01*
X65078821Y-61427646D01*
X65060145Y-61472675D01*
X65039527Y-61522450D01*
X65024149Y-61559604D01*
X64862113Y-61951184D01*
X64908791Y-62490934D01*
X64913470Y-62545064D01*
X64918022Y-62597745D01*
X64922424Y-62648713D01*
X64926651Y-62697702D01*
X64930683Y-62744447D01*
X64934495Y-62788682D01*
X64938065Y-62830141D01*
X64941371Y-62868559D01*
X64944389Y-62903671D01*
X64947096Y-62935209D01*
X64949470Y-62962910D01*
X64951488Y-62986508D01*
X64953127Y-63005736D01*
X64954364Y-63020329D01*
X64955176Y-63030022D01*
X64955541Y-63034549D01*
X64955560Y-63034848D01*
X64958011Y-63037642D01*
X64965378Y-63041465D01*
X64977834Y-63046396D01*
X64989473Y-63050483D01*
X64996552Y-63052887D01*
X65008650Y-63057001D01*
X65025561Y-63062753D01*
X65047076Y-63070072D01*
X65072989Y-63078889D01*
X65103092Y-63089133D01*
X65137177Y-63100733D01*
X65175038Y-63113618D01*
X65216466Y-63127718D01*
X65261255Y-63142963D01*
X65309196Y-63159281D01*
X65360083Y-63176602D01*
X65413708Y-63194856D01*
X65469863Y-63213972D01*
X65528342Y-63233879D01*
X65588937Y-63254507D01*
X65651439Y-63275784D01*
X65715643Y-63297642D01*
X65781340Y-63320008D01*
X65794543Y-63324503D01*
X65818480Y-63332638D01*
X65840794Y-63340195D01*
X65860944Y-63346992D01*
X65878391Y-63352849D01*
X65892593Y-63357584D01*
X65903012Y-63361017D01*
X65909106Y-63362966D01*
X65910500Y-63363351D01*
X65913389Y-63361705D01*
X65919181Y-63357419D01*
X65926098Y-63351852D01*
X65949316Y-63331273D01*
X65973687Y-63307410D01*
X65998071Y-63281520D01*
X66021328Y-63254863D01*
X66042321Y-63228695D01*
X66059910Y-63204276D01*
X66060604Y-63203239D01*
X66073277Y-63182795D01*
X66086706Y-63158686D01*
X66100125Y-63132479D01*
X66112768Y-63105740D01*
X66123871Y-63080037D01*
X66132669Y-63056937D01*
X66134083Y-63052771D01*
X66145256Y-63015002D01*
X66153414Y-62977729D01*
X66158782Y-62939449D01*
X66161589Y-62898662D01*
X66162152Y-62867317D01*
X66159549Y-62807550D01*
X66151810Y-62749276D01*
X66139039Y-62692746D01*
X66121338Y-62638207D01*
X66098812Y-62585910D01*
X66071564Y-62536103D01*
X66039697Y-62489035D01*
X66003317Y-62444957D01*
X65973903Y-62414747D01*
X65943677Y-62387479D01*
X65911498Y-62361570D01*
X65878195Y-62337550D01*
X65844596Y-62315949D01*
X65811530Y-62297296D01*
X65779825Y-62282123D01*
X65750310Y-62270959D01*
X65748117Y-62270270D01*
X65696882Y-62255687D01*
X65648774Y-62244671D01*
X65602844Y-62237061D01*
X65558141Y-62232697D01*
X65516966Y-62231413D01*
X65502624Y-62231671D01*
X65486639Y-62232384D01*
X65470004Y-62233458D01*
X65453713Y-62234801D01*
X65438758Y-62236319D01*
X65426134Y-62237920D01*
X65416833Y-62239511D01*
X65411847Y-62240999D01*
X65411443Y-62241289D01*
X65411441Y-62244204D01*
X65411889Y-62252167D01*
X65412751Y-62264729D01*
X65413990Y-62281438D01*
X65415568Y-62301843D01*
X65417448Y-62325493D01*
X65419594Y-62351937D01*
X65421968Y-62380723D01*
X65424533Y-62411402D01*
X65427252Y-62443521D01*
X65430088Y-62476630D01*
X65433005Y-62510278D01*
X65435963Y-62544013D01*
X65438928Y-62577385D01*
X65440586Y-62595848D01*
X65442500Y-62616210D01*
X65444398Y-62634837D01*
X65446195Y-62651001D01*
X65447805Y-62663977D01*
X65449142Y-62673038D01*
X65450120Y-62677457D01*
X65450255Y-62677709D01*
X65453389Y-62679258D01*
X65459548Y-62678946D01*
X65468594Y-62677044D01*
X65478820Y-62674750D01*
X65492070Y-62672047D01*
X65505920Y-62669424D01*
X65509707Y-62668747D01*
X65522337Y-62666678D01*
X65531729Y-62665738D01*
X65540052Y-62665934D01*
X65549475Y-62667276D01*
X65558023Y-62668928D01*
X65590666Y-62678060D01*
X65620027Y-62691632D01*
X65646147Y-62709671D01*
X65669064Y-62732207D01*
X65688820Y-62759268D01*
X65691803Y-62764211D01*
X65701653Y-62782531D01*
X65708627Y-62799666D01*
X65713217Y-62817381D01*
X65715912Y-62837446D01*
X65716976Y-62854824D01*
X65716487Y-62886317D01*
X65712175Y-62914360D01*
X65703772Y-62939726D01*
X65691011Y-62963190D01*
X65673622Y-62985526D01*
X65670584Y-62988843D01*
X65645421Y-63012224D01*
X65618339Y-63030488D01*
X65589152Y-63043759D01*
X65588216Y-63044090D01*
X65576873Y-63047862D01*
X65567415Y-63050296D01*
X65557961Y-63051674D01*
X65546630Y-63052275D01*
X65532674Y-63052384D01*
X65509716Y-63051567D01*
X65489916Y-63048885D01*
X65471086Y-63043846D01*
X65451037Y-63035961D01*
X65442946Y-63032259D01*
X65415630Y-63017102D01*
X65392667Y-62999269D01*
X65377226Y-62983057D01*
X65366283Y-62968014D01*
X65356174Y-62950586D01*
X65347931Y-62932774D01*
X65342586Y-62916578D01*
X65342300Y-62915346D01*
X65341302Y-62909184D01*
X65339867Y-62897776D01*
X65338018Y-62881380D01*
X65335779Y-62860253D01*
X65333174Y-62834652D01*
X65330227Y-62804834D01*
X65326962Y-62771055D01*
X65323402Y-62733574D01*
X65319573Y-62692646D01*
X65315497Y-62648530D01*
X65311198Y-62601482D01*
X65306701Y-62551759D01*
X65302029Y-62499619D01*
X65297206Y-62445318D01*
X65292257Y-62389113D01*
X65287204Y-62331262D01*
X65282073Y-62272021D01*
X65277396Y-62217608D01*
X65272778Y-62163618D01*
X65267930Y-62106829D01*
X65262900Y-62047812D01*
X65257735Y-61987134D01*
X65252485Y-61925365D01*
X65247198Y-61863073D01*
X65241920Y-61800827D01*
X65236702Y-61739196D01*
X65231590Y-61678749D01*
X65226633Y-61620055D01*
X65221879Y-61563682D01*
X65217377Y-61510199D01*
X65213174Y-61460174D01*
X65209318Y-61414178D01*
X65205858Y-61372778D01*
X65204018Y-61350695D01*
X65201498Y-61320662D01*
X65199060Y-61292107D01*
X65196752Y-61265533D01*
X65194617Y-61241442D01*
X65192702Y-61220339D01*
X65191053Y-61202726D01*
X65189715Y-61189104D01*
X65188733Y-61179978D01*
X65188154Y-61175851D01*
X65188152Y-61175843D01*
X65187619Y-61175424D01*
X65186518Y-61176533D01*
X65186518Y-61176533D01*
G37*
X65186518Y-61176533D02*
X65184757Y-61179386D01*
X65182245Y-61184196D01*
X65178891Y-61191178D01*
X65174601Y-61200547D01*
X65169286Y-61212517D01*
X65162852Y-61227302D01*
X65155210Y-61245117D01*
X65146266Y-61266176D01*
X65135929Y-61290695D01*
X65124108Y-61318886D01*
X65110711Y-61350966D01*
X65095645Y-61387147D01*
X65078821Y-61427646D01*
X65060145Y-61472675D01*
X65039527Y-61522450D01*
X65024149Y-61559604D01*
X64862113Y-61951184D01*
X64908791Y-62490934D01*
X64913470Y-62545064D01*
X64918022Y-62597745D01*
X64922424Y-62648713D01*
X64926651Y-62697702D01*
X64930683Y-62744447D01*
X64934495Y-62788682D01*
X64938065Y-62830141D01*
X64941371Y-62868559D01*
X64944389Y-62903671D01*
X64947096Y-62935209D01*
X64949470Y-62962910D01*
X64951488Y-62986508D01*
X64953127Y-63005736D01*
X64954364Y-63020329D01*
X64955176Y-63030022D01*
X64955541Y-63034549D01*
X64955560Y-63034848D01*
X64958011Y-63037642D01*
X64965378Y-63041465D01*
X64977834Y-63046396D01*
X64989473Y-63050483D01*
X64996552Y-63052887D01*
X65008650Y-63057001D01*
X65025561Y-63062753D01*
X65047076Y-63070072D01*
X65072989Y-63078889D01*
X65103092Y-63089133D01*
X65137177Y-63100733D01*
X65175038Y-63113618D01*
X65216466Y-63127718D01*
X65261255Y-63142963D01*
X65309196Y-63159281D01*
X65360083Y-63176602D01*
X65413708Y-63194856D01*
X65469863Y-63213972D01*
X65528342Y-63233879D01*
X65588937Y-63254507D01*
X65651439Y-63275784D01*
X65715643Y-63297642D01*
X65781340Y-63320008D01*
X65794543Y-63324503D01*
X65818480Y-63332638D01*
X65840794Y-63340195D01*
X65860944Y-63346992D01*
X65878391Y-63352849D01*
X65892593Y-63357584D01*
X65903012Y-63361017D01*
X65909106Y-63362966D01*
X65910500Y-63363351D01*
X65913389Y-63361705D01*
X65919181Y-63357419D01*
X65926098Y-63351852D01*
X65949316Y-63331273D01*
X65973687Y-63307410D01*
X65998071Y-63281520D01*
X66021328Y-63254863D01*
X66042321Y-63228695D01*
X66059910Y-63204276D01*
X66060604Y-63203239D01*
X66073277Y-63182795D01*
X66086706Y-63158686D01*
X66100125Y-63132479D01*
X66112768Y-63105740D01*
X66123871Y-63080037D01*
X66132669Y-63056937D01*
X66134083Y-63052771D01*
X66145256Y-63015002D01*
X66153414Y-62977729D01*
X66158782Y-62939449D01*
X66161589Y-62898662D01*
X66162152Y-62867317D01*
X66159549Y-62807550D01*
X66151810Y-62749276D01*
X66139039Y-62692746D01*
X66121338Y-62638207D01*
X66098812Y-62585910D01*
X66071564Y-62536103D01*
X66039697Y-62489035D01*
X66003317Y-62444957D01*
X65973903Y-62414747D01*
X65943677Y-62387479D01*
X65911498Y-62361570D01*
X65878195Y-62337550D01*
X65844596Y-62315949D01*
X65811530Y-62297296D01*
X65779825Y-62282123D01*
X65750310Y-62270959D01*
X65748117Y-62270270D01*
X65696882Y-62255687D01*
X65648774Y-62244671D01*
X65602844Y-62237061D01*
X65558141Y-62232697D01*
X65516966Y-62231413D01*
X65502624Y-62231671D01*
X65486639Y-62232384D01*
X65470004Y-62233458D01*
X65453713Y-62234801D01*
X65438758Y-62236319D01*
X65426134Y-62237920D01*
X65416833Y-62239511D01*
X65411847Y-62240999D01*
X65411443Y-62241289D01*
X65411441Y-62244204D01*
X65411889Y-62252167D01*
X65412751Y-62264729D01*
X65413990Y-62281438D01*
X65415568Y-62301843D01*
X65417448Y-62325493D01*
X65419594Y-62351937D01*
X65421968Y-62380723D01*
X65424533Y-62411402D01*
X65427252Y-62443521D01*
X65430088Y-62476630D01*
X65433005Y-62510278D01*
X65435963Y-62544013D01*
X65438928Y-62577385D01*
X65440586Y-62595848D01*
X65442500Y-62616210D01*
X65444398Y-62634837D01*
X65446195Y-62651001D01*
X65447805Y-62663977D01*
X65449142Y-62673038D01*
X65450120Y-62677457D01*
X65450255Y-62677709D01*
X65453389Y-62679258D01*
X65459548Y-62678946D01*
X65468594Y-62677044D01*
X65478820Y-62674750D01*
X65492070Y-62672047D01*
X65505920Y-62669424D01*
X65509707Y-62668747D01*
X65522337Y-62666678D01*
X65531729Y-62665738D01*
X65540052Y-62665934D01*
X65549475Y-62667276D01*
X65558023Y-62668928D01*
X65590666Y-62678060D01*
X65620027Y-62691632D01*
X65646147Y-62709671D01*
X65669064Y-62732207D01*
X65688820Y-62759268D01*
X65691803Y-62764211D01*
X65701653Y-62782531D01*
X65708627Y-62799666D01*
X65713217Y-62817381D01*
X65715912Y-62837446D01*
X65716976Y-62854824D01*
X65716487Y-62886317D01*
X65712175Y-62914360D01*
X65703772Y-62939726D01*
X65691011Y-62963190D01*
X65673622Y-62985526D01*
X65670584Y-62988843D01*
X65645421Y-63012224D01*
X65618339Y-63030488D01*
X65589152Y-63043759D01*
X65588216Y-63044090D01*
X65576873Y-63047862D01*
X65567415Y-63050296D01*
X65557961Y-63051674D01*
X65546630Y-63052275D01*
X65532674Y-63052384D01*
X65509716Y-63051567D01*
X65489916Y-63048885D01*
X65471086Y-63043846D01*
X65451037Y-63035961D01*
X65442946Y-63032259D01*
X65415630Y-63017102D01*
X65392667Y-62999269D01*
X65377226Y-62983057D01*
X65366283Y-62968014D01*
X65356174Y-62950586D01*
X65347931Y-62932774D01*
X65342586Y-62916578D01*
X65342300Y-62915346D01*
X65341302Y-62909184D01*
X65339867Y-62897776D01*
X65338018Y-62881380D01*
X65335779Y-62860253D01*
X65333174Y-62834652D01*
X65330227Y-62804834D01*
X65326962Y-62771055D01*
X65323402Y-62733574D01*
X65319573Y-62692646D01*
X65315497Y-62648530D01*
X65311198Y-62601482D01*
X65306701Y-62551759D01*
X65302029Y-62499619D01*
X65297206Y-62445318D01*
X65292257Y-62389113D01*
X65287204Y-62331262D01*
X65282073Y-62272021D01*
X65277396Y-62217608D01*
X65272778Y-62163618D01*
X65267930Y-62106829D01*
X65262900Y-62047812D01*
X65257735Y-61987134D01*
X65252485Y-61925365D01*
X65247198Y-61863073D01*
X65241920Y-61800827D01*
X65236702Y-61739196D01*
X65231590Y-61678749D01*
X65226633Y-61620055D01*
X65221879Y-61563682D01*
X65217377Y-61510199D01*
X65213174Y-61460174D01*
X65209318Y-61414178D01*
X65205858Y-61372778D01*
X65204018Y-61350695D01*
X65201498Y-61320662D01*
X65199060Y-61292107D01*
X65196752Y-61265533D01*
X65194617Y-61241442D01*
X65192702Y-61220339D01*
X65191053Y-61202726D01*
X65189715Y-61189104D01*
X65188733Y-61179978D01*
X65188154Y-61175851D01*
X65188152Y-61175843D01*
X65187619Y-61175424D01*
X65186518Y-61176533D01*
G36*
X64163973Y-62099818D02*
X64139476Y-62107100D01*
X64118943Y-62111748D01*
X64103924Y-62113615D01*
X64091414Y-62114858D01*
X64082385Y-62117703D01*
X64074979Y-62123178D01*
X64067336Y-62132314D01*
X64065417Y-62134947D01*
X64061455Y-62140192D01*
X64054451Y-62149172D01*
X64044844Y-62161336D01*
X64033072Y-62176134D01*
X64019574Y-62193013D01*
X64004790Y-62211424D01*
X63989157Y-62230814D01*
X63984580Y-62236476D01*
X63965131Y-62260567D01*
X63942444Y-62288746D01*
X63916708Y-62320774D01*
X63888116Y-62356412D01*
X63856859Y-62395421D01*
X63823126Y-62437562D01*
X63787110Y-62482596D01*
X63749002Y-62530284D01*
X63708993Y-62580386D01*
X63667273Y-62632664D01*
X63624033Y-62686879D01*
X63579466Y-62742791D01*
X63533762Y-62800162D01*
X63487111Y-62858752D01*
X63457943Y-62895402D01*
X63431391Y-62928758D01*
X63404122Y-62962993D01*
X63376552Y-62997588D01*
X63349095Y-63032020D01*
X63322168Y-63065771D01*
X63296186Y-63098318D01*
X63271565Y-63129141D01*
X63248721Y-63157720D01*
X63228069Y-63183533D01*
X63210025Y-63206061D01*
X63195121Y-63224636D01*
X63177975Y-63246027D01*
X63161988Y-63266059D01*
X63147476Y-63284333D01*
X63134752Y-63300448D01*
X63124129Y-63314006D01*
X63115922Y-63324608D01*
X63110443Y-63331855D01*
X63108007Y-63335347D01*
X63107934Y-63335608D01*
X63110562Y-63334376D01*
X63117907Y-63330782D01*
X63129746Y-63324936D01*
X63145860Y-63316949D01*
X63166027Y-63306931D01*
X63190025Y-63294993D01*
X63217634Y-63281244D01*
X63248633Y-63265794D01*
X63282799Y-63248755D01*
X63319913Y-63230237D01*
X63359754Y-63210349D01*
X63402099Y-63189202D01*
X63446728Y-63166907D01*
X63493419Y-63143573D01*
X63541953Y-63119311D01*
X63592106Y-63094231D01*
X63643660Y-63068444D01*
X63667016Y-63056759D01*
X64224022Y-62778062D01*
X64224022Y-62769523D01*
X64223791Y-62765710D01*
X64223117Y-62756747D01*
X64222030Y-62742985D01*
X64220559Y-62724776D01*
X64218733Y-62702471D01*
X64216581Y-62676422D01*
X64214133Y-62646980D01*
X64211417Y-62614496D01*
X64208463Y-62579322D01*
X64205300Y-62541809D01*
X64201957Y-62502309D01*
X64198463Y-62461173D01*
X64196413Y-62437098D01*
X64192848Y-62395209D01*
X64189416Y-62354772D01*
X64186148Y-62316136D01*
X64183072Y-62279650D01*
X64180217Y-62245666D01*
X64177613Y-62214532D01*
X64175288Y-62186599D01*
X64173273Y-62162217D01*
X64171595Y-62141735D01*
X64170284Y-62125504D01*
X64169370Y-62113873D01*
X64168881Y-62107193D01*
X64168804Y-62105729D01*
X64168054Y-62100460D01*
X64165208Y-62099488D01*
X64163973Y-62099818D01*
X64163973Y-62099818D01*
G37*
X64163973Y-62099818D02*
X64139476Y-62107100D01*
X64118943Y-62111748D01*
X64103924Y-62113615D01*
X64091414Y-62114858D01*
X64082385Y-62117703D01*
X64074979Y-62123178D01*
X64067336Y-62132314D01*
X64065417Y-62134947D01*
X64061455Y-62140192D01*
X64054451Y-62149172D01*
X64044844Y-62161336D01*
X64033072Y-62176134D01*
X64019574Y-62193013D01*
X64004790Y-62211424D01*
X63989157Y-62230814D01*
X63984580Y-62236476D01*
X63965131Y-62260567D01*
X63942444Y-62288746D01*
X63916708Y-62320774D01*
X63888116Y-62356412D01*
X63856859Y-62395421D01*
X63823126Y-62437562D01*
X63787110Y-62482596D01*
X63749002Y-62530284D01*
X63708993Y-62580386D01*
X63667273Y-62632664D01*
X63624033Y-62686879D01*
X63579466Y-62742791D01*
X63533762Y-62800162D01*
X63487111Y-62858752D01*
X63457943Y-62895402D01*
X63431391Y-62928758D01*
X63404122Y-62962993D01*
X63376552Y-62997588D01*
X63349095Y-63032020D01*
X63322168Y-63065771D01*
X63296186Y-63098318D01*
X63271565Y-63129141D01*
X63248721Y-63157720D01*
X63228069Y-63183533D01*
X63210025Y-63206061D01*
X63195121Y-63224636D01*
X63177975Y-63246027D01*
X63161988Y-63266059D01*
X63147476Y-63284333D01*
X63134752Y-63300448D01*
X63124129Y-63314006D01*
X63115922Y-63324608D01*
X63110443Y-63331855D01*
X63108007Y-63335347D01*
X63107934Y-63335608D01*
X63110562Y-63334376D01*
X63117907Y-63330782D01*
X63129746Y-63324936D01*
X63145860Y-63316949D01*
X63166027Y-63306931D01*
X63190025Y-63294993D01*
X63217634Y-63281244D01*
X63248633Y-63265794D01*
X63282799Y-63248755D01*
X63319913Y-63230237D01*
X63359754Y-63210349D01*
X63402099Y-63189202D01*
X63446728Y-63166907D01*
X63493419Y-63143573D01*
X63541953Y-63119311D01*
X63592106Y-63094231D01*
X63643660Y-63068444D01*
X63667016Y-63056759D01*
X64224022Y-62778062D01*
X64224022Y-62769523D01*
X64223791Y-62765710D01*
X64223117Y-62756747D01*
X64222030Y-62742985D01*
X64220559Y-62724776D01*
X64218733Y-62702471D01*
X64216581Y-62676422D01*
X64214133Y-62646980D01*
X64211417Y-62614496D01*
X64208463Y-62579322D01*
X64205300Y-62541809D01*
X64201957Y-62502309D01*
X64198463Y-62461173D01*
X64196413Y-62437098D01*
X64192848Y-62395209D01*
X64189416Y-62354772D01*
X64186148Y-62316136D01*
X64183072Y-62279650D01*
X64180217Y-62245666D01*
X64177613Y-62214532D01*
X64175288Y-62186599D01*
X64173273Y-62162217D01*
X64171595Y-62141735D01*
X64170284Y-62125504D01*
X64169370Y-62113873D01*
X64168881Y-62107193D01*
X64168804Y-62105729D01*
X64168054Y-62100460D01*
X64165208Y-62099488D01*
X64163973Y-62099818D01*
G36*
X65259317Y-60640506D02*
X65254226Y-60646685D01*
X65246090Y-60656678D01*
X65235110Y-60670234D01*
X65221489Y-60687104D01*
X65205426Y-60707038D01*
X65187124Y-60729784D01*
X65166783Y-60755094D01*
X65144605Y-60782717D01*
X65120791Y-60812404D01*
X65095541Y-60843903D01*
X65069058Y-60876965D01*
X65041542Y-60911340D01*
X65029829Y-60925980D01*
X64799765Y-61213569D01*
X64817268Y-61422304D01*
X64820111Y-61456157D01*
X64822858Y-61488737D01*
X64825468Y-61519576D01*
X64827901Y-61548206D01*
X64830116Y-61574159D01*
X64832075Y-61596965D01*
X64833736Y-61616157D01*
X64835059Y-61631266D01*
X64836005Y-61641824D01*
X64836533Y-61647362D01*
X64836543Y-61647450D01*
X64838315Y-61663861D01*
X65049226Y-61153197D01*
X65070163Y-61102507D01*
X65077777Y-61084074D01*
X64997051Y-61084074D01*
X64996041Y-61087192D01*
X64993155Y-61094761D01*
X64988628Y-61106220D01*
X64982691Y-61121007D01*
X64975576Y-61138561D01*
X64967516Y-61158320D01*
X64958743Y-61179724D01*
X64949489Y-61202211D01*
X64939987Y-61225220D01*
X64930468Y-61248189D01*
X64921165Y-61270556D01*
X64912311Y-61291761D01*
X64904136Y-61311243D01*
X64896875Y-61328439D01*
X64890758Y-61342789D01*
X64886019Y-61353731D01*
X64882889Y-61360703D01*
X64881600Y-61363146D01*
X64881591Y-61363141D01*
X64880999Y-61360139D01*
X64880094Y-61352559D01*
X64878970Y-61341329D01*
X64877722Y-61327379D01*
X64876755Y-61315614D01*
X64875486Y-61298641D01*
X64874391Y-61282157D01*
X64873552Y-61267568D01*
X64873053Y-61256278D01*
X64872954Y-61251876D01*
X64872826Y-61234502D01*
X64928734Y-61165337D01*
X64945908Y-61144093D01*
X64959932Y-61126763D01*
X64971124Y-61112969D01*
X64979804Y-61102330D01*
X64986291Y-61094466D01*
X64990905Y-61088997D01*
X64993965Y-61085543D01*
X64995790Y-61083724D01*
X64996700Y-61083161D01*
X64997014Y-61083473D01*
X64997051Y-61084074D01*
X65077777Y-61084074D01*
X65090542Y-61053174D01*
X65110263Y-61005442D01*
X65129225Y-60959552D01*
X65147329Y-60915748D01*
X65164472Y-60874273D01*
X65180556Y-60835369D01*
X65195480Y-60799280D01*
X65209142Y-60766248D01*
X65221444Y-60736515D01*
X65232284Y-60710325D01*
X65241562Y-60687921D01*
X65249177Y-60669546D01*
X65255029Y-60655441D01*
X65259018Y-60645851D01*
X65261043Y-60641017D01*
X65261285Y-60640462D01*
X65261352Y-60638417D01*
X65261164Y-60638391D01*
X65259317Y-60640506D01*
X65259317Y-60640506D01*
G37*
X65259317Y-60640506D02*
X65254226Y-60646685D01*
X65246090Y-60656678D01*
X65235110Y-60670234D01*
X65221489Y-60687104D01*
X65205426Y-60707038D01*
X65187124Y-60729784D01*
X65166783Y-60755094D01*
X65144605Y-60782717D01*
X65120791Y-60812404D01*
X65095541Y-60843903D01*
X65069058Y-60876965D01*
X65041542Y-60911340D01*
X65029829Y-60925980D01*
X64799765Y-61213569D01*
X64817268Y-61422304D01*
X64820111Y-61456157D01*
X64822858Y-61488737D01*
X64825468Y-61519576D01*
X64827901Y-61548206D01*
X64830116Y-61574159D01*
X64832075Y-61596965D01*
X64833736Y-61616157D01*
X64835059Y-61631266D01*
X64836005Y-61641824D01*
X64836533Y-61647362D01*
X64836543Y-61647450D01*
X64838315Y-61663861D01*
X65049226Y-61153197D01*
X65070163Y-61102507D01*
X65077777Y-61084074D01*
X64997051Y-61084074D01*
X64996041Y-61087192D01*
X64993155Y-61094761D01*
X64988628Y-61106220D01*
X64982691Y-61121007D01*
X64975576Y-61138561D01*
X64967516Y-61158320D01*
X64958743Y-61179724D01*
X64949489Y-61202211D01*
X64939987Y-61225220D01*
X64930468Y-61248189D01*
X64921165Y-61270556D01*
X64912311Y-61291761D01*
X64904136Y-61311243D01*
X64896875Y-61328439D01*
X64890758Y-61342789D01*
X64886019Y-61353731D01*
X64882889Y-61360703D01*
X64881600Y-61363146D01*
X64881591Y-61363141D01*
X64880999Y-61360139D01*
X64880094Y-61352559D01*
X64878970Y-61341329D01*
X64877722Y-61327379D01*
X64876755Y-61315614D01*
X64875486Y-61298641D01*
X64874391Y-61282157D01*
X64873552Y-61267568D01*
X64873053Y-61256278D01*
X64872954Y-61251876D01*
X64872826Y-61234502D01*
X64928734Y-61165337D01*
X64945908Y-61144093D01*
X64959932Y-61126763D01*
X64971124Y-61112969D01*
X64979804Y-61102330D01*
X64986291Y-61094466D01*
X64990905Y-61088997D01*
X64993965Y-61085543D01*
X64995790Y-61083724D01*
X64996700Y-61083161D01*
X64997014Y-61083473D01*
X64997051Y-61084074D01*
X65077777Y-61084074D01*
X65090542Y-61053174D01*
X65110263Y-61005442D01*
X65129225Y-60959552D01*
X65147329Y-60915748D01*
X65164472Y-60874273D01*
X65180556Y-60835369D01*
X65195480Y-60799280D01*
X65209142Y-60766248D01*
X65221444Y-60736515D01*
X65232284Y-60710325D01*
X65241562Y-60687921D01*
X65249177Y-60669546D01*
X65255029Y-60655441D01*
X65259018Y-60645851D01*
X65261043Y-60641017D01*
X65261285Y-60640462D01*
X65261352Y-60638417D01*
X65261164Y-60638391D01*
X65259317Y-60640506D01*
M02*
