G04 #@! TF.FileFunction,Copper,L1,Top,Signal*
%FSLAX46Y46*%
G04 Gerber Fmt 4.6, Leading zero omitted, Abs format (unit mm)*
G04 Created by KiCad (PCBNEW 4.0.4+dfsg1-stable) date Tue Jan  3 20:31:21 2017*
%MOMM*%
%LPD*%
G01*
G04 APERTURE LIST*
%ADD10C,0.100000*%
%ADD11R,0.300000X0.600000*%
%ADD12R,0.600000X0.300000*%
%ADD13R,0.500000X0.300000*%
%ADD14R,1.100000X1.700000*%
%ADD15C,1.000000*%
%ADD16R,0.650000X0.350000*%
%ADD17R,0.775000X1.200000*%
%ADD18R,1.800000X1.750000*%
%ADD19O,1.800000X1.750000*%
%ADD20R,0.500000X0.600000*%
%ADD21R,0.600000X0.500000*%
%ADD22R,0.797560X0.797560*%
%ADD23R,1.250000X1.000000*%
%ADD24R,0.600000X0.400000*%
%ADD25R,0.400000X0.600000*%
%ADD26R,1.450000X0.450000*%
%ADD27R,0.508000X0.304800*%
%ADD28R,0.304800X0.508000*%
%ADD29R,0.700000X0.600000*%
%ADD30R,1.000760X0.599440*%
%ADD31R,1.550000X0.600000*%
%ADD32R,1.700000X0.700000*%
%ADD33R,1.750000X1.800000*%
%ADD34O,1.750000X1.800000*%
%ADD35R,0.800000X0.250000*%
%ADD36R,0.250000X0.800000*%
%ADD37R,0.700000X0.250000*%
%ADD38R,0.250000X0.700000*%
%ADD39R,0.600000X0.270000*%
%ADD40R,0.500000X1.250000*%
%ADD41R,0.270000X0.600000*%
%ADD42R,1.250000X0.500000*%
%ADD43R,1.000000X0.250000*%
%ADD44R,0.250000X1.000000*%
%ADD45R,1.550000X1.500000*%
%ADD46R,1.550000X1.075000*%
%ADD47O,1.550000X0.900000*%
%ADD48O,1.050000X1.400000*%
%ADD49R,1.350000X0.400000*%
%ADD50R,0.475000X0.300000*%
%ADD51R,0.525000X0.300000*%
%ADD52R,0.300000X0.525000*%
%ADD53C,0.540000*%
%ADD54C,0.650000*%
%ADD55C,0.191000*%
%ADD56C,0.300000*%
%ADD57C,0.250000*%
%ADD58C,0.165000*%
%ADD59C,0.380000*%
G04 APERTURE END LIST*
D10*
D11*
X56350000Y-66450000D03*
X57350000Y-66450000D03*
X56850000Y-66450000D03*
X57850000Y-66450000D03*
X56850000Y-65350000D03*
X56350000Y-65350000D03*
X57350000Y-65350000D03*
X57850000Y-65350000D03*
X59200000Y-66450000D03*
X60200000Y-66450000D03*
X59700000Y-66450000D03*
X60700000Y-66450000D03*
X59700000Y-65350000D03*
X59200000Y-65350000D03*
X60200000Y-65350000D03*
X60700000Y-65350000D03*
D12*
X48775000Y-55625000D03*
X48775000Y-54625000D03*
X48775000Y-55125000D03*
X48775000Y-54125000D03*
X47675000Y-55125000D03*
X47675000Y-55625000D03*
X47675000Y-54625000D03*
X47675000Y-54125000D03*
X47600000Y-50975000D03*
X47600000Y-51975000D03*
X47600000Y-51475000D03*
D13*
X47650000Y-52475000D03*
D12*
X48700000Y-51475000D03*
X48700000Y-50975000D03*
X48700000Y-51975000D03*
D13*
X48650000Y-52475000D03*
D14*
X47574000Y-48982000D03*
X47574000Y-43982000D03*
X44374000Y-48982000D03*
X44374000Y-43982000D03*
D15*
X43100000Y-67700000D03*
D16*
X52337500Y-47575000D03*
X52337500Y-46925000D03*
X52337500Y-46275000D03*
X52337500Y-45625000D03*
X49237500Y-45625000D03*
X49237500Y-46275000D03*
X49237500Y-46925000D03*
X49237500Y-47575000D03*
D17*
X50400000Y-46000000D03*
X50400000Y-47200000D03*
X51175000Y-46000000D03*
X51175000Y-47200000D03*
D18*
X45212000Y-61468000D03*
D19*
X45212000Y-58928000D03*
X45212000Y-56388000D03*
X45212000Y-53848000D03*
X45212000Y-51308000D03*
D20*
X47625000Y-38502500D03*
X47625000Y-39602500D03*
X66800000Y-54190000D03*
X66800000Y-55290000D03*
X62150000Y-65130000D03*
X62150000Y-66230000D03*
D21*
X41471760Y-45110400D03*
X42571760Y-45110400D03*
X50000000Y-49700000D03*
X51100000Y-49700000D03*
D20*
X68200000Y-57800000D03*
X68200000Y-56700000D03*
D21*
X53900000Y-44000000D03*
X55000000Y-44000000D03*
X49259400Y-43950000D03*
X50359400Y-43950000D03*
X60600000Y-42350000D03*
X59500000Y-42350000D03*
D20*
X60050000Y-43950000D03*
X60050000Y-45050000D03*
D21*
X56950000Y-42375000D03*
X58050000Y-42375000D03*
D20*
X50150000Y-54250000D03*
X50150000Y-53150000D03*
X51425000Y-54250000D03*
X51425000Y-53150000D03*
D21*
X50275000Y-55575000D03*
X51375000Y-55575000D03*
X65500000Y-50650000D03*
X64400000Y-50650000D03*
D20*
X63700000Y-65140000D03*
X63700000Y-66240000D03*
D21*
X55150000Y-65150000D03*
X54050000Y-65150000D03*
D20*
X65600000Y-65150000D03*
X65600000Y-66250000D03*
X65140000Y-49170000D03*
X65140000Y-48070000D03*
X68350000Y-51800000D03*
X68350000Y-52900000D03*
X51100000Y-61550000D03*
X51100000Y-60450000D03*
D21*
X67020000Y-48390000D03*
X68120000Y-48390000D03*
D20*
X49400000Y-66500000D03*
X49400000Y-65400000D03*
X66802000Y-57700000D03*
X66802000Y-56600000D03*
X56450000Y-47000000D03*
X56450000Y-48100000D03*
D21*
X54800000Y-50650000D03*
X55900000Y-50650000D03*
D20*
X66780000Y-52880000D03*
X66780000Y-51780000D03*
D21*
X63100000Y-50650000D03*
X62000000Y-50650000D03*
D20*
X71870000Y-44840000D03*
X71870000Y-45940000D03*
D22*
X71500000Y-56451400D03*
X71500000Y-57950000D03*
D23*
X54700000Y-47700000D03*
X54700000Y-45700000D03*
D24*
X47625000Y-40825000D03*
X47625000Y-41725000D03*
D25*
X52520000Y-43992800D03*
X51620000Y-43992800D03*
X54900000Y-66500000D03*
X54000000Y-66500000D03*
X62921300Y-45525000D03*
X62021300Y-45525000D03*
X62950000Y-44050000D03*
X62050000Y-44050000D03*
X41774960Y-43809920D03*
X42674960Y-43809920D03*
X62900000Y-42400000D03*
X62000000Y-42400000D03*
D24*
X69700000Y-57800000D03*
X69700000Y-56900000D03*
X51200000Y-63050000D03*
X51200000Y-63950000D03*
D25*
X67550000Y-63800000D03*
X66650000Y-63800000D03*
X67550000Y-62350000D03*
X66650000Y-62350000D03*
D24*
X50050000Y-51000000D03*
X50050000Y-51900000D03*
X51425000Y-51000000D03*
X51425000Y-51900000D03*
D25*
X65750000Y-46650000D03*
X66650000Y-46650000D03*
D26*
X57575000Y-38650000D03*
X57575000Y-39300000D03*
X57575000Y-39950000D03*
X57575000Y-40600000D03*
X61975000Y-40600000D03*
X61975000Y-39950000D03*
X61975000Y-39300000D03*
X61975000Y-38650000D03*
D27*
X52682000Y-66700000D03*
X52682000Y-65430000D03*
X50650000Y-66700000D03*
X52682000Y-66065000D03*
X50650000Y-65430000D03*
D28*
X52625000Y-51086000D03*
X53895000Y-51086000D03*
X52625000Y-49054000D03*
X53260000Y-51086000D03*
X53895000Y-49054000D03*
D29*
X47850000Y-66550000D03*
X47850000Y-65150000D03*
X67200000Y-65150000D03*
X67200000Y-66550000D03*
D30*
X49700000Y-62424520D03*
X49700000Y-63725000D03*
X47800080Y-63074760D03*
D31*
X55050000Y-42375000D03*
X55050000Y-41105000D03*
X55050000Y-39835000D03*
X55050000Y-38565000D03*
X49650000Y-38565000D03*
X49650000Y-39835000D03*
X49650000Y-41105000D03*
X49650000Y-42375000D03*
D32*
X50950000Y-59250000D03*
X50950000Y-58050000D03*
X50950000Y-56850000D03*
D33*
X45212000Y-71628000D03*
X47752000Y-71628000D03*
X50292000Y-71628000D03*
X52832000Y-71628000D03*
X55372000Y-71628000D03*
X57912000Y-71628000D03*
X60452000Y-71628000D03*
X62992000Y-71628000D03*
X65532000Y-71628000D03*
D34*
X45212000Y-69088000D03*
X47752000Y-69088000D03*
X50292000Y-69088000D03*
X52832000Y-69088000D03*
X55372000Y-69088000D03*
X57912000Y-69088000D03*
X60452000Y-69088000D03*
X62992000Y-69088000D03*
X65532000Y-69088000D03*
D18*
X45085000Y-38989000D03*
D19*
X45085000Y-41402000D03*
X45212000Y-66548000D03*
X45212000Y-64008000D03*
X41529000Y-50101500D03*
X41529000Y-47561500D03*
D18*
X71310500Y-53848000D03*
D19*
X71310500Y-51308000D03*
X71310500Y-48768000D03*
D18*
X38989000Y-50101500D03*
D19*
X38989000Y-47561500D03*
X38989000Y-45021500D03*
D18*
X65405000Y-38989000D03*
D19*
X65405000Y-41529000D03*
X65405000Y-44069000D03*
D18*
X38989000Y-65341500D03*
D19*
X38989000Y-62801500D03*
X38989000Y-60261500D03*
X38989000Y-57721500D03*
X38989000Y-55181500D03*
X38989000Y-52641500D03*
D18*
X41529000Y-65341500D03*
D19*
X41529000Y-62801500D03*
X41529000Y-60261500D03*
X41529000Y-57721500D03*
X41529000Y-55181500D03*
X41529000Y-52641500D03*
D35*
X59830000Y-48600000D03*
X59830000Y-48100000D03*
X59830000Y-47600000D03*
D36*
X58050000Y-49400000D03*
X58550000Y-49400000D03*
X59050000Y-49400000D03*
X59550000Y-49400000D03*
D35*
X57770000Y-48600000D03*
X57770000Y-48100000D03*
X57770000Y-47600000D03*
D36*
X58050000Y-46800000D03*
X58550000Y-46800000D03*
X59050000Y-46800000D03*
X59550000Y-46800000D03*
D16*
X68575000Y-46175000D03*
X70225000Y-46175000D03*
X68575000Y-45525000D03*
X70225000Y-45525000D03*
X68575000Y-44875000D03*
X70225000Y-44875000D03*
X68575000Y-44225000D03*
X70225000Y-44225000D03*
D37*
X58353200Y-44550000D03*
X56353200Y-44550000D03*
D38*
X56603200Y-43850000D03*
X57103200Y-43850000D03*
X57603200Y-43850000D03*
X58103200Y-43850000D03*
X58103200Y-45250000D03*
X57603200Y-45250000D03*
X57103200Y-45250000D03*
X56603200Y-45250000D03*
D39*
X66900000Y-50600000D03*
X68450000Y-50600000D03*
X66900000Y-50100000D03*
X68450000Y-50100000D03*
X66900000Y-49600000D03*
X68450000Y-49600000D03*
D40*
X67675000Y-50100000D03*
D41*
X67600000Y-60775000D03*
X67600000Y-59225000D03*
X67100000Y-60775000D03*
X67100000Y-59225000D03*
X66600000Y-60775000D03*
X66600000Y-59225000D03*
D42*
X67100000Y-60000000D03*
D15*
X67900000Y-39000000D03*
D43*
X53000000Y-54200100D03*
X53000000Y-54700100D03*
X53000000Y-55200100D03*
X53000000Y-55700100D03*
X53000000Y-56200100D03*
X53000000Y-56700100D03*
X53000000Y-57200100D03*
X53000000Y-57700100D03*
X53000000Y-58200100D03*
X53000000Y-58700100D03*
X53000000Y-59200100D03*
X53000000Y-59700100D03*
X53000000Y-60200100D03*
X53000000Y-60700100D03*
X53000000Y-61200100D03*
X53000000Y-61700100D03*
D44*
X54950000Y-63650100D03*
X55450000Y-63650100D03*
X55950000Y-63650100D03*
X56450000Y-63650100D03*
X56950000Y-63650100D03*
X57450000Y-63650100D03*
X57950000Y-63650100D03*
X58450000Y-63650100D03*
X58950000Y-63650100D03*
X59450000Y-63650100D03*
X59950000Y-63650100D03*
X60450000Y-63650100D03*
X60950000Y-63650100D03*
X61450000Y-63650100D03*
X61950000Y-63650100D03*
X62450000Y-63650100D03*
D43*
X64400000Y-61700100D03*
X64400000Y-61200100D03*
X64400000Y-60700100D03*
X64400000Y-60200100D03*
X64400000Y-59700100D03*
X64400000Y-59200100D03*
X64400000Y-58700100D03*
X64400000Y-58200100D03*
X64400000Y-57700100D03*
X64400000Y-57200100D03*
X64400000Y-56700100D03*
X64400000Y-56200100D03*
X64400000Y-55700100D03*
X64400000Y-55200100D03*
X64400000Y-54700100D03*
X64400000Y-54200100D03*
D44*
X62450000Y-52250100D03*
X61950000Y-52250100D03*
X61450000Y-52250100D03*
X60950000Y-52250100D03*
X60450000Y-52250100D03*
X59950000Y-52250100D03*
X59450000Y-52250100D03*
X58950000Y-52250100D03*
X58450000Y-52250100D03*
X57950000Y-52250100D03*
X57450000Y-52250100D03*
X56950000Y-52250100D03*
X56450000Y-52250100D03*
X55950000Y-52250100D03*
X55450000Y-52250100D03*
X54950000Y-52250100D03*
D45*
X72009000Y-61738000D03*
X72009000Y-63738000D03*
D46*
X72009000Y-59838000D03*
D47*
X72009000Y-59238000D03*
X72009000Y-66238000D03*
D48*
X69309000Y-60238000D03*
D49*
X69309000Y-61438000D03*
X69309000Y-62088000D03*
X69309000Y-62738000D03*
X69309000Y-63388000D03*
X69309000Y-64038000D03*
D48*
X69309000Y-65238000D03*
D46*
X72009000Y-65638000D03*
D50*
X63470000Y-47850000D03*
D51*
X63455000Y-48350000D03*
X63455000Y-48850000D03*
D50*
X63470000Y-49350000D03*
D52*
X62900000Y-47795000D03*
X62400000Y-49405000D03*
X62900000Y-49405000D03*
X62400000Y-47795000D03*
D50*
X61830000Y-49350000D03*
D51*
X61845000Y-48850000D03*
X61845000Y-48350000D03*
D50*
X61830000Y-47850000D03*
D12*
X47850000Y-58600000D03*
X47850000Y-59600000D03*
X47850000Y-59100000D03*
X47850000Y-60100000D03*
X48950000Y-59100000D03*
X48950000Y-58600000D03*
X48950000Y-59600000D03*
X48950000Y-60100000D03*
D53*
X52069328Y-55386397D03*
X60650000Y-45040000D03*
X61267670Y-48519898D03*
X64057224Y-51334581D03*
X65153610Y-47250331D03*
D54*
X54928481Y-43355511D03*
D53*
X56613920Y-40597950D03*
X46391227Y-48949989D03*
X60294625Y-62774601D03*
X71110000Y-45770000D03*
X67132086Y-46017793D03*
D54*
X63010000Y-65970011D03*
D53*
X57434977Y-46112105D03*
X56970000Y-48680000D03*
X51669490Y-60464944D03*
D54*
X58790491Y-42143362D03*
X64796015Y-66057272D03*
D53*
X49904617Y-48311485D03*
X53500000Y-38575000D03*
X57175000Y-51200000D03*
X48774893Y-57774000D03*
X69200000Y-50149996D03*
D54*
X53149996Y-64750000D03*
X51000000Y-44650000D03*
D53*
X50800000Y-53150000D03*
X55985011Y-51302708D03*
X69090000Y-48390000D03*
X51925000Y-49700000D03*
X53700000Y-51850000D03*
X49500000Y-61450000D03*
X49400000Y-64550000D03*
D54*
X67550000Y-52350000D03*
X66800000Y-55950000D03*
D53*
X46950000Y-45400000D03*
X43450000Y-45438640D03*
D54*
X47630000Y-42641998D03*
D53*
X56414978Y-39272490D03*
X48400000Y-38600000D03*
X70540000Y-57770000D03*
X49023101Y-49572669D03*
D54*
X53300000Y-46550000D03*
D53*
X57250516Y-43040239D03*
D54*
X53900000Y-44700000D03*
X61250000Y-42350000D03*
X63275000Y-38650000D03*
X49530000Y-43180000D03*
X61359998Y-44034858D03*
D53*
X55538717Y-57544457D03*
X49551368Y-54253375D03*
X54989679Y-58001555D03*
X50810006Y-54820000D03*
X54433235Y-57510450D03*
X49450000Y-55600000D03*
X56373349Y-62833531D03*
X66235471Y-50553665D03*
D54*
X63070000Y-64390000D03*
D53*
X54316975Y-58212529D03*
X55939251Y-55437380D03*
X53988511Y-53885472D03*
X48550000Y-45644987D03*
X55754053Y-65056605D03*
X51431972Y-50383837D03*
X51940000Y-61140000D03*
X67450000Y-57625000D03*
D54*
X66882631Y-61558030D03*
D53*
X54950000Y-51300000D03*
D54*
X65900000Y-53400000D03*
D53*
X64210000Y-49190000D03*
X62712490Y-49967496D03*
X65856606Y-47303614D03*
X66153442Y-49853442D03*
X58230000Y-50230000D03*
X57075000Y-46975000D03*
X67000000Y-49050000D03*
X52075000Y-48875000D03*
D54*
X50110000Y-66040000D03*
X66358812Y-65777945D03*
D53*
X69250000Y-49394987D03*
X69050000Y-51100000D03*
X67200000Y-58450000D03*
D54*
X69650000Y-58450000D03*
D53*
X46250000Y-43450000D03*
X67610000Y-46810000D03*
X71000000Y-46750000D03*
D54*
X71250000Y-44875000D03*
X66370000Y-64630000D03*
D53*
X57964295Y-54831109D03*
X55570000Y-66720000D03*
X57281194Y-67226832D03*
X47150000Y-53750000D03*
X46880000Y-50430000D03*
X46910000Y-59790000D03*
X47140000Y-58220000D03*
X46695000Y-52510000D03*
X47700000Y-46900000D03*
X48150000Y-46275000D03*
X58930000Y-64490000D03*
X51580000Y-66280000D03*
X63749314Y-47224318D03*
X62983264Y-55011358D03*
X63407428Y-60217610D03*
X65045583Y-46553644D03*
X58336304Y-55429984D03*
X53320000Y-66197510D03*
X51992998Y-65440000D03*
X49350000Y-51450000D03*
X50300128Y-61349872D03*
X61630000Y-55200000D03*
X61000000Y-62719998D03*
X58648967Y-58629591D03*
X56307633Y-64601107D03*
X58431856Y-59304918D03*
X57012557Y-64613574D03*
X58260000Y-64720000D03*
D54*
X58905928Y-53118195D03*
D53*
X60490000Y-64590000D03*
X59934200Y-60561572D03*
X61390000Y-64650000D03*
X62440788Y-62102490D03*
X55543672Y-56656406D03*
X49286521Y-53600000D03*
X49675811Y-58497176D03*
X55919495Y-59088621D03*
X49685765Y-59959601D03*
X54846620Y-60076542D03*
X54737398Y-54634358D03*
X49220000Y-50489998D03*
X49664988Y-59202105D03*
X62516367Y-59544050D03*
X55385804Y-59622315D03*
X62983989Y-55926352D03*
X56485664Y-56909334D03*
X49327343Y-52233678D03*
X57123243Y-57210223D03*
X48182036Y-56834779D03*
X49612382Y-57242605D03*
X48700128Y-61249872D03*
X63854648Y-46527222D03*
X62241869Y-55931717D03*
X55440732Y-54938861D03*
X52800000Y-51800000D03*
X53530000Y-42350000D03*
X61988037Y-53290000D03*
X57411406Y-62649993D03*
X57119331Y-49414374D03*
X58855022Y-62715088D03*
X58469989Y-45964988D03*
X54580000Y-61159989D03*
X53350000Y-43040000D03*
X61100000Y-61590000D03*
X60922373Y-54320953D03*
X61270000Y-45950000D03*
X61455355Y-59800898D03*
X59426485Y-45964988D03*
X59002490Y-44929976D03*
X64760000Y-51390687D03*
X65954994Y-48001727D03*
X60520000Y-49540000D03*
X60672410Y-47137845D03*
X63582145Y-45305984D03*
X62381934Y-46521834D03*
X60402479Y-51000000D03*
X53050000Y-45600000D03*
X55050000Y-48900000D03*
X65530000Y-45422490D03*
X60243174Y-54131926D03*
X56518473Y-43118218D03*
X56484734Y-41291025D03*
X56732339Y-46054306D03*
X58950000Y-43599998D03*
X53450000Y-41060000D03*
X53838934Y-57116857D03*
X63143109Y-57069352D03*
X65450000Y-55200000D03*
X64375997Y-52435179D03*
D54*
X51100001Y-40100001D03*
D55*
X51175000Y-45209000D02*
X51100178Y-44970000D01*
D56*
X51000000Y-44650000D02*
X51100178Y-44970000D01*
D57*
X51669490Y-60464944D02*
X51100000Y-60450000D01*
D55*
X63787225Y-51064582D02*
X63840000Y-51117357D01*
D57*
X64057224Y-51334581D02*
X63840000Y-51117357D01*
D58*
X57770000Y-48600000D02*
X57210000Y-48600000D01*
D57*
X56970000Y-48680000D02*
X57210000Y-48600000D01*
D55*
X62400000Y-47837500D02*
X62400000Y-48200000D01*
X62250000Y-48350000D02*
X61902500Y-48350000D01*
X62400000Y-48200000D02*
X62250000Y-48350000D01*
X61902500Y-48350000D02*
X61877500Y-48325000D01*
D58*
X61877500Y-48325000D02*
X61862500Y-48340000D01*
X61862500Y-48340000D02*
X61490000Y-48340000D01*
X61490000Y-48340000D02*
X61475000Y-48325000D01*
X61877500Y-48825000D02*
X61852500Y-48850000D01*
X61852500Y-48850000D02*
X61500000Y-48850000D01*
X61500000Y-48850000D02*
X61475000Y-48825000D01*
D57*
X52069328Y-55386397D02*
X51840000Y-55575000D01*
D58*
X52119999Y-53894999D02*
X52119999Y-55140000D01*
X52119999Y-55140000D02*
X52119999Y-55270001D01*
D57*
X52069328Y-55386397D02*
X52119999Y-55140000D01*
D58*
X51425000Y-53200000D02*
X52119999Y-53894999D01*
X51425000Y-53150000D02*
X51425000Y-53200000D01*
D57*
X60650000Y-45040000D02*
X60640000Y-45050000D01*
X60640000Y-45050000D02*
X60440000Y-45050000D01*
D55*
X61475000Y-48825000D02*
X61267670Y-48617670D01*
X61280102Y-48519898D02*
X61267670Y-48519898D01*
X61267670Y-48617670D02*
X61267670Y-48519898D01*
X61475000Y-48325000D02*
X61280102Y-48519898D01*
X63750000Y-51027357D02*
X63787225Y-51064582D01*
X63750000Y-50809000D02*
X63750000Y-51027357D01*
D57*
X45800000Y-48980000D02*
X45600000Y-48982000D01*
X46009390Y-48949989D02*
X45800000Y-48980000D01*
X56613920Y-40597950D02*
X57575000Y-40600000D01*
D55*
X60050000Y-45050000D02*
X60440000Y-45050000D01*
D58*
X65140000Y-47290000D02*
X65140000Y-47530000D01*
X65140000Y-47530000D02*
X65140000Y-48070000D01*
D57*
X65153610Y-47250331D02*
X65140000Y-47530000D01*
X65140000Y-47290000D02*
X65140000Y-47263941D01*
X65140000Y-47263941D02*
X65153610Y-47250331D01*
D55*
X55000000Y-43427030D02*
X54928481Y-43355511D01*
X55000000Y-44000000D02*
X55000000Y-43427030D01*
D59*
X46009390Y-48949989D02*
X46391227Y-48949989D01*
D57*
X60294625Y-62774601D02*
X60450000Y-62929976D01*
D58*
X60450000Y-63650100D02*
X60450000Y-62929976D01*
D55*
X68710000Y-60129090D02*
X68000000Y-60000000D01*
D56*
X69309000Y-60238000D02*
X68710000Y-60129090D01*
D55*
X67100000Y-60000000D02*
X68000000Y-60000000D01*
X55450000Y-51559100D02*
X55609100Y-51400000D01*
D57*
X55985011Y-51302708D02*
X55609100Y-51400000D01*
D58*
X53895000Y-51645000D02*
X53895000Y-51580000D01*
X53895000Y-51580000D02*
X53895000Y-51086000D01*
D57*
X53700000Y-51850000D02*
X53895000Y-51580000D01*
D55*
X70850000Y-45628181D02*
X70670000Y-45530000D01*
D57*
X71110000Y-45770000D02*
X70850000Y-45628181D01*
D55*
X71530000Y-45940000D02*
X71360000Y-45871191D01*
D57*
X71110000Y-45770000D02*
X71360000Y-45871191D01*
D55*
X70670000Y-45530000D02*
X70225000Y-45525000D01*
X71870000Y-45940000D02*
X71530000Y-45940000D01*
D57*
X67132086Y-46017793D02*
X67525000Y-46100000D01*
X42571760Y-45110400D02*
X43000000Y-45110400D01*
X43450000Y-45438640D02*
X43000000Y-45110400D01*
X44374000Y-48982000D02*
X45600000Y-48982000D01*
D55*
X67875000Y-46175000D02*
X68575000Y-46175000D01*
X67525000Y-46100000D02*
X67875000Y-46175000D01*
X68450000Y-50100000D02*
X68825000Y-50100000D01*
X69200000Y-50149996D02*
X68825000Y-50100000D01*
D57*
X58790491Y-42143362D02*
X58997129Y-42350000D01*
X58558853Y-42375000D02*
X58790491Y-42143362D01*
X65600000Y-66250000D02*
X65100000Y-66250000D01*
X65100000Y-66250000D02*
X64988743Y-66250000D01*
X64796015Y-66057272D02*
X65100000Y-66250000D01*
X64796015Y-66057272D02*
X64988743Y-66250000D01*
X64400000Y-66240000D02*
X64613287Y-66240000D01*
X63700000Y-66240000D02*
X64400000Y-66240000D01*
X64400000Y-66240000D02*
X64796015Y-66057272D01*
X64613287Y-66240000D02*
X64988743Y-66250000D01*
X52682000Y-65027600D02*
X52859600Y-64850000D01*
D56*
X53149996Y-64750000D02*
X52859600Y-64850000D01*
D57*
X53500000Y-65150000D02*
X53370000Y-65020000D01*
D56*
X53149996Y-64750000D02*
X53370000Y-65020000D01*
D58*
X67259619Y-55950000D02*
X67150000Y-55950000D01*
D56*
X66800000Y-55950000D02*
X67150000Y-55950000D01*
D57*
X47630000Y-42300000D02*
X47630000Y-41730000D01*
D56*
X47630000Y-42641998D02*
X47630000Y-42300000D01*
D55*
X51000000Y-43950000D02*
X51000000Y-44300000D01*
D56*
X51000000Y-44650000D02*
X51000000Y-44300000D01*
D55*
X67440000Y-51990000D02*
X67230000Y-51780000D01*
D56*
X67550000Y-52350000D02*
X67440000Y-51990000D01*
D55*
X67850000Y-52900000D02*
X67650000Y-52700000D01*
D56*
X67550000Y-52350000D02*
X67650000Y-52700000D01*
D55*
X52309000Y-59700100D02*
X51789100Y-60220000D01*
D56*
X51669490Y-60464944D02*
X51789100Y-60220000D01*
X63010000Y-65970011D02*
X63259000Y-66240000D01*
X63010000Y-65970011D02*
X62750011Y-66230000D01*
D55*
X49400000Y-65400000D02*
X49400000Y-64830000D01*
D56*
X49400000Y-64550000D02*
X49400000Y-64830000D01*
D55*
X49644688Y-61800000D02*
X49700000Y-61933800D01*
D56*
X49500000Y-61450000D02*
X49644688Y-61800000D01*
D58*
X49156730Y-57774000D02*
X49040000Y-57774000D01*
D56*
X48774893Y-57774000D02*
X49040000Y-57774000D01*
D58*
X50400000Y-47965000D02*
X50155000Y-48210000D01*
D57*
X49904617Y-48311485D02*
X50155000Y-48210000D01*
D56*
X57434977Y-46112105D02*
X57603200Y-45943882D01*
D55*
X68120000Y-48390000D02*
X68790000Y-48390000D01*
D57*
X69090000Y-48390000D02*
X68790000Y-48390000D01*
D58*
X56970000Y-48320000D02*
X56970000Y-48400000D01*
D57*
X56970000Y-48680000D02*
X56970000Y-48400000D01*
D58*
X56610000Y-48680000D02*
X56690000Y-48680000D01*
D57*
X56970000Y-48680000D02*
X56690000Y-48680000D01*
D58*
X51100000Y-49700000D02*
X51650000Y-49700000D01*
D57*
X51925000Y-49700000D02*
X51650000Y-49700000D01*
D58*
X53260000Y-51505000D02*
X53445000Y-51690000D01*
D57*
X53700000Y-51850000D02*
X53445000Y-51690000D01*
D55*
X55900000Y-50650000D02*
X55900000Y-51050000D01*
D57*
X55985011Y-51302708D02*
X55900000Y-51050000D01*
D55*
X55450000Y-63650100D02*
X55450000Y-64154549D01*
X55450000Y-64154549D02*
X55088549Y-64516000D01*
X55088549Y-64516000D02*
X54243000Y-64516000D01*
X54243000Y-64516000D02*
X54050000Y-64709000D01*
X54050000Y-64709000D02*
X54050000Y-65150000D01*
X63700000Y-66240000D02*
X63259000Y-66240000D01*
X62150000Y-66230000D02*
X62750011Y-66230000D01*
D56*
X38989000Y-65341500D02*
X41529000Y-65341500D01*
X45212000Y-71628000D02*
X65532000Y-71628000D01*
D58*
X57603200Y-45250000D02*
X57603200Y-45943882D01*
X57770000Y-48100000D02*
X57190000Y-48100000D01*
X57190000Y-48100000D02*
X56970000Y-48320000D01*
X56450000Y-48520000D02*
X56610000Y-48680000D01*
X56450000Y-48100000D02*
X56450000Y-48520000D01*
D55*
X53000000Y-59700100D02*
X52309000Y-59700100D01*
X59500000Y-42350000D02*
X58997129Y-42350000D01*
X58050000Y-42375000D02*
X58558853Y-42375000D01*
D58*
X50400000Y-47200000D02*
X50400000Y-47965000D01*
X68200000Y-56700000D02*
X68200000Y-56235000D01*
X68200000Y-56235000D02*
X67915000Y-55950000D01*
X67915000Y-55950000D02*
X67259619Y-55950000D01*
D57*
X54015000Y-38575000D02*
X53500000Y-38575000D01*
X55050000Y-38565000D02*
X54025000Y-38565000D01*
X54025000Y-38565000D02*
X54015000Y-38575000D01*
D58*
X51375000Y-55575000D02*
X51840000Y-55575000D01*
X51840000Y-55575000D02*
X52150000Y-55265000D01*
X49675000Y-57774000D02*
X49156730Y-57774000D01*
X50950000Y-58050000D02*
X49951000Y-58050000D01*
X49951000Y-58050000D02*
X49675000Y-57774000D01*
X50400000Y-47200000D02*
X51175000Y-47200000D01*
X50400000Y-47200000D02*
X50400000Y-46000000D01*
X50400000Y-46000000D02*
X51175000Y-46000000D01*
D57*
X54050000Y-65150000D02*
X53500000Y-65150000D01*
X52682000Y-65430000D02*
X52682000Y-65027600D01*
D55*
X51000000Y-43950000D02*
X51577200Y-43950000D01*
X50359400Y-43950000D02*
X51000000Y-43950000D01*
X51577200Y-43950000D02*
X51620000Y-43992800D01*
X51175000Y-46000000D02*
X51175000Y-45209000D01*
X51425000Y-53150000D02*
X50800000Y-53150000D01*
X50150000Y-53150000D02*
X50800000Y-53150000D01*
X55450000Y-52250100D02*
X55450000Y-51559100D01*
X55937719Y-51350000D02*
X55985011Y-51302708D01*
X55900000Y-51350000D02*
X55937719Y-51350000D01*
X68450000Y-50100000D02*
X67675000Y-50100000D01*
X63591000Y-50650000D02*
X63750000Y-50809000D01*
X64400000Y-50650000D02*
X63909000Y-50650000D01*
X63100000Y-50650000D02*
X63591000Y-50650000D01*
X63909000Y-50650000D02*
X63750000Y-50809000D01*
D58*
X52337500Y-46925000D02*
X51450000Y-46925000D01*
X51450000Y-46925000D02*
X51175000Y-47200000D01*
X53900000Y-51650000D02*
X53895000Y-51645000D01*
X53260000Y-51086000D02*
X53260000Y-51505000D01*
D55*
X49237500Y-47575000D02*
X50025000Y-47575000D01*
X50025000Y-47575000D02*
X50400000Y-47200000D01*
X49700000Y-62424520D02*
X49700000Y-61933800D01*
X72009000Y-61738000D02*
X72009000Y-59838000D01*
X72009000Y-61738000D02*
X72009000Y-63738000D01*
X72009000Y-65638000D02*
X72009000Y-63738000D01*
D57*
X72009000Y-59159000D02*
X71500000Y-58650000D01*
X71500000Y-58650000D02*
X71500000Y-57950000D01*
D55*
X67230000Y-51780000D02*
X66780000Y-51780000D01*
X68350000Y-52900000D02*
X67850000Y-52900000D01*
X66800000Y-55290000D02*
X66800000Y-55950000D01*
X66800000Y-56107000D02*
X66800000Y-55950000D01*
X66802000Y-56600000D02*
X66802000Y-56109000D01*
X66802000Y-56109000D02*
X66800000Y-56107000D01*
X67100000Y-59225000D02*
X67100000Y-60000000D01*
D57*
X72009000Y-59159000D02*
X72009000Y-59363000D01*
X69309000Y-61438000D02*
X69309000Y-60238000D01*
X47630000Y-41730000D02*
X47625000Y-41725000D01*
X47625000Y-38502500D02*
X48120000Y-38502500D01*
X48400000Y-38600000D02*
X48120000Y-38502500D01*
X56414978Y-39272490D02*
X55940651Y-39180000D01*
X56414978Y-39272490D02*
X56414978Y-39654327D01*
D55*
X48400000Y-38981837D02*
X48400000Y-38600000D01*
X55940651Y-39180000D02*
X48598163Y-39180000D01*
X48598163Y-39180000D02*
X48400000Y-38981837D01*
X57575000Y-39950000D02*
X56659000Y-39950000D01*
X56659000Y-39950000D02*
X56414978Y-39705978D01*
X56414978Y-39705978D02*
X56414978Y-39654327D01*
D59*
X45085000Y-41402000D02*
X46510000Y-40250000D01*
D58*
X46510000Y-40250000D02*
X45675000Y-41085000D01*
D57*
X47625000Y-40250000D02*
X47625000Y-40825000D01*
X47625000Y-39602500D02*
X47625000Y-40250000D01*
X47625000Y-40250000D02*
X46510000Y-40250000D01*
X45085000Y-41402000D02*
X45098000Y-41402000D01*
D55*
X66800000Y-54190000D02*
X66200000Y-54190000D01*
X65164756Y-54700100D02*
X66200000Y-54190000D01*
X65164756Y-54700100D02*
X64400000Y-54700100D01*
X53030000Y-46388586D02*
X52840000Y-46275000D01*
D56*
X53300000Y-46550000D02*
X53030000Y-46388586D01*
D55*
X52337500Y-46275000D02*
X52840000Y-46275000D01*
D58*
X70150000Y-57352499D02*
X70300000Y-57419271D01*
X70300000Y-57419271D02*
X70391498Y-57460000D01*
D57*
X70540000Y-57770000D02*
X70300000Y-57419271D01*
D58*
X69062501Y-57352499D02*
X70150000Y-57352499D01*
D57*
X40889600Y-45110400D02*
X40320000Y-45680000D01*
D56*
X38989000Y-47561500D02*
X40320000Y-45680000D01*
D57*
X47850000Y-66550000D02*
X46400000Y-66550000D01*
D56*
X45212000Y-66548000D02*
X46400000Y-66550000D01*
D55*
X53300000Y-47116000D02*
X53300000Y-46900000D01*
D57*
X53300000Y-46550000D02*
X53300000Y-46900000D01*
D55*
X50000000Y-49700000D02*
X49330000Y-49700000D01*
D57*
X49023101Y-49572669D02*
X49330000Y-49700000D01*
D56*
X38989000Y-47561500D02*
X39014000Y-47561500D01*
D55*
X54700000Y-47700000D02*
X53884000Y-47700000D01*
X53884000Y-47700000D02*
X53300000Y-47116000D01*
D58*
X68200000Y-57800000D02*
X68615000Y-57800000D01*
X68615000Y-57800000D02*
X69062501Y-57352499D01*
D57*
X40400000Y-45600000D02*
X40889600Y-45110400D01*
X40889600Y-45110400D02*
X41471760Y-45110400D01*
D55*
X61950000Y-64300000D02*
X61950000Y-63650100D01*
X61950000Y-64300000D02*
X62150000Y-64700000D01*
X62150000Y-65130000D02*
X62150000Y-64700000D01*
D57*
X49259400Y-43950000D02*
X49259400Y-43580000D01*
D56*
X49530000Y-43180000D02*
X49259400Y-43580000D01*
X49530000Y-43180000D02*
X49650000Y-42790000D01*
D57*
X49650000Y-42375000D02*
X49650000Y-42790000D01*
D55*
X60920000Y-42350000D02*
X60600000Y-42350000D01*
D57*
X61250000Y-42350000D02*
X60920000Y-42350000D01*
D55*
X53900000Y-44400000D02*
X53900000Y-44000000D01*
D57*
X53900000Y-44700000D02*
X53900000Y-44400000D01*
D55*
X54391000Y-44700000D02*
X54200000Y-44700000D01*
D57*
X53900000Y-44700000D02*
X54200000Y-44700000D01*
D55*
X61975000Y-38650000D02*
X62950000Y-38650000D01*
D56*
X63275000Y-38650000D02*
X62950000Y-38650000D01*
X57250516Y-43040239D02*
X57103200Y-43187555D01*
D58*
X57070000Y-42859723D02*
X56980517Y-42770240D01*
D56*
X57250516Y-43040239D02*
X57070000Y-42859723D01*
D58*
X56980517Y-42759483D02*
X56950000Y-42728966D01*
X56950000Y-42728966D02*
X56950000Y-42375000D01*
X56980517Y-42770240D02*
X56980517Y-42759483D01*
X57200239Y-43040239D02*
X57250516Y-43040239D01*
D55*
X57103200Y-43850000D02*
X57103200Y-43187555D01*
X56950000Y-42375000D02*
X57069499Y-42494499D01*
X54700000Y-45700000D02*
X54700000Y-45009000D01*
X54700000Y-45009000D02*
X54391000Y-44700000D01*
D58*
X61575000Y-45060000D02*
X60465000Y-43950000D01*
X62021300Y-45425000D02*
X61656300Y-45060000D01*
X62021300Y-45525000D02*
X62021300Y-45425000D01*
X61656300Y-45060000D02*
X61575000Y-45060000D01*
X60465000Y-43950000D02*
X60050000Y-43950000D01*
X59220000Y-45447486D02*
X58830000Y-45447486D01*
X59220000Y-45447486D02*
X59520000Y-45255909D01*
X58393200Y-45250000D02*
X58830000Y-45447486D01*
X60050000Y-43950000D02*
X59660000Y-43950000D01*
X59660000Y-43950000D02*
X59520000Y-44090000D01*
X59520000Y-44090000D02*
X59520000Y-45255909D01*
X58393200Y-45250000D02*
X58103200Y-45250000D01*
D55*
X62050000Y-44050000D02*
X61700000Y-44050000D01*
D57*
X61359998Y-44034858D02*
X61700000Y-44050000D01*
D56*
X61359998Y-44034858D02*
X61034999Y-43709859D01*
D55*
X60375140Y-43050000D02*
X61034999Y-43709859D01*
X57603200Y-43850000D02*
X57603200Y-43481944D01*
X57603200Y-43481944D02*
X58035144Y-43050000D01*
X58035144Y-43050000D02*
X60375140Y-43050000D01*
D58*
X55538717Y-57926294D02*
X55538717Y-57820000D01*
D57*
X55538717Y-57544457D02*
X55538717Y-57820000D01*
D58*
X55538717Y-58199165D02*
X55538717Y-57926294D01*
X53955505Y-59076439D02*
X54661443Y-59076439D01*
X54661443Y-59076439D02*
X55538717Y-58199165D01*
X53579166Y-58700100D02*
X53955505Y-59076439D01*
D55*
X53000000Y-58700100D02*
X53579166Y-58700100D01*
X49162525Y-54625000D02*
X49397525Y-54390000D01*
X49397525Y-54390000D02*
X49537525Y-54250000D01*
D56*
X49551368Y-54253375D02*
X49397525Y-54390000D01*
D58*
X50150000Y-54250000D02*
X49554743Y-54250000D01*
X49554743Y-54250000D02*
X49551368Y-54253375D01*
D55*
X49537525Y-54250000D02*
X50150000Y-54250000D01*
X48725000Y-54625000D02*
X49162525Y-54625000D01*
X51200000Y-54810501D02*
X51279499Y-54810501D01*
X51279499Y-54810501D02*
X51425000Y-54665000D01*
X51425000Y-54665000D02*
X51425000Y-54250000D01*
D58*
X54919808Y-58270000D02*
X54891176Y-58380000D01*
D57*
X54989679Y-58001555D02*
X54919808Y-58270000D01*
D58*
X54524748Y-58746428D02*
X54891176Y-58380000D01*
X53000000Y-58200100D02*
X53564255Y-58200100D01*
X54110583Y-58746428D02*
X54524748Y-58746428D01*
X53564255Y-58200100D02*
X54110583Y-58746428D01*
D55*
X49975000Y-54820000D02*
X50525000Y-54820000D01*
D57*
X50810006Y-54820000D02*
X50525000Y-54820000D01*
D55*
X49166000Y-55125000D02*
X49975000Y-54820000D01*
D57*
X51200000Y-54810501D02*
X50810006Y-54820000D01*
D55*
X48725000Y-55125000D02*
X49166000Y-55125000D01*
D58*
X53000000Y-57700100D02*
X54080000Y-57700100D01*
D57*
X54433235Y-57510450D02*
X54080000Y-57700100D01*
D55*
X48725000Y-55625000D02*
X49180000Y-55625000D01*
X49180000Y-55625000D02*
X49425000Y-55625000D01*
D56*
X49450000Y-55600000D02*
X49180000Y-55625000D01*
D58*
X50275000Y-55575000D02*
X49720000Y-55575000D01*
X49720000Y-55575000D02*
X49475000Y-55575000D01*
D56*
X49450000Y-55600000D02*
X49720000Y-55575000D01*
D58*
X49475000Y-55575000D02*
X49450000Y-55600000D01*
D55*
X49425000Y-55625000D02*
X49475000Y-55575000D01*
D58*
X56450000Y-63650100D02*
X56450000Y-63100000D01*
D57*
X56373349Y-62833531D02*
X56450000Y-63100000D01*
D55*
X66500000Y-50600000D02*
X66281806Y-50600000D01*
X66281806Y-50600000D02*
X66235471Y-50553665D01*
D58*
X66900000Y-50600000D02*
X66500000Y-50600000D01*
D55*
X63530000Y-64600000D02*
X63390000Y-64536086D01*
D57*
X63070000Y-64390000D02*
X63390000Y-64536086D01*
D55*
X63700000Y-64770000D02*
X63530000Y-64600000D01*
X63700000Y-65140000D02*
X63700000Y-64770000D01*
X62580000Y-64360000D02*
X62710000Y-64367959D01*
D57*
X63070000Y-64390000D02*
X62710000Y-64367959D01*
D55*
X62450000Y-64230000D02*
X62580000Y-64360000D01*
D57*
X63070000Y-64390000D02*
X63030000Y-64430000D01*
X63070000Y-64390000D02*
X63110000Y-64430000D01*
X51940000Y-61140000D02*
X52200000Y-60860002D01*
D55*
X53600000Y-54200000D02*
X53770000Y-54050259D01*
X53770000Y-54050259D02*
X54025000Y-53825649D01*
D57*
X53988511Y-53885472D02*
X53770000Y-54050259D01*
X54025000Y-53848983D02*
X53988511Y-53885472D01*
X54025000Y-53825649D02*
X54025000Y-53848983D01*
D58*
X62450000Y-64230000D02*
X62450000Y-63650100D01*
D55*
X53000000Y-54200100D02*
X53600000Y-54200000D01*
X53000000Y-54200100D02*
X53375000Y-54200100D01*
X49237500Y-45625000D02*
X48825000Y-45625000D01*
D57*
X48550000Y-45644987D02*
X48825000Y-45625000D01*
D55*
X66802000Y-57700000D02*
X67225000Y-57700000D01*
D57*
X67450000Y-57625000D02*
X67225000Y-57700000D01*
D56*
X66882631Y-61558030D02*
X66600000Y-61275399D01*
D55*
X66420000Y-52880000D02*
X66130000Y-53170000D01*
D56*
X65900000Y-53400000D02*
X66130000Y-53170000D01*
D55*
X65100000Y-54200000D02*
X65670000Y-53630000D01*
D56*
X65900000Y-53400000D02*
X65670000Y-53630000D01*
D55*
X52209999Y-60870001D02*
X52130000Y-60950000D01*
X51541000Y-61550000D02*
X51721000Y-61370000D01*
D56*
X51940000Y-61140000D02*
X51721000Y-61370000D01*
D55*
X55754053Y-64674768D02*
X55754053Y-64770000D01*
D57*
X55754053Y-65056605D02*
X55754053Y-64770000D01*
X51431972Y-50383837D02*
X51425000Y-50609000D01*
D55*
X55950000Y-64158023D02*
X55754053Y-64353970D01*
X55660658Y-65150000D02*
X55754053Y-65056605D01*
X55150000Y-65150000D02*
X55660658Y-65150000D01*
X55950000Y-63650100D02*
X55950000Y-64158023D01*
X55754053Y-64353970D02*
X55754053Y-64674768D01*
X51425000Y-51000000D02*
X51425000Y-50390809D01*
X51425000Y-50390809D02*
X51431972Y-50383837D01*
X52200000Y-60860002D02*
X52209999Y-60870001D01*
X52200000Y-60400000D02*
X52200000Y-60860002D01*
X53000000Y-60200100D02*
X52399900Y-60200100D01*
X52399900Y-60200100D02*
X52200000Y-60400000D01*
X51100000Y-61550000D02*
X51541000Y-61550000D01*
X66600000Y-61275399D02*
X66600000Y-60775000D01*
X55150000Y-65150000D02*
X55200000Y-65150000D01*
X66884000Y-61556661D02*
X66882631Y-61558030D01*
X66884000Y-61550000D02*
X66884000Y-61556661D01*
X51425000Y-51000000D02*
X51425000Y-50609000D01*
X50050000Y-51000000D02*
X51425000Y-51000000D01*
X54950000Y-51300000D02*
X54800000Y-51150000D01*
X54800000Y-51150000D02*
X54800000Y-50650000D01*
X54950000Y-52250100D02*
X54950000Y-51300000D01*
X66780000Y-52880000D02*
X66420000Y-52880000D01*
X64775100Y-54200000D02*
X65100000Y-54200000D01*
X64400000Y-54200100D02*
X64775000Y-54200100D01*
X64775000Y-54200100D02*
X64775100Y-54200000D01*
D57*
X57075000Y-46975000D02*
X56810000Y-47000000D01*
D58*
X56450000Y-47000000D02*
X56810000Y-47000000D01*
D57*
X64210000Y-49190000D02*
X64219066Y-49199066D01*
X64219066Y-49199066D02*
X64700934Y-49199066D01*
X64700934Y-49199066D02*
X64730000Y-49170000D01*
D55*
X65750000Y-46650000D02*
X65750000Y-47060000D01*
D57*
X65856606Y-47303614D02*
X65750000Y-47060000D01*
X62900000Y-49780000D02*
X62712504Y-49967496D01*
X62617496Y-49967496D02*
X62712490Y-49967496D01*
X62400000Y-49750000D02*
X62617496Y-49967496D01*
X62712504Y-49967496D02*
X62712490Y-49967496D01*
X66153442Y-49846558D02*
X66153442Y-49853442D01*
X66146558Y-49853442D02*
X66153442Y-49853442D01*
X66400000Y-49600000D02*
X66153442Y-49846558D01*
X65950000Y-50050000D02*
X66146558Y-49853442D01*
D55*
X62900000Y-49362500D02*
X62900000Y-49780000D01*
D58*
X62400000Y-49362500D02*
X62400000Y-49750000D01*
X57075000Y-47405000D02*
X57075000Y-47250000D01*
D57*
X57075000Y-46975000D02*
X57075000Y-47250000D01*
D55*
X65880001Y-50119999D02*
X65950000Y-50050000D01*
X65140000Y-49170000D02*
X64730000Y-49170000D01*
X67000000Y-48780000D02*
X67000000Y-48410000D01*
D57*
X67000000Y-49050000D02*
X67000000Y-48780000D01*
X58230000Y-50230000D02*
X58050000Y-50050000D01*
D55*
X58050000Y-49400000D02*
X58050000Y-50050000D01*
D58*
X57770000Y-47600000D02*
X57270000Y-47600000D01*
X57270000Y-47600000D02*
X57075000Y-47405000D01*
D55*
X65500000Y-50650000D02*
X65500000Y-50300000D01*
X65500000Y-50300000D02*
X65680001Y-50119999D01*
X65680001Y-50119999D02*
X65880001Y-50119999D01*
X66900000Y-49600000D02*
X66400000Y-49600000D01*
X67000000Y-48410000D02*
X67020000Y-48390000D01*
X50240000Y-66700000D02*
X50110000Y-66570000D01*
X50650000Y-66700000D02*
X50240000Y-66700000D01*
X67784000Y-58550000D02*
X67900000Y-58450000D01*
D56*
X66358812Y-65777945D02*
X66350000Y-65500000D01*
X66358812Y-65777945D02*
X66358812Y-66228812D01*
X67200000Y-58450000D02*
X66884000Y-58450000D01*
D55*
X67490000Y-58450000D02*
X67900000Y-58450000D01*
D56*
X67200000Y-58450000D02*
X67490000Y-58450000D01*
D55*
X69290000Y-58450000D02*
X67900000Y-58450000D01*
D56*
X69650000Y-58450000D02*
X69290000Y-58450000D01*
D55*
X69700000Y-57800000D02*
X69700000Y-58130000D01*
D56*
X69650000Y-58450000D02*
X69700000Y-58130000D01*
D57*
X46490000Y-43690000D02*
X46790000Y-43990000D01*
D56*
X46250000Y-43450000D02*
X46490000Y-43690000D01*
D55*
X68941000Y-49600000D02*
X69030000Y-49511000D01*
D56*
X69250000Y-49394987D02*
X69030000Y-49511000D01*
X69050000Y-51100000D02*
X69050000Y-50850000D01*
D55*
X69050000Y-51400000D02*
X69050000Y-51541000D01*
D56*
X69050000Y-51100000D02*
X69050000Y-51400000D01*
D57*
X52075000Y-48875000D02*
X52254000Y-49054000D01*
D58*
X52254000Y-49054000D02*
X52625000Y-49054000D01*
D57*
X50110000Y-66570000D02*
X50110000Y-66040000D01*
X49900000Y-66500000D02*
X50110000Y-66290000D01*
X49400000Y-66500000D02*
X49900000Y-66500000D01*
X50110000Y-66290000D02*
X50110000Y-66040000D01*
X65600000Y-65150000D02*
X66000000Y-65150000D01*
X66000000Y-65150000D02*
X66350000Y-65500000D01*
X67200000Y-66550000D02*
X66680000Y-66550000D01*
X66680000Y-66550000D02*
X66358812Y-66228812D01*
X46790000Y-43990000D02*
X47566000Y-43990000D01*
X47566000Y-43990000D02*
X47574000Y-43982000D01*
D55*
X69050000Y-51541000D02*
X68791000Y-51800000D01*
X68800000Y-50600000D02*
X68450000Y-50600000D01*
X69050000Y-50850000D02*
X68800000Y-50600000D01*
X68450000Y-49600000D02*
X68941000Y-49600000D01*
X68350000Y-51800000D02*
X68791000Y-51800000D01*
X66600000Y-59225000D02*
X66600000Y-58734000D01*
X66600000Y-58734000D02*
X66884000Y-58450000D01*
X67784000Y-58550000D02*
X67600000Y-58734000D01*
X67600000Y-58734000D02*
X67600000Y-59225000D01*
D57*
X47850000Y-65150000D02*
X48300000Y-65150000D01*
X48300000Y-65150000D02*
X48700000Y-65550000D01*
X48700000Y-65550000D02*
X48700000Y-66300000D01*
X48700000Y-66300000D02*
X48900000Y-66500000D01*
X48900000Y-66500000D02*
X49400000Y-66500000D01*
D55*
X66980000Y-46650000D02*
X67280000Y-46726191D01*
D57*
X67610000Y-46810000D02*
X67280000Y-46726191D01*
D55*
X66650000Y-46650000D02*
X66980000Y-46650000D01*
X70675000Y-46175000D02*
X70900000Y-46400000D01*
D57*
X71000000Y-46750000D02*
X70900000Y-46400000D01*
D55*
X70490000Y-44875000D02*
X70900000Y-44875000D01*
D57*
X71250000Y-44875000D02*
X70900000Y-44875000D01*
D55*
X70225000Y-44875000D02*
X70490000Y-44875000D01*
X70225000Y-46175000D02*
X70675000Y-46175000D01*
X71250000Y-44875000D02*
X71835000Y-44875000D01*
X71835000Y-44875000D02*
X71870000Y-44840000D01*
X62000000Y-50209000D02*
X61877500Y-49641000D01*
X61877500Y-49641000D02*
X61877500Y-49325000D01*
X62000000Y-50650000D02*
X62000000Y-50209000D01*
D57*
X69800000Y-56450000D02*
X69700000Y-56550000D01*
X69700000Y-56550000D02*
X69700000Y-56900000D01*
X70849820Y-56450000D02*
X69800000Y-56450000D01*
X71500000Y-56451400D02*
X70851220Y-56451400D01*
X70851220Y-56451400D02*
X70849820Y-56450000D01*
X67180000Y-64600000D02*
X66830000Y-64600000D01*
X66370000Y-64630000D02*
X66830000Y-64600000D01*
X67600000Y-64600000D02*
X67240000Y-64600000D01*
X68510000Y-64040000D02*
X67600000Y-64600000D01*
X69309000Y-64038000D02*
X68510000Y-64040000D01*
X67210000Y-64630000D02*
X67180000Y-64600000D01*
X67240000Y-64600000D02*
X67210000Y-64630000D01*
X67210000Y-64630000D02*
X67210000Y-65140000D01*
X67210000Y-65140000D02*
X67200000Y-65150000D01*
X67200000Y-65150000D02*
X67200000Y-64900000D01*
D58*
X56950000Y-53815403D02*
X57964295Y-54829698D01*
X57964295Y-54829698D02*
X57964295Y-54831109D01*
X56950000Y-52250100D02*
X56950000Y-53815403D01*
D57*
X55570000Y-66720000D02*
X55350000Y-66500000D01*
D55*
X54900000Y-66500000D02*
X55350000Y-66500000D01*
D57*
X55765011Y-67334989D02*
X49850000Y-67334989D01*
X49050000Y-68020000D02*
X49850000Y-67334989D01*
D59*
X47752000Y-69088000D02*
X49050000Y-68020000D01*
D55*
X55915011Y-67334989D02*
X55765011Y-67334989D01*
X56350000Y-66750000D02*
X56350000Y-66900000D01*
X56350000Y-66900000D02*
X55915011Y-67334989D01*
D57*
X56350000Y-66400000D02*
X56350000Y-66750000D01*
D59*
X50292000Y-69088000D02*
X51440000Y-68150000D01*
D57*
X55886914Y-67800000D02*
X51910000Y-67800000D01*
X51440000Y-68150000D02*
X51910000Y-67800000D01*
D55*
X56850000Y-66903475D02*
X55953475Y-67800000D01*
X55953475Y-67800000D02*
X55886914Y-67800000D01*
X56850000Y-66836914D02*
X56850000Y-66903475D01*
D57*
X56850000Y-66400000D02*
X56850000Y-66836914D01*
X57350000Y-66400000D02*
X57350000Y-66960000D01*
D56*
X57281194Y-67226832D02*
X57350000Y-66960000D01*
D57*
X56970000Y-67823008D02*
X57476992Y-67823008D01*
X56420000Y-68260000D02*
X56970000Y-67823008D01*
D59*
X55372000Y-69088000D02*
X56420000Y-68260000D01*
D57*
X57476992Y-67823008D02*
X57850000Y-67450000D01*
X57850000Y-67450000D02*
X57850000Y-66400000D01*
X58930000Y-67580000D02*
X59200000Y-66900000D01*
D59*
X57912000Y-69088000D02*
X58930000Y-67580000D01*
D57*
X59200000Y-66400000D02*
X59200000Y-66900000D01*
X59700000Y-66400000D02*
X59700000Y-67725000D01*
D59*
X60452000Y-69088000D02*
X59700000Y-67725000D01*
D57*
X60210000Y-66910000D02*
X60200000Y-66400000D01*
X60500000Y-67540000D02*
X60210000Y-66910000D01*
D59*
X62992000Y-69088000D02*
X60500000Y-67540000D01*
D57*
X60700000Y-66400000D02*
X60700000Y-66870000D01*
X60700000Y-66870000D02*
X60990000Y-67160000D01*
X60990000Y-67160000D02*
X63385000Y-67160000D01*
X63385000Y-67160000D02*
X63625000Y-67400000D01*
D59*
X65532000Y-69088000D02*
X63625000Y-67400000D01*
D56*
X65532000Y-69063000D02*
X65532000Y-69088000D01*
D57*
X41020000Y-43809920D02*
X41774960Y-43809920D01*
D56*
X38989000Y-45021500D02*
X41020000Y-43809920D01*
X38989000Y-45021500D02*
X39014000Y-45021500D01*
D57*
X62900000Y-42400000D02*
X63675000Y-42400000D01*
D59*
X65405000Y-41529000D02*
X63675000Y-42400000D01*
D56*
X45965000Y-58200000D02*
X46235000Y-57930000D01*
D59*
X45212000Y-58928000D02*
X45965000Y-58200000D01*
D57*
X47725000Y-56440000D02*
X46235000Y-57930000D01*
X47725000Y-55625000D02*
X47725000Y-56440000D01*
D59*
X45212000Y-56388000D02*
X45970000Y-55630000D01*
D57*
X46475000Y-55125000D02*
X45970000Y-55630000D01*
X47725000Y-55125000D02*
X46475000Y-55125000D01*
D56*
X45212000Y-53848000D02*
X45989000Y-54625000D01*
D57*
X47725000Y-54625000D02*
X45989000Y-54625000D01*
X47150000Y-53750000D02*
X47225000Y-54125000D01*
X47225000Y-54125000D02*
X47725000Y-54125000D01*
X47075240Y-63074760D02*
X46375000Y-63775000D01*
D56*
X45212000Y-64008000D02*
X46375000Y-63775000D01*
D57*
X47800080Y-63074760D02*
X47075240Y-63074760D01*
D55*
X46420000Y-62740000D02*
X47130000Y-62030000D01*
X47850000Y-60840000D02*
X47130000Y-62030000D01*
X47850000Y-60100000D02*
X47850000Y-60840000D01*
X43932500Y-62640000D02*
X44032500Y-62740000D01*
D59*
X41529000Y-60261500D02*
X41554000Y-60261500D01*
X41554000Y-60261500D02*
X43932500Y-62640000D01*
D55*
X44032500Y-62740000D02*
X46420000Y-62740000D01*
D59*
X44022500Y-60190000D02*
X41554000Y-57721500D01*
X41554000Y-57721500D02*
X41529000Y-57721500D01*
D58*
X48000000Y-59100000D02*
X46830000Y-59100000D01*
D55*
X45730000Y-60190000D02*
X46820000Y-59100000D01*
X46820000Y-59100000D02*
X46830000Y-59100000D01*
X45562468Y-60190000D02*
X45730000Y-60190000D01*
X44022500Y-60190000D02*
X45562468Y-60190000D01*
D59*
X41529000Y-55181500D02*
X41554000Y-55181500D01*
X41554000Y-55181500D02*
X44173032Y-52562468D01*
D58*
X47650000Y-51975000D02*
X46360000Y-51975000D01*
D55*
X44173032Y-52562468D02*
X45772532Y-52562468D01*
X45772532Y-52562468D02*
X46360000Y-51975000D01*
D58*
X47050000Y-50830000D02*
X46990500Y-50690000D01*
D57*
X46880000Y-50430000D02*
X46990500Y-50690000D01*
D58*
X47195000Y-50975000D02*
X47050000Y-50830000D01*
X47600000Y-50975000D02*
X47195000Y-50975000D01*
X47355000Y-50975000D02*
X47650000Y-50975000D01*
D55*
X47430000Y-59600000D02*
X47190000Y-59687692D01*
D57*
X46910000Y-59790000D02*
X47190000Y-59687692D01*
D55*
X47950000Y-59600000D02*
X47430000Y-59600000D01*
D58*
X47520000Y-58600000D02*
X47330000Y-58410000D01*
D57*
X47140000Y-58220000D02*
X47330000Y-58410000D01*
D58*
X48000000Y-58600000D02*
X47520000Y-58600000D01*
X47650000Y-52475000D02*
X46980000Y-52499555D01*
D57*
X46695000Y-52510000D02*
X46980000Y-52499555D01*
D58*
X46695000Y-52475000D02*
X46695000Y-52510000D01*
X47650000Y-51475000D02*
X47095000Y-51475000D01*
X47095000Y-51475000D02*
X45760000Y-50140000D01*
X45760000Y-50140000D02*
X44540000Y-50140000D01*
X44540000Y-50140000D02*
X44090000Y-50590000D01*
D55*
X40330000Y-51400000D02*
X42745490Y-51400000D01*
D59*
X38989000Y-52641500D02*
X39014000Y-52641500D01*
X40316500Y-51386500D02*
X40330000Y-51400000D01*
X39014000Y-52641500D02*
X40269000Y-51386500D01*
X40269000Y-51386500D02*
X40316500Y-51386500D01*
D55*
X44090000Y-50590000D02*
X43280000Y-51400000D01*
X43280000Y-51400000D02*
X42745490Y-51400000D01*
D57*
X67870000Y-62354000D02*
X67554000Y-62354000D01*
X68384000Y-62738000D02*
X67870000Y-62354000D01*
X67554000Y-62354000D02*
X67550000Y-62350000D01*
X69309000Y-62738000D02*
X68384000Y-62738000D01*
X68510000Y-63388000D02*
X69309000Y-63388000D01*
X68510000Y-63388000D02*
X67870000Y-63800000D01*
X67550000Y-63800000D02*
X67870000Y-63800000D01*
X49237500Y-46925000D02*
X48030000Y-46925000D01*
D56*
X47700000Y-46900000D02*
X48030000Y-46925000D01*
D55*
X48450000Y-46275000D02*
X49237500Y-46275000D01*
D57*
X48150000Y-46275000D02*
X48450000Y-46275000D01*
D55*
X50375000Y-63725000D02*
X49700000Y-63725000D01*
X50375000Y-63725000D02*
X50709000Y-63950000D01*
X51200000Y-63950000D02*
X50709000Y-63950000D01*
X58950000Y-64470000D02*
X58950000Y-63650100D01*
X58930000Y-64490000D02*
X58950000Y-64470000D01*
D58*
X53780000Y-66500000D02*
X53500000Y-66715012D01*
X54000000Y-66500000D02*
X53780000Y-66500000D01*
X53500000Y-66715012D02*
X53116012Y-66715012D01*
D55*
X52250000Y-66700000D02*
X51820000Y-66430447D01*
D57*
X51580000Y-66280000D02*
X51820000Y-66430447D01*
D58*
X53101000Y-66700000D02*
X52682000Y-66700000D01*
X53116012Y-66715012D02*
X53101000Y-66700000D01*
X52682000Y-66700000D02*
X52250000Y-66700000D01*
X63017760Y-46473057D02*
X63550000Y-47005297D01*
D57*
X63749314Y-47224318D02*
X63550000Y-47005297D01*
X62983264Y-55011358D02*
X62713265Y-54741359D01*
D58*
X57116774Y-54915589D02*
X57116774Y-55236956D01*
X57581331Y-55701513D02*
X57779235Y-55701514D01*
X55950000Y-52250100D02*
X55950000Y-53748815D01*
X57116774Y-55236956D02*
X57581331Y-55701513D01*
X58027719Y-55949998D02*
X60025447Y-55949998D01*
X55950000Y-53748815D02*
X57116774Y-54915589D01*
X62578153Y-54606247D02*
X62713265Y-54741359D01*
X61369198Y-54606247D02*
X62578153Y-54606247D01*
X60025447Y-55949998D02*
X61369198Y-54606247D01*
X57779235Y-55701514D02*
X58027719Y-55949998D01*
X63017760Y-45621460D02*
X63017760Y-46473057D01*
X62921300Y-45525000D02*
X63017760Y-45621460D01*
D57*
X65045583Y-46553644D02*
X65045583Y-46171807D01*
D58*
X64400000Y-60200100D02*
X63680000Y-60200100D01*
D57*
X63407428Y-60217610D02*
X63680000Y-60200100D01*
D55*
X65045583Y-46003520D02*
X65045583Y-46171807D01*
X64820000Y-45777937D02*
X65045583Y-46003520D01*
D58*
X62950000Y-44050000D02*
X62950000Y-44150000D01*
X63557063Y-44515000D02*
X64820000Y-45777937D01*
X63315000Y-44515000D02*
X63557063Y-44515000D01*
X62950000Y-44150000D02*
X63315000Y-44515000D01*
D57*
X42674960Y-43809920D02*
X43070000Y-43809920D01*
X43590000Y-43982000D02*
X44374000Y-43982000D01*
X43070000Y-43809920D02*
X43590000Y-43982000D01*
D58*
X61975000Y-39300000D02*
X62840000Y-39300000D01*
X62840000Y-39300000D02*
X63230000Y-39690000D01*
X63230000Y-39690000D02*
X63230000Y-40020000D01*
X63230000Y-40020000D02*
X63230000Y-40710000D01*
X63230000Y-40020000D02*
X63160000Y-39950000D01*
X63160000Y-39950000D02*
X61975000Y-39950000D01*
X63230000Y-40710000D02*
X62000000Y-41940000D01*
X62000000Y-41940000D02*
X62000000Y-42400000D01*
X56873370Y-62600000D02*
X56589400Y-62316030D01*
X56950000Y-62985100D02*
X56873370Y-62600000D01*
X55852528Y-62316030D02*
X55265959Y-62902599D01*
X51665000Y-63050000D02*
X51200000Y-63050000D01*
X55265959Y-62902599D02*
X51812401Y-62902599D01*
X51812401Y-62902599D02*
X51665000Y-63050000D01*
X56589400Y-62316030D02*
X55852528Y-62316030D01*
X56950000Y-63650100D02*
X56950000Y-62985100D01*
X56950000Y-62985100D02*
X56940000Y-62975100D01*
D55*
X52120000Y-65948839D02*
X52057892Y-65700000D01*
D57*
X51992998Y-65440000D02*
X52057892Y-65700000D01*
D58*
X52236161Y-66065000D02*
X52120000Y-65948839D01*
X56450000Y-52250100D02*
X56450000Y-53782109D01*
X57446785Y-55084558D02*
X57733728Y-55371502D01*
X57733728Y-55371502D02*
X58277822Y-55371502D01*
X57446785Y-54778894D02*
X57446785Y-55084558D01*
X56450000Y-53782109D02*
X57446785Y-54778894D01*
X58277822Y-55371502D02*
X58336304Y-55429984D01*
X52682000Y-66065000D02*
X53187490Y-66065000D01*
X53187490Y-66065000D02*
X53320000Y-66197510D01*
X52682000Y-66065000D02*
X52236161Y-66065000D01*
D55*
X65673010Y-56783010D02*
X65090100Y-56200100D01*
X66650000Y-63309000D02*
X65683010Y-62342010D01*
X65673010Y-61787920D02*
X65673010Y-56783010D01*
X65683010Y-61797920D02*
X65673010Y-61787920D01*
X65683010Y-62342010D02*
X65683010Y-61797920D01*
X65090100Y-56200100D02*
X64400000Y-56200100D01*
X66650000Y-63800000D02*
X66650000Y-63309000D01*
X66029021Y-61520000D02*
X66029021Y-56635546D01*
X66120000Y-62090000D02*
X66029021Y-61520000D01*
X66380000Y-62350000D02*
X66120000Y-62090000D01*
X66650000Y-62350000D02*
X66380000Y-62350000D01*
X65093575Y-55700100D02*
X65091000Y-55700100D01*
X65091000Y-55700100D02*
X64400000Y-55700100D01*
X66029021Y-56635546D02*
X65093575Y-55700100D01*
D58*
X61547501Y-62409999D02*
X61270000Y-62132498D01*
X55350031Y-62351823D02*
X52890000Y-62351823D01*
X55741844Y-61960010D02*
X55350031Y-62351823D01*
X56986280Y-62132491D02*
X56813799Y-61960010D01*
X57659808Y-62132491D02*
X56986280Y-62132491D01*
X57659815Y-62132498D02*
X57659808Y-62132491D01*
X61547501Y-62887599D02*
X61547501Y-62409999D01*
X61450000Y-62985100D02*
X61547501Y-62887599D01*
X61450000Y-63650100D02*
X61450000Y-62985100D01*
X61270000Y-62132498D02*
X57659815Y-62132498D01*
X56813799Y-61960010D02*
X55741844Y-61960010D01*
D55*
X48650000Y-51475000D02*
X49080000Y-51475000D01*
D57*
X49350000Y-51450000D02*
X49080000Y-51475000D01*
X49350000Y-51450000D02*
X49600000Y-51450000D01*
D55*
X52890000Y-62351823D02*
X50920242Y-62351823D01*
D58*
X49870000Y-51450000D02*
X49600000Y-51450000D01*
D55*
X50357095Y-61640000D02*
X50393419Y-61825000D01*
D56*
X50300128Y-61349872D02*
X50357095Y-61640000D01*
D55*
X50920242Y-62351823D02*
X50393419Y-61825000D01*
D58*
X50050000Y-51900000D02*
X50050000Y-51630000D01*
X50050000Y-51630000D02*
X49870000Y-51450000D01*
X60950000Y-63650100D02*
X60950000Y-62990000D01*
D57*
X61000000Y-62719998D02*
X60950000Y-62990000D01*
D58*
X61297315Y-55410000D02*
X60427306Y-56280009D01*
D57*
X61630000Y-55200000D02*
X61297315Y-55410000D01*
D58*
X60427306Y-56280009D02*
X57891024Y-56280009D01*
X56786763Y-55373651D02*
X56786763Y-55062286D01*
X56786763Y-55062286D02*
X54647437Y-52922960D01*
X54647437Y-52922960D02*
X52938960Y-52922960D01*
X57891024Y-56280009D02*
X57642539Y-56031524D01*
X52938960Y-52922960D02*
X51916000Y-51900000D01*
X57642539Y-56031524D02*
X57444636Y-56031524D01*
X57444636Y-56031524D02*
X56786763Y-55373651D01*
D55*
X51916000Y-51900000D02*
X51425000Y-51900000D01*
D58*
X48650000Y-52475000D02*
X48650000Y-52800000D01*
X48650000Y-52800000D02*
X48870000Y-53020000D01*
X48870000Y-53020000D02*
X49280000Y-53020000D01*
X49280000Y-53020000D02*
X49793522Y-52506478D01*
X49793522Y-52506478D02*
X49860903Y-52506478D01*
D55*
X49860903Y-52506478D02*
X50313522Y-52506478D01*
X50313522Y-52506478D02*
X50920000Y-51900000D01*
X50920000Y-51900000D02*
X51425000Y-51900000D01*
D58*
X58918966Y-58359592D02*
X58838558Y-58440000D01*
D57*
X58648967Y-58629591D02*
X58838558Y-58440000D01*
D58*
X62668898Y-58327599D02*
X62276534Y-57935235D01*
X62276534Y-57935235D02*
X60607654Y-57935235D01*
X64400000Y-58200100D02*
X63735000Y-58200100D01*
X63735000Y-58200100D02*
X63607501Y-58327599D01*
X63607501Y-58327599D02*
X62668898Y-58327599D01*
X59037105Y-58241453D02*
X58918966Y-58359592D01*
X60607654Y-57935235D02*
X60301436Y-58241453D01*
X60301436Y-58241453D02*
X59037105Y-58241453D01*
D55*
X56350000Y-65400000D02*
X56350000Y-64870000D01*
D57*
X56307633Y-64601107D02*
X56350000Y-64870000D01*
D55*
X57783009Y-64432105D02*
X57350000Y-65115513D01*
X57950000Y-64265114D02*
X57950000Y-63650100D01*
X57350000Y-65400000D02*
X57350000Y-65115513D01*
X57783009Y-64432105D02*
X57950000Y-64265114D01*
D57*
X57012557Y-64613574D02*
X56850000Y-64890000D01*
D58*
X58813693Y-59304918D02*
X58720000Y-59304918D01*
D57*
X58431856Y-59304918D02*
X58720000Y-59304918D01*
D58*
X59452509Y-58692468D02*
X58840059Y-59304918D01*
X62139841Y-58265246D02*
X60744348Y-58265247D01*
X60744348Y-58265247D02*
X60317127Y-58692468D01*
X63731438Y-58696538D02*
X62571133Y-58696538D01*
X64400000Y-58700100D02*
X63735000Y-58700100D01*
X58840059Y-59304918D02*
X58813693Y-59304918D01*
X63735000Y-58700100D02*
X63731438Y-58696538D01*
X62571133Y-58696538D02*
X62139841Y-58265246D01*
X60317127Y-58692468D02*
X59452509Y-58692468D01*
D55*
X56850000Y-65400000D02*
X56850000Y-64890000D01*
D58*
X57860000Y-65040000D02*
X58047500Y-64890000D01*
D57*
X58260000Y-64720000D02*
X58047500Y-64890000D01*
D58*
X57850000Y-65350000D02*
X57860000Y-65040000D01*
X58950000Y-52250100D02*
X58950000Y-52790000D01*
D57*
X58905928Y-53118195D02*
X58950000Y-52790000D01*
D55*
X57850000Y-65400000D02*
X57850000Y-65310000D01*
D58*
X59450000Y-64670000D02*
X59450000Y-64580000D01*
X59450000Y-64580000D02*
X59450000Y-63650100D01*
X59450000Y-64730000D02*
X59450000Y-64580000D01*
X59200000Y-64980000D02*
X59450000Y-64730000D01*
D55*
X59200000Y-65400000D02*
X59200000Y-64980000D01*
D58*
X60200000Y-65040000D02*
X60328889Y-64840000D01*
D57*
X60490000Y-64590000D02*
X60328889Y-64840000D01*
D58*
X60200000Y-65350000D02*
X60200000Y-65040000D01*
X54510000Y-60594043D02*
X54930000Y-60594043D01*
X55142431Y-60546633D02*
X54930000Y-60594043D01*
X53665000Y-60700100D02*
X54510000Y-60594043D01*
X59683317Y-60812455D02*
X59934200Y-60561572D01*
X57747005Y-60812455D02*
X59683317Y-60812455D01*
X55142431Y-60546633D02*
X57481183Y-60546633D01*
X53000000Y-60700100D02*
X53665000Y-60700100D01*
X57481183Y-60546633D02*
X57747005Y-60812455D01*
D55*
X59700000Y-65010000D02*
X59820000Y-64890000D01*
X59950000Y-64230000D02*
X59950000Y-63650100D01*
X59820000Y-64890000D02*
X59950000Y-64230000D01*
X59700000Y-65400000D02*
X59700000Y-65010000D01*
X61080000Y-65200000D02*
X61237818Y-64920000D01*
D57*
X61390000Y-64650000D02*
X61237818Y-64920000D01*
D55*
X60930000Y-65350000D02*
X61080000Y-65200000D01*
X60700000Y-65350000D02*
X60930000Y-65350000D01*
D58*
X62307254Y-61790000D02*
X62170789Y-61470654D01*
D57*
X62440788Y-62102490D02*
X62307254Y-61790000D01*
D58*
X61710135Y-61010000D02*
X62170789Y-61470654D01*
X57473615Y-61472477D02*
X60344230Y-61472476D01*
X57210817Y-61209679D02*
X57473615Y-61472477D01*
X53854198Y-61200100D02*
X54331593Y-61677495D01*
X55090947Y-61677495D02*
X55558764Y-61209678D01*
X54331593Y-61677495D02*
X55090947Y-61677495D01*
X60344230Y-61472476D02*
X60806706Y-61010000D01*
X55558764Y-61209678D02*
X57210817Y-61209679D01*
X60806706Y-61010000D02*
X61710135Y-61010000D01*
X53000000Y-61200100D02*
X53854198Y-61200100D01*
D55*
X56100000Y-57350000D02*
X55813671Y-56926405D01*
D57*
X55543672Y-56656406D02*
X55813671Y-56926405D01*
D55*
X53575692Y-59200100D02*
X53819823Y-59444230D01*
X56100000Y-58122972D02*
X56100000Y-57350000D01*
X54778742Y-59444230D02*
X56100000Y-58122972D01*
X53819823Y-59444230D02*
X54778742Y-59444230D01*
X53000000Y-59200100D02*
X53575692Y-59200100D01*
X48725000Y-53825000D02*
X48860000Y-53690000D01*
D57*
X49286521Y-53600000D02*
X48860000Y-53690000D01*
D55*
X48725000Y-54125000D02*
X48725000Y-53825000D01*
X49000000Y-58600000D02*
X49500000Y-58600000D01*
D57*
X49675811Y-58497176D02*
X49500000Y-58600000D01*
X55919495Y-59088621D02*
X56301332Y-59088621D01*
D58*
X57423289Y-59088621D02*
X56301332Y-59088621D01*
X58157095Y-59822427D02*
X57423289Y-59088621D01*
X60881044Y-58595257D02*
X60428112Y-59048189D01*
X62003146Y-58595257D02*
X60881044Y-58595257D01*
X62434437Y-59026548D02*
X62003146Y-58595257D01*
X62764768Y-59026549D02*
X62434437Y-59026548D01*
X64400000Y-59200100D02*
X62938319Y-59200100D01*
X59666292Y-59048189D02*
X58892054Y-59822427D01*
X62938319Y-59200100D02*
X62764768Y-59026549D01*
X58892054Y-59822427D02*
X58157095Y-59822427D01*
X60428112Y-59048189D02*
X59666292Y-59048189D01*
X49326164Y-59600000D02*
X49500000Y-59773836D01*
D57*
X49685765Y-59959601D02*
X49500000Y-59773836D01*
D58*
X49000000Y-59600000D02*
X49326164Y-59600000D01*
X55220000Y-60161527D02*
X55460000Y-60216155D01*
D57*
X54846620Y-60076542D02*
X55220000Y-60161527D01*
D58*
X57617411Y-60216155D02*
X55460000Y-60216155D01*
X64400000Y-59700100D02*
X63189900Y-59700100D01*
X63189900Y-59700100D02*
X62810000Y-60080000D01*
X62810000Y-60080000D02*
X62298348Y-60080000D01*
X62298348Y-60080000D02*
X61998857Y-59780509D01*
X61998857Y-59780509D02*
X61998857Y-59524380D01*
X61998857Y-59524380D02*
X61729756Y-59255279D01*
X61729756Y-59255279D02*
X61232950Y-59255279D01*
X61232950Y-59255279D02*
X60516154Y-59972075D01*
X60516154Y-59972075D02*
X59675818Y-59972075D01*
X59675818Y-59972075D02*
X59165445Y-60482448D01*
X59165445Y-60482448D02*
X57883703Y-60482447D01*
X57883703Y-60482447D02*
X57617411Y-60216155D01*
X54467399Y-54904357D02*
X54550000Y-54821756D01*
D57*
X54737398Y-54634358D02*
X54550000Y-54821756D01*
D58*
X53000000Y-55200100D02*
X54171656Y-55200100D01*
X54171656Y-55200100D02*
X54467399Y-54904357D01*
D57*
X49220000Y-50489998D02*
X49210000Y-50840000D01*
D58*
X49075000Y-50975000D02*
X49210000Y-50840000D01*
X48650000Y-50975000D02*
X49075000Y-50975000D01*
D55*
X49000000Y-59100000D02*
X49500000Y-59100000D01*
D57*
X49664988Y-59202105D02*
X49500000Y-59100000D01*
D58*
X55767641Y-59622315D02*
X55680000Y-59622315D01*
D57*
X55385804Y-59622315D02*
X55680000Y-59622315D01*
D58*
X60338688Y-59604319D02*
X59576868Y-59604319D01*
X59028750Y-60152437D02*
X58020399Y-60152437D01*
X62485233Y-59544050D02*
X61866451Y-58925268D01*
X58020399Y-60152437D02*
X57490277Y-59622315D01*
X57490277Y-59622315D02*
X55767641Y-59622315D01*
X61017739Y-58925268D02*
X60338688Y-59604319D01*
X62516367Y-59544050D02*
X62485233Y-59544050D01*
X61866451Y-58925268D02*
X61017739Y-58925268D01*
X59576868Y-59604319D02*
X59028750Y-60152437D01*
D55*
X63709000Y-56700100D02*
X63148900Y-56140000D01*
D56*
X62983989Y-55926352D02*
X63148900Y-56140000D01*
D55*
X64400000Y-56700100D02*
X63709000Y-56700100D01*
X49057344Y-51963679D02*
X49143665Y-52050000D01*
D57*
X49327343Y-52233678D02*
X49143665Y-52050000D01*
X56485664Y-56909334D02*
X56485664Y-57291171D01*
D58*
X56841598Y-57827502D02*
X56485664Y-57471568D01*
X56485664Y-57471568D02*
X56485664Y-57291171D01*
X64400000Y-57700100D02*
X63744967Y-57700100D01*
X63744967Y-57700100D02*
X63528203Y-57916864D01*
X63528203Y-57916864D02*
X62724867Y-57916864D01*
X62724867Y-57916864D02*
X62413229Y-57605226D01*
X62413229Y-57605226D02*
X60470957Y-57605226D01*
X60470957Y-57605226D02*
X60248681Y-57827502D01*
X60248681Y-57827502D02*
X56841598Y-57827502D01*
D55*
X48650000Y-51975000D02*
X48661321Y-51963679D01*
X48661321Y-51963679D02*
X49057344Y-51963679D01*
D58*
X62544750Y-57270041D02*
X57400000Y-57270041D01*
D57*
X57123243Y-57210223D02*
X57400000Y-57270041D01*
D58*
X64400000Y-57200100D02*
X63778263Y-57200100D01*
X63778263Y-57200100D02*
X63391508Y-57586853D01*
X63391508Y-57586853D02*
X62861562Y-57586853D01*
X62861562Y-57586853D02*
X62544750Y-57270041D01*
D55*
X48833373Y-60950000D02*
X49000000Y-60575000D01*
D56*
X48700128Y-61249872D02*
X48833373Y-60950000D01*
D55*
X49280000Y-57147835D02*
X48460000Y-56914034D01*
D56*
X49612382Y-57242605D02*
X49280000Y-57147835D01*
X48182036Y-56834779D02*
X48460000Y-56914034D01*
D55*
X49000000Y-60100000D02*
X49000000Y-60575000D01*
D58*
X62043586Y-56130000D02*
X61563566Y-56610020D01*
D57*
X62241869Y-55931717D02*
X62043586Y-56130000D01*
D58*
X63447500Y-47825000D02*
X63472500Y-47850000D01*
X63472500Y-47850000D02*
X63869829Y-47850000D01*
X63869829Y-47850000D02*
X64266816Y-47453013D01*
X64266816Y-47453013D02*
X64266816Y-47016426D01*
X64266816Y-47016426D02*
X64124647Y-46797221D01*
X64124647Y-46797221D02*
X64040000Y-46712574D01*
D57*
X63854648Y-46527222D02*
X64040000Y-46712574D01*
D58*
X57754329Y-56610020D02*
X57505844Y-56361535D01*
X56456752Y-55198980D02*
X55355218Y-54097446D01*
X57505844Y-56361535D02*
X57307941Y-56361535D01*
X55355218Y-54097446D02*
X54542441Y-54097446D01*
X54542441Y-54097446D02*
X53939787Y-54700100D01*
X61563566Y-56610020D02*
X57754329Y-56610020D01*
X57307941Y-56361535D02*
X56456752Y-55510346D01*
X56456752Y-55510346D02*
X56456752Y-55198980D01*
X53939787Y-54700100D02*
X53665000Y-54700100D01*
X53665000Y-54700100D02*
X53000000Y-54700100D01*
X55170733Y-55208860D02*
X55239593Y-55140000D01*
D57*
X55440732Y-54938861D02*
X55239593Y-55140000D01*
D58*
X54679493Y-55700100D02*
X55170733Y-55208860D01*
X53000000Y-55700100D02*
X54679493Y-55700100D01*
D57*
X52800000Y-51800000D02*
X52625000Y-51531000D01*
D58*
X52625000Y-51531000D02*
X52625000Y-51086000D01*
D55*
X50950000Y-56850000D02*
X50950000Y-56400000D01*
X50950000Y-56400000D02*
X51149900Y-56200100D01*
X51149900Y-56200100D02*
X53000000Y-56200100D01*
D58*
X53000000Y-56700100D02*
X53150100Y-56700100D01*
X53000000Y-56700100D02*
X52335000Y-56700100D01*
X52335000Y-56700100D02*
X52130000Y-56905100D01*
X52130000Y-56905100D02*
X52130000Y-56920000D01*
D55*
X50950000Y-59250000D02*
X51930000Y-59250000D01*
X51930000Y-59250000D02*
X52130000Y-59050000D01*
X52130000Y-59050000D02*
X52130000Y-56920000D01*
X55050000Y-42375000D02*
X53810000Y-42375000D01*
D57*
X53530000Y-42350000D02*
X53810000Y-42375000D01*
D58*
X61950000Y-52915100D02*
X61950000Y-53251963D01*
X61950000Y-53251963D02*
X61988037Y-53290000D01*
X61950000Y-52250100D02*
X61950000Y-52915100D01*
D55*
X50650000Y-65430000D02*
X51095000Y-65430000D01*
X51095000Y-65430000D02*
X52875000Y-63650000D01*
X52875000Y-63650000D02*
X54949900Y-63650000D01*
X54949900Y-63650000D02*
X54950000Y-63650100D01*
D58*
X57450000Y-63650100D02*
X57450000Y-62910000D01*
D57*
X57411406Y-62649993D02*
X57450000Y-62910000D01*
D58*
X56750063Y-49414374D02*
X56840000Y-49414374D01*
D57*
X57119331Y-49414374D02*
X56840000Y-49414374D01*
D58*
X56603200Y-45250000D02*
X56340000Y-45250000D01*
X56340000Y-45250000D02*
X55952499Y-45637501D01*
X55952499Y-45637501D02*
X55952499Y-48616810D01*
X55952499Y-48616810D02*
X56750063Y-49414374D01*
X58450000Y-63120110D02*
X58660110Y-62910000D01*
D57*
X58855022Y-62715088D02*
X58660110Y-62910000D01*
D58*
X58450000Y-63650100D02*
X58450000Y-63120110D01*
X58050000Y-46235000D02*
X58235000Y-46050000D01*
D57*
X58469989Y-45964988D02*
X58235000Y-46050000D01*
D58*
X58050000Y-46800000D02*
X58050000Y-46235000D01*
X52570000Y-42260000D02*
X53160000Y-42850000D01*
D57*
X53350000Y-43040000D02*
X53160000Y-42850000D01*
D58*
X55110000Y-60946557D02*
X55276103Y-60879667D01*
D55*
X54900000Y-61031124D02*
X55110000Y-60946557D01*
D57*
X54580000Y-61159989D02*
X54900000Y-61031124D01*
D58*
X63735000Y-61700100D02*
X64400000Y-61700100D01*
X60187534Y-61142466D02*
X60730000Y-60600000D01*
X62870100Y-61700100D02*
X63735000Y-61700100D01*
X57610310Y-61142466D02*
X60187534Y-61142466D01*
X61770000Y-60600000D02*
X62870100Y-61700100D01*
X55276103Y-60879667D02*
X57347511Y-60879667D01*
X57347511Y-60879667D02*
X57610310Y-61142466D01*
X60730000Y-60600000D02*
X61770000Y-60600000D01*
D55*
X53575000Y-39835000D02*
X52580000Y-40830000D01*
X52570000Y-42260000D02*
X52570000Y-40840000D01*
X52570000Y-40840000D02*
X52580000Y-40830000D01*
X55050000Y-39835000D02*
X53575000Y-39835000D01*
D57*
X60922373Y-54320953D02*
X60922373Y-53939116D01*
D58*
X61481837Y-61590000D02*
X61370000Y-61590000D01*
D57*
X61100000Y-61590000D02*
X61370000Y-61590000D01*
D58*
X60718163Y-61590000D02*
X60810000Y-61590000D01*
D57*
X61100000Y-61590000D02*
X60810000Y-61590000D01*
D58*
X64400000Y-61200100D02*
X64970100Y-61200100D01*
X65170000Y-62160000D02*
X64670000Y-62660000D01*
X61877512Y-61985675D02*
X61481837Y-61590000D01*
X64970100Y-61200100D02*
X65170000Y-61400000D01*
X65170000Y-61400000D02*
X65170000Y-62160000D01*
X64670000Y-62660000D02*
X62140000Y-62660000D01*
X62140000Y-62660000D02*
X61877512Y-62397512D01*
X61877512Y-62397512D02*
X61877512Y-61985675D01*
X57336920Y-61802488D02*
X60505675Y-61802488D01*
X60505675Y-61802488D02*
X60718163Y-61590000D01*
X57119155Y-61584723D02*
X57336920Y-61802488D01*
X55695459Y-61539689D02*
X56380793Y-61539689D01*
X55695459Y-61539689D02*
X57074121Y-61539689D01*
X57074121Y-61539689D02*
X57336920Y-61802488D01*
X53665000Y-61700100D02*
X53972406Y-62007506D01*
X53972406Y-62007506D02*
X55227642Y-62007506D01*
X55227642Y-62007506D02*
X55695459Y-61539689D01*
X53000000Y-61700100D02*
X53665000Y-61700100D01*
X59450000Y-52915100D02*
X60149325Y-53614425D01*
X59450000Y-52250100D02*
X59450000Y-52915100D01*
X60149325Y-53614425D02*
X60597682Y-53614425D01*
X60597682Y-53614425D02*
X60922373Y-53939116D01*
D55*
X59710000Y-45964988D02*
X60990000Y-45964988D01*
D57*
X59426485Y-45964988D02*
X59710000Y-45964988D01*
X61270000Y-45950000D02*
X60990000Y-45964988D01*
D58*
X61725354Y-60070897D02*
X61654457Y-60000000D01*
D57*
X61455355Y-59800898D02*
X61654457Y-60000000D01*
D58*
X63735000Y-60700100D02*
X63699988Y-60735112D01*
X62389569Y-60735112D02*
X61725354Y-60070897D01*
X64400000Y-60700100D02*
X63735000Y-60700100D01*
X63699988Y-60735112D02*
X62389569Y-60735112D01*
X58780000Y-44550000D02*
X58900000Y-44670000D01*
D57*
X59002490Y-44929976D02*
X58900000Y-44670000D01*
D58*
X58353200Y-44550000D02*
X58780000Y-44550000D01*
X61249998Y-49828891D02*
X61249998Y-49234096D01*
X60706223Y-48690321D02*
X60706223Y-48310365D01*
X60706223Y-48310365D02*
X60916587Y-48100001D01*
X61249998Y-49234096D02*
X60706223Y-48690321D01*
X64298097Y-51852590D02*
X64590000Y-51560687D01*
D57*
X64760000Y-51390687D02*
X64590000Y-51560687D01*
D58*
X63805346Y-51852590D02*
X64298097Y-51852590D01*
X61450000Y-51375281D02*
X63328037Y-51375281D01*
X63328037Y-51375281D02*
X63805346Y-51852590D01*
D57*
X66125000Y-47831678D02*
X65954994Y-48001684D01*
X65954994Y-48001684D02*
X65954994Y-48001727D01*
D58*
X68950000Y-44225000D02*
X68575000Y-44225000D01*
X66125000Y-47831678D02*
X66475000Y-47481678D01*
X66475000Y-47481678D02*
X68390280Y-47309720D01*
X69200000Y-44475000D02*
X68950000Y-44225000D01*
X68390280Y-47309720D02*
X69200000Y-46500000D01*
X69200000Y-46500000D02*
X69200000Y-44475000D01*
X61237215Y-47825000D02*
X61475000Y-47825000D01*
X60916587Y-48100001D02*
X60962214Y-48100001D01*
X61475000Y-47825000D02*
X61877500Y-47825000D01*
X60962214Y-48100001D02*
X61237215Y-47825000D01*
X61249998Y-51375281D02*
X61450000Y-51375281D01*
X61450000Y-51585100D02*
X61450000Y-51375281D01*
X61249998Y-49828891D02*
X61262999Y-51375281D01*
X61262999Y-51375281D02*
X61249998Y-51375281D01*
D55*
X61450000Y-52250100D02*
X61450000Y-51559100D01*
X61266181Y-51375281D02*
X61262999Y-51375281D01*
X61450000Y-51559100D02*
X61266181Y-51375281D01*
D58*
X61297519Y-51430895D02*
X61249999Y-51383375D01*
X61249999Y-51383375D02*
X61249998Y-49828891D01*
X59830000Y-48100000D02*
X60916587Y-48100001D01*
X61450000Y-51585100D02*
X61297519Y-51432619D01*
X61297519Y-51432619D02*
X61297519Y-51430895D01*
X61450000Y-52250100D02*
X61450000Y-51585100D01*
X63422500Y-48325000D02*
X63447500Y-48350000D01*
X63447500Y-48350000D02*
X64362161Y-48350000D01*
X64362161Y-48350000D02*
X64590000Y-48577839D01*
X60919989Y-50190000D02*
X60686149Y-49810000D01*
D57*
X60520000Y-49540000D02*
X60686149Y-49810000D01*
D58*
X60919989Y-51555089D02*
X60919989Y-50190000D01*
X64100000Y-45823839D02*
X63852144Y-45575983D01*
X64596827Y-46870790D02*
X64100000Y-45823839D01*
D57*
X60440148Y-46880000D02*
X60672410Y-47112262D01*
X60672410Y-47112262D02*
X60672410Y-47137845D01*
D58*
X66567502Y-47880010D02*
X68525000Y-47775000D01*
X69735000Y-44225000D02*
X70225000Y-44225000D01*
X65829885Y-48519229D02*
X66203432Y-48519229D01*
X66203432Y-48519229D02*
X66472499Y-48250162D01*
X64590000Y-48577839D02*
X64596827Y-48571012D01*
X64596827Y-48571012D02*
X64596827Y-46870790D01*
X65450000Y-48617501D02*
X65829885Y-48519229D01*
X69600000Y-44360000D02*
X69735000Y-44225000D01*
X63852144Y-45575983D02*
X63582145Y-45305984D01*
X66472499Y-48250162D02*
X66472499Y-47975013D01*
X68525000Y-47775000D02*
X69600000Y-46700000D01*
X64590000Y-48577839D02*
X64691999Y-48617501D01*
X64691999Y-48617501D02*
X65450000Y-48617501D01*
X66472499Y-47975013D02*
X66567502Y-47880010D01*
X69600000Y-46700000D02*
X69600000Y-44360000D01*
X60950000Y-52250100D02*
X60950000Y-51585100D01*
X60950000Y-51585100D02*
X60919989Y-51555089D01*
X70225000Y-44225000D02*
X69900000Y-44225000D01*
X60372639Y-46812491D02*
X60440148Y-46880000D01*
X60360148Y-46800000D02*
X60372639Y-46812491D01*
X59550000Y-46800000D02*
X60360148Y-46800000D01*
D55*
X62900000Y-47435000D02*
X62430732Y-46880000D01*
X62430732Y-46880000D02*
X62380000Y-46820000D01*
D57*
X62381934Y-46521834D02*
X62430732Y-46880000D01*
D55*
X62150000Y-47061553D02*
X62332391Y-46870000D01*
X62332391Y-46870000D02*
X62380000Y-46820000D01*
D57*
X62381934Y-46521834D02*
X62332391Y-46870000D01*
D58*
X62430491Y-46190000D02*
X62470000Y-45920000D01*
D57*
X62381934Y-46521834D02*
X62430491Y-46190000D01*
D58*
X62470000Y-44890000D02*
X62470000Y-45920000D01*
X62497501Y-43482499D02*
X62497501Y-44460000D01*
X62470000Y-44890000D02*
X62497501Y-44460000D01*
D55*
X65900343Y-42933490D02*
X64970000Y-42933490D01*
X62800000Y-43190000D02*
X64970000Y-42933490D01*
X62497501Y-43482499D02*
X62800000Y-43190000D01*
X68575000Y-44875000D02*
X68050000Y-44875000D01*
X68050000Y-44875000D02*
X65900343Y-42933490D01*
D58*
X62900000Y-47837500D02*
X62900000Y-47435000D01*
X59830000Y-47600000D02*
X60395000Y-47600000D01*
X60395000Y-47600000D02*
X60450347Y-47655347D01*
X60450347Y-47655347D02*
X60920812Y-47655347D01*
X60920812Y-47655347D02*
X61510012Y-47066147D01*
X61510012Y-47066147D02*
X61700000Y-47066147D01*
X61700000Y-47066147D02*
X62150000Y-47061553D01*
D57*
X62381934Y-46521834D02*
X62380000Y-46820000D01*
D58*
X60450000Y-52250100D02*
X60450000Y-51270000D01*
D57*
X60402479Y-51000000D02*
X60450000Y-51270000D01*
D58*
X59884977Y-50751598D02*
X59884977Y-51240000D01*
X60002498Y-49666313D02*
X59884977Y-50751598D01*
X59884977Y-51240000D02*
X59950000Y-51585100D01*
X60002498Y-48772498D02*
X60002498Y-49666313D01*
X59830000Y-48600000D02*
X60002498Y-48772498D01*
X59950000Y-51585100D02*
X59950000Y-52250100D01*
X59932499Y-51567599D02*
X59950000Y-51585100D01*
X52770000Y-45600000D02*
X52362500Y-45600000D01*
D55*
X53050000Y-45600000D02*
X52770000Y-45600000D01*
X56760000Y-49919372D02*
X55680000Y-48900000D01*
X57594998Y-50327488D02*
X56760000Y-49919372D01*
X55680000Y-48900000D02*
X55431837Y-48900000D01*
D58*
X55431837Y-48900000D02*
X55320000Y-48900000D01*
D57*
X55050000Y-48900000D02*
X55320000Y-48900000D01*
D58*
X58450000Y-51182490D02*
X57594998Y-50327488D01*
X58450000Y-52250100D02*
X58450000Y-51182490D01*
X52362500Y-45600000D02*
X52337500Y-45625000D01*
D55*
X56630000Y-50308581D02*
X56000000Y-49744208D01*
X57423401Y-50682499D02*
X56630000Y-50308581D01*
X54130000Y-48514145D02*
X53660000Y-48343754D01*
X54284339Y-48650000D02*
X54532498Y-49148402D01*
X54130000Y-48514145D02*
X54284339Y-48650000D01*
X52827500Y-47575000D02*
X53660000Y-48343754D01*
X52827500Y-47575000D02*
X52337500Y-47575000D01*
X54801598Y-49417502D02*
X54532498Y-49148402D01*
X54801598Y-49417502D02*
X56000000Y-49744208D01*
D58*
X57950000Y-51585100D02*
X57950000Y-52250100D01*
X57950000Y-51209098D02*
X57950000Y-51585100D01*
X57423401Y-50682499D02*
X57950000Y-51209098D01*
D55*
X65911837Y-45422490D02*
X68085000Y-45525000D01*
D57*
X65530000Y-45422490D02*
X65911837Y-45422490D01*
X60243174Y-54131926D02*
X59861337Y-54131926D01*
D58*
X68575000Y-45525000D02*
X68085000Y-45525000D01*
X58666826Y-54131926D02*
X59861337Y-54131926D01*
X57450000Y-52250100D02*
X57450000Y-52915100D01*
X57450000Y-52915100D02*
X58666826Y-54131926D01*
D55*
X58925000Y-40694978D02*
X58925000Y-39270000D01*
X58925000Y-39270000D02*
X58925000Y-38950000D01*
X57575000Y-39300000D02*
X58895000Y-39300000D01*
X58895000Y-39300000D02*
X58925000Y-39270000D01*
X56484734Y-41291025D02*
X58328953Y-41291025D01*
X58328953Y-41291025D02*
X58925000Y-40694978D01*
D57*
X56603200Y-43202945D02*
X56518473Y-43118218D01*
X56603200Y-43370000D02*
X56603200Y-43202945D01*
D58*
X56603200Y-43850000D02*
X56603200Y-43370000D01*
D55*
X58860000Y-38885000D02*
X58925000Y-38950000D01*
X57575000Y-38650000D02*
X58625000Y-38650000D01*
X58625000Y-38650000D02*
X58860000Y-38885000D01*
X57575000Y-39300000D02*
X58575000Y-39300000D01*
X56210463Y-42095635D02*
X56441599Y-41864499D01*
X56693186Y-41864499D02*
X56837685Y-41720000D01*
X56441599Y-41864499D02*
X56693186Y-41864499D01*
X56210463Y-42370000D02*
X56092499Y-42790000D01*
X56210463Y-42095635D02*
X56210463Y-42370000D01*
X60975000Y-40600000D02*
X58520000Y-41605090D01*
X61975000Y-40600000D02*
X60975000Y-40600000D01*
X58520000Y-41605090D02*
X58200000Y-41720000D01*
X58200000Y-41720000D02*
X56837685Y-41720000D01*
X55812200Y-44234000D02*
X56128200Y-44550000D01*
X56092499Y-42790000D02*
X55812200Y-43070299D01*
X55812200Y-43070299D02*
X55812200Y-44234000D01*
X56128200Y-44550000D02*
X56353200Y-44550000D01*
D58*
X58699998Y-43850000D02*
X58780000Y-43769998D01*
D56*
X58950000Y-43599998D02*
X58780000Y-43769998D01*
D58*
X57002338Y-45784307D02*
X56940000Y-45846645D01*
D57*
X56732339Y-46054306D02*
X56940000Y-45846645D01*
D58*
X57103200Y-45250000D02*
X57103200Y-45683445D01*
X57103200Y-45683445D02*
X57002338Y-45784307D01*
X58103200Y-43850000D02*
X58699998Y-43850000D01*
D55*
X47574000Y-48982000D02*
X50050000Y-48982000D01*
X50050000Y-48982000D02*
X51770000Y-48210000D01*
X51770000Y-48210000D02*
X52570000Y-48210000D01*
X52570000Y-48210000D02*
X53577600Y-49054000D01*
X53577600Y-49054000D02*
X53895000Y-49054000D01*
X54095000Y-41105000D02*
X53740000Y-41080233D01*
D57*
X53450000Y-41060000D02*
X53740000Y-41080233D01*
D55*
X55050000Y-41105000D02*
X54095000Y-41105000D01*
D58*
X57617633Y-56940030D02*
X62800000Y-56940030D01*
D57*
X63143109Y-57069352D02*
X62800000Y-56940030D01*
D58*
X54020000Y-56935791D02*
X54925534Y-56030257D01*
X54925534Y-56030257D02*
X56509957Y-56030257D01*
X56509957Y-56030257D02*
X57171246Y-56691546D01*
X57171246Y-56691546D02*
X57369149Y-56691546D01*
X57369149Y-56691546D02*
X57617633Y-56940030D01*
D57*
X53838934Y-57116857D02*
X54020000Y-56935791D01*
D58*
X53000000Y-57200100D02*
X53590000Y-57200100D01*
D57*
X53838934Y-57116857D02*
X53590000Y-57200100D01*
D55*
X64400000Y-55200100D02*
X65175000Y-55200100D01*
D57*
X65450000Y-55200000D02*
X65175000Y-55200100D01*
D56*
X63970000Y-52250100D02*
X64190918Y-52250100D01*
X64190918Y-52250100D02*
X64375997Y-52435179D01*
D55*
X62450000Y-52250100D02*
X63970000Y-52250100D01*
X51340678Y-42713478D02*
X51340678Y-40600000D01*
X52520000Y-43892800D02*
X51340678Y-42713478D01*
X52520000Y-43992800D02*
X52520000Y-43892800D01*
D57*
X51100001Y-40100001D02*
X51340678Y-40600000D01*
X49650000Y-39835000D02*
X50835000Y-39835000D01*
X50835000Y-39835000D02*
X51100001Y-40100001D01*
M02*
