<?xml version="1.0" standalone="no"?>
 <!DOCTYPE svg PUBLIC "-//W3C//DTD SVG 1.1//EN" 
 "http://www.w3.org/Graphics/SVG/1.1/DTD/svg11.dtd"> 
<svg xmlns="http://www.w3.org/2000/svg" version="1.1" 
    width="6.1595cm" height="4.41706cm" viewBox="0 0 24250 17390 ">
<title>SVG Picture created as seppuku-brd.svg date 2017/01/03 20:36:22 </title>
  <desc>Picture generated by PCBNEW </desc>
<g style="fill:#000000; fill-opacity:1;stroke:#000000; stroke-opacity:1;
stroke-linecap:round; stroke-linejoin:round; "
 transform="translate(0 0) scale(1 1)">
</g>
<g style="fill:#000000; fill-opacity:0.0; 
stroke:#000000; stroke-width:-0.000393701; stroke-opacity:1; 
stroke-linecap:round; stroke-linejoin:round;">
</g>
<g style="fill:#840000; fill-opacity:0.0; 
stroke:#840000; stroke-width:-0.000393701; stroke-opacity:1; 
stroke-linecap:round; stroke-linejoin:round;">
</g>
<g style="fill:#840000; fill-opacity:0.0; 
stroke:#840000; stroke-width:59.0551; stroke-opacity:1; 
stroke-linecap:round; stroke-linejoin:round;">
<path d="M11650 9156
L11335 9156
" />
<path d="M11650 8526
L11650 9156
" />
<path d="M11335 8526
L11650 8526
" />
<path d="M11335 9156
L11335 8526
" />
<path d="M11256 8979
L11256 8703
" />
<path d="M11729 8703
L11729 8979
" />
<path d="M14151 6696
L14151 6892
" />
<path d="M13758 6696
L14151 6696
" />
<path d="M13758 6892
L13758 6696
" />
<path d="M14151 6892
L13758 6892
" />
<path d="M13856 6981
L14053 6981
" />
<path d="M14053 6607
L13856 6607
" />
<path d="M12614 4451
L12614 4648
" />
<path d="M12221 4451
L12614 4451
" />
<path d="M12221 4648
L12221 4451
" />
<path d="M12614 4648
L12221 4648
" />
<path d="M12319 4737
L12516 4737
" />
<path d="M12516 4363
L12319 4363
" />
<path d="M11406 3802
L11406 3999
" />
<path d="M11012 3802
L11406 3802
" />
<path d="M11012 3999
L11012 3802
" />
<path d="M11406 3999
L11012 3999
" />
<path d="M11110 4087
L11307 4087
" />
<path d="M11307 3713
L11110 3713
" />
<path d="M10016 3999
L10016 3802
" />
<path d="M10410 3999
L10016 3999
" />
<path d="M10410 3802
L10410 3999
" />
<path d="M10016 3802
L10410 3802
" />
<path d="M10311 3713
L10114 3713
" />
<path d="M10114 4087
L10311 4087
" />
<path d="M10114 4550
L10311 4550
" />
<path d="M10114 4944
L10114 4550
" />
<path d="M10311 4944
L10114 4944
" />
<path d="M10311 4550
L10311 4944
" />
<path d="M10400 4845
L10400 4648
" />
<path d="M10026 4648
L10026 4845
" />
<path d="M15004 3310
L15201 3310
" />
<path d="M15004 3703
L15004 3310
" />
<path d="M15201 3703
L15004 3703
" />
<path d="M15201 3310
L15201 3703
" />
<path d="M15290 3605
L15290 3408
" />
<path d="M14916 3408
L14916 3605
" />
<path d="M7398 6991
L7398 7188
" />
<path d="M7004 6991
L7398 6991
" />
<path d="M7004 7188
L7004 6991
" />
<path d="M7398 7188
L7004 7188
" />
<path d="M7103 7276
L7299 7276
" />
<path d="M7299 6902
L7103 6902
" />
<path d="M12162 12975
L12162 12778
" />
<path d="M12555 12975
L12162 12975
" />
<path d="M12555 12778
L12555 12975
" />
<path d="M12162 12778
L12555 12778
" />
<path d="M12457 12690
L12260 12690
" />
<path d="M12260 13064
L12457 13064
" />
<path d="M11532 5751
L11729 5751
" />
<path d="M11532 6144
L11532 5751
" />
<path d="M11729 6144
L11532 6144
" />
<path d="M11729 5751
L11729 6144
" />
<path d="M11817 6046
L11817 5849
" />
<path d="M11443 5849
L11443 6046
" />
<path d="M8677 12888
L8874 12888
" />
<path d="M8677 13282
L8677 12888
" />
<path d="M8874 13282
L8677 13282
" />
<path d="M8874 12888
L8874 13282
" />
<path d="M8963 13184
L8963 12987
" />
<path d="M8589 12987
L8589 13184
" />
<path d="M7457 6184
L7457 6381
" />
<path d="M7063 6184
L7457 6184
" />
<path d="M7063 6381
L7063 6184
" />
<path d="M7457 6381
L7063 6381
" />
<path d="M7162 6469
L7359 6469
" />
<path d="M7359 6095
L7162 6095
" />
<path d="M13835 11440
L13638 11440
" />
<path d="M13835 11046
L13835 11440
" />
<path d="M13638 11046
L13835 11046
" />
<path d="M13638 11440
L13638 11046
" />
<path d="M13549 11144
L13549 11341
" />
<path d="M13923 11341
L13923 11144
" />
<path d="M15030 4688
L15227 4688
" />
<path d="M15030 5082
L15030 4688
" />
<path d="M15227 5082
L15030 5082
" />
<path d="M15227 4688
L15227 5082
" />
<path d="M15316 4983
L15316 4787
" />
<path d="M14942 4787
L14942 4983
" />
<path d="M7319 10534
L7516 10534
" />
<path d="M7319 10928
L7319 10534
" />
<path d="M7516 10928
L7319 10928
" />
<path d="M7516 10534
L7516 10928
" />
<path d="M7605 10829
L7605 10633
" />
<path d="M7231 10633
L7231 10829
" />
<path d="M15547 4688
L15744 4688
" />
<path d="M15547 5081
L15547 4688
" />
<path d="M15744 5081
L15547 5081
" />
<path d="M15744 4688
L15744 5081
" />
<path d="M15833 4983
L15833 4786
" />
<path d="M15459 4786
L15459 4983
" />
<path d="M5449 4900
L5646 4900
" />
<path d="M5449 5294
L5449 4900
" />
<path d="M5646 5294
L5449 5294
" />
<path d="M5646 4900
L5646 5294
" />
<path d="M5735 5196
L5735 4999
" />
<path d="M5360 4999
L5360 5196
" />
<path d="M12762 9904
L12762 10101
" />
<path d="M13175 10101
L13175 9904
" />
<path d="M11512 7611
L11315 7611
" />
<path d="M11315 8024
L11512 8024
" />
<path d="M8235 13192
L8235 12995
" />
<path d="M7821 12995
L7821 13192
" />
<path d="M15948 5751
L15948 5948
" />
<path d="M16361 5948
L16361 5751
" />
<path d="M9347 4353
L9150 4353
" />
<path d="M9150 4766
L9347 4766
" />
<path d="M15309 2739
L15309 2542
" />
<path d="M14896 2542
L14896 2739
" />
<path d="M11364 2985
L11364 2788
" />
<path d="M10951 2788
L10951 2985
" />
<path d="M9612 2955
L9612 2758
" />
<path d="M9199 2758
L9199 2955
" />
<path d="M8348 10416
L8348 10711
" />
<path d="M8348 10711
L9603 10711
" />
<path d="M8348 8329
L8348 8034
" />
<path d="M8348 8034
L9603 8034
" />
<path d="M10159 10199
L10159 10081
" />
<path d="M10159 10081
L9962 9884
" />
<path d="M9962 9884
L9962 8861
" />
<path d="M9962 8861
L10159 8664
" />
<path d="M10159 8664
L10159 8546
" />
<path d="M8072 10081
L7836 9963
" />
<path d="M7836 9963
L7836 10199
" />
<path d="M7836 10199
L8072 10081
" />
<path d="M14209 2975
L14406 2975
" />
<path d="M14209 3369
L14209 2975
" />
<path d="M14406 3369
L14209 3369
" />
<path d="M14406 2975
L14406 3369
" />
<path d="M14494 3270
L14494 3073
" />
<path d="M14120 3073
L14120 3270
" />
<path d="M15965 6617
L15965 6420
" />
<path d="M16359 6617
L15965 6617
" />
<path d="M16359 6420
L16359 6617
" />
<path d="M15965 6420
L16359 6420
" />
<path d="M16260 6331
L16063 6331
" />
<path d="M16063 6705
L16260 6705
" />
<path d="M15794 5947
L15794 5751
" />
<path d="M15380 5751
L15380 5947
" />
<path d="M13943 8900
L13746 8900
" />
<path d="M13746 9314
L13943 9314
" />
</g>
<g style="fill:#840000; fill-opacity:0.0; 
stroke:#840000; stroke-width:27.5591; stroke-opacity:1; 
stroke-linecap:round; stroke-linejoin:round;">
<path d="M13966 7244
L13959 7251
L13936 7259
L13921 7259
L13899 7251
L13884 7236
L13876 7221
L13869 7191
L13869 7169
L13876 7139
L13884 7124
L13899 7109
L13921 7101
L13936 7101
L13959 7109
L13966 7116
" />
<path d="M14101 7154
L14101 7259
" />
<path d="M14064 7094
L14026 7206
L14124 7206
" />
<path d="M12391 5039
L12384 5047
L12361 5054
L12346 5054
L12324 5047
L12309 5032
L12301 5017
L12294 4987
L12294 4964
L12301 4934
L12309 4919
L12324 4904
L12346 4897
L12361 4897
L12384 4904
L12391 4912
" />
<path d="M12466 5054
L12496 5054
L12511 5047
L12519 5039
L12534 5017
L12541 4987
L12541 4927
L12534 4912
L12526 4904
L12511 4897
L12481 4897
L12466 4904
L12459 4912
L12451 4927
L12451 4964
L12459 4979
L12466 4987
L12481 4994
L12511 4994
L12526 4987
L12534 4979
L12541 4964
" />
<path d="M11135 4291
L11128 4299
L11105 4306
L11090 4306
L11068 4299
L11053 4284
L11045 4269
L11038 4239
L11038 4216
L11045 4186
L11053 4171
L11068 4156
L11090 4149
L11105 4149
L11128 4156
L11135 4164
" />
<path d="M11285 4306
L11195 4306
" />
<path d="M11240 4306
L11240 4149
L11225 4171
L11210 4186
L11195 4194
" />
<path d="M11383 4149
L11398 4149
L11413 4156
L11420 4164
L11428 4179
L11435 4209
L11435 4246
L11428 4276
L11420 4291
L11413 4299
L11398 4306
L11383 4306
L11368 4299
L11360 4291
L11353 4276
L11345 4246
L11345 4209
L11353 4179
L11360 4164
L11368 4156
L11383 4149
" />
<path d="M10112 4291
L10104 4299
L10082 4306
L10067 4306
L10044 4299
L10029 4284
L10022 4269
L10014 4239
L10014 4216
L10022 4186
L10029 4171
L10044 4156
L10067 4149
L10082 4149
L10104 4156
L10112 4164
" />
<path d="M10262 4306
L10172 4306
" />
<path d="M10217 4306
L10217 4149
L10202 4171
L10187 4186
L10172 4194
" />
<path d="M10412 4306
L10322 4306
" />
<path d="M10367 4306
L10367 4149
L10352 4171
L10337 4186
L10322 4194
" />
<path d="M10531 4645
L10523 4638
L10516 4615
L10516 4600
L10523 4578
L10538 4563
L10553 4555
L10583 4548
L10606 4548
L10636 4555
L10651 4563
L10666 4578
L10673 4600
L10673 4615
L10666 4638
L10658 4645
" />
<path d="M10516 4795
L10516 4705
" />
<path d="M10516 4750
L10673 4750
L10651 4735
L10636 4720
L10628 4705
" />
<path d="M10673 4848
L10673 4953
L10516 4885
" />
<path d="M15373 3425
L15366 3417
L15358 3395
L15358 3380
L15366 3357
L15381 3342
L15396 3335
L15426 3327
L15448 3327
L15478 3335
L15493 3342
L15508 3357
L15516 3380
L15516 3395
L15508 3417
L15501 3425
" />
<path d="M15501 3485
L15508 3492
L15516 3507
L15516 3545
L15508 3560
L15501 3567
L15486 3575
L15471 3575
L15448 3567
L15358 3477
L15358 3575
" />
<path d="M15358 3725
L15358 3635
" />
<path d="M15358 3680
L15516 3680
L15493 3665
L15478 3650
L15471 3635
" />
<path d="M7119 7519
L7112 7527
L7089 7534
L7074 7534
L7052 7527
L7037 7512
L7029 7497
L7022 7467
L7022 7444
L7029 7414
L7037 7399
L7052 7384
L7074 7377
L7089 7377
L7112 7384
L7119 7392
" />
<path d="M7179 7392
L7187 7384
L7202 7377
L7239 7377
L7254 7384
L7262 7392
L7269 7407
L7269 7422
L7262 7444
L7172 7534
L7269 7534
" />
<path d="M7329 7392
L7337 7384
L7352 7377
L7389 7377
L7404 7384
L7412 7392
L7419 7407
L7419 7422
L7412 7444
L7322 7534
L7419 7534
" />
<path d="M12257 13307
L12250 13314
L12227 13322
L12212 13322
L12190 13314
L12175 13299
L12167 13284
L12160 13254
L12160 13232
L12167 13202
L12175 13187
L12190 13172
L12212 13164
L12227 13164
L12250 13172
L12257 13179
" />
<path d="M12317 13179
L12325 13172
L12340 13164
L12377 13164
L12392 13172
L12400 13179
L12407 13194
L12407 13209
L12400 13232
L12310 13322
L12407 13322
" />
<path d="M12460 13164
L12557 13164
L12505 13224
L12527 13224
L12542 13232
L12550 13239
L12557 13254
L12557 13292
L12550 13307
L12542 13314
L12527 13322
L12482 13322
L12467 13314
L12460 13307
" />
<path d="M11928 5866
L11921 5858
L11913 5836
L11913 5821
L11921 5798
L11936 5783
L11951 5776
L11981 5768
L12003 5768
L12033 5776
L12048 5783
L12063 5798
L12071 5821
L12071 5836
L12063 5858
L12056 5866
" />
<path d="M12056 5926
L12063 5933
L12071 5948
L12071 5986
L12063 6001
L12056 6008
L12041 6016
L12026 6016
L12003 6008
L11913 5918
L11913 6016
" />
<path d="M12018 6151
L11913 6151
" />
<path d="M12078 6113
L11966 6076
L11966 6173
" />
<path d="M9094 12992
L9086 12984
L9079 12962
L9079 12947
L9086 12924
L9101 12909
L9116 12902
L9146 12894
L9169 12894
L9199 12902
L9214 12909
L9229 12924
L9236 12947
L9236 12962
L9229 12984
L9221 12992
" />
<path d="M9221 13052
L9229 13059
L9236 13074
L9236 13112
L9229 13127
L9221 13134
L9206 13142
L9191 13142
L9169 13134
L9079 13044
L9079 13142
" />
<path d="M9236 13284
L9236 13209
L9161 13202
L9169 13209
L9176 13224
L9176 13262
L9169 13277
L9161 13284
L9146 13292
L9109 13292
L9094 13284
L9086 13277
L9079 13262
L9079 13224
L9086 13209
L9094 13202
" />
<path d="M7159 6712
L7151 6720
L7129 6727
L7114 6727
L7091 6720
L7076 6705
L7069 6690
L7061 6660
L7061 6637
L7069 6607
L7076 6592
L7091 6577
L7114 6570
L7129 6570
L7151 6577
L7159 6585
" />
<path d="M7219 6585
L7226 6577
L7241 6570
L7279 6570
L7294 6577
L7301 6585
L7309 6600
L7309 6615
L7301 6637
L7211 6727
L7309 6727
" />
<path d="M7399 6637
L7384 6630
L7376 6622
L7369 6607
L7369 6600
L7376 6585
L7384 6577
L7399 6570
L7429 6570
L7444 6577
L7451 6585
L7459 6600
L7459 6607
L7451 6622
L7444 6630
L7429 6637
L7399 6637
L7384 6645
L7376 6652
L7369 6667
L7369 6697
L7376 6712
L7384 6720
L7399 6727
L7429 6727
L7444 6720
L7451 6712
L7459 6697
L7459 6667
L7451 6652
L7444 6645
L7429 6637
" />
<path d="M14035 11142
L14027 11134
L14020 11112
L14020 11097
L14027 11074
L14042 11059
L14057 11052
L14087 11044
L14110 11044
L14140 11052
L14155 11059
L14170 11074
L14177 11097
L14177 11112
L14170 11134
L14162 11142
" />
<path d="M14177 11194
L14177 11291
L14117 11239
L14117 11261
L14110 11276
L14102 11284
L14087 11291
L14050 11291
L14035 11284
L14027 11276
L14020 11261
L14020 11217
L14027 11202
L14035 11194
" />
<path d="M14162 11351
L14170 11359
L14177 11374
L14177 11411
L14170 11426
L14162 11434
L14147 11441
L14132 11441
L14110 11434
L14020 11344
L14020 11441
" />
<path d="M14704 4783
L14696 4776
L14689 4753
L14689 4738
L14696 4716
L14711 4701
L14726 4693
L14756 4686
L14779 4686
L14809 4693
L14824 4701
L14839 4716
L14846 4738
L14846 4753
L14839 4776
L14831 4783
" />
<path d="M14794 4918
L14689 4918
" />
<path d="M14854 4881
L14741 4843
L14741 4941
" />
<path d="M14846 5031
L14846 5046
L14839 5061
L14831 5068
L14816 5076
L14786 5083
L14749 5083
L14719 5076
L14704 5068
L14696 5061
L14689 5046
L14689 5031
L14696 5016
L14704 5008
L14719 5001
L14749 4993
L14786 4993
L14816 5001
L14831 5008
L14839 5016
L14846 5031
" />
<path d="M7735 10649
L7728 10642
L7720 10619
L7720 10604
L7728 10582
L7743 10567
L7758 10559
L7788 10552
L7810 10552
L7840 10559
L7855 10567
L7870 10582
L7878 10604
L7878 10619
L7870 10642
L7863 10649
" />
<path d="M7825 10784
L7720 10784
" />
<path d="M7885 10747
L7773 10709
L7773 10807
" />
<path d="M7863 10859
L7870 10867
L7878 10882
L7878 10919
L7870 10934
L7863 10942
L7848 10949
L7833 10949
L7810 10942
L7720 10852
L7720 10949
" />
<path d="M15944 4783
L15937 4776
L15929 4753
L15929 4738
L15937 4716
L15952 4701
L15967 4693
L15997 4686
L16019 4686
L16049 4693
L16064 4701
L16079 4716
L16086 4738
L16086 4753
L16079 4776
L16071 4783
" />
<path d="M16034 4918
L15929 4918
" />
<path d="M16094 4881
L15982 4843
L15982 4941
" />
<path d="M16034 5068
L15929 5068
" />
<path d="M16094 5031
L15982 4993
L15982 5091
" />
<path d="M5846 5000
L5838 4992
L5831 4970
L5831 4955
L5838 4932
L5853 4917
L5868 4910
L5898 4902
L5921 4902
L5951 4910
L5966 4917
L5981 4932
L5988 4955
L5988 4970
L5981 4992
L5973 5000
" />
<path d="M5936 5135
L5831 5135
" />
<path d="M5996 5097
L5883 5060
L5883 5157
" />
<path d="M5921 5240
L5928 5225
L5936 5217
L5951 5210
L5958 5210
L5973 5217
L5981 5225
L5988 5240
L5988 5270
L5981 5285
L5973 5292
L5958 5300
L5951 5300
L5936 5292
L5928 5285
L5921 5270
L5921 5240
L5913 5225
L5906 5217
L5891 5210
L5861 5210
L5846 5217
L5838 5225
L5831 5240
L5831 5270
L5838 5285
L5846 5292
L5861 5300
L5891 5300
L5906 5292
L5913 5285
L5921 5270
" />
<path d="M12878 9957
L12953 9904
" />
<path d="M12878 9867
L13035 9867
L13035 9927
L13028 9942
L13020 9949
L13005 9957
L12983 9957
L12968 9949
L12960 9942
L12953 9927
L12953 9867
" />
<path d="M13035 10009
L13035 10114
L12878 10047
" />
<path d="M11387 7889
L11335 7814
" />
<path d="M11297 7889
L11297 7731
L11357 7731
L11372 7739
L11380 7746
L11387 7761
L11387 7784
L11380 7799
L11372 7806
L11357 7814
L11297 7814
" />
<path d="M11477 7799
L11462 7791
L11455 7784
L11447 7769
L11447 7761
L11455 7746
L11462 7739
L11477 7731
L11507 7731
L11522 7739
L11530 7746
L11537 7761
L11537 7769
L11530 7784
L11522 7791
L11507 7799
L11477 7799
L11462 7806
L11455 7814
L11447 7829
L11447 7859
L11455 7874
L11462 7881
L11477 7889
L11507 7889
L11522 7881
L11530 7874
L11537 7859
L11537 7829
L11530 7814
L11522 7806
L11507 7799
" />
<path d="M7957 12992
L8032 12939
" />
<path d="M7957 12902
L8114 12902
L8114 12962
L8107 12977
L8099 12984
L8084 12992
L8062 12992
L8047 12984
L8039 12977
L8032 12962
L8032 12902
" />
<path d="M7957 13142
L7957 13052
" />
<path d="M7957 13097
L8114 13097
L8092 13082
L8077 13067
L8069 13052
" />
<path d="M8114 13284
L8114 13209
L8039 13202
L8047 13209
L8054 13224
L8054 13262
L8047 13277
L8039 13284
L8024 13292
L7987 13292
L7972 13284
L7964 13277
L7957 13262
L7957 13224
L7964 13209
L7972 13202
" />
<path d="M16441 5767
L16516 5715
" />
<path d="M16441 5678
L16598 5678
L16598 5738
L16591 5753
L16583 5760
L16568 5767
L16546 5767
L16531 5760
L16523 5753
L16516 5738
L16516 5678
" />
<path d="M16583 5827
L16591 5835
L16598 5850
L16598 5887
L16591 5902
L16583 5910
L16568 5917
L16553 5917
L16531 5910
L16441 5820
L16441 5917
" />
<path d="M16441 6067
L16441 5977
" />
<path d="M16441 6022
L16598 6022
L16576 6007
L16561 5992
L16553 5977
" />
<path d="M9167 4641
L9114 4566
" />
<path d="M9077 4641
L9077 4483
L9137 4483
L9152 4491
L9159 4498
L9167 4513
L9167 4536
L9159 4551
L9152 4558
L9137 4566
L9077 4566
" />
<path d="M9227 4498
L9234 4491
L9249 4483
L9287 4483
L9302 4491
L9309 4498
L9317 4513
L9317 4528
L9309 4551
L9219 4641
L9317 4641
" />
<path d="M9369 4483
L9467 4483
L9414 4543
L9437 4543
L9452 4551
L9459 4558
L9467 4573
L9467 4611
L9459 4626
L9452 4633
L9437 4641
L9392 4641
L9377 4633
L9369 4626
" />
<path d="M15023 2539
L15098 2487
" />
<path d="M15023 2449
L15181 2449
L15181 2509
L15173 2524
L15166 2532
L15151 2539
L15128 2539
L15113 2532
L15106 2524
L15098 2509
L15098 2449
" />
<path d="M15166 2599
L15173 2607
L15181 2622
L15181 2659
L15173 2674
L15166 2682
L15151 2689
L15136 2689
L15113 2682
L15023 2592
L15023 2689
" />
<path d="M15128 2824
L15023 2824
" />
<path d="M15188 2787
L15076 2749
L15076 2847
" />
<path d="M11067 2775
L11142 2723
" />
<path d="M11067 2685
L11224 2685
L11224 2745
L11217 2760
L11209 2768
L11194 2775
L11172 2775
L11157 2768
L11149 2760
L11142 2745
L11142 2685
" />
<path d="M11209 2835
L11217 2843
L11224 2858
L11224 2895
L11217 2910
L11209 2918
L11194 2925
L11179 2925
L11157 2918
L11067 2828
L11067 2925
" />
<path d="M11224 3068
L11224 2993
L11149 2985
L11157 2993
L11164 3008
L11164 3045
L11157 3060
L11149 3068
L11134 3075
L11097 3075
L11082 3068
L11074 3060
L11067 3045
L11067 3008
L11074 2993
L11082 2985
" />
<path d="M9335 2775
L9410 2723
" />
<path d="M9335 2685
L9492 2685
L9492 2745
L9485 2760
L9477 2768
L9462 2775
L9440 2775
L9425 2768
L9417 2760
L9410 2745
L9410 2685
" />
<path d="M9477 2835
L9485 2843
L9492 2858
L9492 2895
L9485 2910
L9477 2918
L9462 2925
L9447 2925
L9425 2918
L9335 2828
L9335 2925
" />
<path d="M9492 3060
L9492 3030
L9485 3015
L9477 3008
L9455 2993
L9425 2985
L9365 2985
L9350 2993
L9342 3000
L9335 3015
L9335 3045
L9342 3060
L9350 3068
L9365 3075
L9402 3075
L9417 3068
L9425 3060
L9432 3045
L9432 3015
L9425 3000
L9417 2993
L9402 2985
" />
<path d="M9197 9201
L9354 9201
L9354 9261
L9347 9276
L9339 9284
L9324 9291
L9302 9291
L9287 9284
L9279 9276
L9272 9261
L9272 9201
" />
<path d="M9197 9441
L9197 9351
" />
<path d="M9197 9396
L9354 9396
L9332 9381
L9317 9366
L9309 9351
" />
<path d="M9354 9494
L9354 9591
L9294 9539
L9294 9561
L9287 9576
L9279 9584
L9264 9591
L9227 9591
L9212 9584
L9204 9576
L9197 9561
L9197 9516
L9204 9501
L9212 9494
" />
<path d="M13897 3165
L13889 3158
L13882 3135
L13882 3120
L13889 3098
L13904 3083
L13919 3075
L13949 3068
L13972 3068
L14002 3075
L14017 3083
L14032 3098
L14039 3120
L14039 3135
L14032 3158
L14024 3165
" />
<path d="M13882 3315
L13882 3225
" />
<path d="M13882 3270
L14039 3270
L14017 3255
L14002 3240
L13994 3225
" />
<path d="M16056 6909
L16049 6917
L16026 6924
L16011 6924
L15989 6917
L15974 6902
L15967 6887
L15959 6857
L15959 6834
L15967 6804
L15974 6789
L15989 6774
L16011 6767
L16026 6767
L16049 6774
L16056 6782
" />
<path d="M16191 6819
L16191 6924
" />
<path d="M16154 6759
L16116 6872
L16214 6872
" />
<path d="M16259 6767
L16364 6767
L16296 6924
" />
<path d="M15102 5767
L15177 5715
" />
<path d="M15102 5678
L15260 5678
L15260 5738
L15252 5753
L15245 5760
L15230 5767
L15207 5767
L15192 5760
L15185 5753
L15177 5738
L15177 5678
" />
<path d="M15245 5827
L15252 5835
L15260 5850
L15260 5887
L15252 5902
L15245 5910
L15230 5917
L15215 5917
L15192 5910
L15102 5820
L15102 5917
" />
<path d="M15260 6015
L15260 6030
L15252 6045
L15245 6052
L15230 6060
L15200 6067
L15162 6067
L15132 6060
L15117 6052
L15110 6045
L15102 6030
L15102 6015
L15110 6000
L15117 5992
L15132 5985
L15162 5977
L15200 5977
L15230 5985
L15245 5992
L15252 6000
L15260 6015
" />
<path d="M13744 9178
L13691 9103
" />
<path d="M13654 9178
L13654 9021
L13714 9021
L13729 9028
L13736 9036
L13744 9051
L13744 9073
L13736 9088
L13729 9096
L13714 9103
L13654 9103
" />
<path d="M13803 9036
L13811 9028
L13826 9021
L13863 9021
L13878 9028
L13886 9036
L13893 9051
L13893 9066
L13886 9088
L13796 9178
L13893 9178
" />
<path d="M13946 9021
L14051 9021
L13983 9178
" />
</g>
<g style="fill:#000000; fill-opacity:0.0; 
stroke:#000000; stroke-width:27.5591; stroke-opacity:1; 
stroke-linecap:round; stroke-linejoin:round;">
</g>
<g style="fill:#008400; fill-opacity:0.0; 
stroke:#008400; stroke-width:27.5591; stroke-opacity:1; 
stroke-linecap:round; stroke-linejoin:round;">
</g>
<g style="fill:#008400; fill-opacity:0.0; 
stroke:#008400; stroke-width:0; stroke-opacity:1; 
stroke-linecap:round; stroke-linejoin:round;">
</g>
<g style="fill:#008400; fill-opacity:1.0; 
stroke:#008400; stroke-width:0; stroke-opacity:1; 
stroke-linecap:round; stroke-linejoin:round;">
<polyline style="fill-rule:evenodd;"
points="11325,9471
11660,9471
11660,8959
11325,8959
11325,9471
" /> 
<polyline style="fill-rule:evenodd;"
points="11325,8723
11660,8723
11660,8211
11325,8211
11325,8723
" /> 
<circle cx="17595.2" cy="4156.64" r="472.441" /> 
</g>
<g style="fill:#008400; fill-opacity:1.0; 
stroke:#008400; stroke-width:39.3701; stroke-opacity:1; 
stroke-linecap:round; stroke-linejoin:round;">
</g>
<g style="fill:#008400; fill-opacity:1.0; 
stroke:#008400; stroke-width:0; stroke-opacity:1; 
stroke-linecap:round; stroke-linejoin:round;">
<circle cx="6650.36" cy="11951.9" r="472.441" /> 
</g>
<g style="fill:#008400; fill-opacity:1.0; 
stroke:#008400; stroke-width:39.3701; stroke-opacity:1; 
stroke-linecap:round; stroke-linejoin:round;">
</g>
<g style="fill:#840000; fill-opacity:1.0; 
stroke:#840000; stroke-width:39.3701; stroke-opacity:1; 
stroke-linecap:round; stroke-linejoin:round;">
</g>
<g style="fill:#840000; fill-opacity:1.0; 
stroke:#840000; stroke-width:0; stroke-opacity:1; 
stroke-linecap:round; stroke-linejoin:round;">
<polyline style="fill-rule:evenodd;"
points="15681,11063
15681,11791
16429,11791
16429,11063
15681,11063
" /> 
</g>
<g style="fill:#840000; fill-opacity:1.0; 
stroke:#840000; stroke-width:728.346; stroke-opacity:1; 
stroke-linecap:round; stroke-linejoin:round;">
</g>
<g style="fill:#840000; fill-opacity:0.0; 
stroke:#840000; stroke-width:728.346; stroke-opacity:1; 
stroke-linecap:round; stroke-linejoin:round;">
<path d="M16045 10427
L16064 10427
" />
<path d="M16045 9427
L16064 9427
" />
<path d="M16045 8427
L16064 8427
" />
<path d="M16045 7427
L16064 7427
" />
</g>
<g style="fill:#008400; fill-opacity:0.0; 
stroke:#008400; stroke-width:728.346; stroke-opacity:1; 
stroke-linecap:round; stroke-linejoin:round;">
</g>
<g style="fill:#008400; fill-opacity:0.0; 
stroke:#008400; stroke-width:0; stroke-opacity:1; 
stroke-linecap:round; stroke-linejoin:round;">
</g>
<g style="fill:#008400; fill-opacity:1.0; 
stroke:#008400; stroke-width:0; stroke-opacity:1; 
stroke-linecap:round; stroke-linejoin:round;">
<polyline style="fill-rule:evenodd;"
points="14309,6912
14309,6676
14033,6676
14033,6912
14309,6912
" /> 
<polyline style="fill-rule:evenodd;"
points="13876,6912
13876,6676
13600,6676
13600,6912
13876,6912
" /> 
<polyline style="fill-rule:evenodd;"
points="12772,4668
12772,4432
12496,4432
12496,4668
12772,4668
" /> 
<polyline style="fill-rule:evenodd;"
points="12339,4668
12339,4432
12063,4432
12063,4668
12339,4668
" /> 
<polyline style="fill-rule:evenodd;"
points="11563,4018
11563,3782
11288,3782
11288,4018
11563,4018
" /> 
<polyline style="fill-rule:evenodd;"
points="11130,4018
11130,3782
10855,3782
10855,4018
11130,4018
" /> 
<polyline style="fill-rule:evenodd;"
points="9859,3782
9859,4018
10134,4018
10134,3782
9859,3782
" /> 
<polyline style="fill-rule:evenodd;"
points="10292,3782
10292,4018
10567,4018
10567,3782
10292,3782
" /> 
<polyline style="fill-rule:evenodd;"
points="10331,4392
10095,4392
10095,4668
10331,4668
10331,4392
" /> 
<polyline style="fill-rule:evenodd;"
points="10331,4825
10095,4825
10095,5101
10331,5101
10331,4825
" /> 
<polyline style="fill-rule:evenodd;"
points="15221,3152
14985,3152
14985,3428
15221,3428
15221,3152
" /> 
<polyline style="fill-rule:evenodd;"
points="15221,3585
14985,3585
14985,3861
15221,3861
15221,3585
" /> 
<polyline style="fill-rule:evenodd;"
points="7555,7207
7555,6971
7280,6971
7280,7207
7555,7207
" /> 
<polyline style="fill-rule:evenodd;"
points="7122,7207
7122,6971
6847,6971
6847,7207
7122,7207
" /> 
<polyline style="fill-rule:evenodd;"
points="12004,12758
12004,12995
12280,12995
12280,12758
12004,12758
" /> 
<polyline style="fill-rule:evenodd;"
points="12437,12758
12437,12995
12713,12995
12713,12758
12437,12758
" /> 
<polyline style="fill-rule:evenodd;"
points="11748,5593
11512,5593
11512,5869
11748,5869
11748,5593
" /> 
<polyline style="fill-rule:evenodd;"
points="11748,6026
11512,6026
11512,6302
11748,6302
11748,6026
" /> 
<polyline style="fill-rule:evenodd;"
points="8894,12731
8658,12731
8658,13007
8894,13007
8894,12731
" /> 
<polyline style="fill-rule:evenodd;"
points="8894,13164
8658,13164
8658,13440
8894,13440
8894,13164
" /> 
<polyline style="fill-rule:evenodd;"
points="7614,6400
7614,6164
7339,6164
7339,6400
7614,6400
" /> 
<polyline style="fill-rule:evenodd;"
points="7181,6400
7181,6164
6906,6164
6906,6400
7181,6400
" /> 
<polyline style="fill-rule:evenodd;"
points="13618,11597
13855,11597
13855,11321
13618,11321
13618,11597
" /> 
<polyline style="fill-rule:evenodd;"
points="13618,11164
13855,11164
13855,10888
13618,10888
13618,11164
" /> 
<polyline style="fill-rule:evenodd;"
points="15247,4531
15010,4531
15010,4806
15247,4806
15247,4531
" /> 
<polyline style="fill-rule:evenodd;"
points="15247,4964
15010,4964
15010,5239
15247,5239
15247,4964
" /> 
<polyline style="fill-rule:evenodd;"
points="7536,10377
7299,10377
7299,10652
7536,10652
7536,10377
" /> 
<polyline style="fill-rule:evenodd;"
points="7536,10810
7299,10810
7299,11085
7536,11085
7536,10810
" /> 
<polyline style="fill-rule:evenodd;"
points="15764,4530
15528,4530
15528,4806
15764,4806
15764,4530
" /> 
<polyline style="fill-rule:evenodd;"
points="15764,4963
15528,4963
15528,5239
15764,5239
15764,4963
" /> 
<polyline style="fill-rule:evenodd;"
points="5666,4743
5429,4743
5429,5018
5666,5018
5666,4743
" /> 
<polyline style="fill-rule:evenodd;"
points="5666,5176
5429,5176
5429,5451
5666,5451
5666,5176
" /> 
</g>
<g style="fill:#840000; fill-opacity:1.0; 
stroke:#840000; stroke-width:0; stroke-opacity:1; 
stroke-linecap:round; stroke-linejoin:round;">
<circle cx="6099.17" cy="2975.53" r="610.236" /> 
</g>
<g style="fill:#840000; fill-opacity:1.0; 
stroke:#840000; stroke-width:39.3701; stroke-opacity:1; 
stroke-linecap:round; stroke-linejoin:round;">
</g>
<g style="fill:#840000; fill-opacity:1.0; 
stroke:#840000; stroke-width:0; stroke-opacity:1; 
stroke-linecap:round; stroke-linejoin:round;">
<circle cx="6099.17" cy="14983.4" r="610.236" /> 
</g>
<g style="fill:#840000; fill-opacity:1.0; 
stroke:#840000; stroke-width:39.3701; stroke-opacity:1; 
stroke-linecap:round; stroke-linejoin:round;">
</g>
<g style="fill:#840000; fill-opacity:1.0; 
stroke:#840000; stroke-width:0; stroke-opacity:1; 
stroke-linecap:round; stroke-linejoin:round;">
<circle cx="18107" cy="2975.53" r="610.236" /> 
</g>
<g style="fill:#840000; fill-opacity:1.0; 
stroke:#840000; stroke-width:39.3701; stroke-opacity:1; 
stroke-linecap:round; stroke-linejoin:round;">
</g>
<g style="fill:#840000; fill-opacity:1.0; 
stroke:#840000; stroke-width:0; stroke-opacity:1; 
stroke-linecap:round; stroke-linejoin:round;">
<circle cx="18107" cy="14983.4" r="610.236" /> 
</g>
<g style="fill:#840000; fill-opacity:1.0; 
stroke:#840000; stroke-width:39.3701; stroke-opacity:1; 
stroke-linecap:round; stroke-linejoin:round;">
</g>
<g style="fill:#008400; fill-opacity:1.0; 
stroke:#008400; stroke-width:39.3701; stroke-opacity:1; 
stroke-linecap:round; stroke-linejoin:round;">
</g>
<g style="fill:#008400; fill-opacity:1.0; 
stroke:#008400; stroke-width:0; stroke-opacity:1; 
stroke-linecap:round; stroke-linejoin:round;">
<polyline style="fill-rule:evenodd;"
points="12831,10278
13107,10278
13107,10081
12831,10081
12831,10278
" /> 
<polyline style="fill-rule:evenodd;"
points="12831,9924
13107,9924
13107,9727
12831,9727
12831,9924
" /> 
<polyline style="fill-rule:evenodd;"
points="11138,7680
11138,7955
11335,7955
11335,7680
11138,7680
" /> 
<polyline style="fill-rule:evenodd;"
points="11492,7680
11492,7955
11689,7955
11689,7680
11492,7680
" /> 
<polyline style="fill-rule:evenodd;"
points="8166,12818
7890,12818
7890,13014
8166,13014
8166,12818
" /> 
<polyline style="fill-rule:evenodd;"
points="8166,13172
7890,13172
7890,13369
8166,13369
8166,13172
" /> 
<polyline style="fill-rule:evenodd;"
points="16017,6125
16292,6125
16292,5929
16017,5929
16017,6125
" /> 
<polyline style="fill-rule:evenodd;"
points="16017,5771
16292,5771
16292,5574
16017,5574
16017,5771
" /> 
<circle cx="12441.7" cy="3412.54" r="137.795" /> 
</g>
<g style="fill:#008400; fill-opacity:1.0; 
stroke:#008400; stroke-width:39.3701; stroke-opacity:1; 
stroke-linecap:round; stroke-linejoin:round;">
</g>
<g style="fill:#008400; fill-opacity:1.0; 
stroke:#008400; stroke-width:0; stroke-opacity:1; 
stroke-linecap:round; stroke-linejoin:round;">
<polyline style="fill-rule:evenodd;"
points="8973,4422
8973,4697
9170,4697
9170,4422
8973,4422
" /> 
<polyline style="fill-rule:evenodd;"
points="9327,4422
9327,4697
9524,4697
9524,4422
9327,4422
" /> 
<polyline style="fill-rule:evenodd;"
points="15240,2365
14965,2365
14965,2562
15240,2562
15240,2365
" /> 
<polyline style="fill-rule:evenodd;"
points="15240,2719
14965,2719
14965,2916
15240,2916
15240,2719
" /> 
<polyline style="fill-rule:evenodd;"
points="11296,2611
11020,2611
11020,2808
11296,2808
11296,2611
" /> 
<polyline style="fill-rule:evenodd;"
points="11296,2965
11020,2965
11020,3162
11296,3162
11296,2965
" /> 
<polyline style="fill-rule:evenodd;"
points="9544,2581
9268,2581
9268,2778
9544,2778
9544,2581
" /> 
<polyline style="fill-rule:evenodd;"
points="9544,2936
9268,2936
9268,3133
9544,3133
9544,2936
" /> 
<polyline style="fill-rule:evenodd;"
points="8254,10239
8766,10239
8766,9924
8254,9924
8254,10239
" /> 
<polyline style="fill-rule:evenodd;"
points="8254,9766
8766,9766
8766,9451
8254,9451
8254,9766
" /> 
<polyline style="fill-rule:evenodd;"
points="8254,9294
8766,9294
8766,8979
8254,8979
8254,9294
" /> 
<polyline style="fill-rule:evenodd;"
points="8254,8821
8766,8821
8766,8507
8254,8507
8254,8821
" /> 
<polyline style="fill-rule:evenodd;"
points="9780,8369
10213,8369
10213,8054
9780,8054
9780,8369
" /> 
<polyline style="fill-rule:evenodd;"
points="9780,10692
10213,10692
10213,10377
9780,10377
9780,10692
" /> 
<polyline style="fill-rule:evenodd;"
points="14425,2818
14189,2818
14189,3093
14425,3093
14425,2818
" /> 
<polyline style="fill-rule:evenodd;"
points="14425,3251
14189,3251
14189,3526
14425,3526
14425,3251
" /> 
<polyline style="fill-rule:evenodd;"
points="15807,6400
15807,6636
16083,6636
16083,6400
15807,6400
" /> 
<polyline style="fill-rule:evenodd;"
points="16240,6400
16240,6636
16516,6636
16516,6400
16240,6400
" /> 
<polyline style="fill-rule:evenodd;"
points="15725,5573
15449,5573
15449,5770
15725,5770
15725,5573
" /> 
<polyline style="fill-rule:evenodd;"
points="15725,5928
15449,5928
15449,6125
15725,6125
15725,5928
" /> 
</g>
<g style="fill:#840000; fill-opacity:1.0; 
stroke:#840000; stroke-width:0; stroke-opacity:1; 
stroke-linecap:round; stroke-linejoin:round;">
<polyline style="fill-rule:evenodd;"
points="15690,15801
16419,15801
16419,15053
15690,15053
15690,15801
" /> 
<polyline style="fill-rule:evenodd;"
points="14690,15801
15419,15801
15419,15053
14690,15053
14690,15801
" /> 
<polyline style="fill-rule:evenodd;"
points="13690,15801
14419,15801
14419,15053
13690,15053
13690,15801
" /> 
<polyline style="fill-rule:evenodd;"
points="12690,15801
13419,15801
13419,15053
12690,15053
12690,15801
" /> 
<polyline style="fill-rule:evenodd;"
points="11690,15801
12419,15801
12419,15053
11690,15053
11690,15801
" /> 
<polyline style="fill-rule:evenodd;"
points="10690,15801
11419,15801
11419,15053
10690,15053
10690,15801
" /> 
<polyline style="fill-rule:evenodd;"
points="9690,15801
10419,15801
10419,15053
9690,15053
9690,15801
" /> 
<polyline style="fill-rule:evenodd;"
points="8690,15801
9419,15801
9419,15053
8690,15053
8690,15801
" /> 
<polyline style="fill-rule:evenodd;"
points="7690,15801
8419,15801
8419,15053
7690,15053
7690,15801
" /> 
</g>
<g style="fill:#840000; fill-opacity:1.0; 
stroke:#840000; stroke-width:728.346; stroke-opacity:1; 
stroke-linecap:round; stroke-linejoin:round;">
</g>
<g style="fill:#840000; fill-opacity:0.0; 
stroke:#840000; stroke-width:728.346; stroke-opacity:1; 
stroke-linecap:round; stroke-linejoin:round;">
<path d="M16055 14437
L16055 14417
" />
<path d="M15055 14437
L15055 14417
" />
<path d="M14055 14437
L14055 14417
" />
<path d="M13055 14437
L13055 14417
" />
<path d="M12055 14437
L12055 14417
" />
<path d="M11055 14437
L11055 14417
" />
<path d="M10055 14437
L10055 14417
" />
<path d="M9055 14437
L9055 14417
" />
<path d="M8055 14437
L8055 14417
" />
</g>
<g style="fill:#840000; fill-opacity:0.0; 
stroke:#840000; stroke-width:0; stroke-opacity:1; 
stroke-linecap:round; stroke-linejoin:round;">
</g>
<g style="fill:#840000; fill-opacity:1.0; 
stroke:#840000; stroke-width:0; stroke-opacity:1; 
stroke-linecap:round; stroke-linejoin:round;">
<polyline style="fill-rule:evenodd;"
points="16479,2941
16479,2213
15731,2213
15731,2941
16479,2941
" /> 
</g>
<g style="fill:#840000; fill-opacity:1.0; 
stroke:#840000; stroke-width:728.346; stroke-opacity:1; 
stroke-linecap:round; stroke-linejoin:round;">
</g>
<g style="fill:#840000; fill-opacity:0.0; 
stroke:#840000; stroke-width:728.346; stroke-opacity:1; 
stroke-linecap:round; stroke-linejoin:round;">
<path d="M16114 3527
L16095 3527
" />
<path d="M16045 13427
L16064 13427
" />
<path d="M16045 12427
L16064 12427
" />
<path d="M17495 6952
L17514 6952
" />
<path d="M17495 5952
L17514 5952
" />
</g>
<g style="fill:#840000; fill-opacity:0.0; 
stroke:#840000; stroke-width:0; stroke-opacity:1; 
stroke-linecap:round; stroke-linejoin:round;">
</g>
<g style="fill:#840000; fill-opacity:1.0; 
stroke:#840000; stroke-width:0; stroke-opacity:1; 
stroke-linecap:round; stroke-linejoin:round;">
<polyline style="fill-rule:evenodd;"
points="5406,8063
5406,8791
6154,8791
6154,8063
5406,8063
" /> 
</g>
<g style="fill:#840000; fill-opacity:1.0; 
stroke:#840000; stroke-width:728.346; stroke-opacity:1; 
stroke-linecap:round; stroke-linejoin:round;">
</g>
<g style="fill:#840000; fill-opacity:0.0; 
stroke:#840000; stroke-width:728.346; stroke-opacity:1; 
stroke-linecap:round; stroke-linejoin:round;">
<path d="M5770 7427
L5789 7427
" />
<path d="M5770 6427
L5789 6427
" />
</g>
<g style="fill:#840000; fill-opacity:0.0; 
stroke:#840000; stroke-width:0; stroke-opacity:1; 
stroke-linecap:round; stroke-linejoin:round;">
</g>
<g style="fill:#840000; fill-opacity:1.0; 
stroke:#840000; stroke-width:0; stroke-opacity:1; 
stroke-linecap:round; stroke-linejoin:round;">
<polyline style="fill-rule:evenodd;"
points="18131,6588
18131,7316
18879,7316
18879,6588
18131,6588
" /> 
</g>
<g style="fill:#840000; fill-opacity:1.0; 
stroke:#840000; stroke-width:728.346; stroke-opacity:1; 
stroke-linecap:round; stroke-linejoin:round;">
</g>
<g style="fill:#840000; fill-opacity:0.0; 
stroke:#840000; stroke-width:728.346; stroke-opacity:1; 
stroke-linecap:round; stroke-linejoin:round;">
<path d="M18495 5952
L18514 5952
" />
<path d="M18495 4952
L18514 4952
" />
</g>
<g style="fill:#840000; fill-opacity:0.0; 
stroke:#840000; stroke-width:0; stroke-opacity:1; 
stroke-linecap:round; stroke-linejoin:round;">
</g>
<g style="fill:#840000; fill-opacity:1.0; 
stroke:#840000; stroke-width:0; stroke-opacity:1; 
stroke-linecap:round; stroke-linejoin:round;">
<polyline style="fill-rule:evenodd;"
points="8479,2941
8479,2213
7731,2213
7731,2941
8479,2941
" /> 
</g>
<g style="fill:#840000; fill-opacity:1.0; 
stroke:#840000; stroke-width:728.346; stroke-opacity:1; 
stroke-linecap:round; stroke-linejoin:round;">
</g>
<g style="fill:#840000; fill-opacity:0.0; 
stroke:#840000; stroke-width:728.346; stroke-opacity:1; 
stroke-linecap:round; stroke-linejoin:round;">
<path d="M8114 3577
L8095 3577
" />
<path d="M8114 4577
L8095 4577
" />
</g>
<g style="fill:#840000; fill-opacity:0.0; 
stroke:#840000; stroke-width:0; stroke-opacity:1; 
stroke-linecap:round; stroke-linejoin:round;">
</g>
<g style="fill:#840000; fill-opacity:1.0; 
stroke:#840000; stroke-width:0; stroke-opacity:1; 
stroke-linecap:round; stroke-linejoin:round;">
<polyline style="fill-rule:evenodd;"
points="18131,12588
18131,13316
18879,13316
18879,12588
18131,12588
" /> 
</g>
<g style="fill:#840000; fill-opacity:1.0; 
stroke:#840000; stroke-width:728.346; stroke-opacity:1; 
stroke-linecap:round; stroke-linejoin:round;">
</g>
<g style="fill:#840000; fill-opacity:0.0; 
stroke:#840000; stroke-width:728.346; stroke-opacity:1; 
stroke-linecap:round; stroke-linejoin:round;">
<path d="M18495 11952
L18514 11952
" />
<path d="M18495 10952
L18514 10952
" />
<path d="M18495 9952
L18514 9952
" />
<path d="M18495 8952
L18514 8952
" />
<path d="M18495 7952
L18514 7952
" />
</g>
<g style="fill:#840000; fill-opacity:0.0; 
stroke:#840000; stroke-width:0; stroke-opacity:1; 
stroke-linecap:round; stroke-linejoin:round;">
</g>
<g style="fill:#840000; fill-opacity:1.0; 
stroke:#840000; stroke-width:0; stroke-opacity:1; 
stroke-linecap:round; stroke-linejoin:round;">
<polyline style="fill-rule:evenodd;"
points="17131,12588
17131,13316
17879,13316
17879,12588
17131,12588
" /> 
</g>
<g style="fill:#840000; fill-opacity:1.0; 
stroke:#840000; stroke-width:728.346; stroke-opacity:1; 
stroke-linecap:round; stroke-linejoin:round;">
</g>
<g style="fill:#840000; fill-opacity:0.0; 
stroke:#840000; stroke-width:728.346; stroke-opacity:1; 
stroke-linecap:round; stroke-linejoin:round;">
<path d="M17495 11952
L17514 11952
" />
<path d="M17495 10952
L17514 10952
" />
<path d="M17495 9952
L17514 9952
" />
<path d="M17495 8952
L17514 8952
" />
<path d="M17495 7952
L17514 7952
" />
</g>
<g style="fill:#008400; fill-opacity:0.0; 
stroke:#008400; stroke-width:728.346; stroke-opacity:1; 
stroke-linecap:round; stroke-linejoin:round;">
</g>
<g style="fill:#008400; fill-opacity:0.0; 
stroke:#008400; stroke-width:0; stroke-opacity:1; 
stroke-linecap:round; stroke-linejoin:round;">
</g>
<g style="fill:#008400; fill-opacity:1.0; 
stroke:#008400; stroke-width:0; stroke-opacity:1; 
stroke-linecap:round; stroke-linejoin:round;">
<polyline style="fill-rule:evenodd;"
points="6906,10081
7181,10081
7221,9829
6866,9829
6906,10081
" /> 
<polyline style="fill-rule:evenodd;"
points="6866,9782
7221,9782
7181,9530
6906,9530
6866,9782
" /> 
<polyline style="fill-rule:evenodd;"
points="6276,10091
6551,10091
6591,9820
6236,9820
6276,10091
" /> 
<polyline style="fill-rule:evenodd;"
points="6236,9792
6591,9792
6551,9520
6276,9520
6236,9792
" /> 
<polyline style="fill-rule:evenodd;"
points="5685,10081
5961,10081
6000,9829
5646,9829
5685,10081
" /> 
<polyline style="fill-rule:evenodd;"
points="5646,9782
6000,9782
5961,9530
5685,9530
5646,9782
" /> 
<polyline style="fill-rule:evenodd;"
points="13569,8969
13569,9245
13766,9245
13766,8969
13569,8969
" /> 
<polyline style="fill-rule:evenodd;"
points="13923,8969
13923,9245
14120,9245
14120,8969
13923,8969
" /> 
</g>
<g style="fill:#840000; fill-opacity:1.0; 
stroke:#840000; stroke-width:0; stroke-opacity:1; 
stroke-linecap:round; stroke-linejoin:round;">
</g>
<g style="fill:#840000; fill-opacity:1.0; 
stroke:#840000; stroke-width:393.701; stroke-opacity:1; 
stroke-linecap:round; stroke-linejoin:round;">
</g>
<g style="fill:#840000; fill-opacity:0.0; 
stroke:#840000; stroke-width:393.701; stroke-opacity:1; 
stroke-linecap:round; stroke-linejoin:round;">
<path d="M5633 10549
L5377 10549
" />
<path d="M5633 13305
L5377 13305
" />
</g>
<g style="fill:#840000; fill-opacity:0.0; 
stroke:#840000; stroke-width:452.756; stroke-opacity:1; 
stroke-linecap:round; stroke-linejoin:round;">
<path d="M6568 11012
L6568 10874
" />
<path d="M6568 12980
L6568 12842
" />
</g>
<g style="fill:#000000; fill-opacity:0.0; 
stroke:#000000; stroke-width:452.756; stroke-opacity:1; 
stroke-linecap:round; stroke-linejoin:round;">
</g>
<g style="fill:#C2C200; fill-opacity:0.0; 
stroke:#C2C200; stroke-width:452.756; stroke-opacity:1; 
stroke-linecap:round; stroke-linejoin:round;">
</g>
<g style="fill:#C2C200; fill-opacity:0.0; 
stroke:#C2C200; stroke-width:59.0551; stroke-opacity:1; 
stroke-linecap:round; stroke-linejoin:round;">
<path d="M19189.7 2680.26 A787.402 787.402 0.0 0 0 18402.3 1892.86 " />
<path d="M18402.3 16066.1 A787.402 787.402 0.0 0 0 19189.7 15278.7 " />
<path d="M5016.5 15278.7 A787.402 787.402 0.0 0 0 5803.9 16066.1 " />
<path d="M5803.9 1892.86 A787.402 787.402 0.0 0 0 5016.5 2680.26 " />
<path d="M5016 2680
L5016 15278
" />
<path d="M18402 16066
L5803 16066
" />
<path d="M19189 2680
L19189 15278
" />
<path d="M18402 1892
L5803 1892
" />
</g> 
</svg>
