<?xml version="1.0" standalone="no"?>
 <!DOCTYPE svg PUBLIC "-//W3C//DTD SVG 1.1//EN" 
 "http://www.w3.org/Graphics/SVG/1.1/DTD/svg11.dtd"> 
<svg xmlns="http://www.w3.org/2000/svg" version="1.1" 
    width="6.1595cm" height="4.41706cm" viewBox="0 0 24250 17390 ">
<title>SVG Picture created as seppuku-brd.svg date 2017/01/03 20:40:06 </title>
  <desc>Picture generated by PCBNEW </desc>
<g style="fill:#000000; fill-opacity:1;stroke:#000000; stroke-opacity:1;
stroke-linecap:round; stroke-linejoin:round; "
 transform="translate(0 0) scale(1 1)">
</g>
<g style="fill:#000000; fill-opacity:0.0; 
stroke:#000000; stroke-width:-0.000393701; stroke-opacity:1; 
stroke-linecap:round; stroke-linejoin:round;">
</g>
<g style="fill:#840000; fill-opacity:0.0; 
stroke:#840000; stroke-width:-0.000393701; stroke-opacity:1; 
stroke-linecap:round; stroke-linejoin:round;">
</g>
<g style="fill:#840000; fill-opacity:0.0; 
stroke:#840000; stroke-width:0; stroke-opacity:1; 
stroke-linecap:round; stroke-linejoin:round;">
</g>
<g style="fill:#840000; fill-opacity:1.0; 
stroke:#840000; stroke-width:0; stroke-opacity:1; 
stroke-linecap:round; stroke-linejoin:round;">
<polyline style="fill-rule:evenodd;"
points="12658,13526
12501,13526
12501,13251
12658,13251
12658,13526
" /> 
<polyline style="fill-rule:evenodd;"
points="13052,13526
12894,13526
12894,13251
13052,13251
13052,13526
" /> 
<polyline style="fill-rule:evenodd;"
points="12855,13526
12698,13526
12698,13251
12855,13251
12855,13526
" /> 
<polyline style="fill-rule:evenodd;"
points="13249,13526
13091,13526
13091,13251
13249,13251
13249,13526
" /> 
<polyline style="fill-rule:evenodd;"
points="12855,13093
12698,13093
12698,12818
12855,12818
12855,13093
" /> 
<polyline style="fill-rule:evenodd;"
points="12658,13093
12501,13093
12501,12818
12658,12818
12658,13093
" /> 
<polyline style="fill-rule:evenodd;"
points="13052,13093
12894,13093
12894,12818
13052,12818
13052,13093
" /> 
<polyline style="fill-rule:evenodd;"
points="13249,13093
13091,13093
13091,12818
13249,12818
13249,13093
" /> 
<polyline style="fill-rule:evenodd;"
points="13780,13526
13623,13526
13623,13251
13780,13251
13780,13526
" /> 
<polyline style="fill-rule:evenodd;"
points="14174,13526
14016,13526
14016,13251
14174,13251
14174,13526
" /> 
<polyline style="fill-rule:evenodd;"
points="13977,13526
13820,13526
13820,13251
13977,13251
13977,13526
" /> 
<polyline style="fill-rule:evenodd;"
points="14371,13526
14213,13526
14213,13251
14371,13251
14371,13526
" /> 
<polyline style="fill-rule:evenodd;"
points="13977,13093
13820,13093
13820,12818
13977,12818
13977,13093
" /> 
<polyline style="fill-rule:evenodd;"
points="13780,13093
13623,13093
13623,12818
13780,12818
13780,13093
" /> 
<polyline style="fill-rule:evenodd;"
points="14174,13093
14016,13093
14016,12818
14174,12818
14174,13093
" /> 
<polyline style="fill-rule:evenodd;"
points="14371,13093
14213,13093
14213,12818
14371,12818
14371,13093
" /> 
<polyline style="fill-rule:evenodd;"
points="9735,9048
9735,9205
9459,9205
9459,9048
9735,9048
" /> 
<polyline style="fill-rule:evenodd;"
points="9735,8654
9735,8812
9459,8812
9459,8654
9735,8654
" /> 
<polyline style="fill-rule:evenodd;"
points="9735,8851
9735,9008
9459,9008
9459,8851
9735,8851
" /> 
<polyline style="fill-rule:evenodd;"
points="9735,8457
9735,8615
9459,8615
9459,8457
9735,8457
" /> 
<polyline style="fill-rule:evenodd;"
points="9302,8851
9302,9008
9026,9008
9026,8851
9302,8851
" /> 
<polyline style="fill-rule:evenodd;"
points="9302,9048
9302,9205
9026,9205
9026,9048
9302,9048
" /> 
<polyline style="fill-rule:evenodd;"
points="9302,8654
9302,8812
9026,8812
9026,8654
9302,8654
" /> 
<polyline style="fill-rule:evenodd;"
points="9302,8457
9302,8615
9026,8615
9026,8457
9302,8457
" /> 
<polyline style="fill-rule:evenodd;"
points="8997,7375
8997,7217
9272,7217
9272,7375
8997,7375
" /> 
<polyline style="fill-rule:evenodd;"
points="8997,7768
8997,7611
9272,7611
9272,7768
8997,7768
" /> 
<polyline style="fill-rule:evenodd;"
points="8997,7571
8997,7414
9272,7414
9272,7571
8997,7571
" /> 
<polyline style="fill-rule:evenodd;"
points="9036,7965
9036,7808
9272,7808
9272,7965
9036,7965
" /> 
<polyline style="fill-rule:evenodd;"
points="9430,7571
9430,7414
9705,7414
9705,7571
9430,7571
" /> 
<polyline style="fill-rule:evenodd;"
points="9430,7375
9430,7217
9705,7217
9705,7375
9430,7375
" /> 
<polyline style="fill-rule:evenodd;"
points="9430,7768
9430,7611
9705,7611
9705,7768
9430,7768
" /> 
<polyline style="fill-rule:evenodd;"
points="9430,7965
9430,7808
9666,7808
9666,7965
9430,7965
" /> 
<polyline style="fill-rule:evenodd;"
points="9361,6157
9361,6866
8888,6866
8888,6157
9361,6157
" /> 
<polyline style="fill-rule:evenodd;"
points="9361,4188
9361,4897
8888,4897
8888,4188
9361,4188
" /> 
<polyline style="fill-rule:evenodd;"
points="8101,6157
8101,6866
7628,6866
7628,6157
8101,6157
" /> 
<polyline style="fill-rule:evenodd;"
points="8101,4188
8101,4897
7628,4897
7628,4188
8101,4188
" /> 
<circle cx="7363.42" cy="13881" r="472.441" /> 
</g>
<g style="fill:#840000; fill-opacity:1.0; 
stroke:#840000; stroke-width:39.3701; stroke-opacity:1; 
stroke-linecap:round; stroke-linejoin:round;">
</g>
<g style="fill:#840000; fill-opacity:1.0; 
stroke:#840000; stroke-width:0; stroke-opacity:1; 
stroke-linecap:round; stroke-linejoin:round;">
<polyline style="fill-rule:evenodd;"
points="11147,5869
11147,6046
10852,6046
10852,5869
11147,5869
" /> 
<polyline style="fill-rule:evenodd;"
points="11147,5613
11147,5790
10852,5790
10852,5613
11147,5613
" /> 
<polyline style="fill-rule:evenodd;"
points="11147,5357
11147,5534
10852,5534
10852,5357
11147,5357
" /> 
<polyline style="fill-rule:evenodd;"
points="11147,5101
11147,5278
10852,5278
10852,5101
11147,5101
" /> 
<polyline style="fill-rule:evenodd;"
points="9927,5101
9927,5278
9632,5278
9632,5101
9927,5101
" /> 
<polyline style="fill-rule:evenodd;"
points="9927,5357
9927,5534
9632,5534
9632,5357
9927,5357
" /> 
<polyline style="fill-rule:evenodd;"
points="9927,5613
9927,5790
9632,5790
9632,5613
9927,5613
" /> 
<polyline style="fill-rule:evenodd;"
points="9927,5869
9927,6046
9632,6046
9632,5869
9927,5869
" /> 
<polyline style="fill-rule:evenodd;"
points="10409,5081
10409,5593
10065,5593
10065,5081
10409,5081
" /> 
<polyline style="fill-rule:evenodd;"
points="10409,5554
10409,6066
10065,6066
10065,5554
10409,5554
" /> 
<polyline style="fill-rule:evenodd;"
points="10714,5081
10714,5593
10370,5593
10370,5081
10714,5081
" /> 
<polyline style="fill-rule:evenodd;"
points="10714,5554
10714,6066
10370,6066
10370,5554
10714,5554
" /> 
<polyline style="fill-rule:evenodd;"
points="8568,11063
8568,11791
7820,11791
7820,11063
8568,11063
" /> 
</g>
<g style="fill:#840000; fill-opacity:1.0; 
stroke:#840000; stroke-width:728.346; stroke-opacity:1; 
stroke-linecap:round; stroke-linejoin:round;">
</g>
<g style="fill:#840000; fill-opacity:0.0; 
stroke:#840000; stroke-width:728.346; stroke-opacity:1; 
stroke-linecap:round; stroke-linejoin:round;">
<path d="M8204 10427
L8185 10427
" />
<path d="M8204 9427
L8185 9427
" />
<path d="M8204 8427
L8185 8427
" />
<path d="M8204 7427
L8185 7427
" />
</g>
<g style="fill:#840000; fill-opacity:0.0; 
stroke:#840000; stroke-width:0; stroke-opacity:1; 
stroke-linecap:round; stroke-linejoin:round;">
</g>
<g style="fill:#840000; fill-opacity:1.0; 
stroke:#840000; stroke-width:0; stroke-opacity:1; 
stroke-linecap:round; stroke-linejoin:round;">
<polyline style="fill-rule:evenodd;"
points="9026,2248
9263,2248
9263,2523
9026,2523
9026,2248
" /> 
<polyline style="fill-rule:evenodd;"
points="9026,2681
9263,2681
9263,2956
9026,2956
9026,2681
" /> 
<polyline style="fill-rule:evenodd;"
points="16576,8424
16812,8424
16812,8699
16576,8699
16576,8424
" /> 
<polyline style="fill-rule:evenodd;"
points="16576,8857
16812,8857
16812,9133
16576,9133
16576,8857
" /> 
<polyline style="fill-rule:evenodd;"
points="14745,12731
14981,12731
14981,13007
14745,13007
14745,12731
" /> 
<polyline style="fill-rule:evenodd;"
points="14745,13164
14981,13164
14981,13440
14745,13440
14745,13164
" /> 
<polyline style="fill-rule:evenodd;"
points="6584,5105
6584,4869
6860,4869
6860,5105
6584,5105
" /> 
<polyline style="fill-rule:evenodd;"
points="7017,5105
7017,4869
7293,4869
7293,5105
7017,5105
" /> 
<polyline style="fill-rule:evenodd;"
points="9942,6912
9942,6676
10217,6676
10217,6912
9942,6912
" /> 
<polyline style="fill-rule:evenodd;"
points="10375,6912
10375,6676
10650,6676
10650,6912
10375,6912
" /> 
<polyline style="fill-rule:evenodd;"
points="17363,10121
17127,10121
17127,9845
17363,9845
17363,10121
" /> 
<polyline style="fill-rule:evenodd;"
points="17363,9688
17127,9688
17127,9412
17363,9412
17363,9688
" /> 
<polyline style="fill-rule:evenodd;"
points="11477,4668
11477,4432
11753,4432
11753,4668
11477,4668
" /> 
<polyline style="fill-rule:evenodd;"
points="11910,4668
11910,4432
12186,4432
12186,4668
11910,4668
" /> 
<polyline style="fill-rule:evenodd;"
points="9650,4648
9650,4412
9926,4412
9926,4648
9650,4648
" /> 
<polyline style="fill-rule:evenodd;"
points="10083,4648
10083,4412
10359,4412
10359,4648
10083,4648
" /> 
<polyline style="fill-rule:evenodd;"
points="14390,3782
14390,4018
14115,4018
14115,3782
14390,3782
" /> 
<polyline style="fill-rule:evenodd;"
points="13957,3782
13957,4018
13682,4018
13682,3782
13957,3782
" /> 
<polyline style="fill-rule:evenodd;"
points="13918,4392
14154,4392
14154,4668
13918,4668
13918,4392
" /> 
<polyline style="fill-rule:evenodd;"
points="13918,4825
14154,4825
14154,5101
13918,5101
13918,4825
" /> 
<polyline style="fill-rule:evenodd;"
points="12678,4028
12678,3792
12953,3792
12953,4028
12678,4028
" /> 
<polyline style="fill-rule:evenodd;"
points="13111,4028
13111,3792
13387,3792
13387,4028
13111,4028
" /> 
<polyline style="fill-rule:evenodd;"
points="10257,8723
10020,8723
10020,8447
10257,8447
10257,8723
" /> 
<polyline style="fill-rule:evenodd;"
points="10257,8290
10020,8290
10020,8014
10257,8014
10257,8290
" /> 
<polyline style="fill-rule:evenodd;"
points="10759,8723
10522,8723
10522,8447
10759,8447
10759,8723
" /> 
<polyline style="fill-rule:evenodd;"
points="10759,8290
10522,8290
10522,8014
10759,8014
10759,8290
" /> 
<polyline style="fill-rule:evenodd;"
points="10050,9225
10050,8989
10326,8989
10326,9225
10050,9225
" /> 
<polyline style="fill-rule:evenodd;"
points="10483,9225
10483,8989
10759,8989
10759,9225
10483,9225
" /> 
<polyline style="fill-rule:evenodd;"
points="16320,7050
16320,7286
16044,7286
16044,7050
16320,7050
" /> 
<polyline style="fill-rule:evenodd;"
points="15887,7050
15887,7286
15611,7286
15611,7050
15887,7050
" /> 
<polyline style="fill-rule:evenodd;"
points="15355,12735
15591,12735
15591,13010
15355,13010
15355,12735
" /> 
<polyline style="fill-rule:evenodd;"
points="15355,13168
15591,13168
15591,13444
15355,13444
15355,13168
" /> 
<polyline style="fill-rule:evenodd;"
points="12245,12758
12245,12995
11969,12995
11969,12758
12245,12758
" /> 
<polyline style="fill-rule:evenodd;"
points="11812,12758
11812,12995
11536,12995
11536,12758
11812,12758
" /> 
<polyline style="fill-rule:evenodd;"
points="16103,12739
16339,12739
16339,13014
16103,13014
16103,12739
" /> 
<polyline style="fill-rule:evenodd;"
points="16103,13172
16339,13172
16339,13447
16103,13447
16103,13172
" /> 
<polyline style="fill-rule:evenodd;"
points="16158,6723
15922,6723
15922,6447
16158,6447
16158,6723
" /> 
<polyline style="fill-rule:evenodd;"
points="16158,6290
15922,6290
15922,6014
16158,6014
16158,6290
" /> 
<polyline style="fill-rule:evenodd;"
points="17186,7483
17422,7483
17422,7758
17186,7758
17186,7483
" /> 
<polyline style="fill-rule:evenodd;"
points="17186,7916
17422,7916
17422,8192
17186,8192
17186,7916
" /> 
<polyline style="fill-rule:evenodd;"
points="10631,11597
10394,11597
10394,11321
10631,11321
10631,11597
" /> 
<polyline style="fill-rule:evenodd;"
points="10631,11164
10394,11164
10394,10888
10631,10888
10631,11164
" /> 
<polyline style="fill-rule:evenodd;"
points="16642,6396
16642,6160
16918,6160
16918,6396
16642,6396
" /> 
<polyline style="fill-rule:evenodd;"
points="17076,6396
17076,6160
17351,6160
17351,6396
17076,6396
" /> 
<polyline style="fill-rule:evenodd;"
points="9961,13546
9725,13546
9725,13270
9961,13270
9961,13546
" /> 
<polyline style="fill-rule:evenodd;"
points="9961,13113
9725,13113
9725,12837
9961,12837
9961,13113
" /> 
<polyline style="fill-rule:evenodd;"
points="16813,10081
16576,10081
16576,9806
16813,9806
16813,10081
" /> 
<polyline style="fill-rule:evenodd;"
points="16813,9648
16576,9648
16576,9373
16813,9373
16813,9648
" /> 
<polyline style="fill-rule:evenodd;"
points="12501,5593
12737,5593
12737,5869
12501,5869
12501,5593
" /> 
<polyline style="fill-rule:evenodd;"
points="12501,6026
12737,6026
12737,6302
12501,6302
12501,6026
" /> 
<polyline style="fill-rule:evenodd;"
points="11831,7286
11831,7050
12107,7050
12107,7286
11831,7286
" /> 
<polyline style="fill-rule:evenodd;"
points="12264,7286
12264,7050
12540,7050
12540,7286
12264,7286
" /> 
<polyline style="fill-rule:evenodd;"
points="16804,8184
16568,8184
16568,7908
16804,7908
16804,8184
" /> 
<polyline style="fill-rule:evenodd;"
points="16804,7751
16568,7751
16568,7475
16804,7475
16804,7751
" /> 
<polyline style="fill-rule:evenodd;"
points="15375,7050
15375,7286
15099,7286
15099,7050
15375,7050
" /> 
<polyline style="fill-rule:evenodd;"
points="14942,7050
14942,7286
14666,7286
14666,7050
14942,7050
" /> 
<polyline style="fill-rule:evenodd;"
points="18572,4743
18808,4743
18808,5018
18572,5018
18572,4743
" /> 
<polyline style="fill-rule:evenodd;"
points="18572,5176
18808,5176
18808,5451
18572,5451
18572,5176
" /> 
<polyline style="fill-rule:evenodd;"
points="18367,9275
18721,9275
18721,9629
18367,9629
18367,9275
" /> 
<polyline style="fill-rule:evenodd;"
points="18367,9865
18721,9865
18721,10219
18367,10219
18367,9865
" /> 
<circle cx="18150.8" cy="2975.53" r="610.236" /> 
</g>
<g style="fill:#840000; fill-opacity:1.0; 
stroke:#840000; stroke-width:39.3701; stroke-opacity:1; 
stroke-linecap:round; stroke-linejoin:round;">
</g>
<g style="fill:#840000; fill-opacity:1.0; 
stroke:#840000; stroke-width:0; stroke-opacity:1; 
stroke-linecap:round; stroke-linejoin:round;">
<circle cx="18150.8" cy="14983.4" r="610.236" /> 
</g>
<g style="fill:#840000; fill-opacity:1.0; 
stroke:#840000; stroke-width:39.3701; stroke-opacity:1; 
stroke-linecap:round; stroke-linejoin:round;">
</g>
<g style="fill:#840000; fill-opacity:1.0; 
stroke:#840000; stroke-width:0; stroke-opacity:1; 
stroke-linecap:round; stroke-linejoin:round;">
<circle cx="6142.95" cy="2975.53" r="610.236" /> 
</g>
<g style="fill:#840000; fill-opacity:1.0; 
stroke:#840000; stroke-width:39.3701; stroke-opacity:1; 
stroke-linecap:round; stroke-linejoin:round;">
</g>
<g style="fill:#840000; fill-opacity:1.0; 
stroke:#840000; stroke-width:0; stroke-opacity:1; 
stroke-linecap:round; stroke-linejoin:round;">
<circle cx="6142.95" cy="14983.4" r="610.236" /> 
</g>
<g style="fill:#840000; fill-opacity:1.0; 
stroke:#840000; stroke-width:39.3701; stroke-opacity:1; 
stroke-linecap:round; stroke-linejoin:round;">
</g>
<g style="fill:#840000; fill-opacity:1.0; 
stroke:#840000; stroke-width:0; stroke-opacity:1; 
stroke-linecap:round; stroke-linejoin:round;">
<polyline style="fill-rule:evenodd;"
points="12196,6223
11664,6223
11664,5790
12196,5790
12196,6223
" /> 
<polyline style="fill-rule:evenodd;"
points="12196,5436
11664,5436
11664,5003
12196,5003
12196,5436
" /> 
<polyline style="fill-rule:evenodd;"
points="9007,3201
9282,3201
9282,3398
9007,3398
9007,3201
" /> 
<polyline style="fill-rule:evenodd;"
points="9007,3556
9282,3556
9282,3753
9007,3753
9007,3556
" /> 
<polyline style="fill-rule:evenodd;"
points="11170,4409
11170,4685
10973,4685
10973,4409
11170,4409
" /> 
<polyline style="fill-rule:evenodd;"
points="10816,4409
10816,4685
10619,4685
10619,4409
10816,4409
" /> 
<polyline style="fill-rule:evenodd;"
points="12107,13270
12107,13546
11910,13546
11910,13270
12107,13270
" /> 
<polyline style="fill-rule:evenodd;"
points="11753,13270
11753,13546
11556,13546
11556,13270
11753,13270
" /> 
<polyline style="fill-rule:evenodd;"
points="15265,5012
15265,5288
15068,5288
15068,5012
15265,5012
" /> 
<polyline style="fill-rule:evenodd;"
points="14911,5012
14911,5288
14714,5288
14714,5012
14911,5012
" /> 
<polyline style="fill-rule:evenodd;"
points="15276,4432
15276,4707
15079,4707
15079,4432
15276,4432
" /> 
<polyline style="fill-rule:evenodd;"
points="14922,4432
14922,4707
14725,4707
14725,4432
14922,4432
" /> 
<polyline style="fill-rule:evenodd;"
points="6743,4613
6743,4337
6940,4337
6940,4613
6743,4613
" /> 
<polyline style="fill-rule:evenodd;"
points="7097,4613
7097,4337
7294,4337
7294,4613
7097,4613
" /> 
<polyline style="fill-rule:evenodd;"
points="15257,3782
15257,4058
15060,4058
15060,3782
15257,3782
" /> 
<polyline style="fill-rule:evenodd;"
points="14902,3782
14902,4058
14705,4058
14705,3782
14902,3782
" /> 
<polyline style="fill-rule:evenodd;"
points="17973,10081
17698,10081
17698,9884
17973,9884
17973,10081
" /> 
<polyline style="fill-rule:evenodd;"
points="17973,9727
17698,9727
17698,9530
17973,9530
17973,9727
" /> 
<polyline style="fill-rule:evenodd;"
points="10414,11951
10690,11951
10690,12148
10414,12148
10414,11951
" /> 
<polyline style="fill-rule:evenodd;"
points="10414,12306
10690,12306
10690,12503
10414,12503
10414,12306
" /> 
<polyline style="fill-rule:evenodd;"
points="17087,12207
17087,12483
16890,12483
16890,12207
17087,12207
" /> 
<polyline style="fill-rule:evenodd;"
points="16733,12207
16733,12483
16536,12483
16536,12207
16733,12207
" /> 
<polyline style="fill-rule:evenodd;"
points="17087,11636
17087,11912
16890,11912
16890,11636
17087,11636
" /> 
<polyline style="fill-rule:evenodd;"
points="16733,11636
16733,11912
16536,11912
16536,11636
16733,11636
" /> 
<polyline style="fill-rule:evenodd;"
points="9961,7207
10237,7207
10237,7404
9961,7404
9961,7207
" /> 
<polyline style="fill-rule:evenodd;"
points="9961,7562
10237,7562
10237,7758
9961,7758
9961,7562
" /> 
<polyline style="fill-rule:evenodd;"
points="10503,7207
10778,7207
10778,7404
10503,7404
10503,7207
" /> 
<polyline style="fill-rule:evenodd;"
points="10503,7562
10778,7562
10778,7758
10503,7758
10503,7562
" /> 
<polyline style="fill-rule:evenodd;"
points="16182,5731
16182,5455
16379,5455
16379,5731
16182,5731
" /> 
<polyline style="fill-rule:evenodd;"
points="16536,5731
16536,5455
16733,5455
16733,5731
16536,5731
" /> 
<polyline style="fill-rule:evenodd;"
points="12757,2552
12757,2335
13367,2335
13367,2552
12757,2552
" /> 
<polyline style="fill-rule:evenodd;"
points="12757,2808
12757,2591
13367,2591
13367,2808
12757,2808
" /> 
<polyline style="fill-rule:evenodd;"
points="12757,3064
12757,2847
13367,2847
13367,3064
12757,3064
" /> 
<polyline style="fill-rule:evenodd;"
points="12757,3320
12757,3103
13367,3103
13367,3320
12757,3320
" /> 
<polyline style="fill-rule:evenodd;"
points="14489,3320
14489,3103
15099,3103
15099,3320
14489,3320
" /> 
<polyline style="fill-rule:evenodd;"
points="14489,3064
14489,2847
15099,2847
15099,3064
14489,3064
" /> 
<polyline style="fill-rule:evenodd;"
points="14489,2808
14489,2591
15099,2591
15099,2808
14489,2808
" /> 
<polyline style="fill-rule:evenodd;"
points="14489,2552
14489,2335
15099,2335
15099,2552
14489,2552
" /> 
<polyline style="fill-rule:evenodd;"
points="11255,13407
11255,13567
11016,13567
11016,13407
11255,13407
" /> 
<polyline style="fill-rule:evenodd;"
points="11255,12907
11255,13067
11016,13067
11016,12907
11255,12907
" /> 
<polyline style="fill-rule:evenodd;"
points="10455,13407
10455,13567
10216,13567
10216,13407
10455,13407
" /> 
<polyline style="fill-rule:evenodd;"
points="11255,13157
11255,13317
11016,13317
11016,13157
11255,13157
" /> 
<polyline style="fill-rule:evenodd;"
points="10455,12907
10455,13067
10216,13067
10216,12907
10455,12907
" /> 
<polyline style="fill-rule:evenodd;"
points="11193,7459
11033,7459
11033,7220
11193,7220
11193,7459
" /> 
<polyline style="fill-rule:evenodd;"
points="11693,7459
11533,7459
11533,7220
11693,7220
11693,7459
" /> 
<polyline style="fill-rule:evenodd;"
points="11193,6659
11033,6659
11033,6420
11193,6420
11193,6659
" /> 
<polyline style="fill-rule:evenodd;"
points="11443,7459
11283,7459
11283,7220
11443,7220
11443,7459
" /> 
<polyline style="fill-rule:evenodd;"
points="11693,6659
11533,6659
11533,6420
11693,6420
11693,6659
" /> 
<polyline style="fill-rule:evenodd;"
points="9390,13566
9076,13566
9076,13290
9390,13290
9390,13566
" /> 
<polyline style="fill-rule:evenodd;"
points="9390,13014
9076,13014
9076,12739
9390,12739
9390,13014
" /> 
<polyline style="fill-rule:evenodd;"
points="16694,12739
17009,12739
17009,13014
16694,13014
16694,12739
" /> 
<polyline style="fill-rule:evenodd;"
points="16694,13290
17009,13290
17009,13566
16694,13566
16694,13290
" /> 
<polyline style="fill-rule:evenodd;"
points="9745,11666
10178,11666
10178,11941
9745,11941
9745,11666
" /> 
<polyline style="fill-rule:evenodd;"
points="9745,12178
10178,12178
10178,12453
9745,12453
9745,12178
" /> 
<polyline style="fill-rule:evenodd;"
points="8997,11922
9430,11922
9430,12197
8997,12197
8997,11922
" /> 
<polyline style="fill-rule:evenodd;"
points="12392,3772
12392,4048
11743,4048
11743,3772
12392,3772
" /> 
<polyline style="fill-rule:evenodd;"
points="12392,3272
12392,3548
11743,3548
11743,3272
12392,3272
" /> 
<polyline style="fill-rule:evenodd;"
points="12392,2772
12392,3048
11743,3048
11743,2772
12392,2772
" /> 
<polyline style="fill-rule:evenodd;"
points="12392,2272
12392,2548
11743,2548
11743,2272
12392,2272
" /> 
<polyline style="fill-rule:evenodd;"
points="10266,2272
10266,2548
9617,2548
9617,2272
10266,2272
" /> 
<polyline style="fill-rule:evenodd;"
points="10266,2772
10266,3048
9617,3048
9617,2772
10266,2772
" /> 
<polyline style="fill-rule:evenodd;"
points="10266,3272
10266,3548
9617,3548
9617,3272
10266,3272
" /> 
<polyline style="fill-rule:evenodd;"
points="10266,3772
10266,4048
9617,4048
9617,3772
10266,3772
" /> 
<polyline style="fill-rule:evenodd;"
points="10827,10731
10079,10731
10079,10377
10827,10377
10827,10731
" /> 
<polyline style="fill-rule:evenodd;"
points="10827,10258
10079,10258
10079,9904
10827,9904
10827,10258
" /> 
<polyline style="fill-rule:evenodd;"
points="10827,9786
10079,9786
10079,9432
10827,9432
10827,9786
" /> 
<polyline style="fill-rule:evenodd;"
points="8559,15801
7830,15801
7830,15053
8559,15053
8559,15801
" /> 
<polyline style="fill-rule:evenodd;"
points="9559,15801
8830,15801
8830,15053
9559,15053
9559,15801
" /> 
<polyline style="fill-rule:evenodd;"
points="10559,15801
9830,15801
9830,15053
10559,15053
10559,15801
" /> 
<polyline style="fill-rule:evenodd;"
points="11559,15801
10830,15801
10830,15053
11559,15053
11559,15801
" /> 
<polyline style="fill-rule:evenodd;"
points="12559,15801
11830,15801
11830,15053
12559,15053
12559,15801
" /> 
<polyline style="fill-rule:evenodd;"
points="13559,15801
12830,15801
12830,15053
13559,15053
13559,15801
" /> 
<polyline style="fill-rule:evenodd;"
points="14559,15801
13830,15801
13830,15053
14559,15053
14559,15801
" /> 
<polyline style="fill-rule:evenodd;"
points="15559,15801
14830,15801
14830,15053
15559,15053
15559,15801
" /> 
<polyline style="fill-rule:evenodd;"
points="16559,15801
15830,15801
15830,15053
16559,15053
16559,15801
" /> 
</g>
<g style="fill:#840000; fill-opacity:1.0; 
stroke:#840000; stroke-width:728.346; stroke-opacity:1; 
stroke-linecap:round; stroke-linejoin:round;">
</g>
<g style="fill:#840000; fill-opacity:0.0; 
stroke:#840000; stroke-width:728.346; stroke-opacity:1; 
stroke-linecap:round; stroke-linejoin:round;">
<path d="M8194 14437
L8194 14417
" />
<path d="M9194 14437
L9194 14417
" />
<path d="M10194 14437
L10194 14417
" />
<path d="M11194 14437
L11194 14417
" />
<path d="M12194 14437
L12194 14417
" />
<path d="M13194 14437
L13194 14417
" />
<path d="M14194 14437
L14194 14417
" />
<path d="M15194 14437
L15194 14417
" />
<path d="M16194 14437
L16194 14417
" />
</g>
<g style="fill:#840000; fill-opacity:0.0; 
stroke:#840000; stroke-width:0; stroke-opacity:1; 
stroke-linecap:round; stroke-linejoin:round;">
</g>
<g style="fill:#840000; fill-opacity:1.0; 
stroke:#840000; stroke-width:0; stroke-opacity:1; 
stroke-linecap:round; stroke-linejoin:round;">
<polyline style="fill-rule:evenodd;"
points="7770,2941
7770,2213
8518,2213
8518,2941
7770,2941
" /> 
</g>
<g style="fill:#840000; fill-opacity:1.0; 
stroke:#840000; stroke-width:728.346; stroke-opacity:1; 
stroke-linecap:round; stroke-linejoin:round;">
</g>
<g style="fill:#840000; fill-opacity:0.0; 
stroke:#840000; stroke-width:728.346; stroke-opacity:1; 
stroke-linecap:round; stroke-linejoin:round;">
<path d="M8135 3527
L8154 3527
" />
<path d="M8204 13427
L8185 13427
" />
<path d="M8204 12427
L8185 12427
" />
<path d="M6754 6952
L6735 6952
" />
<path d="M6754 5952
L6735 5952
" />
</g>
<g style="fill:#840000; fill-opacity:0.0; 
stroke:#840000; stroke-width:0; stroke-opacity:1; 
stroke-linecap:round; stroke-linejoin:round;">
</g>
<g style="fill:#840000; fill-opacity:1.0; 
stroke:#840000; stroke-width:0; stroke-opacity:1; 
stroke-linecap:round; stroke-linejoin:round;">
<polyline style="fill-rule:evenodd;"
points="18843,8063
18843,8791
18095,8791
18095,8063
18843,8063
" /> 
</g>
<g style="fill:#840000; fill-opacity:1.0; 
stroke:#840000; stroke-width:728.346; stroke-opacity:1; 
stroke-linecap:round; stroke-linejoin:round;">
</g>
<g style="fill:#840000; fill-opacity:0.0; 
stroke:#840000; stroke-width:728.346; stroke-opacity:1; 
stroke-linecap:round; stroke-linejoin:round;">
<path d="M18479 7427
L18460 7427
" />
<path d="M18479 6427
L18460 6427
" />
</g>
<g style="fill:#840000; fill-opacity:0.0; 
stroke:#840000; stroke-width:0; stroke-opacity:1; 
stroke-linecap:round; stroke-linejoin:round;">
</g>
<g style="fill:#840000; fill-opacity:1.0; 
stroke:#840000; stroke-width:0; stroke-opacity:1; 
stroke-linecap:round; stroke-linejoin:round;">
<polyline style="fill-rule:evenodd;"
points="6118,6588
6118,7316
5370,7316
5370,6588
6118,6588
" /> 
</g>
<g style="fill:#840000; fill-opacity:1.0; 
stroke:#840000; stroke-width:728.346; stroke-opacity:1; 
stroke-linecap:round; stroke-linejoin:round;">
</g>
<g style="fill:#840000; fill-opacity:0.0; 
stroke:#840000; stroke-width:728.346; stroke-opacity:1; 
stroke-linecap:round; stroke-linejoin:round;">
<path d="M5754 5952
L5735 5952
" />
<path d="M5754 4952
L5735 4952
" />
</g>
<g style="fill:#840000; fill-opacity:0.0; 
stroke:#840000; stroke-width:0; stroke-opacity:1; 
stroke-linecap:round; stroke-linejoin:round;">
</g>
<g style="fill:#840000; fill-opacity:1.0; 
stroke:#840000; stroke-width:0; stroke-opacity:1; 
stroke-linecap:round; stroke-linejoin:round;">
<polyline style="fill-rule:evenodd;"
points="15770,2941
15770,2213
16518,2213
16518,2941
15770,2941
" /> 
</g>
<g style="fill:#840000; fill-opacity:1.0; 
stroke:#840000; stroke-width:728.346; stroke-opacity:1; 
stroke-linecap:round; stroke-linejoin:round;">
</g>
<g style="fill:#840000; fill-opacity:0.0; 
stroke:#840000; stroke-width:728.346; stroke-opacity:1; 
stroke-linecap:round; stroke-linejoin:round;">
<path d="M16135 3577
L16154 3577
" />
<path d="M16135 4577
L16154 4577
" />
</g>
<g style="fill:#840000; fill-opacity:0.0; 
stroke:#840000; stroke-width:0; stroke-opacity:1; 
stroke-linecap:round; stroke-linejoin:round;">
</g>
<g style="fill:#840000; fill-opacity:1.0; 
stroke:#840000; stroke-width:0; stroke-opacity:1; 
stroke-linecap:round; stroke-linejoin:round;">
<polyline style="fill-rule:evenodd;"
points="6118,12588
6118,13316
5370,13316
5370,12588
6118,12588
" /> 
</g>
<g style="fill:#840000; fill-opacity:1.0; 
stroke:#840000; stroke-width:728.346; stroke-opacity:1; 
stroke-linecap:round; stroke-linejoin:round;">
</g>
<g style="fill:#840000; fill-opacity:0.0; 
stroke:#840000; stroke-width:728.346; stroke-opacity:1; 
stroke-linecap:round; stroke-linejoin:round;">
<path d="M5754 11952
L5735 11952
" />
<path d="M5754 10952
L5735 10952
" />
<path d="M5754 9952
L5735 9952
" />
<path d="M5754 8952
L5735 8952
" />
<path d="M5754 7952
L5735 7952
" />
</g>
<g style="fill:#840000; fill-opacity:0.0; 
stroke:#840000; stroke-width:0; stroke-opacity:1; 
stroke-linecap:round; stroke-linejoin:round;">
</g>
<g style="fill:#840000; fill-opacity:1.0; 
stroke:#840000; stroke-width:0; stroke-opacity:1; 
stroke-linecap:round; stroke-linejoin:round;">
<polyline style="fill-rule:evenodd;"
points="7118,12588
7118,13316
6370,13316
6370,12588
7118,12588
" /> 
</g>
<g style="fill:#840000; fill-opacity:1.0; 
stroke:#840000; stroke-width:728.346; stroke-opacity:1; 
stroke-linecap:round; stroke-linejoin:round;">
</g>
<g style="fill:#840000; fill-opacity:0.0; 
stroke:#840000; stroke-width:728.346; stroke-opacity:1; 
stroke-linecap:round; stroke-linejoin:round;">
<path d="M6754 11952
L6735 11952
" />
<path d="M6754 10952
L6735 10952
" />
<path d="M6754 9952
L6735 9952
" />
<path d="M6754 8952
L6735 8952
" />
<path d="M6754 7952
L6735 7952
" />
</g>
<g style="fill:#840000; fill-opacity:0.0; 
stroke:#840000; stroke-width:0; stroke-opacity:1; 
stroke-linecap:round; stroke-linejoin:round;">
</g>
<g style="fill:#840000; fill-opacity:1.0; 
stroke:#840000; stroke-width:0; stroke-opacity:1; 
stroke-linecap:round; stroke-linejoin:round;">
<polyline style="fill-rule:evenodd;"
points="13772,6430
13772,6292
14127,6292
14127,6430
13772,6430
" /> 
<polyline style="fill-rule:evenodd;"
points="13772,6233
13772,6095
14127,6095
14127,6233
13772,6233
" /> 
<polyline style="fill-rule:evenodd;"
points="13772,6036
13772,5898
14127,5898
14127,6036
13772,6036
" /> 
<polyline style="fill-rule:evenodd;"
points="13180,6499
13318,6499
13318,6853
13180,6853
13180,6499
" /> 
<polyline style="fill-rule:evenodd;"
points="13377,6499
13514,6499
13514,6853
13377,6853
13377,6499
" /> 
<polyline style="fill-rule:evenodd;"
points="13574,6499
13711,6499
13711,6853
13574,6853
13574,6499
" /> 
<polyline style="fill-rule:evenodd;"
points="13770,6499
13908,6499
13908,6853
13770,6853
13770,6499
" /> 
<polyline style="fill-rule:evenodd;"
points="12961,6430
12961,6292
13316,6292
13316,6430
12961,6430
" /> 
<polyline style="fill-rule:evenodd;"
points="12961,6233
12961,6095
13316,6095
13316,6233
12961,6233
" /> 
<polyline style="fill-rule:evenodd;"
points="12961,6036
12961,5898
13316,5898
13316,6036
12961,6036
" /> 
<polyline style="fill-rule:evenodd;"
points="13180,5475
13318,5475
13318,5829
13180,5829
13180,5475
" /> 
<polyline style="fill-rule:evenodd;"
points="13377,5475
13514,5475
13514,5829
13377,5829
13377,5475
" /> 
<polyline style="fill-rule:evenodd;"
points="13574,5475
13711,5475
13711,5829
13574,5829
13574,5475
" /> 
<polyline style="fill-rule:evenodd;"
points="13770,5475
13908,5475
13908,5829
13770,5829
13770,5475
" /> 
<polyline style="fill-rule:evenodd;"
points="17540,5495
17245,5495
17245,5318
17540,5318
17540,5495
" /> 
<polyline style="fill-rule:evenodd;"
points="18190,5495
17894,5495
17894,5318
18190,5318
18190,5495
" /> 
<polyline style="fill-rule:evenodd;"
points="17540,5239
17245,5239
17245,5062
17540,5062
17540,5239
" /> 
<polyline style="fill-rule:evenodd;"
points="18190,5239
17894,5239
17894,5062
18190,5062
18190,5239
" /> 
<polyline style="fill-rule:evenodd;"
points="17540,4983
17245,4983
17245,4806
17540,4806
17540,4983
" /> 
<polyline style="fill-rule:evenodd;"
points="18190,4983
17894,4983
17894,4806
18190,4806
18190,4983
" /> 
<polyline style="fill-rule:evenodd;"
points="17540,4727
17245,4727
17245,4550
17540,4550
17540,4727
" /> 
<polyline style="fill-rule:evenodd;"
points="18190,4727
17894,4727
17894,4550
18190,4550
18190,4727
" /> 
<polyline style="fill-rule:evenodd;"
points="13526,4697
13526,4835
13211,4835
13211,4697
13526,4697
" /> 
<polyline style="fill-rule:evenodd;"
points="12738,4697
12738,4835
12423,4835
12423,4697
12738,4697
" /> 
<polyline style="fill-rule:evenodd;"
points="12748,4648
12610,4648
12610,4333
12748,4333
12748,4648
" /> 
<polyline style="fill-rule:evenodd;"
points="12945,4648
12807,4648
12807,4333
12945,4333
12945,4648
" /> 
<polyline style="fill-rule:evenodd;"
points="13142,4648
13004,4648
13004,4333
13142,4333
13142,4648
" /> 
<polyline style="fill-rule:evenodd;"
points="13339,4648
13201,4648
13201,4333
13339,4333
13339,4648
" /> 
<polyline style="fill-rule:evenodd;"
points="13339,5199
13201,5199
13201,4884
13339,4884
13339,5199
" /> 
<polyline style="fill-rule:evenodd;"
points="13142,5199
13004,5199
13004,4884
13142,4884
13142,5199
" /> 
<polyline style="fill-rule:evenodd;"
points="12945,5199
12807,5199
12807,4884
12945,4884
12945,5199
" /> 
<polyline style="fill-rule:evenodd;"
points="12748,5199
12610,5199
12610,4884
12748,4884
12748,5199
" /> 
<polyline style="fill-rule:evenodd;"
points="16871,7221
16595,7221
16595,7075
16871,7075
16871,7221
" /> 
<polyline style="fill-rule:evenodd;"
points="17481,7221
17205,7221
17205,7075
17481,7075
17481,7221
" /> 
<polyline style="fill-rule:evenodd;"
points="16871,7024
16595,7024
16595,6879
16871,6879
16871,7024
" /> 
<polyline style="fill-rule:evenodd;"
points="17481,7024
17205,7024
17205,6879
17481,6879
17481,7024
" /> 
<polyline style="fill-rule:evenodd;"
points="16871,6827
16595,6827
16595,6682
16871,6682
16871,6827
" /> 
<polyline style="fill-rule:evenodd;"
points="17481,6827
17205,6827
17205,6682
17481,6682
17481,6827
" /> 
<polyline style="fill-rule:evenodd;"
points="17156,7217
16920,7217
16920,6686
17156,6686
17156,7217
" /> 
<polyline style="fill-rule:evenodd;"
points="17081,11016
17081,11292
16936,11292
16936,11016
17081,11016
" /> 
<polyline style="fill-rule:evenodd;"
points="17081,10406
17081,10682
16936,10682
16936,10406
17081,10406
" /> 
<polyline style="fill-rule:evenodd;"
points="16885,11016
16885,11292
16739,11292
16739,11016
16885,11016
" /> 
<polyline style="fill-rule:evenodd;"
points="16885,10406
16885,10682
16739,10682
16739,10406
16885,10406
" /> 
<polyline style="fill-rule:evenodd;"
points="16688,11016
16688,11292
16542,11292
16542,11016
16688,11016
" /> 
<polyline style="fill-rule:evenodd;"
points="16688,10406
16688,10682
16542,10682
16542,10406
16688,10406
" /> 
<polyline style="fill-rule:evenodd;"
points="17077,10731
17077,10967
16546,10967
16546,10731
17077,10731
" /> 
<circle cx="17127.2" cy="2581.83" r="472.441" /> 
</g>
<g style="fill:#840000; fill-opacity:1.0; 
stroke:#840000; stroke-width:39.3701; stroke-opacity:1; 
stroke-linecap:round; stroke-linejoin:round;">
</g>
<g style="fill:#840000; fill-opacity:1.0; 
stroke:#840000; stroke-width:0; stroke-opacity:1; 
stroke-linecap:round; stroke-linejoin:round;">
<polyline style="fill-rule:evenodd;"
points="11044,8635
11044,8497
11477,8497
11477,8635
11044,8635
" /> 
<polyline style="fill-rule:evenodd;"
points="11044,8831
11044,8694
11477,8694
11477,8831
11044,8831
" /> 
<polyline style="fill-rule:evenodd;"
points="11044,9028
11044,8890
11477,8890
11477,9028
11044,9028
" /> 
<polyline style="fill-rule:evenodd;"
points="11044,9225
11044,9087
11477,9087
11477,9225
11044,9225
" /> 
<polyline style="fill-rule:evenodd;"
points="11044,9422
11044,9284
11477,9284
11477,9422
11044,9422
" /> 
<polyline style="fill-rule:evenodd;"
points="11044,9619
11044,9481
11477,9481
11477,9619
11044,9619
" /> 
<polyline style="fill-rule:evenodd;"
points="11044,9816
11044,9678
11477,9678
11477,9816
11044,9816
" /> 
<polyline style="fill-rule:evenodd;"
points="11044,10012
11044,9875
11477,9875
11477,10012
11044,10012
" /> 
<polyline style="fill-rule:evenodd;"
points="11044,10209
11044,10072
11477,10072
11477,10209
11044,10209
" /> 
<polyline style="fill-rule:evenodd;"
points="11044,10406
11044,10268
11477,10268
11477,10406
11044,10406
" /> 
<polyline style="fill-rule:evenodd;"
points="11044,10603
11044,10465
11477,10465
11477,10603
11044,10603
" /> 
<polyline style="fill-rule:evenodd;"
points="11044,10800
11044,10662
11477,10662
11477,10800
11044,10800
" /> 
<polyline style="fill-rule:evenodd;"
points="11044,10997
11044,10859
11477,10859
11477,10997
11044,10997
" /> 
<polyline style="fill-rule:evenodd;"
points="11044,11194
11044,11056
11477,11056
11477,11194
11044,11194
" /> 
<polyline style="fill-rule:evenodd;"
points="11044,11390
11044,11253
11477,11253
11477,11390
11044,11390
" /> 
<polyline style="fill-rule:evenodd;"
points="11044,11587
11044,11449
11477,11449
11477,11587
11044,11587
" /> 
<polyline style="fill-rule:evenodd;"
points="12097,12503
11959,12503
11959,12070
12097,12070
12097,12503
" /> 
<polyline style="fill-rule:evenodd;"
points="12294,12503
12156,12503
12156,12070
12294,12070
12294,12503
" /> 
<polyline style="fill-rule:evenodd;"
points="12491,12503
12353,12503
12353,12070
12491,12070
12491,12503
" /> 
<polyline style="fill-rule:evenodd;"
points="12688,12503
12550,12503
12550,12070
12688,12070
12688,12503
" /> 
<polyline style="fill-rule:evenodd;"
points="12885,12503
12747,12503
12747,12070
12885,12070
12885,12503
" /> 
<polyline style="fill-rule:evenodd;"
points="13081,12503
12944,12503
12944,12070
13081,12070
13081,12503
" /> 
<polyline style="fill-rule:evenodd;"
points="13278,12503
13140,12503
13140,12070
13278,12070
13278,12503
" /> 
<polyline style="fill-rule:evenodd;"
points="13475,12503
13337,12503
13337,12070
13475,12070
13475,12503
" /> 
<polyline style="fill-rule:evenodd;"
points="13672,12503
13534,12503
13534,12070
13672,12070
13672,12503
" /> 
<polyline style="fill-rule:evenodd;"
points="13869,12503
13731,12503
13731,12070
13869,12070
13869,12503
" /> 
<polyline style="fill-rule:evenodd;"
points="14066,12503
13928,12503
13928,12070
14066,12070
14066,12503
" /> 
<polyline style="fill-rule:evenodd;"
points="14263,12503
14125,12503
14125,12070
14263,12070
14263,12503
" /> 
<polyline style="fill-rule:evenodd;"
points="14459,12503
14322,12503
14322,12070
14459,12070
14459,12503
" /> 
<polyline style="fill-rule:evenodd;"
points="14656,12503
14518,12503
14518,12070
14656,12070
14656,12503
" /> 
<polyline style="fill-rule:evenodd;"
points="14853,12503
14715,12503
14715,12070
14853,12070
14853,12503
" /> 
<polyline style="fill-rule:evenodd;"
points="15050,12503
14912,12503
14912,12070
15050,12070
15050,12503
" /> 
<polyline style="fill-rule:evenodd;"
points="15532,11587
15532,11449
15965,11449
15965,11587
15532,11587
" /> 
<polyline style="fill-rule:evenodd;"
points="15532,11390
15532,11253
15965,11253
15965,11390
15532,11390
" /> 
<polyline style="fill-rule:evenodd;"
points="15532,11194
15532,11056
15965,11056
15965,11194
15532,11194
" /> 
<polyline style="fill-rule:evenodd;"
points="15532,10997
15532,10859
15965,10859
15965,10997
15532,10997
" /> 
<polyline style="fill-rule:evenodd;"
points="15532,10800
15532,10662
15965,10662
15965,10800
15532,10800
" /> 
<polyline style="fill-rule:evenodd;"
points="15532,10603
15532,10465
15965,10465
15965,10603
15532,10603
" /> 
<polyline style="fill-rule:evenodd;"
points="15532,10406
15532,10268
15965,10268
15965,10406
15532,10406
" /> 
<polyline style="fill-rule:evenodd;"
points="15532,10209
15532,10072
15965,10072
15965,10209
15532,10209
" /> 
<polyline style="fill-rule:evenodd;"
points="15532,10012
15532,9875
15965,9875
15965,10012
15532,10012
" /> 
<polyline style="fill-rule:evenodd;"
points="15532,9816
15532,9678
15965,9678
15965,9816
15532,9816
" /> 
<polyline style="fill-rule:evenodd;"
points="15532,9619
15532,9481
15965,9481
15965,9619
15532,9619
" /> 
<polyline style="fill-rule:evenodd;"
points="15532,9422
15532,9284
15965,9284
15965,9422
15532,9422
" /> 
<polyline style="fill-rule:evenodd;"
points="15532,9225
15532,9087
15965,9087
15965,9225
15532,9225
" /> 
<polyline style="fill-rule:evenodd;"
points="15532,9028
15532,8890
15965,8890
15965,9028
15532,9028
" /> 
<polyline style="fill-rule:evenodd;"
points="15532,8831
15532,8694
15965,8694
15965,8831
15532,8831
" /> 
<polyline style="fill-rule:evenodd;"
points="15532,8635
15532,8497
15965,8497
15965,8635
15532,8635
" /> 
<polyline style="fill-rule:evenodd;"
points="15050,8014
14912,8014
14912,7581
15050,7581
15050,8014
" /> 
<polyline style="fill-rule:evenodd;"
points="14853,8014
14715,8014
14715,7581
14853,7581
14853,8014
" /> 
<polyline style="fill-rule:evenodd;"
points="14656,8014
14518,8014
14518,7581
14656,7581
14656,8014
" /> 
<polyline style="fill-rule:evenodd;"
points="14459,8014
14322,8014
14322,7581
14459,7581
14459,8014
" /> 
<polyline style="fill-rule:evenodd;"
points="14263,8014
14125,8014
14125,7581
14263,7581
14263,8014
" /> 
<polyline style="fill-rule:evenodd;"
points="14066,8014
13928,8014
13928,7581
14066,7581
14066,8014
" /> 
<polyline style="fill-rule:evenodd;"
points="13869,8014
13731,8014
13731,7581
13869,7581
13869,8014
" /> 
<polyline style="fill-rule:evenodd;"
points="13672,8014
13534,8014
13534,7581
13672,7581
13672,8014
" /> 
<polyline style="fill-rule:evenodd;"
points="13475,8014
13337,8014
13337,7581
13475,7581
13475,8014
" /> 
<polyline style="fill-rule:evenodd;"
points="13278,8014
13140,8014
13140,7581
13278,7581
13278,8014
" /> 
<polyline style="fill-rule:evenodd;"
points="13081,8014
12944,8014
12944,7581
13081,7581
13081,8014
" /> 
<polyline style="fill-rule:evenodd;"
points="12885,8014
12747,8014
12747,7581
12885,7581
12885,8014
" /> 
<polyline style="fill-rule:evenodd;"
points="12688,8014
12550,8014
12550,7581
12688,7581
12688,8014
" /> 
<polyline style="fill-rule:evenodd;"
points="12491,8014
12353,8014
12353,7581
12491,7581
12491,8014
" /> 
<polyline style="fill-rule:evenodd;"
points="12294,8014
12156,8014
12156,7581
12294,7581
12294,8014
" /> 
<polyline style="fill-rule:evenodd;"
points="12097,8014
11959,8014
11959,7581
12097,7581
12097,8014
" /> 
<polyline style="fill-rule:evenodd;"
points="19069,11848
18420,11848
18420,11218
19069,11218
19069,11848
" /> 
<polyline style="fill-rule:evenodd;"
points="19069,12636
18420,12636
18420,12006
19069,12006
19069,12636
" /> 
<polyline style="fill-rule:evenodd;"
points="19069,11017
18420,11017
18420,10554
19069,10554
19069,11017
" /> 
</g>
<g style="fill:#840000; fill-opacity:1.0; 
stroke:#840000; stroke-width:393.701; stroke-opacity:1; 
stroke-linecap:round; stroke-linejoin:round;">
</g>
<g style="fill:#840000; fill-opacity:0.0; 
stroke:#840000; stroke-width:393.701; stroke-opacity:1; 
stroke-linecap:round; stroke-linejoin:round;">
<path d="M18616 10549
L18872 10549
" />
<path d="M18616 13305
L18872 13305
" />
</g>
<g style="fill:#840000; fill-opacity:0.0; 
stroke:#840000; stroke-width:452.756; stroke-opacity:1; 
stroke-linecap:round; stroke-linejoin:round;">
<path d="M17681 11012
L17681 10874
" />
</g>
<g style="fill:#840000; fill-opacity:0.0; 
stroke:#840000; stroke-width:0; stroke-opacity:1; 
stroke-linecap:round; stroke-linejoin:round;">
</g>
<g style="fill:#840000; fill-opacity:1.0; 
stroke:#840000; stroke-width:0; stroke-opacity:1; 
stroke-linecap:round; stroke-linejoin:round;">
<polyline style="fill-rule:evenodd;"
points="17967,11514
17396,11514
17396,11317
17967,11317
17967,11514
" /> 
<polyline style="fill-rule:evenodd;"
points="17967,11770
17396,11770
17396,11573
17967,11573
17967,11770
" /> 
<polyline style="fill-rule:evenodd;"
points="17967,12025
17396,12025
17396,11829
17967,11829
17967,12025
" /> 
<polyline style="fill-rule:evenodd;"
points="17967,12281
17396,12281
17396,12084
17967,12084
17967,12281
" /> 
<polyline style="fill-rule:evenodd;"
points="17967,12537
17396,12537
17396,12340
17967,12340
17967,12537
" /> 
</g>
<g style="fill:#840000; fill-opacity:1.0; 
stroke:#840000; stroke-width:452.756; stroke-opacity:1; 
stroke-linecap:round; stroke-linejoin:round;">
</g>
<g style="fill:#840000; fill-opacity:0.0; 
stroke:#840000; stroke-width:452.756; stroke-opacity:1; 
stroke-linecap:round; stroke-linejoin:round;">
<path d="M17681 12980
L17681 12842
" />
</g>
<g style="fill:#840000; fill-opacity:0.0; 
stroke:#840000; stroke-width:0; stroke-opacity:1; 
stroke-linecap:round; stroke-linejoin:round;">
</g>
<g style="fill:#840000; fill-opacity:1.0; 
stroke:#840000; stroke-width:0; stroke-opacity:1; 
stroke-linecap:round; stroke-linejoin:round;">
<polyline style="fill-rule:evenodd;"
points="19069,13300
18420,13300
18420,12837
19069,12837
19069,13300
" /> 
<polyline style="fill-rule:evenodd;"
points="15269,6144
15269,5987
15496,5987
15496,6144
15269,6144
" /> 
<polyline style="fill-rule:evenodd;"
points="15254,6341
15254,6184
15500,6184
15500,6341
15254,6341
" /> 
<polyline style="fill-rule:evenodd;"
points="15254,6538
15254,6381
15500,6381
15500,6538
15254,6538
" /> 
<polyline style="fill-rule:evenodd;"
points="15269,6735
15269,6577
15496,6577
15496,6735
15269,6735
" /> 
<polyline style="fill-rule:evenodd;"
points="15237,6167
15079,6167
15079,5921
15237,5921
15237,6167
" /> 
<polyline style="fill-rule:evenodd;"
points="15040,6801
14883,6801
14883,6555
15040,6555
15040,6801
" /> 
<polyline style="fill-rule:evenodd;"
points="15237,6801
15079,6801
15079,6555
15237,6555
15237,6801
" /> 
<polyline style="fill-rule:evenodd;"
points="15040,6167
14883,6167
14883,5921
15040,5921
15040,6167
" /> 
<polyline style="fill-rule:evenodd;"
points="14624,6735
14624,6577
14850,6577
14850,6735
14624,6735
" /> 
<polyline style="fill-rule:evenodd;"
points="14620,6538
14620,6381
14866,6381
14866,6538
14620,6538
" /> 
<polyline style="fill-rule:evenodd;"
points="14620,6341
14620,6184
14866,6184
14866,6341
14620,6341
" /> 
<polyline style="fill-rule:evenodd;"
points="14624,6144
14624,5987
14850,5987
14850,6144
14624,6144
" /> 
<polyline style="fill-rule:evenodd;"
points="9095,10377
9095,10219
9371,10219
9371,10377
9095,10377
" /> 
<polyline style="fill-rule:evenodd;"
points="9095,10770
9095,10613
9371,10613
9371,10770
9095,10770
" /> 
<polyline style="fill-rule:evenodd;"
points="9095,10573
9095,10416
9371,10416
9371,10573
9095,10573
" /> 
<polyline style="fill-rule:evenodd;"
points="9095,10967
9095,10810
9371,10810
9371,10967
9095,10967
" /> 
<polyline style="fill-rule:evenodd;"
points="9528,10573
9528,10416
9804,10416
9804,10573
9528,10573
" /> 
<polyline style="fill-rule:evenodd;"
points="9528,10377
9528,10219
9804,10219
9804,10377
9528,10377
" /> 
<polyline style="fill-rule:evenodd;"
points="9528,10770
9528,10613
9804,10613
9804,10770
9528,10770
" /> 
<polyline style="fill-rule:evenodd;"
points="9528,10967
9528,10810
9804,10810
9804,10967
9528,10967
" /> 
</g>
<g style="fill:#000000; fill-opacity:1.0; 
stroke:#000000; stroke-width:0; stroke-opacity:1; 
stroke-linecap:round; stroke-linejoin:round;">
</g>
<g style="fill:#C2C200; fill-opacity:1.0; 
stroke:#C2C200; stroke-width:0; stroke-opacity:1; 
stroke-linecap:round; stroke-linejoin:round;">
</g>
<g style="fill:#C2C200; fill-opacity:1.0; 
stroke:#C2C200; stroke-width:39.3701; stroke-opacity:1; 
stroke-linecap:round; stroke-linejoin:round;">
</g>
<g style="fill:#C2C200; fill-opacity:0.0; 
stroke:#C2C200; stroke-width:39.3701; stroke-opacity:1; 
stroke-linecap:round; stroke-linejoin:round;">
<path d="M7510 6196
L7510 4543
" />
<path d="M7904 6511
L7510 6196
" />
<path d="M9479 6511
L7904 6511
" />
<path d="M9479 4543
L9479 6511
" />
<path d="M9479 4543
L7510 4543
" />
</g>
<g style="fill:#C2C200; fill-opacity:0.0; 
stroke:#C2C200; stroke-width:59.0551; stroke-opacity:1; 
stroke-linecap:round; stroke-linejoin:round;">
<path d="M10586 6164
L9799 6164
" />
<path d="M9799 6164
L9799 4983
" />
<path d="M9799 4983
L10980 4983
" />
<path d="M10980 4983
L10980 5770
" />
<path d="M10980 5770
L10586 6164
" />
<path d="M10872 4934
L9907 4934
" />
<path d="M11157 6213
L9907 6213
" />
<path d="M9046 2405
L9243 2405
" />
<path d="M9046 2799
L9046 2405
" />
<path d="M9243 2799
L9046 2799
" />
<path d="M9243 2405
L9243 2799
" />
<path d="M9331 2700
L9331 2504
" />
<path d="M8957 2504
L8957 2700
" />
<path d="M16595 8581
L16792 8581
" />
<path d="M16595 8975
L16595 8581
" />
<path d="M16792 8975
L16595 8975
" />
<path d="M16792 8581
L16792 8975
" />
<path d="M16881 8877
L16881 8680
" />
<path d="M16507 8680
L16507 8877
" />
<path d="M14764 12888
L14961 12888
" />
<path d="M14764 13282
L14764 12888
" />
<path d="M14961 13282
L14764 13282
" />
<path d="M14961 12888
L14961 13282
" />
<path d="M15050 13184
L15050 12987
" />
<path d="M14676 12987
L14676 13184
" />
<path d="M6742 5085
L6742 4889
" />
<path d="M7135 5085
L6742 5085
" />
<path d="M7135 4889
L7135 5085
" />
<path d="M6742 4889
L7135 4889
" />
<path d="M7037 4800
L6840 4800
" />
<path d="M6840 5174
L7037 5174
" />
<path d="M10099 6892
L10099 6696
" />
<path d="M10493 6892
L10099 6892
" />
<path d="M10493 6696
L10493 6892
" />
<path d="M10099 6696
L10493 6696
" />
<path d="M10394 6607
L10198 6607
" />
<path d="M10198 6981
L10394 6981
" />
<path d="M17343 9963
L17146 9963
" />
<path d="M17343 9570
L17343 9963
" />
<path d="M17146 9570
L17343 9570
" />
<path d="M17146 9963
L17146 9570
" />
<path d="M17058 9668
L17058 9865
" />
<path d="M17432 9865
L17432 9668
" />
<path d="M11635 4648
L11635 4451
" />
<path d="M12028 4648
L11635 4648
" />
<path d="M12028 4451
L12028 4648
" />
<path d="M11635 4451
L12028 4451
" />
<path d="M11930 4363
L11733 4363
" />
<path d="M11733 4737
L11930 4737
" />
<path d="M9808 4629
L9808 4432
" />
<path d="M10201 4629
L9808 4629
" />
<path d="M10201 4432
L10201 4629
" />
<path d="M9808 4432
L10201 4432
" />
<path d="M10103 4343
L9906 4343
" />
<path d="M9906 4717
L10103 4717
" />
<path d="M14233 3802
L14233 3999
" />
<path d="M13839 3802
L14233 3802
" />
<path d="M13839 3999
L13839 3802
" />
<path d="M14233 3999
L13839 3999
" />
<path d="M13938 4087
L14135 4087
" />
<path d="M14135 3713
L13938 3713
" />
<path d="M13938 4550
L14135 4550
" />
<path d="M13938 4944
L13938 4550
" />
<path d="M14135 4944
L13938 4944
" />
<path d="M14135 4550
L14135 4944
" />
<path d="M14223 4845
L14223 4648
" />
<path d="M13849 4648
L13849 4845
" />
<path d="M12835 4008
L12835 3812
" />
<path d="M13229 4008
L12835 4008
" />
<path d="M13229 3812
L13229 4008
" />
<path d="M12835 3812
L13229 3812
" />
<path d="M13131 3723
L12934 3723
" />
<path d="M12934 4097
L13131 4097
" />
<path d="M10237 8566
L10040 8566
" />
<path d="M10237 8172
L10237 8566
" />
<path d="M10040 8172
L10237 8172
" />
<path d="M10040 8566
L10040 8172
" />
<path d="M9952 8270
L9952 8467
" />
<path d="M10326 8467
L10326 8270
" />
<path d="M10739 8566
L10542 8566
" />
<path d="M10739 8172
L10739 8566
" />
<path d="M10542 8172
L10739 8172
" />
<path d="M10542 8566
L10542 8172
" />
<path d="M10453 8270
L10453 8467
" />
<path d="M10827 8467
L10827 8270
" />
<path d="M10207 9205
L10207 9008
" />
<path d="M10601 9205
L10207 9205
" />
<path d="M10601 9008
L10601 9205
" />
<path d="M10207 9008
L10601 9008
" />
<path d="M10503 8920
L10306 8920
" />
<path d="M10306 9294
L10503 9294
" />
<path d="M16162 7070
L16162 7266
" />
<path d="M15768 7070
L16162 7070
" />
<path d="M15768 7266
L15768 7070
" />
<path d="M16162 7266
L15768 7266
" />
<path d="M15867 7355
L16064 7355
" />
<path d="M16064 6981
L15867 6981
" />
<path d="M15375 12892
L15572 12892
" />
<path d="M15375 13286
L15375 12892
" />
<path d="M15572 13286
L15375 13286
" />
<path d="M15572 12892
L15572 13286
" />
<path d="M15660 13188
L15660 12991
" />
<path d="M15286 12991
L15286 13188
" />
<path d="M12087 12778
L12087 12975
" />
<path d="M11694 12778
L12087 12778
" />
<path d="M11694 12975
L11694 12778
" />
<path d="M12087 12975
L11694 12975
" />
<path d="M11792 13064
L11989 13064
" />
<path d="M11989 12690
L11792 12690
" />
<path d="M16123 12896
L16320 12896
" />
<path d="M16123 13290
L16123 12896
" />
<path d="M16320 13290
L16123 13290
" />
<path d="M16320 12896
L16320 13290
" />
<path d="M16408 13192
L16408 12995
" />
<path d="M16034 12995
L16034 13192
" />
<path d="M16139 6566
L15942 6566
" />
<path d="M16139 6172
L16139 6566
" />
<path d="M15942 6172
L16139 6172
" />
<path d="M15942 6566
L15942 6172
" />
<path d="M15853 6270
L15853 6467
" />
<path d="M16227 6467
L16227 6270
" />
<path d="M17205 7640
L17402 7640
" />
<path d="M17205 8034
L17205 7640
" />
<path d="M17402 8034
L17205 8034
" />
<path d="M17402 7640
L17402 8034
" />
<path d="M17491 7936
L17491 7739
" />
<path d="M17117 7739
L17117 7936
" />
<path d="M10611 11440
L10414 11440
" />
<path d="M10611 11046
L10611 11440
" />
<path d="M10414 11046
L10611 11046
" />
<path d="M10414 11440
L10414 11046
" />
<path d="M10326 11144
L10326 11341
" />
<path d="M10700 11341
L10700 11144
" />
<path d="M16800 6377
L16800 6180
" />
<path d="M17194 6377
L16800 6377
" />
<path d="M17194 6180
L17194 6377
" />
<path d="M16800 6180
L17194 6180
" />
<path d="M17095 6091
L16898 6091
" />
<path d="M16898 6465
L17095 6465
" />
<path d="M9942 13388
L9745 13388
" />
<path d="M9942 12995
L9942 13388
" />
<path d="M9745 12995
L9942 12995
" />
<path d="M9745 13388
L9745 12995
" />
<path d="M9656 13093
L9656 13290
" />
<path d="M10030 13290
L10030 13093
" />
<path d="M16793 9924
L16596 9924
" />
<path d="M16793 9530
L16793 9924
" />
<path d="M16596 9530
L16793 9530
" />
<path d="M16596 9924
L16596 9530
" />
<path d="M16507 9629
L16507 9825
" />
<path d="M16881 9825
L16881 9629
" />
<path d="M12520 5751
L12717 5751
" />
<path d="M12520 6144
L12520 5751
" />
<path d="M12717 6144
L12520 6144
" />
<path d="M12717 5751
L12717 6144
" />
<path d="M12806 6046
L12806 5849
" />
<path d="M12432 5849
L12432 6046
" />
<path d="M11989 7266
L11989 7070
" />
<path d="M12383 7266
L11989 7266
" />
<path d="M12383 7070
L12383 7266
" />
<path d="M11989 7070
L12383 7070
" />
<path d="M12284 6981
L12087 6981
" />
<path d="M12087 7355
L12284 7355
" />
<path d="M16784 8026
L16587 8026
" />
<path d="M16784 7633
L16784 8026
" />
<path d="M16587 7633
L16784 7633
" />
<path d="M16587 8026
L16587 7633
" />
<path d="M16499 7731
L16499 7928
" />
<path d="M16873 7928
L16873 7731
" />
<path d="M15217 7070
L15217 7266
" />
<path d="M14824 7070
L15217 7070
" />
<path d="M14824 7266
L14824 7070
" />
<path d="M15217 7266
L14824 7266
" />
<path d="M14922 7355
L15119 7355
" />
<path d="M15119 6981
L14922 6981
" />
<path d="M18591 4900
L18788 4900
" />
<path d="M18591 5294
L18591 4900
" />
<path d="M18788 5294
L18591 5294
" />
<path d="M18788 4900
L18788 5294
" />
<path d="M18877 5196
L18877 4999
" />
<path d="M18503 4999
L18503 5196
" />
<path d="M18465 9865
L18623 9865
" />
<path d="M18544 9826
L18465 9708
" />
<path d="M18623 9708
L18544 9826
" />
<path d="M18465 9708
L18623 9708
" />
<path d="M18702 9432
L18702 10062
" />
<path d="M18387 9432
L18702 9432
" />
<path d="M18387 10062
L18387 9432
" />
<path d="M18702 10062
L18387 10062
" />
<path d="M18761 10180
L18761 9432
" />
<path d="M18327 10180
L18327 9432
" />
<path d="M18544 9826
L18544 9649
" />
<path d="M18446 9845
L18642 9845
" />
<path d="M18544 9845
L18446 9747
" />
<path d="M18446 9747
L18642 9747
" />
<path d="M18642 9747
L18544 9845
" />
<path d="M12176 6007
L11684 6007
" />
<path d="M12176 5219
L12176 6007
" />
<path d="M11684 5219
L12176 5219
" />
<path d="M11684 6007
L11684 5219
" />
<path d="M11595 5416
L11595 5810
" />
<path d="M12264 5810
L12264 5416
" />
<path d="M9351 3575
L9351 3379
" />
<path d="M8938 3379
L8938 3575
" />
<path d="M10796 4754
L10993 4754
" />
<path d="M10993 4340
L10796 4340
" />
<path d="M11733 13615
L11930 13615
" />
<path d="M11930 13201
L11733 13201
" />
<path d="M14891 5357
L15088 5357
" />
<path d="M15088 4944
L14891 4944
" />
<path d="M14902 4776
L15099 4776
" />
<path d="M15099 4363
L14902 4363
" />
<path d="M7117 4268
L6920 4268
" />
<path d="M6920 4682
L7117 4682
" />
<path d="M14883 4127
L15079 4127
" />
<path d="M15079 3713
L14883 3713
" />
<path d="M17629 9707
L17629 9904
" />
<path d="M18042 9904
L18042 9707
" />
<path d="M10759 12325
L10759 12129
" />
<path d="M10345 12129
L10345 12325
" />
<path d="M16713 12552
L16910 12552
" />
<path d="M16910 12138
L16713 12138
" />
<path d="M16713 11981
L16910 11981
" />
<path d="M16910 11568
L16713 11568
" />
<path d="M10306 7581
L10306 7384
" />
<path d="M9892 7384
L9892 7581
" />
<path d="M10847 7581
L10847 7384
" />
<path d="M10434 7384
L10434 7581
" />
<path d="M16556 5386
L16359 5386
" />
<path d="M16359 5800
L16556 5800
" />
<path d="M13731 2237
L14518 2237
" />
<path d="M14518 2237
L14518 3418
" />
<path d="M14518 3418
L13337 3418
" />
<path d="M13337 3418
L13337 2631
" />
<path d="M13337 2631
L13731 2237
" />
<path d="M13268 2168
L13268 2237
" />
<path d="M14587 2168
L14587 2266
" />
<path d="M14587 3487
L14587 3388
" />
<path d="M13268 3487
L13268 3388
" />
<path d="M13268 2168
L14587 2168
" />
<path d="M13268 3487
L14587 3487
" />
<path d="M13268 2237
L12776 2237
" />
<path d="M10485 12837
L10485 13637
" />
<path d="M10485 13637
L10985 13637
" />
<path d="M10985 13637
L10985 12837
" />
<path d="M10985 12837
L10485 12837
" />
<path d="M11763 6690
L10963 6690
" />
<path d="M10963 6690
L10963 7190
" />
<path d="M10963 7190
L11763 7190
" />
<path d="M11763 7190
L11763 6690
" />
<path d="M9233 13192
L9233 13251
" />
<path d="M9312 13192
L9233 13073
" />
<path d="M9154 13192
L9312 13192
" />
<path d="M9233 13073
L9154 13192
" />
<path d="M9233 13073
L9233 13014
" />
<path d="M9154 13073
L9312 13073
" />
<path d="M9390 13388
L9076 13388
" />
<path d="M9390 12916
L9390 13388
" />
<path d="M9076 12916
L9390 12916
" />
<path d="M9076 13388
L9076 12916
" />
<path d="M9469 13388
L9469 12758
" />
<path d="M8997 13388
L8997 12758
" />
<path d="M16851 13113
L16851 13054
" />
<path d="M16772 13113
L16851 13231
" />
<path d="M16930 13113
L16772 13113
" />
<path d="M16851 13231
L16930 13113
" />
<path d="M16851 13231
L16851 13290
" />
<path d="M16930 13231
L16772 13231
" />
<path d="M16694 12916
L17009 12916
" />
<path d="M16694 13388
L16694 12916
" />
<path d="M17009 13388
L16694 13388
" />
<path d="M17009 12916
L17009 13388
" />
<path d="M16615 12916
L16615 13546
" />
<path d="M17087 12916
L17087 13546
" />
<path d="M9387 12160
L9387 12410
" />
<path d="M9387 12410
L9787 12410
" />
<path d="M9787 11710
L9387 11710
" />
<path d="M9387 11710
L9387 11960
" />
<path d="M9337 12160
L9387 12160
" />
<path d="M9387 11960
L9337 11960
" />
<path d="M9787 12410
L9787 11710
" />
<path d="M9337 11960
L9337 12160
" />
<path d="M11379 4125
L10237 4125
" />
<path d="M10237 4125
L10237 2196
" />
<path d="M10237 2196
L11772 2196
" />
<path d="M11772 2196
L11772 3731
" />
<path d="M11772 3731
L11379 4125
" />
<path d="M11822 4174
L11822 4154
" />
<path d="M10188 4174
L10188 4117
" />
<path d="M10188 2146
L10188 2203
" />
<path d="M11822 2146
L11822 2203
" />
<path d="M11822 4174
L10188 4174
" />
<path d="M11822 2146
L10188 2146
" />
<path d="M11822 4154
L12373 4154
" />
</g>
<g style="fill:#C2C200; fill-opacity:0.0; 
stroke:#C2C200; stroke-width:80; stroke-opacity:1; 
stroke-linecap:round; stroke-linejoin:round;">
<path d="M10198 9412
L10198 9373
" />
<path d="M10198 9373
L10709 9373
" />
<path d="M10709 9373
L10709 9412
" />
<path d="M10709 10751
L10709 10810
" />
<path d="M10709 10810
L10198 10810
" />
<path d="M10198 10810
L10198 10751
" />
</g>
<g style="fill:#C2C200; fill-opacity:0.0; 
stroke:#C2C200; stroke-width:39.3701; stroke-opacity:1; 
stroke-linecap:round; stroke-linejoin:round;">
<path d="M13052 5573
L13839 5573
" />
<path d="M13839 5573
L14036 5770
" />
<path d="M14036 5770
L14036 6755
" />
<path d="M13052 5573
L13052 6755
" />
<path d="M14036 6755
L13052 6755
" />
<circle cx="17520.9" cy="5298.37" r="44.0169" /> 
<path d="M17324 5514
L17324 5337
" />
<path d="M17501 5514
L17324 5514
" />
<path d="M17501 5514
L18111 5514
" />
<path d="M17324 5337
L17501 5514
" />
<path d="M17324 4530
L17324 5337
" />
<path d="M18111 4530
L18111 5514
" />
<path d="M18111 4530
L17324 4530
" />
<path d="M12581 5062
L12778 5062
" />
<path d="M12581 4865
L12581 5062
" />
<path d="M12778 5062
L13368 5062
" />
<path d="M12581 4865
L12778 5062
" />
<path d="M12581 4471
L12581 4865
" />
<path d="M12581 4471
L13368 4471
" />
<path d="M13368 5062
L13368 4471
" />
<path d="M17353 7266
L17235 7266
" />
<path d="M17353 7148
L17353 7266
" />
<path d="M17353 7148
L17353 6636
" />
<path d="M17235 7266
L17353 7148
" />
<path d="M16723 7266
L17235 7266
" />
<path d="M16723 6636
L16723 7266
" />
<path d="M17353 6636
L16723 6636
" />
<path d="M17127 10534
L17127 10652
" />
<path d="M17009 10534
L17127 10534
" />
<path d="M17009 10534
L16497 10534
" />
<path d="M17127 10652
L17009 10534
" />
<path d="M17127 11164
L17127 10652
" />
<path d="M16497 11164
L17127 11164
" />
<path d="M16497 10534
L16497 11164
" />
</g>
<g style="fill:#C2C200; fill-opacity:0.0; 
stroke:#C2C200; stroke-width:59.0551; stroke-opacity:1; 
stroke-linecap:round; stroke-linejoin:round;">
<path d="M11930 8073
L15473 8073
" />
<path d="M15473 8073
L15473 12011
" />
<path d="M15473 12011
L11536 12011
" />
<path d="M11536 12011
L11536 8467
" />
<path d="M11536 8467
L11930 8073
" />
</g>
<g style="fill:#C2C200; fill-opacity:0.0; 
stroke:#C2C200; stroke-width:39.3701; stroke-opacity:1; 
stroke-linecap:round; stroke-linejoin:round;">
<path d="M14666 6046
L14784 5967
" />
<path d="M14784 5967
L15453 5967
" />
<path d="M15453 5967
L15453 6755
" />
<path d="M15453 6755
L14666 6755
" />
<path d="M14666 6755
L14666 6046
" />
</g>
<g style="fill:#C2C200; fill-opacity:0.0; 
stroke:#C2C200; stroke-width:27.5591; stroke-opacity:1; 
stroke-linecap:round; stroke-linejoin:round;">
<path d="M12717 13279
L12639 13166
" />
<path d="M12582 13279
L12582 13043
L12672 13043
L12695 13054
L12706 13065
L12717 13088
L12717 13121
L12706 13144
L12695 13155
L12672 13166
L12582 13166
" />
<path d="M12818 13279
L12818 13043
L12908 13043
L12931 13054
L12942 13065
L12953 13088
L12953 13121
L12942 13144
L12931 13155
L12908 13166
L12818 13166
" />
<path d="M13178 13279
L13043 13279
" />
<path d="M13111 13279
L13111 13043
L13088 13076
L13066 13099
L13043 13110
" />
<path d="M13839 13279
L13761 13166
" />
<path d="M13704 13279
L13704 13043
L13794 13043
L13817 13054
L13828 13065
L13839 13088
L13839 13121
L13828 13144
L13817 13155
L13794 13166
L13704 13166
" />
<path d="M13941 13279
L13941 13043
L14031 13043
L14053 13054
L14064 13065
L14076 13088
L14076 13121
L14064 13144
L14053 13155
L14031 13166
L13941 13166
" />
<path d="M14166 13065
L14177 13054
L14199 13043
L14255 13043
L14278 13054
L14289 13065
L14300 13088
L14300 13110
L14289 13144
L14154 13279
L14300 13279
" />
<path d="M9488 8989
L9375 9068
" />
<path d="M9488 9124
L9251 9124
L9251 9034
L9263 9011
L9274 9000
L9296 8989
L9330 8989
L9353 9000
L9364 9011
L9375 9034
L9375 9124
" />
<path d="M9488 8888
L9251 8888
L9251 8798
L9263 8775
L9274 8764
L9296 8753
L9330 8753
L9353 8764
L9364 8775
L9375 8798
L9375 8888
" />
<path d="M9251 8674
L9251 8528
L9341 8606
L9341 8573
L9353 8550
L9364 8539
L9386 8528
L9443 8528
L9465 8539
L9476 8550
L9488 8573
L9488 8640
L9476 8663
L9465 8674
" />
<path d="M9458 7749
L9345 7827
" />
<path d="M9458 7884
L9222 7884
L9222 7794
L9233 7771
L9244 7760
L9267 7749
L9300 7749
L9323 7760
L9334 7771
L9345 7794
L9345 7884
" />
<path d="M9458 7647
L9222 7647
L9222 7557
L9233 7535
L9244 7524
L9267 7512
L9300 7512
L9323 7524
L9334 7535
L9345 7557
L9345 7647
" />
<path d="M9300 7310
L9458 7310
" />
<path d="M9211 7366
L9379 7422
L9379 7276
" />
<path d="M8374 5441
L8374 5568
L8382 5583
L8389 5591
L8404 5598
L8434 5598
L8449 5591
L8457 5583
L8464 5568
L8464 5441
" />
<path d="M8524 5441
L8629 5441
L8562 5598
" />
</g>
<g style="fill:#C2C200; fill-opacity:0.0; 
stroke:#C2C200; stroke-width:29.5276; stroke-opacity:1; 
stroke-linecap:round; stroke-linejoin:round;">
<path d="M9210 5084
L9073 5067
L9073 5014
L9079 5002
L9086 4996
L9099 4991
L9118 4994
L9132 5002
L9138 5009
L9145 5023
L9145 5076
" />
<path d="M9210 4946
L9073 4929
" />
<path d="M9210 4881
L9073 4863
L9210 4802
L9073 4785
" />
<path d="M9210 4664
L9210 4743
" />
<path d="M9210 4703
L9073 4686
L9092 4702
L9105 4717
L9112 4730
" />
</g>
<g style="fill:#C2C200; fill-opacity:0.0; 
stroke:#C2C200; stroke-width:27.5591; stroke-opacity:1; 
stroke-linecap:round; stroke-linejoin:round;">
<path d="M10168 5511
L10168 5638
L10175 5653
L10183 5661
L10198 5668
L10228 5668
L10243 5661
L10250 5653
L10258 5638
L10258 5511
" />
<path d="M10415 5668
L10325 5668
" />
<path d="M10370 5668
L10370 5511
L10355 5533
L10340 5548
L10325 5556
" />
<path d="M10468 5511
L10565 5511
L10513 5571
L10535 5571
L10550 5578
L10558 5586
L10565 5601
L10565 5638
L10558 5653
L10550 5661
L10535 5668
L10490 5668
L10475 5661
L10468 5653
" />
<path d="M8155 9370
L7998 9370
L7998 9310
L8005 9295
L8013 9288
L8028 9280
L8050 9280
L8065 9288
L8073 9295
L8080 9310
L8080 9370
" />
<path d="M7998 9228
L7998 9123
L8155 9190
" />
<path d="M8844 2631
L8852 2639
L8859 2661
L8859 2676
L8852 2699
L8837 2714
L8822 2721
L8792 2729
L8769 2729
L8739 2721
L8724 2714
L8709 2699
L8702 2676
L8702 2661
L8709 2639
L8717 2631
" />
<path d="M8717 2571
L8709 2564
L8702 2549
L8702 2511
L8709 2496
L8717 2489
L8732 2481
L8747 2481
L8769 2489
L8859 2579
L8859 2481
" />
<path d="M16392 8828
L16399 8836
L16407 8858
L16407 8873
L16399 8896
L16384 8911
L16369 8918
L16339 8926
L16317 8926
L16287 8918
L16272 8911
L16257 8896
L16249 8873
L16249 8858
L16257 8836
L16264 8828
" />
<path d="M16249 8776
L16249 8678
L16309 8731
L16309 8708
L16317 8693
L16324 8686
L16339 8678
L16377 8678
L16392 8686
L16399 8693
L16407 8708
L16407 8753
L16399 8768
L16392 8776
" />
<path d="M14927 13568
L14935 13576
L14942 13598
L14942 13613
L14935 13636
L14920 13651
L14905 13658
L14875 13666
L14852 13666
L14822 13658
L14807 13651
L14792 13636
L14785 13613
L14785 13598
L14792 13576
L14800 13568
" />
<path d="M14785 13426
L14785 13501
L14860 13508
L14852 13501
L14845 13486
L14845 13448
L14852 13433
L14860 13426
L14875 13418
L14912 13418
L14927 13426
L14935 13433
L14942 13448
L14942 13486
L14935 13501
L14927 13508
" />
<path d="M6904 5393
L6896 5401
L6874 5408
L6859 5408
L6836 5401
L6821 5386
L6814 5371
L6806 5341
L6806 5318
L6814 5288
L6821 5273
L6836 5258
L6859 5251
L6874 5251
L6896 5258
L6904 5266
" />
<path d="M7039 5251
L7009 5251
L6994 5258
L6986 5266
L6971 5288
L6964 5318
L6964 5378
L6971 5393
L6979 5401
L6994 5408
L7024 5408
L7039 5401
L7046 5393
L7054 5378
L7054 5341
L7046 5326
L7039 5318
L7024 5311
L6994 5311
L6979 5318
L6971 5326
L6964 5341
" />
<path d="M10246 6523
L10239 6531
L10216 6538
L10201 6538
L10179 6531
L10164 6516
L10156 6501
L10149 6471
L10149 6448
L10156 6418
L10164 6403
L10179 6388
L10201 6381
L10216 6381
L10239 6388
L10246 6396
" />
<path d="M10299 6381
L10404 6381
L10336 6538
" />
<path d="M17313 9379
L17320 9387
L17328 9409
L17328 9424
L17320 9447
L17305 9462
L17290 9469
L17260 9477
L17238 9477
L17208 9469
L17193 9462
L17178 9447
L17170 9424
L17170 9409
L17178 9387
L17185 9379
" />
<path d="M17238 9289
L17230 9304
L17223 9312
L17208 9319
L17200 9319
L17185 9312
L17178 9304
L17170 9289
L17170 9259
L17178 9244
L17185 9237
L17200 9229
L17208 9229
L17223 9237
L17230 9244
L17238 9259
L17238 9289
L17245 9304
L17253 9312
L17268 9319
L17298 9319
L17313 9312
L17320 9304
L17328 9289
L17328 9259
L17320 9244
L17313 9237
L17298 9229
L17268 9229
L17253 9237
L17245 9244
L17238 9259
" />
<path d="M11718 4941
L11711 4948
L11688 4956
L11673 4956
L11651 4948
L11636 4933
L11628 4918
L11621 4888
L11621 4866
L11628 4836
L11636 4821
L11651 4806
L11673 4798
L11688 4798
L11711 4806
L11718 4813
" />
<path d="M11868 4956
L11778 4956
" />
<path d="M11823 4956
L11823 4798
L11808 4821
L11793 4836
L11778 4843
" />
<path d="M11928 4813
L11936 4806
L11951 4798
L11988 4798
L12003 4806
L12011 4813
L12018 4828
L12018 4843
L12011 4866
L11921 4956
L12018 4956
" />
<path d="M9703 4252
L9695 4259
L9673 4267
L9658 4267
L9635 4259
L9620 4244
L9613 4229
L9605 4199
L9605 4177
L9613 4147
L9620 4132
L9635 4117
L9658 4109
L9673 4109
L9695 4117
L9703 4124
" />
<path d="M9853 4267
L9763 4267
" />
<path d="M9808 4267
L9808 4109
L9793 4132
L9778 4147
L9763 4154
" />
<path d="M9905 4109
L10003 4109
L9950 4169
L9973 4169
L9988 4177
L9995 4184
L10003 4199
L10003 4237
L9995 4252
L9988 4259
L9973 4267
L9928 4267
L9913 4259
L9905 4252
" />
<path d="M14305 4224
L14297 4232
L14275 4239
L14260 4239
L14238 4232
L14223 4217
L14215 4202
L14208 4172
L14208 4149
L14215 4119
L14223 4104
L14238 4089
L14260 4082
L14275 4082
L14297 4089
L14305 4097
" />
<path d="M14455 4239
L14365 4239
" />
<path d="M14410 4239
L14410 4082
L14395 4104
L14380 4119
L14365 4127
" />
<path d="M14590 4134
L14590 4239
" />
<path d="M14552 4074
L14515 4187
L14612 4187
" />
<path d="M14498 4895
L14505 4903
L14513 4925
L14513 4940
L14505 4963
L14490 4978
L14475 4985
L14445 4993
L14423 4993
L14393 4985
L14378 4978
L14363 4963
L14355 4940
L14355 4925
L14363 4903
L14370 4895
" />
<path d="M14513 4745
L14513 4835
" />
<path d="M14513 4790
L14355 4790
L14378 4805
L14393 4820
L14400 4835
" />
<path d="M14355 4603
L14355 4678
L14430 4685
L14423 4678
L14415 4663
L14415 4625
L14423 4610
L14430 4603
L14445 4595
L14483 4595
L14498 4603
L14505 4610
L14513 4625
L14513 4663
L14505 4678
L14498 4685
" />
<path d="M12919 4291
L12912 4299
L12889 4306
L12874 4306
L12852 4299
L12837 4284
L12829 4269
L12822 4239
L12822 4216
L12829 4186
L12837 4171
L12852 4156
L12874 4149
L12889 4149
L12912 4156
L12919 4164
" />
<path d="M13069 4306
L12979 4306
" />
<path d="M13024 4306
L13024 4149
L13009 4171
L12994 4186
L12979 4194
" />
<path d="M13204 4149
L13174 4149
L13159 4156
L13152 4164
L13137 4186
L13129 4216
L13129 4276
L13137 4291
L13144 4299
L13159 4306
L13189 4306
L13204 4299
L13212 4291
L13219 4276
L13219 4239
L13212 4224
L13204 4216
L13189 4209
L13159 4209
L13144 4216
L13137 4224
L13129 4239
" />
<path d="M9872 8446
L9879 8454
L9887 8476
L9887 8491
L9879 8514
L9864 8529
L9849 8536
L9819 8544
L9797 8544
L9767 8536
L9752 8529
L9737 8514
L9729 8491
L9729 8476
L9737 8454
L9744 8446
" />
<path d="M9887 8296
L9887 8386
" />
<path d="M9887 8341
L9729 8341
L9752 8356
L9767 8371
L9774 8386
" />
<path d="M9797 8206
L9789 8221
L9782 8229
L9767 8236
L9759 8236
L9744 8229
L9737 8221
L9729 8206
L9729 8176
L9737 8161
L9744 8154
L9759 8146
L9767 8146
L9782 8154
L9789 8161
L9797 8176
L9797 8206
L9804 8221
L9812 8229
L9827 8236
L9857 8236
L9872 8229
L9879 8221
L9887 8206
L9887 8176
L9879 8161
L9872 8154
L9857 8146
L9827 8146
L9812 8154
L9804 8161
L9797 8176
" />
<path d="M11061 8501
L11068 8509
L11076 8531
L11076 8546
L11068 8569
L11053 8584
L11038 8591
L11008 8599
L10986 8599
L10956 8591
L10941 8584
L10926 8569
L10918 8546
L10918 8531
L10926 8509
L10933 8501
" />
<path d="M11076 8351
L11076 8441
" />
<path d="M11076 8396
L10918 8396
L10941 8411
L10956 8426
L10963 8441
" />
<path d="M11076 8276
L11076 8247
L11068 8232
L11061 8224
L11038 8209
L11008 8202
L10948 8202
L10933 8209
L10926 8217
L10918 8232
L10918 8261
L10926 8276
L10933 8284
L10948 8291
L10986 8291
L11001 8284
L11008 8276
L11016 8261
L11016 8232
L11008 8217
L11001 8209
L10986 8202
" />
<path d="M10935 9177
L10927 9184
L10905 9192
L10890 9192
L10867 9184
L10852 9169
L10845 9154
L10837 9124
L10837 9102
L10845 9072
L10852 9057
L10867 9042
L10890 9034
L10905 9034
L10927 9042
L10935 9049
" />
<path d="M10995 9049
L11002 9042
L11017 9034
L11055 9034
L11070 9042
L11077 9049
L11085 9064
L11085 9079
L11077 9102
L10987 9192
L11085 9192
" />
<path d="M11182 9034
L11197 9034
L11212 9042
L11220 9049
L11227 9064
L11235 9094
L11235 9132
L11227 9162
L11220 9177
L11212 9184
L11197 9192
L11182 9192
L11167 9184
L11160 9177
L11152 9162
L11145 9132
L11145 9094
L11152 9064
L11160 9049
L11167 9042
L11182 9034
" />
<path d="M15844 7579
L15837 7586
L15814 7594
L15799 7594
L15777 7586
L15762 7571
L15754 7556
L15747 7526
L15747 7504
L15754 7474
L15762 7459
L15777 7444
L15799 7436
L15814 7436
L15837 7444
L15844 7451
" />
<path d="M15904 7451
L15912 7444
L15927 7436
L15964 7436
L15979 7444
L15987 7451
L15994 7466
L15994 7481
L15987 7504
L15897 7594
L15994 7594
" />
<path d="M16129 7436
L16099 7436
L16084 7444
L16077 7451
L16062 7474
L16054 7504
L16054 7564
L16062 7579
L16069 7586
L16084 7594
L16114 7594
L16129 7586
L16137 7579
L16144 7564
L16144 7526
L16137 7511
L16129 7504
L16114 7496
L16084 7496
L16069 7504
L16062 7511
L16054 7526
" />
<path d="M15518 13793
L15525 13800
L15533 13823
L15533 13838
L15525 13860
L15510 13875
L15495 13883
L15465 13890
L15443 13890
L15413 13883
L15398 13875
L15383 13860
L15375 13838
L15375 13823
L15383 13800
L15390 13793
" />
<path d="M15390 13733
L15383 13725
L15375 13710
L15375 13673
L15383 13658
L15390 13650
L15405 13643
L15420 13643
L15443 13650
L15533 13740
L15533 13643
" />
<path d="M15375 13590
L15375 13485
L15533 13553
" />
<path d="M11762 12575
L11754 12582
L11732 12590
L11717 12590
L11694 12582
L11679 12567
L11672 12552
L11664 12522
L11664 12500
L11672 12470
L11679 12455
L11694 12440
L11717 12432
L11732 12432
L11754 12440
L11762 12447
" />
<path d="M11822 12447
L11829 12440
L11844 12432
L11882 12432
L11897 12440
L11904 12447
L11912 12462
L11912 12477
L11904 12500
L11814 12590
L11912 12590
" />
<path d="M11987 12590
L12017 12590
L12032 12582
L12039 12575
L12054 12552
L12062 12522
L12062 12462
L12054 12447
L12047 12440
L12032 12432
L12002 12432
L11987 12440
L11979 12447
L11972 12462
L11972 12500
L11979 12515
L11987 12522
L12002 12530
L12032 12530
L12047 12522
L12054 12515
L12062 12500
" />
<path d="M16273 13765
L16281 13773
L16288 13795
L16288 13810
L16281 13833
L16266 13848
L16251 13855
L16221 13863
L16199 13863
L16169 13855
L16154 13848
L16139 13833
L16131 13810
L16131 13795
L16139 13773
L16146 13765
" />
<path d="M16131 13713
L16131 13615
L16191 13668
L16191 13645
L16199 13630
L16206 13623
L16221 13615
L16258 13615
L16273 13623
L16281 13630
L16288 13645
L16288 13690
L16281 13705
L16273 13713
" />
<path d="M16288 13465
L16288 13555
" />
<path d="M16288 13510
L16131 13510
L16154 13525
L16169 13540
L16176 13555
" />
<path d="M16455 6525
L16462 6533
L16470 6555
L16470 6570
L16462 6593
L16447 6608
L16432 6615
L16402 6623
L16380 6623
L16350 6615
L16335 6608
L16320 6593
L16312 6570
L16312 6555
L16320 6533
L16327 6525
" />
<path d="M16312 6473
L16312 6375
L16372 6428
L16372 6405
L16380 6390
L16387 6383
L16402 6375
L16440 6375
L16455 6383
L16462 6390
L16470 6405
L16470 6450
L16462 6465
L16455 6473
" />
<path d="M16312 6323
L16312 6225
L16372 6278
L16372 6255
L16380 6240
L16387 6233
L16402 6225
L16440 6225
L16455 6233
L16462 6240
L16470 6255
L16470 6300
L16462 6315
L16455 6323
" />
<path d="M17699 7938
L17706 7946
L17714 7968
L17714 7983
L17706 8006
L17691 8021
L17676 8028
L17646 8036
L17624 8036
L17594 8028
L17579 8021
L17564 8006
L17556 7983
L17556 7968
L17564 7946
L17571 7938
" />
<path d="M17556 7886
L17556 7788
L17616 7841
L17616 7818
L17624 7803
L17631 7796
L17646 7788
L17684 7788
L17699 7796
L17706 7803
L17714 7818
L17714 7863
L17706 7878
L17699 7886
" />
<path d="M17609 7654
L17714 7654
" />
<path d="M17549 7691
L17661 7729
L17661 7631
" />
<path d="M10907 11360
L10915 11367
L10922 11390
L10922 11405
L10915 11427
L10900 11442
L10885 11450
L10855 11457
L10832 11457
L10802 11450
L10787 11442
L10772 11427
L10765 11405
L10765 11390
L10772 11367
L10780 11360
" />
<path d="M10765 11307
L10765 11210
L10825 11262
L10825 11240
L10832 11225
L10840 11217
L10855 11210
L10892 11210
L10907 11217
L10915 11225
L10922 11240
L10922 11285
L10915 11300
L10907 11307
" />
<path d="M10765 11067
L10765 11142
L10840 11150
L10832 11142
L10825 11127
L10825 11090
L10832 11075
L10840 11067
L10855 11060
L10892 11060
L10907 11067
L10915 11075
L10922 11090
L10922 11127
L10915 11142
L10907 11150
" />
<path d="M16903 6004
L16896 6011
L16873 6019
L16858 6019
L16836 6011
L16821 5996
L16813 5981
L16806 5951
L16806 5929
L16813 5899
L16821 5884
L16836 5869
L16858 5861
L16873 5861
L16896 5869
L16903 5876
" />
<path d="M16956 5861
L17053 5861
L17001 5921
L17023 5921
L17038 5929
L17046 5936
L17053 5951
L17053 5989
L17046 6004
L17038 6011
L17023 6019
L16978 6019
L16963 6011
L16956 6004
" />
<path d="M17188 5861
L17158 5861
L17143 5869
L17136 5876
L17121 5899
L17113 5929
L17113 5989
L17121 6004
L17128 6011
L17143 6019
L17173 6019
L17188 6011
L17196 6004
L17203 5989
L17203 5951
L17196 5936
L17188 5929
L17173 5921
L17143 5921
L17128 5929
L17121 5936
L17113 5951
" />
<path d="M9911 13942
L9919 13950
L9926 13972
L9926 13987
L9919 14010
L9904 14025
L9889 14032
L9859 14040
L9836 14040
L9806 14032
L9791 14025
L9776 14010
L9769 13987
L9769 13972
L9776 13950
L9784 13942
" />
<path d="M9769 13890
L9769 13792
L9829 13845
L9829 13822
L9836 13807
L9844 13800
L9859 13792
L9896 13792
L9911 13800
L9919 13807
L9926 13822
L9926 13867
L9919 13882
L9911 13890
" />
<path d="M9769 13740
L9769 13635
L9926 13702
" />
<path d="M16403 9848
L16411 9855
L16418 9878
L16418 9893
L16411 9915
L16396 9930
L16381 9938
L16351 9945
L16328 9945
L16298 9938
L16283 9930
L16268 9915
L16261 9893
L16261 9878
L16268 9855
L16276 9848
" />
<path d="M16261 9795
L16261 9698
L16321 9750
L16321 9728
L16328 9713
L16336 9705
L16351 9698
L16388 9698
L16403 9705
L16411 9713
L16418 9728
L16418 9773
L16411 9788
L16403 9795
" />
<path d="M16328 9608
L16321 9623
L16313 9630
L16298 9638
L16291 9638
L16276 9630
L16268 9623
L16261 9608
L16261 9578
L16268 9563
L16276 9555
L16291 9548
L16298 9548
L16313 9555
L16321 9563
L16328 9578
L16328 9608
L16336 9623
L16343 9630
L16358 9638
L16388 9638
L16403 9630
L16411 9623
L16418 9608
L16418 9578
L16411 9563
L16403 9555
L16388 9548
L16358 9548
L16343 9555
L16336 9563
L16328 9578
" />
<path d="M12699 6568
L12706 6576
L12714 6598
L12714 6613
L12706 6636
L12691 6651
L12676 6658
L12646 6666
L12624 6666
L12594 6658
L12579 6651
L12564 6636
L12556 6613
L12556 6598
L12564 6576
L12571 6568
" />
<path d="M12556 6516
L12556 6418
L12616 6471
L12616 6448
L12624 6433
L12631 6426
L12646 6418
L12684 6418
L12699 6426
L12706 6433
L12714 6448
L12714 6493
L12706 6508
L12699 6516
" />
<path d="M12714 6343
L12714 6313
L12706 6298
L12699 6291
L12676 6276
L12646 6268
L12586 6268
L12571 6276
L12564 6283
L12556 6298
L12556 6328
L12564 6343
L12571 6351
L12586 6358
L12624 6358
L12639 6351
L12646 6343
L12654 6328
L12654 6298
L12646 6283
L12639 6276
L12624 6268
" />
<path d="M12104 7563
L12097 7570
L12074 7578
L12059 7578
L12037 7570
L12022 7555
L12014 7540
L12007 7510
L12007 7488
L12014 7458
L12022 7443
L12037 7428
L12059 7420
L12074 7420
L12097 7428
L12104 7435
" />
<path d="M12239 7473
L12239 7578
" />
<path d="M12202 7413
L12164 7525
L12262 7525
" />
<path d="M12404 7578
L12314 7578
" />
<path d="M12359 7578
L12359 7420
L12344 7443
L12329 7458
L12314 7465
" />
<path d="M16407 7946
L16415 7954
L16422 7976
L16422 7991
L16415 8014
L16400 8029
L16385 8036
L16355 8044
L16332 8044
L16302 8036
L16287 8029
L16272 8014
L16265 7991
L16265 7976
L16272 7954
L16280 7946
" />
<path d="M16317 7811
L16422 7811
" />
<path d="M16257 7849
L16370 7886
L16370 7789
" />
<path d="M16265 7744
L16265 7646
L16325 7699
L16325 7676
L16332 7661
L16340 7654
L16355 7646
L16392 7646
L16407 7654
L16415 7661
L16422 7676
L16422 7721
L16415 7736
L16407 7744
" />
<path d="M14911 7567
L14904 7574
L14881 7582
L14866 7582
L14844 7574
L14829 7559
L14821 7544
L14814 7514
L14814 7492
L14821 7462
L14829 7447
L14844 7432
L14866 7424
L14881 7424
L14904 7432
L14911 7439
" />
<path d="M15046 7477
L15046 7582
" />
<path d="M15009 7417
L14971 7529
L15069 7529
" />
<path d="M15136 7582
L15166 7582
L15181 7574
L15189 7567
L15204 7544
L15211 7514
L15211 7454
L15204 7439
L15196 7432
L15181 7424
L15151 7424
L15136 7432
L15129 7439
L15121 7454
L15121 7492
L15129 7507
L15136 7514
L15151 7522
L15181 7522
L15196 7514
L15204 7507
L15211 7492
" />
<path d="M18754 5832
L18761 5840
L18769 5862
L18769 5877
L18761 5900
L18746 5915
L18731 5922
L18701 5930
L18679 5930
L18649 5922
L18634 5915
L18619 5900
L18611 5877
L18611 5862
L18619 5840
L18626 5832
" />
<path d="M18611 5690
L18611 5765
L18686 5772
L18679 5765
L18671 5750
L18671 5712
L18679 5697
L18686 5690
L18701 5682
L18739 5682
L18754 5690
L18761 5697
L18769 5712
L18769 5750
L18761 5765
L18754 5772
" />
<path d="M18611 5585
L18611 5570
L18619 5555
L18626 5547
L18641 5540
L18671 5532
L18709 5532
L18739 5540
L18754 5547
L18761 5555
L18769 5570
L18769 5585
L18761 5600
L18754 5607
L18739 5615
L18709 5622
L18671 5622
L18641 5615
L18626 5607
L18619 5600
L18611 5585
" />
<path d="M18647 9280
L18489 9280
L18489 9243
L18497 9220
L18512 9205
L18527 9198
L18557 9190
L18579 9190
L18609 9198
L18624 9205
L18639 9220
L18647 9243
L18647 9280
" />
<path d="M18647 9040
L18647 9130
" />
<path d="M18647 9085
L18489 9085
L18512 9100
L18527 9115
L18534 9130
" />
<path d="M9226 3493
L9151 3546
" />
<path d="M9226 3583
L9068 3583
L9068 3523
L9076 3508
L9083 3501
L9098 3493
L9121 3493
L9136 3501
L9143 3508
L9151 3523
L9151 3583
" />
<path d="M9083 3433
L9076 3426
L9068 3411
L9068 3373
L9076 3358
L9083 3351
L9098 3343
L9113 3343
L9136 3351
L9226 3441
L9226 3343
" />
<path d="M10896 4637
L10843 4562
" />
<path d="M10806 4637
L10806 4479
L10866 4479
L10881 4487
L10888 4494
L10896 4509
L10896 4532
L10888 4547
L10881 4554
L10866 4562
L10806 4562
" />
<path d="M11038 4479
L10963 4479
L10956 4554
L10963 4547
L10978 4539
L11016 4539
L11031 4547
L11038 4554
L11046 4569
L11046 4607
L11038 4622
L11031 4629
L11016 4637
L10978 4637
L10963 4629
L10956 4622
" />
<path d="M11797 13491
L11745 13416
" />
<path d="M11707 13491
L11707 13334
L11767 13334
L11782 13341
L11790 13349
L11797 13364
L11797 13386
L11790 13401
L11782 13409
L11767 13416
L11707 13416
" />
<path d="M11932 13334
L11902 13334
L11887 13341
L11880 13349
L11865 13371
L11857 13401
L11857 13461
L11865 13476
L11872 13484
L11887 13491
L11917 13491
L11932 13484
L11940 13476
L11947 13461
L11947 13424
L11940 13409
L11932 13401
L11917 13394
L11887 13394
L11872 13401
L11865 13409
L11857 13424
" />
<path d="M14955 5227
L14902 5152
" />
<path d="M14865 5227
L14865 5070
L14925 5070
L14940 5077
L14947 5085
L14955 5100
L14955 5122
L14947 5137
L14940 5145
L14925 5152
L14865 5152
" />
<path d="M15030 5227
L15060 5227
L15075 5220
L15082 5212
L15097 5190
L15105 5160
L15105 5100
L15097 5085
L15090 5077
L15075 5070
L15045 5070
L15030 5077
L15022 5085
L15015 5100
L15015 5137
L15022 5152
L15030 5160
L15045 5167
L15075 5167
L15090 5160
L15097 5152
L15105 5137
" />
<path d="M14911 4645
L14859 4570
" />
<path d="M14821 4645
L14821 4487
L14881 4487
L14896 4495
L14904 4502
L14911 4517
L14911 4540
L14904 4555
L14896 4562
L14881 4570
L14821 4570
" />
<path d="M15061 4645
L14971 4645
" />
<path d="M15016 4645
L15016 4487
L15001 4510
L14986 4525
L14971 4532
" />
<path d="M15159 4487
L15174 4487
L15189 4495
L15196 4502
L15204 4517
L15211 4547
L15211 4585
L15204 4615
L15196 4630
L15189 4637
L15174 4645
L15159 4645
L15144 4637
L15136 4630
L15129 4615
L15121 4585
L15121 4547
L15129 4517
L15136 4502
L15144 4495
L15159 4487
" />
<path d="M6892 4570
L6839 4495
" />
<path d="M6802 4570
L6802 4412
L6862 4412
L6877 4420
L6884 4427
L6892 4442
L6892 4465
L6884 4480
L6877 4487
L6862 4495
L6802 4495
" />
<path d="M7042 4570
L6952 4570
" />
<path d="M6997 4570
L6997 4412
L6982 4435
L6967 4450
L6952 4457
" />
<path d="M7192 4570
L7102 4570
" />
<path d="M7147 4570
L7147 4412
L7132 4435
L7117 4450
L7102 4457
" />
<path d="M14880 4007
L14827 3932
" />
<path d="M14790 4007
L14790 3849
L14850 3849
L14865 3857
L14872 3864
L14880 3879
L14880 3902
L14872 3917
L14865 3924
L14850 3932
L14790 3932
" />
<path d="M15030 4007
L14940 4007
" />
<path d="M14985 4007
L14985 3849
L14970 3872
L14955 3887
L14940 3894
" />
<path d="M15090 3864
L15097 3857
L15112 3849
L15150 3849
L15165 3857
L15172 3864
L15180 3879
L15180 3894
L15172 3917
L15082 4007
L15180 4007
" />
<path d="M17911 9919
L17836 9971
" />
<path d="M17911 10009
L17753 10009
L17753 9949
L17761 9934
L17768 9926
L17783 9919
L17806 9919
L17821 9926
L17828 9934
L17836 9949
L17836 10009
" />
<path d="M17911 9769
L17911 9859
" />
<path d="M17911 9814
L17753 9814
L17776 9829
L17791 9844
L17798 9859
" />
<path d="M17753 9716
L17753 9619
L17813 9671
L17813 9649
L17821 9634
L17828 9626
L17843 9619
L17881 9619
L17896 9626
L17903 9634
L17911 9649
L17911 9694
L17903 9709
L17896 9716
" />
<path d="M10635 12320
L10560 12373
" />
<path d="M10635 12410
L10477 12410
L10477 12350
L10485 12335
L10492 12328
L10507 12320
L10530 12320
L10545 12328
L10552 12335
L10560 12350
L10560 12410
" />
<path d="M10635 12170
L10635 12260
" />
<path d="M10635 12215
L10477 12215
L10500 12230
L10515 12245
L10522 12260
" />
<path d="M10530 12035
L10635 12035
" />
<path d="M10470 12073
L10582 12110
L10582 12013
" />
<path d="M16711 12393
L16658 12318
" />
<path d="M16621 12393
L16621 12235
L16681 12235
L16696 12243
L16703 12250
L16711 12265
L16711 12288
L16703 12303
L16696 12310
L16681 12318
L16621 12318
" />
<path d="M16860 12393
L16770 12393
" />
<path d="M16815 12393
L16815 12235
L16800 12258
L16785 12273
L16770 12280
" />
<path d="M16995 12235
L16965 12235
L16950 12243
L16943 12250
L16928 12273
L16920 12303
L16920 12363
L16928 12378
L16935 12385
L16950 12393
L16980 12393
L16995 12385
L17003 12378
L17010 12363
L17010 12325
L17003 12310
L16995 12303
L16980 12295
L16950 12295
L16935 12303
L16928 12310
L16920 12325
" />
<path d="M16722 11849
L16670 11774
" />
<path d="M16632 11849
L16632 11692
L16692 11692
L16707 11699
L16715 11707
L16722 11722
L16722 11744
L16715 11759
L16707 11767
L16692 11774
L16632 11774
" />
<path d="M16872 11849
L16782 11849
" />
<path d="M16827 11849
L16827 11692
L16812 11714
L16797 11729
L16782 11737
" />
<path d="M16925 11692
L17030 11692
L16962 11849
" />
<path d="M10186 7572
L10111 7625
" />
<path d="M10186 7662
L10029 7662
L10029 7602
L10036 7587
L10044 7580
L10059 7572
L10081 7572
L10096 7580
L10104 7587
L10111 7602
L10111 7662
" />
<path d="M10186 7422
L10186 7512
" />
<path d="M10186 7467
L10029 7467
L10051 7482
L10066 7497
L10074 7512
" />
<path d="M10096 7332
L10089 7347
L10081 7355
L10066 7362
L10059 7362
L10044 7355
L10036 7347
L10029 7332
L10029 7302
L10036 7287
L10044 7280
L10059 7272
L10066 7272
L10081 7280
L10089 7287
L10096 7302
L10096 7332
L10104 7347
L10111 7355
L10126 7362
L10156 7362
L10171 7355
L10179 7347
L10186 7332
L10186 7302
L10179 7287
L10171 7280
L10156 7272
L10126 7272
L10111 7280
L10104 7287
L10096 7302
" />
<path d="M10698 7592
L10623 7645
" />
<path d="M10698 7682
L10540 7682
L10540 7622
L10548 7607
L10555 7600
L10570 7592
L10593 7592
L10608 7600
L10615 7607
L10623 7622
L10623 7682
" />
<path d="M10698 7442
L10698 7532
" />
<path d="M10698 7487
L10540 7487
L10563 7502
L10578 7517
L10585 7532
" />
<path d="M10698 7367
L10698 7337
L10690 7322
L10683 7315
L10660 7300
L10630 7292
L10570 7292
L10555 7300
L10548 7307
L10540 7322
L10540 7352
L10548 7367
L10555 7375
L10570 7382
L10608 7382
L10623 7375
L10630 7367
L10638 7352
L10638 7322
L10630 7307
L10623 7300
L10608 7292
" />
<path d="M16356 5664
L16304 5589
" />
<path d="M16266 5664
L16266 5507
L16326 5507
L16341 5514
L16349 5522
L16356 5537
L16356 5559
L16349 5574
L16341 5582
L16326 5589
L16266 5589
" />
<path d="M16416 5522
L16424 5514
L16439 5507
L16476 5507
L16491 5514
L16499 5522
L16506 5537
L16506 5552
L16499 5574
L16409 5664
L16506 5664
" />
<path d="M16566 5522
L16574 5514
L16589 5507
L16626 5507
L16641 5514
L16649 5522
L16656 5537
L16656 5552
L16649 5574
L16559 5664
L16656 5664
" />
<path d="M13739 2771
L13739 2898
L13747 2913
L13754 2921
L13769 2928
L13799 2928
L13814 2921
L13821 2913
L13829 2898
L13829 2771
" />
<path d="M13889 2771
L13986 2771
L13934 2831
L13956 2831
L13971 2838
L13979 2846
L13986 2861
L13986 2898
L13979 2913
L13971 2921
L13956 2928
L13911 2928
L13896 2921
L13889 2913
" />
<path d="M10649 13357
L10777 13357
L10792 13349
L10799 13342
L10807 13327
L10807 13297
L10799 13282
L10792 13274
L10777 13267
L10649 13267
" />
<path d="M10702 13124
L10807 13124
" />
<path d="M10642 13162
L10754 13199
L10754 13102
" />
<path d="M11243 6853
L11243 6981
L11250 6996
L11258 7003
L11273 7011
L11303 7011
L11318 7003
L11325 6996
L11333 6981
L11333 6853
" />
<path d="M11475 6853
L11445 6853
L11430 6861
L11423 6868
L11408 6891
L11400 6921
L11400 6981
L11408 6996
L11415 7003
L11430 7011
L11460 7011
L11475 7003
L11483 6996
L11490 6981
L11490 6943
L11483 6928
L11475 6921
L11460 6913
L11430 6913
L11415 6921
L11408 6928
L11400 6943
" />
<path d="M9308 13957
L9151 13957
L9151 13920
L9158 13897
L9173 13882
L9188 13875
L9218 13867
L9241 13867
L9271 13875
L9286 13882
L9301 13897
L9308 13920
L9308 13957
" />
<path d="M9151 13815
L9151 13717
L9211 13770
L9211 13747
L9218 13732
L9226 13725
L9241 13717
L9278 13717
L9293 13725
L9301 13732
L9308 13747
L9308 13792
L9301 13807
L9293 13815
" />
<path d="M16958 13934
L16800 13934
L16800 13896
L16808 13874
L16823 13859
L16838 13851
L16868 13844
L16890 13844
L16920 13851
L16935 13859
L16950 13874
L16958 13896
L16958 13934
" />
<path d="M16815 13784
L16808 13776
L16800 13761
L16800 13724
L16808 13709
L16815 13701
L16830 13694
L16845 13694
L16868 13701
L16958 13791
L16958 13694
" />
<path d="M9674 12081
L9666 12096
L9651 12111
L9629 12133
L9621 12148
L9621 12163
" />
<path d="M9659 12156
L9651 12171
L9636 12186
L9606 12193
L9554 12193
L9524 12186
L9509 12171
L9501 12156
L9501 12126
L9509 12111
L9524 12096
L9554 12088
L9606 12088
L9636 12096
L9651 12111
L9659 12126
L9659 12156
" />
<path d="M9659 11938
L9659 12028
" />
<path d="M9659 11983
L9501 11983
L9524 11998
L9539 12013
L9546 12028
" />
<path d="M10920 3015
L10920 3142
L10928 3157
L10935 3165
L10950 3172
L10980 3172
L10995 3165
L11003 3157
L11010 3142
L11010 3015
" />
<path d="M11078 3030
L11085 3022
L11100 3015
L11138 3015
L11153 3022
L11160 3030
L11168 3045
L11168 3060
L11160 3082
L11070 3172
L11168 3172
" />
<path d="M10371 10189
L10529 10084
" />
<path d="M10371 10084
L10529 10189
" />
<path d="M10529 9942
L10529 10032
" />
<path d="M10529 9987
L10371 9987
L10394 10002
L10409 10017
L10416 10032
" />
<path d="M11999 15427
L11999 15270
L12059 15270
L12074 15277
L12082 15285
L12089 15300
L12089 15322
L12082 15337
L12074 15345
L12059 15352
L11999 15352
" />
<path d="M12142 15270
L12239 15270
L12187 15330
L12209 15330
L12224 15337
L12232 15345
L12239 15360
L12239 15397
L12232 15412
L12224 15420
L12209 15427
L12164 15427
L12149 15420
L12142 15412
" />
<path d="M11999 14427
L11999 14270
L12059 14270
L12074 14277
L12082 14285
L12089 14300
L12089 14322
L12082 14337
L12074 14345
L12059 14352
L11999 14352
" />
<path d="M12224 14322
L12224 14427
" />
<path d="M12187 14262
L12149 14375
L12247 14375
" />
<path d="M8251 3116
L8094 3116
L8094 3056
L8101 3041
L8109 3033
L8124 3026
L8146 3026
L8161 3033
L8169 3041
L8176 3056
L8176 3116
" />
<path d="M8109 2966
L8101 2958
L8094 2943
L8094 2906
L8101 2891
L8109 2883
L8124 2876
L8139 2876
L8161 2883
L8251 2973
L8251 2876
" />
<path d="M8230 13071
L8073 13071
L8073 13011
L8080 12996
L8088 12988
L8103 12981
L8125 12981
L8140 12988
L8148 12996
L8155 13011
L8155 13071
" />
<path d="M8140 12891
L8133 12906
L8125 12913
L8110 12921
L8103 12921
L8088 12913
L8080 12906
L8073 12891
L8073 12861
L8080 12846
L8088 12838
L8103 12831
L8110 12831
L8125 12838
L8133 12846
L8140 12861
L8140 12891
L8148 12906
L8155 12913
L8170 12921
L8200 12921
L8215 12913
L8223 12906
L8230 12891
L8230 12861
L8223 12846
L8215 12838
L8200 12831
L8170 12831
L8155 12838
L8148 12846
L8140 12861
" />
<path d="M6780 6671
L6623 6671
L6623 6611
L6630 6596
L6638 6588
L6653 6581
L6675 6581
L6690 6588
L6698 6596
L6705 6611
L6705 6671
" />
<path d="M6780 6431
L6780 6521
" />
<path d="M6780 6476
L6623 6476
L6645 6491
L6660 6506
L6668 6521
" />
<path d="M6638 6371
L6630 6363
L6623 6348
L6623 6311
L6630 6296
L6638 6288
L6653 6281
L6668 6281
L6690 6288
L6780 6378
L6780 6281
" />
<path d="M18462 7594
L18304 7594
L18304 7534
L18312 7519
L18319 7512
L18334 7504
L18357 7504
L18372 7512
L18379 7519
L18387 7534
L18387 7594
" />
<path d="M18462 7354
L18462 7444
" />
<path d="M18462 7399
L18304 7399
L18327 7414
L18342 7429
L18349 7444
" />
<path d="M5737 6119
L5579 6119
L5579 6059
L5587 6044
L5594 6037
L5609 6029
L5632 6029
L5647 6037
L5654 6044
L5662 6059
L5662 6119
" />
<path d="M5579 5887
L5579 5962
L5654 5969
L5647 5962
L5639 5947
L5639 5909
L5647 5894
L5654 5887
L5669 5879
L5707 5879
L5722 5887
L5729 5894
L5737 5909
L5737 5947
L5729 5962
L5722 5969
" />
<path d="M16294 3642
L16137 3642
L16137 3582
L16144 3567
L16152 3560
L16167 3552
L16189 3552
L16204 3560
L16212 3567
L16219 3582
L16219 3642
" />
<path d="M16137 3417
L16137 3447
L16144 3462
L16152 3470
L16174 3485
L16204 3492
L16264 3492
L16279 3485
L16287 3477
L16294 3462
L16294 3432
L16287 3417
L16279 3410
L16264 3402
L16227 3402
L16212 3410
L16204 3417
L16197 3432
L16197 3462
L16204 3477
L16212 3485
L16227 3492
" />
<path d="M5753 10592
L5595 10592
L5595 10532
L5603 10517
L5610 10510
L5625 10502
L5648 10502
L5663 10510
L5670 10517
L5678 10532
L5678 10592
" />
<path d="M5753 10352
L5753 10442
" />
<path d="M5753 10397
L5595 10397
L5618 10412
L5633 10427
L5640 10442
" />
<path d="M5595 10255
L5595 10240
L5603 10225
L5610 10217
L5625 10210
L5655 10202
L5693 10202
L5723 10210
L5738 10217
L5745 10225
L5753 10240
L5753 10255
L5745 10270
L5738 10277
L5723 10285
L5693 10292
L5655 10292
L5625 10285
L5610 10277
L5603 10270
L5595 10255
" />
<path d="M6753 10517
L6595 10517
L6595 10457
L6603 10442
L6610 10435
L6625 10427
L6648 10427
L6663 10435
L6670 10442
L6678 10457
L6678 10517
" />
<path d="M6753 10352
L6753 10322
L6745 10307
L6738 10300
L6715 10285
L6685 10277
L6625 10277
L6610 10285
L6603 10292
L6595 10307
L6595 10337
L6603 10352
L6610 10360
L6625 10367
L6663 10367
L6678 10360
L6685 10352
L6693 10337
L6693 10307
L6685 10292
L6678 10285
L6663 10277
" />
<path d="M13458 6359
L13585 6359
L13600 6351
L13608 6344
L13615 6329
L13615 6299
L13608 6284
L13600 6276
L13585 6269
L13458 6269
" />
<path d="M13615 6112
L13615 6202
" />
<path d="M13615 6157
L13458 6157
L13480 6172
L13495 6187
L13503 6202
" />
<path d="M13473 6052
L13465 6044
L13458 6029
L13458 5992
L13465 5977
L13473 5969
L13488 5962
L13503 5962
L13525 5969
L13615 6059
L13615 5962
" />
<path d="M17631 5217
L17758 5217
L17773 5210
L17781 5202
L17788 5187
L17788 5157
L17781 5142
L17773 5135
L17758 5127
L17631 5127
" />
<path d="M17788 4970
L17788 5060
" />
<path d="M17788 5015
L17631 5015
L17654 5030
L17669 5045
L17676 5060
" />
<path d="M17631 4872
L17631 4857
L17639 4842
L17646 4835
L17661 4827
L17691 4820
L17729 4820
L17758 4827
L17773 4835
L17781 4842
L17788 4857
L17788 4872
L17781 4887
L17773 4895
L17758 4902
L17729 4910
L17691 4910
L17661 4902
L17646 4895
L17639 4887
L17631 4872
" />
<path d="M12854 4680
L12854 4808
L12862 4823
L12869 4830
L12884 4838
L12914 4838
L12929 4830
L12937 4823
L12944 4808
L12944 4680
" />
<path d="M13094 4680
L13019 4680
L13012 4755
L13019 4748
L13034 4740
L13072 4740
L13087 4748
L13094 4755
L13102 4770
L13102 4808
L13094 4823
L13087 4830
L13072 4838
L13034 4838
L13019 4830
L13012 4823
" />
<path d="M16918 6865
L16918 6993
L16926 7008
L16933 7015
L16948 7023
L16978 7023
L16993 7015
L17001 7008
L17008 6993
L17008 6865
" />
<path d="M17091 7023
L17121 7023
L17136 7015
L17143 7008
L17158 6985
L17166 6955
L17166 6895
L17158 6880
L17151 6873
L17136 6865
L17106 6865
L17091 6873
L17083 6880
L17076 6895
L17076 6933
L17083 6948
L17091 6955
L17106 6963
L17136 6963
L17151 6955
L17158 6948
L17166 6933
" />
<path d="M16692 10763
L16692 10890
L16699 10905
L16707 10913
L16722 10920
L16752 10920
L16767 10913
L16774 10905
L16782 10890
L16782 10763
" />
<path d="M16879 10830
L16864 10823
L16857 10815
L16849 10800
L16849 10793
L16857 10778
L16864 10770
L16879 10763
L16909 10763
L16924 10770
L16932 10778
L16939 10793
L16939 10800
L16932 10815
L16924 10823
L16909 10830
L16879 10830
L16864 10838
L16857 10845
L16849 10860
L16849 10890
L16857 10905
L16864 10913
L16879 10920
L16909 10920
L16924 10913
L16932 10905
L16939 10890
L16939 10860
L16932 10845
L16924 10838
L16909 10830
" />
</g>
<g style="fill:#C2C200; fill-opacity:0.0; 
stroke:#C2C200; stroke-width:59.0551; stroke-opacity:1; 
stroke-linecap:round; stroke-linejoin:round;">
<path d="M13205 9826
L13205 10145
L13223 10183
L13242 10201
L13280 10220
L13355 10220
L13392 10201
L13411 10183
L13430 10145
L13430 9826
" />
<path d="M13823 10220
L13598 10220
" />
<path d="M13711 10220
L13711 9826
L13673 9883
L13636 9920
L13598 9939
" />
</g>
<g style="fill:#C2C200; fill-opacity:0.0; 
stroke:#C2C200; stroke-width:31.4961; stroke-opacity:1; 
stroke-linecap:round; stroke-linejoin:round;">
<path d="M18333 12166
L18137 12166
L18137 12091
L18146 12072
L18155 12063
L18174 12054
L18202 12054
L18221 12063
L18230 12072
L18240 12091
L18240 12166
" />
<path d="M18333 11866
L18333 11979
" />
<path d="M18333 11922
L18137 11922
L18165 11941
L18183 11960
L18193 11979
" />
<path d="M18333 11679
L18333 11791
" />
<path d="M18333 11735
L18137 11735
L18165 11754
L18183 11772
L18193 11791
" />
</g>
<g style="fill:#C2C200; fill-opacity:0.0; 
stroke:#C2C200; stroke-width:27.5591; stroke-opacity:1; 
stroke-linecap:round; stroke-linejoin:round;">
<path d="M14865 6275
L14865 6402
L14872 6417
L14880 6425
L14895 6432
L14925 6432
L14940 6425
L14947 6417
L14955 6402
L14955 6275
" />
<path d="M15112 6432
L15022 6432
" />
<path d="M15067 6432
L15067 6275
L15052 6297
L15037 6312
L15022 6320
" />
<path d="M15262 6432
L15172 6432
" />
<path d="M15217 6432
L15217 6275
L15202 6297
L15187 6312
L15172 6320
" />
<path d="M9556 10751
L9444 10829
" />
<path d="M9556 10886
L9320 10886
L9320 10796
L9331 10773
L9343 10762
L9365 10751
L9399 10751
L9421 10762
L9433 10773
L9444 10796
L9444 10886
" />
<path d="M9556 10649
L9320 10649
L9320 10559
L9331 10537
L9343 10526
L9365 10514
L9399 10514
L9421 10526
L9433 10537
L9444 10559
L9444 10649
" />
<path d="M9320 10301
L9320 10413
L9433 10424
L9421 10413
L9410 10391
L9410 10334
L9421 10312
L9433 10301
L9455 10289
L9511 10289
L9534 10301
L9545 10312
L9556 10334
L9556 10391
L9545 10413
L9534 10424
" />
</g>
<g style="fill:#000000; fill-opacity:0.0; 
stroke:#000000; stroke-width:27.5591; stroke-opacity:1; 
stroke-linecap:round; stroke-linejoin:round;">
</g>
<g style="fill:#C2C200; fill-opacity:0.0; 
stroke:#C2C200; stroke-width:27.5591; stroke-opacity:1; 
stroke-linecap:round; stroke-linejoin:round;">
</g>
<g style="fill:#C2C200; fill-opacity:0.0; 
stroke:#C2C200; stroke-width:59.0551; stroke-opacity:1; 
stroke-linecap:round; stroke-linejoin:round;">
<path d="M5847.68 1892.86 A787.402 787.402 0.0 0 0 5060.27 2680.26 " />
<path d="M5060.27 15278.7 A787.402 787.402 0.0 0 0 5847.68 16066.1 " />
<path d="M18446.1 16066.1 A787.402 787.402 0.0 0 0 19233.5 15278.7 " />
<path d="M19233.5 2680.26 A787.402 787.402 0.0 0 0 18446.1 1892.86 " />
<path d="M19233 2680
L19233 15278
" />
<path d="M5847 16066
L18446 16066
" />
<path d="M5060 2680
L5060 15278
" />
<path d="M5847 1892
L18446 1892
" />
</g> 
</svg>
